<svg width="346" height="346" viewBox="0 0 346 346" fill="none" xmlns="http://www.w3.org/2000/svg">
<path d="M164.416 30.5546C151.515 30.9145 141.341 40.7616 141.701 52.5464C142.095 66.2653 156.208 75.6869 170.356 72.6005L169.6 63.7049C169.436 62.2306 169.564 60.7383 169.976 59.3133C170.389 57.8885 171.078 56.5588 172.005 55.4004C172.931 54.242 174.078 53.2775 175.377 52.5621C176.676 51.8469 178.105 51.3947 179.579 51.2316L188.343 50.4773C187.622 39.0558 177.052 30.1931 164.416 30.5546Z" fill="#09AFF4"/>
<path fill-rule="evenodd" clip-rule="evenodd" d="M152.206 260.942L257.371 252.079C260.243 251.833 262.9 250.458 264.758 248.254C266.618 246.05 267.526 243.199 267.284 240.327L261.179 168.608C260.933 165.736 259.558 163.08 257.354 161.221C255.152 159.363 252.301 158.454 249.429 158.695L193.238 163.423C192.245 164.938 191.598 165.727 190.107 166.899C188.507 168.122 186.64 168.948 184.658 169.307C182.677 169.666 180.637 169.549 178.71 168.964C176.783 168.38 175.021 167.345 173.573 165.946C173.317 165.693 173.061 165.44 172.806 165.186L155.276 166.659C161.091 187.296 161.702 201.613 162.129 222.06C162.483 228.07 161.66 234.092 159.707 239.786L152.206 260.942ZM213.453 214.266L224.057 219.223L222.152 196.705L212.535 203.4C212.197 201.279 211.068 199.366 209.374 198.044C207.68 196.722 205.551 196.093 203.411 196.28L182.895 198.053C181.779 198.145 180.692 198.458 179.696 198.971C178.701 199.485 177.819 200.193 177.099 201.051C176.378 201.907 175.836 202.9 175.501 203.969C175.167 205.037 175.047 206.161 175.149 207.277L175.97 216.792C176.061 217.908 176.374 218.995 176.888 219.989C177.402 220.984 178.11 221.868 178.968 222.588C179.824 223.307 180.817 223.851 181.884 224.186C182.954 224.52 184.078 224.639 185.194 224.537L205.675 222.832C206.789 222.737 207.876 222.422 208.869 221.906C209.862 221.391 210.743 220.683 211.462 219.827C212.182 218.97 212.725 217.979 213.061 216.912C213.331 216.054 213.464 215.159 213.453 214.263V214.266Z" fill="#09AFF4"/>
<path d="M290.523 168.905C290.613 169.689 290.545 170.482 290.325 171.24C290.106 171.998 289.739 172.705 289.246 173.32C288.751 173.936 288.14 174.446 287.448 174.823C286.756 175.202 285.995 175.439 285.212 175.521C284.426 175.604 283.634 175.529 282.878 175.304C282.122 175.078 281.418 174.706 280.807 174.206C280.196 173.706 279.691 173.092 279.319 172.396C278.947 171.7 278.717 170.938 278.641 170.152L277.689 161.156C277.539 159.588 278.013 158.024 279.009 156.804C280.008 155.584 281.445 154.807 283.013 154.643C284.578 154.479 286.147 154.94 287.376 155.926C288.604 156.912 289.393 158.344 289.571 159.909L290.523 168.905Z" fill="#09AFF4"/>
<path d="M224.68 60.4908C225.188 61.6845 225.574 62.9275 225.828 64.1999C226.813 62.1324 227.394 59.8959 227.539 57.6104C226.52 58.7262 225.567 59.6708 224.68 60.4908Z" fill="#E9E9E9"/>
<path d="M135.433 105.622C135.715 107.174 136.247 108.671 137.009 110.053C139.536 110.053 142.327 109.726 143.015 108.708C143.114 108.535 143.212 108.347 143.311 108.15C142.36 110.025 138.917 108.122 135.433 105.622Z" fill="#E9E9E9"/>
<path d="M48.5507 178.622C42.4455 169.858 3.61577 201.861 9.19502 209.935L10.1465 210.788C18.2221 215.286 53.31 185.516 48.5507 178.622Z" fill="#E9E9E9"/>
<path d="M114.984 291.6C107.005 295.394 131.68 339.905 139.204 333.582C143.705 327.05 121.286 288.581 114.984 291.6Z" fill="#E9E9E9"/>
<path d="M39.9167 206.457C39.7629 207.023 39.7188 207.614 39.787 208.197C40.1157 210.298 42.8058 210.396 44.6119 209.903C43.3471 208.393 41.7363 207.211 39.9167 206.457Z" fill="#E9E9E9"/>
<path d="M57.3467 189.323C58.594 190.866 59.8742 192.408 61.0229 193.821C61.2153 193.271 61.3368 192.697 61.3845 192.115C61.4174 191.622 61.3215 191.127 61.1065 190.683C60.8915 190.237 60.5645 189.856 60.1576 189.574C59.7509 189.292 59.2779 189.122 58.7853 189.077C58.2926 189.034 57.797 189.119 57.3467 189.323Z" fill="#E9E9E9"/>
<path d="M117.085 122.827C116.721 122.866 116.377 123.012 116.096 123.246C115.816 123.481 115.611 123.793 115.508 124.144C115.405 124.495 115.408 124.869 115.517 125.218C115.626 125.567 115.836 125.876 116.121 126.105C116.406 126.335 116.752 126.475 117.117 126.508C117.481 126.54 117.847 126.464 118.168 126.289C118.489 126.114 118.751 125.847 118.92 125.523C119.09 125.199 119.16 124.832 119.121 124.469C119.098 124.226 119.027 123.99 118.912 123.775C118.797 123.56 118.64 123.37 118.45 123.217C118.26 123.064 118.041 122.951 117.807 122.884C117.572 122.817 117.327 122.797 117.085 122.827Z" fill="#E9E9E9"/>
<path d="M103.955 138.086C103.591 138.125 103.247 138.271 102.966 138.506C102.686 138.74 102.481 139.053 102.378 139.404C102.275 139.754 102.278 140.128 102.387 140.477C102.496 140.826 102.707 141.135 102.991 141.365C103.276 141.594 103.622 141.734 103.987 141.767C104.351 141.8 104.717 141.723 105.038 141.548C105.359 141.373 105.621 141.107 105.791 140.783C105.96 140.459 106.03 140.092 105.991 139.728C105.966 139.486 105.893 139.252 105.776 139.039C105.66 138.825 105.503 138.637 105.314 138.484C105.125 138.332 104.907 138.218 104.674 138.15C104.441 138.081 104.196 138.06 103.955 138.086Z" fill="#E9E9E9"/>
<path d="M111.735 158.238C111.371 158.277 111.027 158.423 110.746 158.657C110.465 158.891 110.26 159.204 110.157 159.554C110.053 159.905 110.056 160.279 110.165 160.628C110.274 160.978 110.484 161.287 110.769 161.516C111.054 161.746 111.4 161.886 111.765 161.919C112.129 161.952 112.495 161.876 112.816 161.701C113.137 161.525 113.399 161.259 113.569 160.935C113.738 160.611 113.808 160.244 113.769 159.88C113.743 159.638 113.671 159.404 113.554 159.191C113.438 158.978 113.281 158.79 113.092 158.637C112.903 158.485 112.686 158.371 112.453 158.303C112.22 158.234 111.976 158.212 111.735 158.238Z" fill="#E9E9E9"/>
<path d="M94.6674 134.605C94.3035 134.644 93.9594 134.79 93.6785 135.024C93.3975 135.258 93.1924 135.571 93.0891 135.922C92.9856 136.273 92.9887 136.646 93.0977 136.995C93.2067 137.345 93.4169 137.654 93.7017 137.883C93.9863 138.113 94.3328 138.253 94.6971 138.286C95.0614 138.319 95.4273 138.243 95.7486 138.068C96.0697 137.893 96.3318 137.626 96.5013 137.302C96.671 136.978 96.7408 136.611 96.7018 136.247C96.6762 136.006 96.6032 135.772 96.487 135.559C96.3709 135.345 96.2138 135.157 96.0249 135.005C95.836 134.852 95.6187 134.738 95.3858 134.67C95.153 134.601 94.9087 134.579 94.6674 134.605Z" fill="#E9E9E9"/>
<path d="M132.711 130.041C132.347 130.08 132.003 130.225 131.722 130.46C131.441 130.694 131.236 131.007 131.133 131.358C131.03 131.709 131.033 132.083 131.142 132.432C131.251 132.781 131.461 133.09 131.746 133.32C132.031 133.549 132.378 133.689 132.742 133.722C133.107 133.754 133.473 133.678 133.794 133.503C134.115 133.327 134.377 133.061 134.546 132.736C134.716 132.412 134.785 132.045 134.746 131.681C134.72 131.44 134.647 131.206 134.53 130.993C134.414 130.78 134.257 130.592 134.068 130.439C133.879 130.287 133.662 130.174 133.429 130.105C133.196 130.037 132.952 130.015 132.711 130.041Z" fill="#E9E9E9"/>
<path d="M122.007 145.011C121.644 145.05 121.3 145.196 121.019 145.431C120.738 145.665 120.533 145.978 120.43 146.329C120.327 146.68 120.331 147.054 120.44 147.403C120.549 147.752 120.76 148.061 121.045 148.29C121.33 148.52 121.676 148.659 122.041 148.692C122.405 148.724 122.771 148.648 123.092 148.473C123.413 148.297 123.675 148.03 123.844 147.706C124.013 147.382 124.083 147.015 124.044 146.651C124.018 146.409 123.945 146.175 123.829 145.962C123.712 145.749 123.555 145.561 123.366 145.408C123.177 145.256 122.959 145.142 122.726 145.074C122.493 145.006 122.249 144.984 122.007 145.011Z" fill="#E9E9E9"/>
<path d="M141.21 151.97C140.847 152.008 140.502 152.154 140.221 152.388C139.94 152.623 139.735 152.935 139.632 153.286C139.529 153.637 139.532 154.011 139.641 154.36C139.75 154.709 139.96 155.018 140.245 155.248C140.529 155.477 140.876 155.618 141.24 155.65C141.605 155.683 141.97 155.607 142.292 155.432C142.613 155.257 142.875 154.99 143.044 154.666C143.214 154.342 143.284 153.975 143.245 153.611C143.219 153.37 143.146 153.136 143.03 152.923C142.914 152.709 142.757 152.521 142.568 152.369C142.379 152.216 142.162 152.103 141.929 152.034C141.696 151.966 141.452 151.944 141.21 151.97Z" fill="#E9E9E9"/>
<path d="M149.187 120.129C148.823 120.168 148.479 120.314 148.198 120.548C147.917 120.782 147.712 121.095 147.609 121.446C147.505 121.797 147.508 122.17 147.617 122.52C147.726 122.869 147.936 123.178 148.221 123.408C148.506 123.637 148.852 123.777 149.217 123.81C149.581 123.843 149.947 123.767 150.268 123.592C150.589 123.417 150.851 123.15 151.021 122.826C151.191 122.502 151.26 122.135 151.221 121.771C151.199 121.528 151.128 121.293 151.013 121.078C150.898 120.863 150.741 120.674 150.551 120.521C150.361 120.368 150.143 120.254 149.908 120.187C149.674 120.12 149.429 120.1 149.187 120.129Z" fill="#E9E9E9"/>
<path d="M166.387 151.179C166.023 151.218 165.679 151.364 165.398 151.598C165.117 151.832 164.912 152.145 164.809 152.496C164.705 152.847 164.708 153.22 164.817 153.57C164.927 153.919 165.137 154.228 165.421 154.458C165.706 154.687 166.052 154.827 166.417 154.86C166.781 154.893 167.147 154.817 167.468 154.642C167.79 154.467 168.051 154.2 168.221 153.876C168.391 153.552 168.461 153.185 168.421 152.821C168.369 152.334 168.126 151.887 167.744 151.579C167.363 151.271 166.875 151.127 166.387 151.179Z" fill="#E9E9E9"/>
<path d="M166.453 133.946C166.695 133.92 166.929 133.848 167.142 133.732C167.356 133.615 167.544 133.458 167.697 133.269C167.849 133.08 167.963 132.863 168.031 132.63C168.1 132.397 168.121 132.153 168.095 131.911C168.031 131.434 167.782 131.001 167.403 130.703C167.024 130.406 166.544 130.269 166.065 130.32C165.586 130.372 165.146 130.608 164.839 130.979C164.531 131.349 164.381 131.826 164.419 132.306C164.444 132.547 164.517 132.781 164.633 132.995C164.75 133.208 164.906 133.396 165.096 133.548C165.285 133.701 165.502 133.814 165.735 133.883C165.968 133.951 166.212 133.972 166.453 133.946Z" fill="#E9E9E9"/>
<path d="M186.509 155.085C186.145 155.124 185.801 155.269 185.519 155.504C185.239 155.738 185.033 156.05 184.931 156.401C184.827 156.752 184.831 157.126 184.94 157.475C185.049 157.824 185.258 158.133 185.543 158.363C185.827 158.593 186.175 158.733 186.538 158.766C186.903 158.799 187.268 158.722 187.59 158.547C187.912 158.372 188.173 158.106 188.343 157.782C188.512 157.457 188.581 157.09 188.543 156.727C188.517 156.485 188.445 156.251 188.329 156.038C188.213 155.825 188.055 155.636 187.867 155.484C187.677 155.331 187.46 155.218 187.227 155.149C186.995 155.081 186.749 155.059 186.509 155.085Z" fill="#E9E9E9"/>
<path d="M188.807 135.526C188.443 135.565 188.099 135.711 187.817 135.945C187.537 136.18 187.331 136.492 187.229 136.843C187.125 137.194 187.129 137.568 187.238 137.917C187.347 138.267 187.558 138.575 187.841 138.805C188.127 139.035 188.473 139.175 188.838 139.207C189.203 139.24 189.568 139.164 189.89 138.988C190.21 138.813 190.473 138.546 190.642 138.222C190.812 137.898 190.881 137.53 190.841 137.166C190.815 136.925 190.742 136.691 190.627 136.478C190.511 136.265 190.353 136.077 190.165 135.924C189.974 135.772 189.758 135.659 189.525 135.59C189.293 135.522 189.047 135.5 188.807 135.526Z" fill="#E9E9E9"/>
<path d="M205.218 128.959C205.18 128.596 205.033 128.251 204.8 127.97C204.564 127.69 204.253 127.484 203.902 127.381C203.55 127.278 203.177 127.281 202.827 127.39C202.478 127.499 202.17 127.709 201.94 127.994C201.71 128.278 201.57 128.625 201.537 128.989C201.504 129.353 201.58 129.719 201.755 130.041C201.931 130.362 202.198 130.624 202.521 130.793C202.845 130.963 203.213 131.033 203.576 130.994C203.819 130.968 204.052 130.895 204.265 130.779C204.478 130.663 204.666 130.506 204.819 130.317C204.971 130.128 205.085 129.911 205.154 129.678C205.222 129.445 205.244 129.201 205.218 128.959Z" fill="#E9E9E9"/>
<path d="M259.997 26.2552C259.797 23.7102 258.696 21.3199 256.892 19.5141C255.086 17.7084 252.697 16.6055 250.152 16.4037C247.607 16.2019 245.074 16.9144 243.007 18.4133C240.94 19.912 239.476 22.0989 238.878 24.5806C235.912 23.2006 232.641 22.6074 229.38 22.8582C226.119 23.1091 222.979 24.1955 220.259 26.0129C217.54 27.8302 215.334 30.3171 213.855 33.2342C212.376 36.1514 211.673 39.4001 211.813 42.6678C215.766 41.5962 219.83 40.9791 223.923 40.8288C224.145 42.1733 224.451 43.5023 224.842 44.8078C225.204 45.6278 225.761 45.6935 226.745 44.1832C228.946 41 233.409 45.9236 228.19 49.7313C230.442 53.6301 233.303 57.1432 236.667 60.1373C240.789 58.8094 244.339 56.1221 246.737 52.5147C249.133 48.9075 250.235 44.5938 249.863 40.2786C249.796 39.4868 249.68 38.7 249.517 37.9224C249.754 37.9236 249.989 37.9103 250.225 37.8826C251.629 37.7608 252.998 37.3636 254.249 36.7133C255.501 36.0631 256.612 35.1727 257.518 34.093C258.427 33.0133 259.113 31.7655 259.537 30.4206C259.963 29.0758 260.118 27.6604 259.997 26.2552Z" fill="#E9E9E9"/>
<path d="M120.894 199.202L121.255 212.523L125.943 208.29C123.899 205.475 122.203 202.425 120.894 199.202Z" fill="#E9E9E9"/>
<path d="M151.025 138.38L155.686 145.011L155.949 153.512L151.025 138.38Z" fill="#E9E9E9"/>
<path d="M142.984 93.4442C143.555 93.3397 144.07 93.0352 144.437 92.5856C144.804 92.1358 144.999 91.5702 144.987 90.9898C144.976 90.4094 144.758 89.8522 144.372 89.4178C143.987 88.9835 143.46 88.7003 142.885 88.6192C143.33 88.2943 143.652 87.8291 143.8 87.2987C143.948 86.7683 143.913 86.2034 143.701 85.6952C143.489 85.1871 143.112 84.7651 142.63 84.4975C142.149 84.2299 141.592 84.1319 141.048 84.2198C141.326 83.7574 141.445 83.2159 141.384 82.6794C141.324 82.1429 141.088 81.6414 140.713 81.2525C140.339 80.8636 139.847 80.6091 139.313 80.5285C138.779 80.4479 138.234 80.5456 137.761 80.8065C137.874 80.2559 137.795 79.6832 137.537 79.1838C137.279 78.6845 136.857 78.2885 136.343 78.0622C135.828 77.8358 135.252 77.7925 134.709 77.9397C134.167 78.0868 133.691 78.4153 133.362 78.8707C133.308 78.279 133.051 77.7244 132.632 77.3024C132.214 76.8805 131.662 76.6177 131.071 76.5592C130.48 76.5009 129.887 76.6505 129.394 76.9824C128.901 77.3143 128.54 77.8077 128.372 78.3776C128.14 77.8664 127.74 77.4502 127.238 77.1981C126.736 76.946 126.164 76.8734 125.615 76.9922C125.066 77.1112 124.575 77.4145 124.222 77.8517C123.87 78.2889 123.678 78.8335 123.679 79.3948C123.269 79.0426 122.755 78.8348 122.216 78.8035C121.677 78.772 121.142 78.9187 120.694 79.221C120.247 79.5232 119.911 79.9642 119.738 80.4761C119.565 80.988 119.566 81.5423 119.739 82.0539C119.229 81.8639 118.67 81.8495 118.15 82.0134C117.631 82.1772 117.181 82.5097 116.872 82.9583C116.563 83.4069 116.412 83.9458 116.444 84.4895C116.476 85.0333 116.688 85.5509 117.048 85.9602C116.468 85.9284 115.896 86.1024 115.433 86.4513C114.97 86.8003 114.644 87.3016 114.515 87.8672C114.385 88.4325 114.46 89.0256 114.725 89.5415C114.99 90.0575 115.429 90.463 115.965 90.6866C115.396 90.7968 114.884 91.1054 114.522 91.5574C114.159 92.0095 113.969 92.5755 113.984 93.1548C114 93.7341 114.221 94.2891 114.608 94.7206C114.995 95.1522 115.522 95.4325 116.096 95.5115C115.661 95.8418 115.349 96.308 115.209 96.8362C115.069 97.3645 115.111 97.9242 115.326 98.4262C115.541 98.9285 115.918 99.3442 116.397 99.6071C116.876 99.8703 117.429 99.9656 117.968 99.878C117.696 100.343 117.584 100.884 117.65 101.418C117.716 101.953 117.956 102.451 118.333 102.835C118.71 103.22 119.203 103.469 119.736 103.546C120.269 103.622 120.813 103.521 121.283 103.258C121.174 103.808 121.257 104.378 121.517 104.874C121.778 105.37 122.2 105.761 122.714 105.984C123.228 106.206 123.803 106.246 124.342 106.096C124.882 105.947 125.354 105.617 125.68 105.161C125.709 105.571 125.839 105.968 126.058 106.315C126.277 106.662 126.58 106.95 126.937 107.152C127.295 107.353 127.697 107.463 128.108 107.471C128.519 107.479 128.925 107.385 129.291 107.198C129.587 106.836 133.616 101.88 135.036 100.074C131.557 96.1361 134.444 93.5757 136.316 96.1689C137.301 97.5806 138.738 97.1862 137.891 92.984C138.978 92.511 140.02 91.9401 141.005 91.2782C141.697 93.9355 142.216 96.2018 142.645 98.1048C143.143 97.9744 143.588 97.6912 143.917 97.295C144.247 96.8988 144.444 96.4096 144.481 95.8958C144.519 95.382 144.394 94.8694 144.126 94.4298C143.857 93.9902 143.458 93.6455 142.984 93.4442Z" fill="#E9E9E9"/>
<path d="M142.654 98.1031C142.229 96.2001 141.703 93.9355 141.014 91.2765C140.03 91.9384 138.988 92.5093 137.9 92.9823C138.755 97.1844 137.321 97.5702 136.326 96.1672C134.475 93.5583 131.567 96.1343 135.046 100.072C133.634 101.878 129.596 106.834 129.301 107.196C128.935 107.384 128.529 107.478 128.118 107.47C127.707 107.461 127.305 107.352 126.947 107.15C126.589 106.948 126.287 106.66 126.068 106.313C125.848 105.966 125.719 105.57 125.69 105.16C125.364 105.615 124.892 105.945 124.352 106.094C123.812 106.244 123.238 106.204 122.724 105.982C122.21 105.759 121.787 105.368 121.527 104.872C121.267 104.376 121.184 103.806 121.292 103.257C120.823 103.52 120.279 103.621 119.746 103.544C119.213 103.468 118.72 103.218 118.343 102.833C117.966 102.449 117.726 101.951 117.66 101.417C117.594 100.882 117.706 100.341 117.978 99.8763C117.438 99.9638 116.885 99.8685 116.407 99.6054C115.928 99.3423 115.551 98.9265 115.336 98.4245C115.12 97.9224 115.079 97.3626 115.219 96.8344C115.358 96.3063 115.671 95.84 116.106 95.5098C115.532 95.4307 115.004 95.1505 114.618 94.7188C114.231 94.2872 114.01 93.7324 113.994 93.153C113.978 92.5738 114.169 92.0076 114.531 91.5555C114.894 91.1036 115.405 90.795 115.974 90.6848C115.439 90.4613 115 90.0556 114.735 89.5397C114.469 89.0238 114.395 88.4308 114.525 87.8654C114.654 87.2999 114.979 86.7984 115.443 86.4494C115.906 86.1007 116.478 85.9266 117.057 85.9584C116.698 85.5491 116.485 85.0315 116.454 84.4878C116.422 83.9439 116.572 83.405 116.881 82.9566C117.19 82.508 117.64 82.1755 118.16 82.0116C118.679 81.8478 119.239 81.862 119.749 82.0521C119.581 81.5419 119.584 80.9908 119.757 80.4823C119.931 79.974 120.266 79.5363 120.712 79.2362C121.157 78.936 121.689 78.7898 122.225 78.8196C122.762 78.8495 123.274 79.054 123.683 79.4018C123.683 78.8404 123.875 78.2956 124.227 77.8584C124.579 77.4214 125.071 77.118 125.619 76.9991C126.168 76.8803 126.741 76.9528 127.243 77.2048C127.744 77.4569 128.145 77.8733 128.377 78.3845C128.545 77.8146 128.906 77.3213 129.399 76.9893C129.891 76.6573 130.484 76.5076 131.075 76.5661C131.667 76.6246 132.219 76.8874 132.637 77.3093C133.055 77.7313 133.313 78.2859 133.366 78.8776C133.696 78.4222 134.171 78.0937 134.714 77.9465C135.256 77.7994 135.833 77.8427 136.347 78.0691C136.862 78.2954 137.283 78.6912 137.541 79.1907C137.799 79.6901 137.878 80.2628 137.765 80.8134C138.238 80.5525 138.784 80.4548 139.317 80.5354C139.851 80.616 140.344 80.8705 140.718 81.2594C141.093 81.6483 141.328 82.1499 141.389 82.6863C141.449 83.2228 141.331 83.7643 141.052 84.2267C141.596 84.1388 142.154 84.2366 142.635 84.5042C143.116 84.7718 143.493 85.1938 143.706 85.7021C143.918 86.2102 143.953 86.775 143.805 87.3056C143.657 87.836 143.334 88.3012 142.89 88.6261C143.465 88.7072 143.992 88.9903 144.377 89.4247C144.762 89.8591 144.98 90.4163 144.992 90.9966C145.004 91.577 144.809 92.1427 144.442 92.5925C144.074 93.0421 143.559 93.3464 142.988 93.4511C143.459 93.6537 143.856 93.9979 144.122 94.436C144.389 94.874 144.512 95.3844 144.476 95.8957C144.439 96.4073 144.244 96.8946 143.918 97.2901C143.591 97.6858 143.15 97.9698 142.654 98.1031Z" stroke="black" stroke-width="0.564931" stroke-linecap="round" stroke-linejoin="round"/>
<path d="M143.051 84.6463L151.848 83.9248C152.898 83.8332 153.956 83.9499 154.961 84.2688C155.966 84.5874 156.898 85.1018 157.703 85.782C158.508 86.4624 159.171 87.2952 159.654 88.2325C160.136 89.17 160.428 90.1937 160.513 91.2445L162.909 120.03" stroke="black" stroke-width="0.564931" stroke-linecap="round" stroke-linejoin="round"/>
<path d="M156.275 153.05L157.621 152.951C158.796 152.938 159.944 152.597 160.936 151.967" stroke="black" stroke-width="0.564931" stroke-linecap="round" stroke-linejoin="round"/>
<path d="M95.357 158.164L77.6988 159.674C75.5798 159.852 73.4771 159.181 71.8525 157.808C70.228 156.436 69.2147 154.475 69.035 152.357L64.537 99.313C64.3588 97.1932 65.0299 95.0896 66.4025 93.4646C67.775 91.8396 69.737 90.8262 71.8566 90.6474L115.033 87.0098" stroke="black" stroke-width="0.564931" stroke-linecap="round" stroke-linejoin="round"/>
<path d="M152.206 260.942L257.371 252.079C260.243 251.833 262.9 250.458 264.758 248.254C266.618 246.05 267.526 243.199 267.284 240.327L261.179 168.608C260.933 165.736 259.558 163.08 257.354 161.221C255.152 159.363 252.301 158.454 249.429 158.695L193.238 163.423" stroke="black" stroke-width="0.564931" stroke-linecap="round" stroke-linejoin="round"/>
<path d="M155.325 166.639L172.788 165.161" stroke="black" stroke-width="0.564931" stroke-linecap="round" stroke-linejoin="round"/>
<path d="M211.978 48.4355L179.547 51.226C176.577 51.5575 173.859 53.0527 171.988 55.3841C170.118 57.7156 169.248 60.6931 169.568 63.6647L176.068 138.47" stroke="black" stroke-width="0.564931" stroke-linecap="round" stroke-linejoin="round"/>
<path d="M199.505 149.44L297.876 140.939C300.059 140.741 302.134 139.89 303.826 138.497C305.518 137.103 306.749 135.231 307.362 133.126" stroke="black" stroke-width="0.564931" stroke-linecap="round" stroke-linejoin="round"/>
<path d="M304.21 86.2543L301.288 52.2823C301.092 49.2977 299.722 46.5124 297.476 44.5371C295.229 42.5618 292.292 41.5575 289.307 41.7449L249.69 45.1599" stroke="black" stroke-width="0.564931" stroke-linecap="round" stroke-linejoin="round"/>
<path d="M268.203 96.1338C264.822 101.45 257.7 116.977 253.563 127.052C261.504 130.156 268.196 135.8 272.593 143.103" stroke="black" stroke-width="0.564931" stroke-linecap="round" stroke-linejoin="round"/>
<path d="M215.326 113.138C216.527 119.32 218.094 125.425 220.02 131.42C218.214 138.214 217.492 144.253 216.639 147.963" stroke="black" stroke-width="0.564931" stroke-linecap="round" stroke-linejoin="round"/>
<path d="M218.477 87.8633C215.998 91.685 214.551 96.0836 214.276 100.631" stroke="black" stroke-width="0.564931" stroke-linecap="round" stroke-linejoin="round"/>
<path d="M253.53 127.085C244.275 133.749 226.779 137.292 220.019 131.419" stroke="black" stroke-width="0.564931" stroke-linecap="round" stroke-linejoin="round"/>
<path d="M249.329 129.613C254.267 133.474 258.223 138.445 260.88 144.121" stroke="black" stroke-width="0.564931" stroke-linecap="round" stroke-linejoin="round"/>
<path d="M225.851 64.1609C226.82 62.102 227.392 59.8797 227.539 57.6094C226.522 58.7252 225.567 59.6698 224.68 60.4898" stroke="black" stroke-width="0.564931" stroke-linecap="round" stroke-linejoin="round"/>
<path d="M263.509 104.933L275.261 124.79C284.352 141.268 303.287 146.451 315.174 121.837C320.784 110.217 323.445 102.406 328.368 94.33C320.317 92.0347 312.985 87.7188 307.072 81.7927C301.607 90.0178 296.747 98.6287 292.53 107.558C268.733 56.9776 265.811 65.8957 249.958 65.0186C245.121 64.8853 240.462 63.1668 236.697 60.1279" stroke="black" stroke-width="0.564931" stroke-linecap="round" stroke-linejoin="round"/>
<path d="M202.033 105.323C206.727 89.371 217.242 81.9978 221.857 76.9652C224.028 74.8823 225.476 72.1574 225.983 69.1913C226.492 66.225 226.035 63.1742 224.681 60.487C216.409 67.7737 211.848 61.9644 211.848 42.668" stroke="black" stroke-width="0.564931" stroke-linecap="round" stroke-linejoin="round"/>
<path d="M251.959 65.083C245.38 70.3702 239.443 76.4086 234.266 83.075C233.455 84.0848 232.396 84.8671 231.192 85.3451C229.988 85.8231 228.68 85.9807 227.397 85.8024C226.115 85.624 224.898 85.1159 223.871 84.3277C222.843 83.5395 222.037 82.4981 221.532 81.3052C221.11 80.3191 220.743 79.4022 220.416 78.5147" stroke="black" stroke-width="0.564931" stroke-linecap="round" stroke-linejoin="round"/>
<path d="M292.526 107.558L288.621 116.355" stroke="black" stroke-width="0.564931" stroke-linecap="round" stroke-linejoin="round"/>
<path d="M129.296 107.196C124.708 113.078 121.46 112.693 112.819 116.55C95.225 124.396 101.264 155.84 101.264 155.84" stroke="black" stroke-width="0.564931" stroke-linecap="round" stroke-linejoin="round"/>
<path d="M142.655 98.1016C144.089 104.75 143.959 107.295 143.016 108.67C142.324 109.689 139.537 110.016 137.01 110.016" stroke="black" stroke-width="0.564931" stroke-linecap="round" stroke-linejoin="round"/>
<path d="M143.316 108.121C142.398 110.024 138.913 108.121 135.433 105.594C136.09 108.614 136.548 112.233 139.01 112.387C160.832 113.756 163.137 116.228 182.075 148.717" stroke="black" stroke-width="0.564931" stroke-linecap="round" stroke-linejoin="round"/>
<path d="M179.746 144.68C180.566 142.382 185.654 131.911 188.609 122.458C195.079 121.761 201.582 123.454 206.892 127.217C204.856 136.867 198.949 151.508 193.86 162.269C192.995 164.087 191.709 165.674 190.109 166.898C188.509 168.122 186.642 168.947 184.66 169.306C182.679 169.666 180.639 169.548 178.712 168.964C176.785 168.379 175.024 167.344 173.576 165.945C165.078 157.589 157.527 148.322 151.06 138.312" stroke="black" stroke-width="0.564931" stroke-linecap="round" stroke-linejoin="round"/>
<path d="M151.091 138.312L155.949 153.511" stroke="black" stroke-width="0.564931" stroke-linecap="round" stroke-linejoin="round"/>
<path d="M115.219 165.919C124.967 169.033 141.641 167.855 154.673 164.31C156.642 160.437 155.822 145.142 155.822 145.142" stroke="black" stroke-width="0.564931" stroke-linecap="round" stroke-linejoin="round"/>
<path d="M115.114 165.162C110.914 171.201 102.658 171.424 98.8663 165.129C94.088 157.171 92.0397 145.829 91.0225 133.224C91.0225 133.224 98.4615 130.844 101.575 131.776" stroke="black" stroke-width="0.564931" stroke-linecap="round" stroke-linejoin="round"/>
<path d="M125.942 208.288L91.2813 238.978C88.9885 240.995 86.0427 242.113 82.9892 242.125C79.9358 242.136 76.9814 241.04 74.6733 239.042L40.5732 209.541" stroke="black" stroke-width="0.564931" stroke-linecap="round" stroke-linejoin="round"/>
<path d="M86.3942 214.231L60.5947 189.909" stroke="black" stroke-width="0.564931" stroke-linecap="round" stroke-linejoin="round"/>
<path d="M109.829 132.997C109.829 132.997 115.538 156.006 115.18 166.509C108.235 170.456 102.868 176.685 99.9902 184.136C95.7984 195.462 81.2803 209.245 81.2803 209.245" stroke="black" stroke-width="0.564931" stroke-linecap="round" stroke-linejoin="round"/>
<path d="M154.67 164.308C161.102 186.201 161.742 200.811 162.185 222.01C162.539 228.02 161.716 234.04 159.763 239.736L144.731 282.012C135.538 281.046 126.7 277.932 118.932 272.92L133.965 229.856C134.255 222.5 131.787 215.301 127.045 209.67C122.351 203.952 119.41 196.998 118.577 189.647" stroke="black" stroke-width="0.564931" stroke-linecap="round" stroke-linejoin="round"/>
<path d="M121.746 113.038C121.746 113.038 126.997 118.814 139.47 112.413" stroke="black" stroke-width="0.564931" stroke-linecap="round" stroke-linejoin="round"/>
<path d="M93.6177 132.471C93.5151 127.463 92.9546 122.475 91.943 117.569C90.9749 113.793 89.5876 110.137 87.8066 106.67C85.1943 101.577 86.042 100.198 90.2373 104.833C94.3801 110.033 97.792 115.776 100.379 121.901" stroke="black" stroke-width="0.564931" stroke-linecap="round" stroke-linejoin="round"/>
<path d="M98.9209 118.657C101.006 121.02 102.253 113.813 103.037 112.218C104.12 110.019 105.459 107.625 105.367 114.386C105.341 116.256 105.564 119.244 105.86 122.197" stroke="black" stroke-width="0.564931" stroke-linecap="round" stroke-linejoin="round"/>
<path d="M89.9717 111.496C89.0202 110.445 86.8577 108.347 86.2297 107.754C83.3614 105.01 82.7905 105.977 83.1157 106.543C84.3613 108.726 86.6968 112.089 87.7867 114.155C89.5306 117.5 93.0702 123.87 93.2674 127.152" stroke="black" stroke-width="0.564931" stroke-linecap="round" stroke-linejoin="round"/>
<path d="M87.6765 113.956C87.1177 113.563 86.6558 113.24 86.3963 113.07C83.0712 110.902 82.72 111.888 83.1093 112.378C84.6853 114.347 87.5467 117.264 88.9532 119.139C90.6045 121.449 92.0329 123.911 93.2194 126.491" stroke="black" stroke-width="0.564931" stroke-linecap="round" stroke-linejoin="round"/>
<path d="M205.349 126.134C207.11 120.884 209.328 115.799 211.98 110.938C214.224 107.269 216.877 103.866 219.889 100.795C224.311 96.2965 223.868 94.525 217.921 98.0369C211.854 102.18 206.376 107.127 201.64 112.742" stroke="black" stroke-width="0.564931" stroke-linecap="round" stroke-linejoin="round"/>
<path d="M204.398 109.627C201.086 112.096 202.308 103.664 201.998 101.679C201.581 99.0186 200.981 96.0343 198.846 103.222C198.256 105.189 195.858 111.286 191.338 122.291" stroke="black" stroke-width="0.564931" stroke-linecap="round" stroke-linejoin="round"/>
<path d="M216.015 105.16C217.361 104.34 220.316 102.863 221.169 102.437C225.108 100.467 225.366 101.711 224.878 102.174C222.859 104.093 219.3 106.871 217.493 108.705C214.576 111.665 208.761 117.239 207.448 120.654" stroke="black" stroke-width="0.564931" stroke-linecap="round" stroke-linejoin="round"/>
<path d="M217.658 108.543C218.379 108.313 218.971 108.117 219.299 108.024C223.507 106.735 223.564 107.988 222.976 108.386C220.668 109.943 216.71 112.1 214.604 113.636C212.113 115.54 209.807 117.672 207.712 120.004" stroke="black" stroke-width="0.564931" stroke-linecap="round" stroke-linejoin="round"/>
<path d="M48.5505 178.621C42.7083 170.228 6.89548 199.18 8.71544 208.764C8.99743 210.249 10.2811 211.577 13.2757 211.171C24.7855 209.612 52.8668 184.831 48.5505 178.621Z" stroke="black" stroke-width="0.564931" stroke-linecap="round" stroke-linejoin="round"/>
<path d="M48.5498 178.618C50.3542 180.916 56.558 188.334 60.9902 193.842" stroke="black" stroke-width="0.564931" stroke-linecap="round" stroke-linejoin="round"/>
<path d="M141.111 281.555C139.727 286.772 131.96 298.225 137.927 312.901C140.983 320.416 142.752 331.375 138.619 334.133" stroke="black" stroke-width="0.564931" stroke-linecap="round" stroke-linejoin="round"/>
<path d="M113.934 292.584C114.916 290.369 118.489 282.29 121.681 274.765" stroke="black" stroke-width="0.564931" stroke-linecap="round" stroke-linejoin="round"/>
<path d="M114.984 291.598C107.645 295.088 127.236 330.964 136.221 334.237C138.704 335.142 139.891 333.372 139.792 330.738C139.384 319.776 120.656 288.906 114.984 291.598Z" stroke="black" stroke-width="0.564931" stroke-linecap="round" stroke-linejoin="round"/>
<path d="M57.3137 189.319C57.7636 189.115 58.2589 189.03 58.7515 189.074C59.244 189.117 59.7166 189.288 60.1233 189.57C60.5301 189.85 60.8569 190.233 61.0717 190.677C61.2868 191.124 61.3824 191.617 61.3497 192.11C60.8065 199.03 47.9509 210.884 42.171 210.185C40.441 209.974 39.3441 208.751 39.922 206.422" stroke="black" stroke-width="0.564931" stroke-linecap="round" stroke-linejoin="round"/>
<path d="M142.683 269.793L152.756 237.932C154.505 232.953 155.241 227.675 154.922 222.407C153.526 199.597 151.838 181.968 147.734 165.919" stroke="black" stroke-width="0.564931" stroke-linecap="round" stroke-linejoin="round"/>
<path d="M123.026 261.169C130.477 266.838 139.502 270.061 148.859 270.393" stroke="black" stroke-width="0.564931" stroke-linecap="round" stroke-linejoin="round"/>
<path d="M50.2881 217.943C60.2339 214.758 65.8148 207.563 69.1624 198.183" stroke="black" stroke-width="0.564931" stroke-linecap="round" stroke-linejoin="round"/>
<path d="M120.891 199.198L92.9582 223.948C90.6605 225.994 87.6941 227.131 84.6173 227.143C81.5403 227.155 78.5649 226.043 76.2515 224.013L61.5137 211.08" stroke="black" stroke-width="0.564931" stroke-linecap="round" stroke-linejoin="round"/>
<path d="M125.619 174.646C125.193 174.712 124.568 182.984 125.684 186.332C127.819 189.282 130.547 191.754 133.694 193.586C135.494 190.588 137.655 187.82 140.128 185.348C139.799 181.178 139.405 178.979 138.947 174.58C134.528 175.212 130.043 175.234 125.619 174.646Z" stroke="black" stroke-width="0.564931" stroke-linecap="round" stroke-linejoin="round"/>
<path d="M107.008 172.976C108.693 173 110.348 173.427 111.833 174.223C108.813 175.699 105.761 183.219 105.761 183.219L99.0312 186.437" stroke="black" stroke-width="0.564931" stroke-linecap="round" stroke-linejoin="round"/>
<path d="M320.558 65.7354C325.748 67.3754 328.633 70.0344 331.976 74.3023" stroke="black" stroke-width="0.564931" stroke-linecap="round" stroke-linejoin="round"/>
<path d="M319.277 68.168C321.089 70.0063 322.497 72.2018 323.412 74.6145C324.327 77.0271 324.729 79.604 324.594 82.181" stroke="black" stroke-width="0.564931" stroke-linecap="round" stroke-linejoin="round"/>
<path d="M329.254 71.0555C331.268 68.4024 332.953 65.5147 334.271 62.4557C336.693 56.7778 338.177 58.3539 336.831 63.7359C336.47 65.1805 336.11 66.4278 335.781 67.4779C334.833 70.4985 333.899 73.5485 333.024 76.6036C332.095 79.8491 325.931 93.5732 325.931 93.5732C320.154 92.0301 314.148 87.8296 309.454 83.9561C309.553 83.7589 312.049 79.1658 312.144 78.9997C312.653 78.0816 312.869 77.0303 312.764 75.9862C312.658 74.9423 312.236 73.9554 311.554 73.1575C309.181 70.3099 306.003 66.0645 307.056 64.9175C308.691 63.1408 313.85 69.1491 316.608 69.5141C317.592 69.6439 318.381 66.6579 318.544 65.5749C318.841 63.6062 319.877 56.9076 319.955 56.2536C320.67 50.1675 322.844 51.1986 322.811 56.5806C322.779 61.7014 322.779 65.0161 322.779 65.0161" stroke="black" stroke-width="0.564931" stroke-linecap="round" stroke-linejoin="round"/>
<path d="M322.363 66.3284C322.363 66.3284 325.943 55.1042 326.169 54.3482C327.949 48.4749 329.816 49.8191 328.927 55.1025C328.076 60.1593 327.154 66.3284 327.154 66.3284" stroke="black" stroke-width="0.564931" stroke-linecap="round" stroke-linejoin="round"/>
<path d="M326.274 68.1364C327.987 64.7036 329.499 61.1742 330.804 57.5661C332.931 51.7879 334.495 53.2636 333.495 58.5194C332.947 61.7868 332.169 65.0116 331.165 68.1693" stroke="black" stroke-width="0.564931" stroke-linecap="round" stroke-linejoin="round"/>
<path d="M290.523 168.905C290.613 169.689 290.545 170.482 290.325 171.24C290.106 171.998 289.739 172.705 289.246 173.32C288.751 173.936 288.14 174.446 287.448 174.823C286.756 175.202 285.995 175.439 285.212 175.521C284.426 175.604 283.634 175.529 282.878 175.304C282.122 175.078 281.418 174.706 280.807 174.206C280.196 173.706 279.691 173.092 279.319 172.396C278.947 171.7 278.717 170.938 278.641 170.152L277.689 161.156C277.539 159.588 278.013 158.024 279.009 156.804C280.008 155.584 281.445 154.807 283.013 154.643C284.578 154.479 286.147 154.94 287.376 155.926C288.604 156.912 289.393 158.344 289.571 159.909L290.523 168.905Z" stroke="black" stroke-width="0.564931" stroke-linecap="round" stroke-linejoin="round"/>
<path d="M273.784 166.541L274.243 170.971C274.384 172.334 274.794 173.655 275.447 174.859C276.099 176.063 276.983 177.127 278.047 177.988C279.109 178.852 280.334 179.495 281.645 179.886C282.958 180.275 284.335 180.403 285.697 180.262C287.06 180.118 288.38 179.71 289.584 179.058C290.788 178.404 291.852 177.521 292.716 176.457C293.577 175.393 294.222 174.17 294.612 172.857C295.001 171.544 295.129 170.168 294.987 168.806L294.529 164.375" stroke="black" stroke-width="0.564931" stroke-linecap="round" stroke-linejoin="round"/>
<path d="M285.698 180.26L286.584 188.531" stroke="black" stroke-width="0.564931" stroke-linecap="round" stroke-linejoin="round"/>
<path d="M282.154 188.995L290.984 188.074" stroke="black" stroke-width="0.564931" stroke-linecap="round" stroke-linejoin="round"/>
<path d="M213.452 214.267L224.055 219.224L222.15 196.706L212.533 203.401" stroke="black" stroke-width="0.564931" stroke-linecap="round" stroke-linejoin="round"/>
<path d="M203.412 196.28C205.552 196.093 207.682 196.723 209.375 198.045C211.069 199.367 212.199 201.28 212.536 203.401L213.422 213.608C213.52 214.722 213.397 215.845 213.062 216.912C212.726 217.98 212.183 218.971 211.463 219.827C210.744 220.684 209.863 221.391 208.87 221.907C207.877 222.422 206.791 222.737 205.676 222.832L185.195 224.538C184.079 224.64 182.955 224.521 181.885 224.187C180.818 223.851 179.825 223.308 178.969 222.588C178.111 221.869 177.403 220.985 176.889 219.99C176.375 218.995 176.062 217.909 175.971 216.793L175.151 207.278C175.049 206.162 175.168 205.038 175.502 203.97C175.837 202.901 176.379 201.908 177.1 201.052C177.82 200.194 178.702 199.486 179.697 198.972C180.694 198.458 181.78 198.145 182.896 198.054L203.412 196.28Z" stroke="black" stroke-width="0.564931" stroke-linecap="round" stroke-linejoin="round"/>
<path d="M259.998 26.2545C259.793 23.7159 258.693 21.3328 256.892 19.5317C255.091 17.7304 252.709 16.6287 250.169 16.4235C247.632 16.2184 245.102 16.9232 243.037 18.4119C240.969 19.9005 239.501 22.0758 238.892 24.5487C241.587 25.792 243.954 27.647 245.806 29.9662C247.659 32.2853 248.945 35.0046 249.56 37.9078C251.026 37.8738 252.469 37.5398 253.801 36.9262C255.133 36.3127 256.323 35.4326 257.302 34.3407C258.28 33.2487 259.024 31.9676 259.487 30.5769C259.951 29.1861 260.124 27.7149 259.998 26.2545Z" stroke="black" stroke-width="0.564931" stroke-linecap="round" stroke-linejoin="round"/>
<path d="M249.856 40.2678C249.443 35.2952 247.097 30.683 243.32 27.4213C239.545 24.1595 234.641 22.5083 229.66 22.8219C224.681 23.1356 220.022 25.3891 216.685 29.0989C213.35 32.8087 211.599 37.6788 211.814 42.6638C215.767 41.5922 219.83 40.9751 223.924 40.8248C224.145 42.1694 224.451 43.4984 224.842 44.8038C225.204 45.6238 225.761 45.6896 226.745 44.1793C228.946 40.9961 233.409 45.9197 228.19 49.7274C230.442 53.6261 233.304 57.1392 236.667 60.1333C240.789 58.8038 244.339 56.1151 246.735 52.5065C249.13 48.8979 250.232 44.5831 249.856 40.2678Z" stroke="black" stroke-width="0.564931" stroke-linecap="round" stroke-linejoin="round"/>
<path d="M30.0723 151.048L36.9317 150.357" stroke="black" stroke-width="0.564931" stroke-linecap="round" stroke-linejoin="round"/>
<path d="M49.0762 149.111L55.9373 148.423" stroke="black" stroke-width="0.564931" stroke-linecap="round" stroke-linejoin="round"/>
<path d="M41.6885 136.803L42.3787 143.664" stroke="black" stroke-width="0.564931" stroke-linecap="round" stroke-linejoin="round"/>
<path d="M43.627 155.809L44.3155 162.668" stroke="black" stroke-width="0.564931" stroke-linecap="round" stroke-linejoin="round"/>
<path d="M32.9277 141.529L38.2769 145.861" stroke="black" stroke-width="0.564931" stroke-linecap="round" stroke-linejoin="round"/>
<path d="M47.7305 153.574L53.0814 157.939" stroke="black" stroke-width="0.564931" stroke-linecap="round" stroke-linejoin="round"/>
<path d="M51.2116 139.658L46.8779 145.009" stroke="black" stroke-width="0.564931" stroke-linecap="round" stroke-linejoin="round"/>
<path d="M39.1617 154.461L34.7969 159.812" stroke="black" stroke-width="0.564931" stroke-linecap="round" stroke-linejoin="round"/>
<path d="M189.001 72.4691L185.022 62.7535C187.454 59.1372 188.63 54.8212 188.369 50.4705C187.648 39.0525 177.045 30.1862 164.409 30.5478C151.508 30.9076 141.334 40.7548 141.694 52.5395C142.052 64.98 153.69 73.886 166.403 73.1369C170.958 72.8497 175.349 71.335 179.112 68.7531L189.001 72.4691Z" stroke="black" stroke-width="0.564931" stroke-linecap="round" stroke-linejoin="round"/>
<path d="M113.376 67.5104C112.769 68.0917 112.003 68.4801 111.176 68.6262C110.348 68.7724 109.496 68.67 108.726 68.3318C107.957 67.9936 107.305 67.4348 106.854 66.726C106.402 66.0174 106.17 65.1906 106.188 64.3504C106.207 63.5103 106.474 62.6942 106.956 62.0059C107.437 61.3173 108.113 60.7871 108.896 60.4824C109.679 60.1778 110.535 60.1122 111.356 60.2939C112.176 60.4757 112.924 60.8968 113.506 61.5038C114.282 62.3188 114.704 63.4084 114.68 64.5339C114.656 65.6595 114.187 66.7296 113.376 67.5104Z" stroke="black" stroke-width="0.564931" stroke-linecap="round" stroke-linejoin="round"/>
<path d="M288.915 11.5156L290.392 29.4384" stroke="black" stroke-width="0.564931" stroke-linecap="round" stroke-linejoin="round"/>
<path d="M298.631 19.7207L280.71 21.231" stroke="black" stroke-width="0.564931" stroke-linecap="round" stroke-linejoin="round"/>
<path d="M44.611 209.899C43.3617 208.368 41.7495 207.172 39.9209 206.422C36.7377 205.271 33.6151 206.288 29.906 207.34C22.4324 209.416 14.4207 213.925 10.2168 210.812" stroke="black" stroke-width="0.564931" stroke-linecap="round" stroke-linejoin="round"/>
<path d="M121.255 212.524L120.894 199.198" stroke="black" stroke-width="0.564931" stroke-linecap="round" stroke-linejoin="round"/>
</svg>
