<svg width="346" height="346" viewBox="0 0 346 346" fill="none" xmlns="http://www.w3.org/2000/svg">
<path d="M73.2763 272.33C72.9125 271.239 72.7745 270.083 72.8705 268.936C72.9665 267.789 73.2947 266.673 73.8351 265.658C69.2553 261.743 64.156 258.48 58.6821 255.961C54.7031 260.123 49.7449 266.109 47.835 268.123C51.122 265.953 81.2638 287.549 82.4471 292.94C83.0059 285.511 75.3593 278.859 73.2763 272.33Z" fill="#09AFF4"/>
<path d="M160.84 260.204C159.529 258.659 158.859 256.672 158.967 254.649C153.287 253.708 147.513 253.475 141.776 253.957C141.702 255.794 141.529 257.628 141.257 259.446C140.632 263.425 139.745 265.001 139.12 268.716C140.073 265.133 177.085 271.773 178.794 275.914C177.472 267.962 165.541 265.989 160.84 260.204Z" fill="#09AFF4"/>
<path d="M317.43 212.279C315.491 210.895 310.856 208.072 304.801 204.456L276.602 210.406L268.323 171.389L272.957 170.403C269.314 145.97 268.612 142.138 265.529 129.118C256.557 138.689 234.861 143.598 225.526 140.984C225.772 141.721 225.953 142.195 226.775 144.173C211.551 177.404 209.19 183.485 208.729 188.942C208.21 195.343 208.894 199.624 221.121 247.121C228.56 249.197 240.994 245.699 245.051 241.402C241.632 226.643 238.148 211.951 234.368 192.722C234.833 191.438 235.383 190.187 236.011 188.974C239.326 179.318 241.466 169.297 242.388 159.128C248.492 186.791 250.286 196.218 254.484 200.906C258.725 205.607 263.653 208.598 304.677 231.7C310.829 230.107 318.493 219.106 317.43 212.279Z" fill="#09AFF4"/>
<path d="M81.8534 199.789C61.8996 202.251 58.8444 202.604 41.8506 204.818L76.9557 229.398C78.4712 227.865 85.5798 220.672 87.0797 219.11C86.2839 216.596 83.118 204.844 81.8534 199.789Z" fill="#09AFF4"/>
<path d="M53.8824 195.944C53.8824 195.925 53.9481 189.765 53.9481 189.765C52.3633 189.996 50.931 190.837 49.9553 192.107C48.9796 193.377 48.537 194.977 48.7218 196.569L49.5435 202.451L54.6713 201.793L53.8824 195.944Z" fill="#09AFF4"/>
<path d="M75.6034 193.28C75.4143 191.784 74.6741 190.414 73.5274 189.435C72.254 189.884 70.9286 190.172 69.583 190.289C69.8615 191.5 69.9498 191.929 70.2404 193.379C70.5103 193.649 70.429 193.59 71.2594 199.78L76.3871 199.123L75.6034 193.28Z" fill="#09AFF4"/>
<path d="M317.399 215.5C316.027 221.643 312.387 227.043 307.209 230.62C307.728 237.326 310.595 252.61 313.323 256.719C318.686 250.309 325.682 227.235 326.044 218.393C323.239 217.213 320.348 216.246 317.399 215.5Z" fill="#E9E9E9"/>
<path d="M243.177 242.978C237.797 246.162 231.646 247.809 225.394 247.744C220.469 254.048 216.614 261.12 213.988 268.677C222.465 267.723 241.533 259.177 247.844 252.702C246.637 249.304 245.073 246.045 243.177 242.978Z" fill="#E9E9E9"/>
<path d="M80.706 293.805C73.3847 292.022 44.8068 273.152 47.6007 268.321C50.1179 265.3 78.5089 285.707 82.0571 292.082C82.8668 293.549 82.4585 294.234 80.706 293.805Z" fill="#E9E9E9"/>
<path d="M162.654 270.19C152.309 268.04 140.597 266.786 139.253 268.526C136.374 272.249 157.091 275.792 161.769 276.399C169.502 277.413 176.669 277.676 178.46 276.764C182.146 274.894 166.953 271.088 162.654 270.19Z" fill="#E9E9E9"/>
<path d="M165.537 258.361C165.471 257.178 163.893 255.666 158.996 254.68C158.873 256.706 159.545 258.698 160.869 260.235C164.189 260.235 165.603 259.347 165.537 258.361Z" fill="#E9E9E9"/>
<path d="M136.711 256.522C136.58 257.936 138.256 258.922 141.28 259.481C141.543 257.64 141.708 255.832 141.799 253.991C138.322 254.419 136.843 255.348 136.711 256.522Z" fill="#E9E9E9"/>
<path d="M58.6782 255.928C57.2648 257.374 55.5642 259.313 53.8463 261.252C51.2824 259.149 50.3863 256.782 51.3153 255.533L51.5125 255.303C52.4657 254.416 54.7995 254.317 58.6782 255.928Z" fill="#E9E9E9"/>
<path d="M73.8706 265.661C77.9465 269.145 79.4966 271.716 78.9655 272.827C78.5105 273.782 76.5331 273.747 73.279 272.334C72.9008 271.242 72.7581 270.085 72.8601 268.934C72.962 267.784 73.3065 266.668 73.8706 265.661Z" fill="#E9E9E9"/>
<path d="M226.11 142.591C223.962 136.581 225.889 142.47 220.424 127.011C221.318 133.522 221.659 140.098 221.443 146.667C223.422 144.991 225.033 143.544 226.11 142.591Z" fill="#E9E9E9"/>
<path d="M264.342 124.284C256.289 133.453 232.856 139.404 223.78 136.413C224.405 138.122 224.991 139.7 225.489 141.015C235.025 143.684 256.673 138.524 265.492 129.116C265.1 127.473 264.738 125.829 264.342 124.284Z" fill="#E9E9E9"/>
<path d="M242.389 159.13C241.467 169.298 239.327 179.319 236.013 188.976C237.722 185.59 240.582 180.725 245.182 171.785L242.389 159.13Z" fill="#E9E9E9"/>
<path d="M301.062 142.43C300.412 141.055 299.882 139.625 299.484 138.157C301.474 138.242 302.533 138.732 302.944 139.368C303.7 140.527 302.515 141.958 301.062 142.43Z" fill="#E9E9E9"/>
<path d="M284.692 141.214C282.326 142.299 281.405 143.383 281.438 144.172C281.537 145.191 282.786 145.849 285.054 145.454C285.583 144.397 284.909 142.378 284.692 141.214Z" fill="#E9E9E9"/>
<path d="M261.354 112.484C258.494 112.09 254.812 111.696 249.98 111.235C254.558 113.6 258.952 116.303 263.128 119.321C262.44 116.626 261.814 114.259 261.354 112.484Z" fill="#E9E9E9"/>
<path d="M226.285 77.3486C225.664 79.5618 224.731 81.6755 223.517 83.6268C223.582 82.7064 223.582 81.5508 223.681 80.1097C224.409 79.3537 225.264 78.4333 226.285 77.3486Z" fill="#E9E9E9"/>
<path d="M223.651 63.0815C223.454 60.7806 222.698 60.3135 216.058 59.8931C209.024 59.4 208.498 60.5505 209.221 64.2976C209.715 66.8286 211.029 67.5518 213.692 67.5518C215.335 67.5518 217.498 67.256 220.233 66.9601C222.337 69.6226 223.717 71.0031 223.717 69.3925C223.717 66.3356 226.906 66.4013 226.971 71.2955C228.155 72.5065 229.469 73.958 230.883 75.3714C229.437 63.7389 229.141 63.5745 223.651 63.0815Z" fill="#E9E9E9"/>
<path d="M226.874 94.9672C227.656 93.8045 228.306 92.5587 228.813 91.2529C227.827 89.8395 226.94 88.3603 226.045 86.8154C225.454 88.1994 224.834 89.6094 224.303 90.9899C224.561 92.3677 225.026 93.6979 225.687 94.9343C225.293 98.6486 223.255 125.24 223.255 126.983C224.364 129.289 225.731 131.461 227.331 133.458C229.114 131.516 230.699 129.402 232.064 127.147C231.41 122.216 227.4 96.7422 226.874 94.9672Z" fill="#E9E9E9"/>
<path d="M185.425 147.887C186.019 147.463 187.233 147.657 188.975 148.807C187.496 150.056 186.641 150.812 186.017 151.338C184.669 149.662 184.638 148.449 185.425 147.887Z" fill="#E9E9E9"/>
<path d="M199.394 160.507C200.413 162.41 200.605 163.662 200.249 164.287C200.225 164.355 200.178 164.412 200.117 164.451C199.526 165.076 197.981 164.747 196.271 163.268C197.488 162.183 199.394 160.507 199.394 160.507Z" fill="#E9E9E9"/>
<path d="M53.0919 175.43C53.0262 176.383 52.9933 177.435 52.9933 178.519C50.5938 178.618 49.4607 178.192 49.4105 177.566C49.3638 176.976 50.5609 176.12 53.0919 175.43Z" fill="#E9E9E9"/>
<path d="M71.5637 175.365C71.6623 175.956 70.8077 176.679 68.2109 177.074C67.6693 176.16 67.4063 175.11 67.4549 174.05C70.0845 174.209 71.4651 174.773 71.5637 175.365Z" fill="#E9E9E9"/>
<path d="M110.283 132.107C109.529 141.33 109.26 151.098 109.072 155.544C94.0519 155.905 81.3658 158.239 75.5479 162.512C75.5807 164.287 75.6136 166.029 75.7122 167.702C84.4574 161.367 103.536 160.277 114.367 160.076C112.598 153.52 111.248 141.022 110.283 132.107Z" fill="#E9E9E9"/>
<path d="M76.954 139.505C76.7567 141.214 76.5924 142.89 76.4609 144.501C74.8831 145.02 72.8123 145.683 70.7744 146.309C68.6378 146.965 66.5342 147.558 65.0879 147.985C69.184 145.361 73.1445 142.53 76.954 139.505Z" fill="#E9E9E9"/>
<path d="M120.969 102.163C120.865 102.329 120.744 102.483 120.607 102.623C119.801 103.462 117.23 103.348 114.929 102.987C114.437 101.613 114.168 100.17 114.132 98.7119C116.959 101.539 119.851 103.774 120.969 102.163Z" fill="#E9E9E9"/>
<path d="M121.821 79.3524C122.018 75.7367 117.515 76.4598 117.15 78.4978C116.879 78.0227 116.46 77.6496 115.957 77.4356C115.454 77.2214 114.895 77.1783 114.365 77.3126C113.834 77.4468 113.363 77.7511 113.023 78.1789C112.682 78.6068 112.491 79.1344 112.479 79.6811C110.869 77.7781 107.582 78.4701 108.14 81.3575C105.872 79.1552 100.054 80.47 109.351 98.2526C111.291 96.6091 113.066 94.9985 114.611 93.5522C111.981 89.4435 115.005 87.4972 116.353 90.1666C117.076 91.58 118.429 91.4486 118.256 87.4713C119.319 87.1973 120.353 86.8231 121.345 86.3537C123.305 85.487 124.972 84.0713 126.144 82.2778C127.869 79.5168 124.549 76.2297 121.821 79.3524Z" fill="#E9E9E9"/>
<path d="M113.404 198.242C115.409 214.973 115.902 221.12 115.804 224.604C111.791 213.264 107.147 202.157 101.895 191.336C105.055 193.312 108.868 195.547 113.404 198.242Z" fill="#E9E9E9"/>
<path d="M304.413 156.365L305.69 162.445L310.752 161.36L309.24 154.293C308.975 153.074 308.282 151.99 307.287 151.236C306.292 150.483 305.062 150.11 303.816 150.184C304.271 152.212 304.47 154.288 304.413 156.365Z" fill="#E9E9E9"/>
<path d="M286.892 153.734L286.564 153.8C285.892 153.937 285.254 154.207 284.686 154.593C284.121 154.979 283.636 155.474 283.263 156.049C282.891 156.625 282.635 157.268 282.514 157.943C282.391 158.618 282.405 159.31 282.553 159.98L284 167.047L289.062 165.962C289.003 165.68 287.086 154.312 286.892 153.734Z" fill="#E9E9E9"/>
<path d="M304.413 156.365L305.889 163.363L310.951 162.278L309.24 154.293C308.975 153.074 308.282 151.99 307.287 151.236C306.292 150.483 305.062 150.11 303.816 150.184C304.271 152.212 304.47 154.288 304.413 156.365Z" stroke="black" stroke-width="0.564931" stroke-linejoin="round"/>
<path d="M286.892 153.734L286.564 153.8C285.892 153.937 285.254 154.207 284.686 154.593C284.121 154.979 283.636 155.474 283.263 156.049C282.891 156.625 282.635 157.268 282.514 157.943C282.391 158.618 282.405 159.31 282.553 159.98L284.18 168.004L289.242 166.92C289.183 166.638 287.086 154.312 286.892 153.734Z" stroke="black" stroke-width="0.564931" stroke-linejoin="round"/>
<path d="M51.4793 170.072C52.7612 169.482 52.7612 172.307 51.7094 172.636C50.6575 172.965 50.6887 170.435 51.4793 170.072Z" fill="#E9E9E9"/>
<path d="M155.514 171.521C156.181 170.244 158.894 170.4 158.34 171.652C157.787 172.905 154.704 173.072 155.514 171.521Z" fill="#E9E9E9"/>
<path d="M201.99 158.963C202.253 160.311 204.671 158.444 204.258 157.32C203.844 156.195 201.694 157.451 201.99 158.963Z" fill="#E9E9E9"/>
<path d="M298.136 131.747C299.418 131.732 300.212 134.673 298.629 134.64C297.046 134.607 296.756 131.763 298.136 131.747Z" fill="#E9E9E9"/>
<path d="M328.081 161.062L328.41 182.687C328.413 182.794 328.379 182.898 328.313 182.982C328.247 183.065 328.152 183.124 328.048 183.147L320.488 184.757L321.507 189.491L316.61 190.542L315.591 185.809L290.347 191.172L291.366 195.905L286.468 196.957L285.451 192.227L277.891 193.838C277.788 193.852 277.683 193.833 277.591 193.786C277.498 193.739 277.422 193.665 277.372 193.575L268.895 173.68L276.68 210.429L335.944 197.84L328.081 161.062Z" fill="#E9E9E9"/>
<path d="M327.127 158.863L268.783 171.288L277.987 192.884L285.218 191.339L284.232 186.737L289.13 185.685L290.116 190.287L315.36 184.929L314.407 180.327L319.304 179.276L320.291 183.877L327.489 182.365L327.127 158.863Z" fill="#E9E9E9"/>
<path d="M276.677 210.43L268.33 171.384L327.586 158.762L335.942 197.841L276.677 210.43Z" stroke="black" stroke-width="0.564931" stroke-linecap="round" stroke-linejoin="round"/>
<path d="M278.432 169.206L283.077 162.612" stroke="black" stroke-width="0.564931" stroke-linecap="round" stroke-linejoin="round"/>
<path d="M302.211 135.364L337.349 85.1719L275.29 41.7178L245.74 83.89" stroke="black" stroke-width="0.564931" stroke-linecap="round" stroke-linejoin="round"/>
<path d="M240.811 223.062L255.536 201.992" stroke="black" stroke-width="0.564931" stroke-linecap="round" stroke-linejoin="round"/>
<path d="M102.26 247.122L183.909 304.283L223.616 247.615" stroke="black" stroke-width="0.564931" stroke-linecap="round" stroke-linejoin="round"/>
<path d="M61.2076 125.898L52.1026 119.521L8.64844 181.58L76.9523 229.406" stroke="black" stroke-width="0.564931" stroke-linecap="round" stroke-linejoin="round"/>
<path d="M181.183 176.091L165.307 198.771L159.752 194.892" stroke="black" stroke-width="0.564931" stroke-linecap="round" stroke-linejoin="round"/>
<path d="M139.834 95.7905L158.11 69.6588L175.366 81.7221L195.746 52.665" stroke="black" stroke-width="0.564931" stroke-linecap="round" stroke-linejoin="round"/>
<path d="M182.894 54.9002L195.746 52.665L198.014 65.4843" stroke="black" stroke-width="0.564931" stroke-linecap="round" stroke-linejoin="round"/>
<path d="M59.827 91.0576L71.6602 88.9539C78.703 87.6737 76.6876 77.2522 69.8195 78.5013L63.2126 79.6188C56.1767 80.8177 54.4951 70.3391 61.3719 69.1662L73.2051 67.0625" stroke="black" stroke-width="0.564931" stroke-linecap="round" stroke-linejoin="round"/>
<path d="M63.9668 64.6924L69.0616 93.4208" stroke="black" stroke-width="0.564931" stroke-linecap="round" stroke-linejoin="round"/>
<path d="M177.338 221.024L191.603 218.493" stroke="black" stroke-width="0.564931" stroke-linecap="round" stroke-linejoin="round"/>
<path d="M183.221 212.608L185.719 226.907" stroke="black" stroke-width="0.564931" stroke-linecap="round" stroke-linejoin="round"/>
<path d="M266.315 248.142L286.268 244.625" stroke="black" stroke-width="0.564931" stroke-linecap="round" stroke-linejoin="round"/>
<path d="M274.534 236.407L278.051 256.392" stroke="black" stroke-width="0.564931" stroke-linecap="round" stroke-linejoin="round"/>
<path d="M109.065 290.248C111.625 290.248 113.7 288.174 113.7 285.613C113.7 283.053 111.625 280.979 109.065 280.979C106.506 280.979 104.431 283.053 104.431 285.613C104.431 288.174 106.506 290.248 109.065 290.248Z" stroke="black" stroke-width="0.564931" stroke-linecap="round" stroke-linejoin="round"/>
<path d="M65.8758 240.644L40.3687 243.833L35.6025 205.6L81.8835 199.816" stroke="black" stroke-width="0.564931" stroke-linecap="round" stroke-linejoin="round"/>
<path d="M121.331 86.4141C123.319 85.5536 125.01 84.1263 126.192 82.3105C127.869 79.5425 124.615 76.2296 121.853 79.3851C122.051 75.7365 117.58 76.4925 117.182 78.5305C116.909 78.0592 116.49 77.6899 115.988 77.4785C115.486 77.2671 114.928 77.225 114.4 77.3588C113.872 77.4927 113.402 77.7949 113.061 78.2198C112.72 78.6448 112.527 79.1692 112.511 79.7138C110.901 77.8108 107.614 78.5028 108.173 81.3902C105.905 79.1879 100.087 80.5027 109.384 98.2854" stroke="black" stroke-width="0.564931" stroke-linecap="round" stroke-linejoin="round"/>
<path d="M114.927 102.989C114.444 101.614 114.185 100.171 114.162 98.7139C116.757 101.335 119.454 103.475 120.726 102.49" stroke="black" stroke-width="0.564931" stroke-linecap="round" stroke-linejoin="round"/>
<path d="M78.7948 124.747C75.2119 151.175 74.4075 166.167 77.3156 180.429C79.9642 193.416 84.6785 210.965 87.1109 219.15C75.8036 230.687 53.6492 252.809 51.3154 255.57" stroke="black" stroke-width="0.564931" stroke-linecap="round" stroke-linejoin="round"/>
<path d="M53.8453 261.287C51.2814 259.184 50.3991 256.822 51.3143 255.568C52.6049 253.8 57.6617 254.279 67.5521 260.931C76.2989 266.813 79.7226 271.256 78.958 272.868C78.503 273.823 76.5256 273.788 73.2714 272.375" stroke="black" stroke-width="0.564931" stroke-linecap="round" stroke-linejoin="round"/>
<path d="M141.247 259.482C138.223 258.923 136.531 257.935 136.678 256.524C136.887 254.517 141.082 253.268 152.094 253.894C162.474 254.484 165.415 256.719 165.538 258.364C165.61 259.35 164.19 260.238 160.837 260.238" stroke="black" stroke-width="0.564931" stroke-linecap="round" stroke-linejoin="round"/>
<path d="M78.9258 272.822C113.275 235.482 114.771 233.08 115.602 226.935C116.053 223.614 115.93 219.441 113.399 198.207" stroke="black" stroke-width="0.564931" stroke-linecap="round" stroke-linejoin="round"/>
<path d="M47.6334 268.356C49.7388 264.741 84.7765 290.051 82.3441 293.699C80.4446 296.559 44.5125 273.716 47.6334 268.356Z" stroke="black" stroke-width="0.564931" stroke-linecap="round" stroke-linejoin="round"/>
<path d="M139.112 268.819C139.432 264.874 179.441 272.171 178.851 276.28C178.39 279.501 138.639 274.635 139.112 268.819Z" stroke="black" stroke-width="0.564931" stroke-linecap="round" stroke-linejoin="round"/>
<path d="M58.6762 255.932C55.1591 259.58 49.5383 266.312 47.6318 268.324" stroke="black" stroke-width="0.564931" stroke-linecap="round" stroke-linejoin="round"/>
<path d="M73.8689 265.661C68.8398 274.766 83.9271 283.411 82.3459 293.699" stroke="black" stroke-width="0.564931" stroke-linecap="round" stroke-linejoin="round"/>
<path d="M139.109 268.816C139.964 263.655 141.345 262.636 141.805 253.991" stroke="black" stroke-width="0.564931" stroke-linecap="round" stroke-linejoin="round"/>
<path d="M158.995 254.684C158.476 265.498 177.566 265.859 178.881 276.279" stroke="black" stroke-width="0.564931" stroke-linecap="round" stroke-linejoin="round"/>
<path d="M136.709 256.522C137.137 245.675 135.822 216.421 135.296 211.654C103.544 191.308 91.3159 187.495 89.3438 178.521" stroke="black" stroke-width="0.564931" stroke-linecap="round" stroke-linejoin="round"/>
<path d="M165.538 258.364C163.533 205.64 162.943 199.528 158.8 193.347C154.753 187.301 151.404 184.735 133.753 173.921" stroke="black" stroke-width="0.564931" stroke-linecap="round" stroke-linejoin="round"/>
<path d="M49.4081 177.571C47.4359 151.242 47.6348 140.997 51.8405 134.769C57.8955 125.831 75.474 116.13 93.9798 111.241C117.219 105.093 126.653 105.949 130.893 109.762C134.353 112.887 135.391 117.786 136.415 150.253C142.774 151.005 157.552 152.787 160.542 153.315C164.782 157.029 165.505 169.75 160.542 174.45C137.335 174.45 126.748 174.193 122.084 171.262C114.88 166.735 113.537 162.42 110.25 132.147C109.496 141.352 109.2 151.078 109.039 155.536" stroke="black" stroke-width="0.564931" stroke-linecap="round" stroke-linejoin="round"/>
<path d="M134.507 150.025L136.41 150.25" stroke="black" stroke-width="0.564931" stroke-linecap="round" stroke-linejoin="round"/>
<path d="M52.9571 178.525C50.5576 178.591 49.4366 178.197 49.3743 177.572C49.2722 176.553 52.6942 174.934 60.0242 174.219C67.5185 173.488 71.3643 174.351 71.5287 175.337C71.6273 175.929 70.7727 176.652 68.1759 177.046" stroke="black" stroke-width="0.564931" stroke-linecap="round" stroke-linejoin="round"/>
<path d="M76.4648 144.501C73.2107 145.586 67.8857 147.197 65.0918 147.961C69.2004 145.367 73.1617 142.547 76.9579 139.514" stroke="black" stroke-width="0.564931" stroke-linecap="round" stroke-linejoin="round"/>
<path d="M71.5613 175.37C71.2326 168.467 70.7725 153.774 70.7725 146.306" stroke="black" stroke-width="0.564931" stroke-linecap="round" stroke-linejoin="round"/>
<path d="M48.7852 168.629C51.6448 164.52 68.4085 163.074 71.1696 165.861" stroke="black" stroke-width="0.564931" stroke-linecap="round" stroke-linejoin="round"/>
<path d="M150.779 151.999C154.92 155.779 154.526 170.143 149.267 174.416" stroke="black" stroke-width="0.564931" stroke-linecap="round" stroke-linejoin="round"/>
<path d="M75.7031 167.708C82.4726 162.812 96.6638 160.314 114.339 160.082" stroke="black" stroke-width="0.564931" stroke-linecap="round" stroke-linejoin="round"/>
<path d="M75.5381 162.516C81.8785 157.845 96.4711 155.483 113.316 155.481" stroke="black" stroke-width="0.564931" stroke-linecap="round" stroke-linejoin="round"/>
<path d="M67.4535 174.021C67.3994 175.207 67.7468 176.377 68.4396 177.34C68.9586 177.998 72.4186 181.082 73.1729 182.205C74.0033 183.449 74.422 188.681 73.7646 189.239C72.9099 189.964 67.1577 190.554 64.8568 190.554C63.2133 190.554 63.6077 187.76 69.0313 186.38C64.5333 186.643 61.5041 185.328 60.748 181.416" stroke="black" stroke-width="0.564931" stroke-linecap="round" stroke-linejoin="round"/>
<path d="M53.0862 175.434C52.8234 180.265 52.9113 185.109 53.3492 189.929" stroke="black" stroke-width="0.564931" stroke-linecap="round" stroke-linejoin="round"/>
<path d="M57.7229 190.356C57.5499 187.365 61.1137 186.971 61.4701 189.837C61.7365 191.974 61.868 193.486 62.0289 195.2C62.1379 195.719 62.0363 196.259 61.7465 196.704C61.4567 197.146 61.0026 197.458 60.484 197.567C59.9653 197.676 59.4245 197.574 58.9806 197.285C58.5369 196.994 58.2263 196.541 58.1173 196.022C57.889 194.141 57.7573 192.251 57.7229 190.356Z" stroke="black" stroke-width="0.564931" stroke-linecap="round" stroke-linejoin="round"/>
<path d="M69.5885 190.226C69.8844 191.61 70.1231 192.722 70.3774 193.94C70.4982 194.433 70.4272 194.954 70.179 195.395C69.9307 195.838 69.5237 196.17 69.0401 196.324C68.5568 196.478 68.0327 196.441 67.5745 196.223C67.1162 196.007 66.7577 195.623 66.5714 195.151C66.1879 193.637 65.9023 192.099 65.7168 190.549" stroke="black" stroke-width="0.564931" stroke-linecap="round" stroke-linejoin="round"/>
<path d="M53.9445 190.357C53.9445 187.464 57.4045 187.267 57.5931 190.061C57.7315 192.137 57.7661 193.611 57.8232 195.251C57.8865 195.754 57.7511 196.261 57.4457 196.666C57.1404 197.071 56.6892 197.341 56.1882 197.417C55.6872 197.495 55.1758 197.374 54.7628 197.079C54.3501 196.785 54.0682 196.341 53.9774 195.842C53.8148 194.465 53.9445 192.986 53.9445 190.357Z" stroke="black" stroke-width="0.564931" stroke-linecap="round" stroke-linejoin="round"/>
<path d="M65.6435 190.554C65.9064 192.131 66.076 193.38 66.268 194.761C66.3843 195.278 66.2952 195.82 66.0192 196.271C65.7433 196.723 65.3023 197.05 64.7895 197.181C64.2769 197.314 63.7329 197.242 63.2727 196.98C62.8123 196.719 62.472 196.288 62.3236 195.78C62.0084 193.875 61.789 191.955 61.6662 190.028C61.3998 187.464 63.9014 186.675 65.0189 188.187" stroke="black" stroke-width="0.564931" stroke-linecap="round" stroke-linejoin="round"/>
<path d="M177.208 173C177.595 170.27 174.532 169.479 173.855 172.046C173.587 173.064 173.232 174.446 173.001 175.506C172.879 175.973 172.946 176.472 173.187 176.89C173.43 177.309 173.826 177.615 174.291 177.745C174.757 177.875 175.255 177.816 175.677 177.581C176.099 177.347 176.414 176.956 176.551 176.492C176.829 175.34 177.049 174.174 177.208 173Z" stroke="black" stroke-width="0.564931" stroke-linecap="round" stroke-linejoin="round"/>
<path d="M173.721 172.177C174.428 169.461 171.211 168.459 170.368 171.026C170.034 172.044 169.565 173.488 169.349 174.215C168.579 176.798 172.081 177.931 172.801 175.661C173.197 174.412 173.506 172.999 173.721 172.177Z" stroke="black" stroke-width="0.564931" stroke-linecap="round" stroke-linejoin="round"/>
<path d="M170.171 171.391C170.999 168.786 168.14 167.681 166.95 170.077C166.623 170.736 166.119 171.914 165.668 173.101C165.45 173.537 165.414 174.042 165.568 174.504C165.722 174.966 166.054 175.348 166.489 175.566C166.925 175.784 167.43 175.82 167.892 175.666C168.354 175.512 168.737 175.18 168.955 174.744C169.308 173.985 169.899 172.243 170.171 171.391Z" stroke="black" stroke-width="0.564931" stroke-linecap="round" stroke-linejoin="round"/>
<path d="M180.656 173.495C180.745 170.833 177.854 170.208 177.369 172.739C177.169 173.791 176.868 175.853 176.811 176.421C176.831 176.845 177.001 177.246 177.29 177.557C177.579 177.867 177.968 178.066 178.388 178.116C178.81 178.168 179.236 178.068 179.591 177.836C179.945 177.604 180.207 177.255 180.328 176.848C180.501 175.737 180.61 174.618 180.656 173.495Z" stroke="black" stroke-width="0.564931" stroke-linecap="round" stroke-linejoin="round"/>
<path d="M154.722 254.125C153.338 209.455 153.835 202.158 150.581 197.326C145.977 190.489 140.448 187.448 114.752 172.213C110.543 169.719 109.296 166.921 109.099 160.276" stroke="black" stroke-width="0.564931" stroke-linecap="round" stroke-linejoin="round"/>
<path d="M101.894 191.312C107.13 202.15 111.773 213.265 115.803 224.609" stroke="black" stroke-width="0.564931" stroke-linecap="round" stroke-linejoin="round"/>
<path d="M213.726 67.5205C215.994 80.4955 216.651 82.4418 218.689 82.6736C220.694 82.9019 221.943 82.0819 226.315 77.3486C225.825 79.6219 224.894 81.7767 223.574 83.6908" stroke="black" stroke-width="0.564931" stroke-linecap="round" stroke-linejoin="round"/>
<path d="M223.649 63.0834C223.419 60.8154 222.663 60.3552 216.089 59.895C209.055 59.402 208.529 60.5524 209.252 64.2996C210.008 68.4084 213.032 67.751 220.23 66.9621C222.334 69.6245 223.715 71.038 223.715 69.3945C223.715 66.3375 226.903 66.4033 226.969 71.2975C228.102 72.8846 229.417 74.3359 230.882 75.6225C229.434 63.9726 229.142 63.5765 223.649 63.0834Z" stroke="black" stroke-width="0.564931" stroke-linecap="round" stroke-linejoin="round"/>
<path d="M223.655 80.1182C223.878 83.0592 223.51 86.623 221.384 87.834C215.171 91.4168 212.677 92.8648 210.569 95.8542C206.533 101.579 206.789 105.387 206.033 130.828C198.407 137.402 188.906 144.798 185.424 147.92" stroke="black" stroke-width="0.564931" stroke-linecap="round" stroke-linejoin="round"/>
<path d="M186.014 151.341C184.63 149.665 184.63 148.457 185.422 147.922C186.514 147.179 189.657 148.386 194.462 153.872C199.617 159.754 200.927 163.136 200.247 164.325C199.78 165.143 198.11 164.916 196.268 163.306" stroke="black" stroke-width="0.564931" stroke-linecap="round" stroke-linejoin="round"/>
<path d="M285.085 145.456C282.817 145.85 281.556 145.194 281.469 144.174C281.355 142.828 283.971 140.736 291.56 139.079C300.077 137.221 302.951 138.387 303.131 139.868C303.122 140.466 302.913 141.044 302.537 141.509C302.16 141.974 301.638 142.299 301.055 142.432" stroke="black" stroke-width="0.564931" stroke-linecap="round" stroke-linejoin="round"/>
<path d="M281.47 144.208C275.98 120.245 275.415 117.787 273.154 116.137C270.057 113.877 267.894 112.981 249.947 111.305C254.525 113.67 258.919 116.373 263.095 119.391" stroke="black" stroke-width="0.564931" stroke-linecap="round" stroke-linejoin="round"/>
<path d="M304.774 204.458C310.829 208.106 315.489 210.9 317.429 212.281C318.579 219.547 310.131 230.557 304.675 231.707C263.653 208.599 258.726 205.605 254.483 200.913C250.443 196.439 249.026 189.178 242.353 159.168C240.899 159.082 239.466 158.76 238.113 158.215" stroke="black" stroke-width="0.564931" stroke-linecap="round" stroke-linejoin="round"/>
<path d="M261.352 112.52C263.192 119.554 267.431 135.923 269.405 147.723C270.488 154.199 271.804 162.947 272.955 170.404" stroke="black" stroke-width="0.564931" stroke-linecap="round" stroke-linejoin="round"/>
<path d="M215.269 100.062C214.89 103.711 214.89 107.39 215.269 111.04C215.54 113.542 224.768 139.412 226.773 144.173C211.549 177.339 209.163 183.486 208.727 188.909C208.208 195.31 208.892 199.592 221.119 247.089C228.581 249.291 241.499 245.347 245.016 241.37C241.597 226.611 238.113 211.885 234.333 192.689C235.615 189.008 238.573 184.505 245.147 171.756" stroke="black" stroke-width="0.564931" stroke-linecap="round" stroke-linejoin="round"/>
<path d="M317.398 215.469C320.353 216.235 323.252 217.2 326.076 218.361C325.714 227.203 318.713 250.278 313.355 256.688C310.627 252.579 307.767 237.294 307.241 230.589" stroke="black" stroke-width="0.564931" stroke-linecap="round" stroke-linejoin="round"/>
<path d="M243.143 242.948C245.039 246.017 246.605 249.278 247.814 252.678C241.503 259.153 222.438 267.699 213.958 268.653C216.619 261.12 220.47 254.062 225.364 247.747" stroke="black" stroke-width="0.564931" stroke-linecap="round" stroke-linejoin="round"/>
<path d="M200.216 164.381C207.221 158.95 221.637 146.62 226.152 142.563" stroke="black" stroke-width="0.564931" stroke-linecap="round" stroke-linejoin="round"/>
<path d="M192.983 141.61C199.13 142.103 207.808 153.509 207.183 158.768" stroke="black" stroke-width="0.564931" stroke-linecap="round" stroke-linejoin="round"/>
<path d="M279.396 135.103C281.717 130.067 297.638 127.016 301.005 129.74" stroke="black" stroke-width="0.564931" stroke-linecap="round" stroke-linejoin="round"/>
<path d="M223.423 84.5148C224.146 85.4581 225.065 86.2323 226.118 86.7828C229.971 85.1126 233.594 82.9562 236.898 80.3662" stroke="black" stroke-width="0.564931" stroke-linecap="round" stroke-linejoin="round"/>
<path d="M238.87 81.624C237.486 86.1601 232.658 92.997 231.508 94.5091C229.355 92.2232 227.539 89.6441 226.11 86.8486C224.878 89.3959 223.908 92.0623 223.217 94.8066C222.582 91.8099 222.525 88.7193 223.053 85.7016" stroke="black" stroke-width="0.564931" stroke-linecap="round" stroke-linejoin="round"/>
<path d="M224.38 90.998C224.643 92.3744 225.109 93.7038 225.764 94.9425C225.37 98.6239 223.332 125.217 223.332 126.991C224.429 129.304 225.797 131.477 227.408 133.466C229.174 131.519 230.749 129.405 232.108 127.155C231.451 122.225 227.437 96.7503 226.918 94.9771C227.674 93.8057 228.313 92.5613 228.821 91.2627" stroke="black" stroke-width="0.564931" stroke-linecap="round" stroke-linejoin="round"/>
<path d="M223.815 136.417C232.822 139.408 256.258 133.459 264.344 124.288" stroke="black" stroke-width="0.564931" stroke-linecap="round" stroke-linejoin="round"/>
<path d="M225.524 141.019C235.024 143.715 257.112 138.424 265.527 129.153" stroke="black" stroke-width="0.564931" stroke-linecap="round" stroke-linejoin="round"/>
<path d="M221.482 146.674C221.7 140.105 221.359 133.529 220.463 127.018" stroke="black" stroke-width="0.564931" stroke-linecap="round" stroke-linejoin="round"/>
<path d="M242.354 159.098C241.432 169.266 239.292 179.287 235.978 188.944" stroke="black" stroke-width="0.564931" stroke-linecap="round" stroke-linejoin="round"/>
<path d="M234.957 141.577C236.86 149.597 236.962 150.353 239.756 150.189" stroke="black" stroke-width="0.564931" stroke-linecap="round" stroke-linejoin="round"/>
<path d="M297.181 206.069C306.056 211.69 314.076 216.752 316.64 218.396" stroke="black" stroke-width="0.564931" stroke-linecap="round" stroke-linejoin="round"/>
<path d="M258.722 134.379C262.6 150.814 267.005 172.968 268.385 187.628C269.273 188.253 270.621 189.14 272.33 190.258" stroke="black" stroke-width="0.564931" stroke-linecap="round" stroke-linejoin="round"/>
<path d="M188.974 148.81C185.785 151.472 185.555 152.069 184.175 152.129C180.921 152.273 178.168 151.216 177.042 152.458C174.93 154.91 172.986 157.501 171.224 160.215C169.805 162.291 173.689 163.733 178.455 158.21C179.86 158.938 181.402 159.364 182.981 159.46C184.561 159.557 186.142 159.321 187.624 158.769" stroke="black" stroke-width="0.564931" stroke-linecap="round" stroke-linejoin="round"/>
<path d="M162.382 155.875C166.491 156.466 167.342 156.658 168.529 155.973C171.347 154.349 172.508 152.34 174.116 152.818C174.776 153.01 175.431 153.212 176.121 153.442" stroke="black" stroke-width="0.564931" stroke-linecap="round" stroke-linejoin="round"/>
<path d="M199.36 160.511C197.914 161.793 194.429 164.882 192.959 166.329" stroke="black" stroke-width="0.564931" stroke-linecap="round" stroke-linejoin="round"/>
<path d="M184.472 159.457C193.018 163.862 194.629 166.688 191.769 169.285" stroke="black" stroke-width="0.564931" stroke-linecap="round" stroke-linejoin="round"/>
<path d="M186.574 165.605C191.472 168.104 192.975 169.512 191.406 171.66C190.515 172.871 189.303 172.91 184.668 169.688" stroke="black" stroke-width="0.564931" stroke-linecap="round" stroke-linejoin="round"/>
<path d="M162.12 172.483C163.402 172.615 164.947 172.812 165.769 172.944" stroke="black" stroke-width="0.564931" stroke-linecap="round" stroke-linejoin="round"/>
<path d="M182.629 172.673C184.207 173.725 187.789 177.143 189.466 172.312" stroke="black" stroke-width="0.564931" stroke-linecap="round" stroke-linejoin="round"/>
<path d="M180.46 175.926C181.906 176.288 184.536 177.208 185.489 174.542" stroke="black" stroke-width="0.564931" stroke-linecap="round" stroke-linejoin="round"/>
<path d="M299.481 138.126C300.303 141.709 302.537 144.437 303.979 150.755C304.44 153.216 304.517 155.732 304.21 158.216C304.076 158.551 303.874 158.853 303.614 159.103C303.355 159.353 303.047 159.545 302.708 159.666C302.369 159.788 302.007 159.835 301.649 159.807C301.291 159.777 300.942 159.672 300.627 159.498" stroke="black" stroke-width="0.564931" stroke-linecap="round" stroke-linejoin="round"/>
<path d="M300.699 154.791C300.83 156.223 300.83 157.665 300.699 159.097C300.535 160.611 298.723 161.926 296.547 160.481" stroke="black" stroke-width="0.564931" stroke-linecap="round" stroke-linejoin="round"/>
<path d="M296.59 155.974C296.693 157.275 296.716 158.581 296.655 159.885C296.621 160.378 296.443 160.851 296.143 161.244C295.844 161.638 295.436 161.936 294.97 162.101C294.503 162.266 294 162.292 293.519 162.175C293.038 162.058 292.602 161.803 292.265 161.442" stroke="black" stroke-width="0.564931" stroke-linecap="round" stroke-linejoin="round"/>
<path d="M292.186 156.996C292.387 158.267 292.452 159.556 292.383 160.841C292.348 161.4 292.105 161.924 291.698 162.309C291.293 162.694 290.755 162.911 290.196 162.915C289.638 162.919 289.096 162.711 288.684 162.332C288.273 161.953 288.02 161.432 287.978 160.874C287.7 157.753 287.15 154.663 286.335 151.638" stroke="black" stroke-width="0.564931" stroke-linecap="round" stroke-linejoin="round"/>
<path d="M284.691 141.216C285.065 142.395 285.24 143.628 285.21 144.864C285.079 146.278 282.351 149.137 282.351 150.715C282.437 152.324 282.96 153.879 283.863 155.213" stroke="black" stroke-width="0.564931" stroke-linecap="round" stroke-linejoin="round"/>
<path d="M290.08 155.021C292.217 154.363 299.284 152.556 301.486 152.161" stroke="black" stroke-width="0.564931" stroke-linecap="round" stroke-linejoin="round"/>
<path d="M118.106 106.569C116.663 105.779 115.54 104.513 114.926 102.987C117.223 103.347 119.816 103.477 120.604 102.624C121.988 101.18 122.411 97.7646 121.33 86.4141C120.347 86.8739 119.322 87.2388 118.27 87.504C118.434 91.483 117.083 91.6144 116.367 90.1993C115.014 87.5403 111.995 89.4762 114.625 93.5849C107.822 99.9115 96.8784 109.297 84.9414 114.008" stroke="black" stroke-width="0.564931" stroke-linecap="round" stroke-linejoin="round"/>
<path d="M303.093 139.868C297.211 109.923 293.751 102.922 287.414 97.0708C276.669 87.1112 264.341 86.1545 243.235 83.5941C240.87 83.2862 235.089 79.4767 230.878 75.624" stroke="black" stroke-width="0.564931" stroke-linecap="round" stroke-linejoin="round"/>
<path d="M290.23 190.748L315.475 185.391" stroke="black" stroke-width="0.564931" stroke-linecap="round" stroke-linejoin="round"/>
<path d="M289.129 185.688L284.231 186.74L286.467 196.959L291.364 195.908L289.129 185.688Z" stroke="black" stroke-width="0.564931" stroke-linecap="round" stroke-linejoin="round"/>
<path d="M319.302 179.28L314.404 180.332L316.607 190.546L321.504 189.494L319.302 179.28Z" stroke="black" stroke-width="0.564931" stroke-linecap="round" stroke-linejoin="round"/>
<path d="M320.393 184.359L327.97 182.74L327.659 159.098" stroke="black" stroke-width="0.564931" stroke-linecap="round" stroke-linejoin="round"/>
<path d="M285.318 191.821L277.768 193.395L268.396 171.707" stroke="black" stroke-width="0.564931" stroke-linecap="round" stroke-linejoin="round"/>
<path d="M53.8785 195.944C53.8785 195.925 53.9442 189.765 53.9442 189.765C52.3594 189.996 50.9271 190.837 49.9514 192.107C48.9757 193.377 48.5331 194.977 48.7179 196.569L49.6879 203.786L54.8156 203.129L53.8785 195.944Z" stroke="black" stroke-width="0.564931" stroke-linejoin="round"/>
<path d="M75.5995 193.283C75.4104 191.787 74.6701 190.417 73.5235 189.438C72.25 189.887 70.9247 190.174 69.5791 190.292C69.8576 191.503 69.9459 191.932 70.2365 193.382C70.5064 193.652 70.5733 194.885 71.4037 201.075L76.5314 200.418L75.5995 193.283Z" stroke="black" stroke-width="0.564931" stroke-linejoin="round"/>
</svg>
