<svg width="244" height="244" viewBox="0 0 244 244" fill="none" xmlns="http://www.w3.org/2000/svg">
<path d="M57.8539 147.538C57.4796 146.731 56.9497 146.006 56.2944 145.405C55.6393 144.804 54.8718 144.338 54.0361 144.035C53.2004 143.731 52.3129 143.595 51.4246 143.635C50.5363 143.675 49.6647 143.891 48.86 144.269L38.5205 149.091L44.8255 162.633C46.4655 163.36 48.1545 163.971 49.8799 164.463C45.0341 156.697 46.7958 155.353 51.8966 160.916C56.8047 166.272 62.8607 166.725 66.9404 167.106L57.8539 147.538Z" fill="#09AFF4"/>
<path d="M56.5565 180.269C55.234 179.881 53.8322 179.457 52.4316 179.018L57.4849 189.866C56.6364 186.743 56.3225 183.497 56.5565 180.269Z" fill="#09AFF4"/>
<path d="M60.1278 192.441C59.4361 192.735 58.7139 192.187 58.2734 191.512L60.2901 195.825L70.327 191.142C67.4527 191.538 61.82 192.231 60.1278 192.441Z" fill="#09AFF4"/>
<path d="M43.4132 175.799C41.4197 175.011 39.3799 174.199 37.456 173.249C34.8598 171.974 35.016 170.653 37.5487 171.255C38.4759 171.464 39.5653 171.603 41.3502 171.834C39.3083 171.076 37.3183 170.186 35.3929 169.168C32.7736 167.686 33.2836 165.969 35.787 166.874C36.4592 167.129 38.0123 167.615 39.8203 168.079L39.5422 167.499C38.1122 166.687 36.7274 165.797 35.3941 164.835C32.9834 162.979 33.6788 161.356 36.0432 162.608C36.3909 162.794 36.924 163.025 37.5731 163.304L32.288 151.945L21.9717 156.767C21.165 157.141 20.4404 157.671 19.8392 158.326C19.2381 158.981 18.7721 159.748 18.4685 160.584C18.1648 161.42 18.0292 162.308 18.0694 163.196C18.1098 164.084 18.3251 164.955 18.7033 165.761L34.7439 200.255C35.1183 201.061 35.6483 201.786 36.3034 202.387C36.9586 202.988 37.7261 203.454 38.5618 203.757C39.3975 204.061 40.2849 204.197 41.1732 204.156C42.0613 204.116 42.9329 203.901 43.7377 203.523L54.0772 198.701L43.4132 175.799Z" fill="#09AFF4"/>
<path d="M115.437 16.8433L99.4181 23.5667L113.652 13.5981L109.966 6.89905C109.845 6.68145 109.674 6.49599 109.467 6.35819C109.26 6.22038 109.022 6.13426 108.775 6.10701C108.527 6.07977 108.277 6.11222 108.045 6.20162C107.812 6.29103 107.605 6.4348 107.44 6.62089L88.1758 28.0636C87.9636 28.3044 87.8307 28.6049 87.7956 28.9241C87.7603 29.2432 87.8244 29.5654 87.9789 29.8468C88.1336 30.1282 88.3713 30.355 88.6596 30.4963C88.9479 30.6377 89.2727 30.6866 89.5898 30.6366L118.033 25.8383C118.277 25.7984 118.509 25.7007 118.708 25.5531C118.907 25.4055 119.067 25.2123 119.176 24.9899C119.285 24.7675 119.339 24.5222 119.334 24.2747C119.329 24.027 119.264 23.7842 119.146 23.5667L115.437 16.8433Z" fill="#09AFF4"/>
<path d="M124.247 135.764C122.439 136.6 122.022 139.89 122.783 144.458C126.448 144.162 130.075 143.502 133.609 142.487C130.019 137.666 126.356 134.79 124.247 135.764Z" fill="#E9E9E9"/>
<path d="M142.723 160.637C139.408 163.265 135.514 165.063 131.363 165.883C135.722 172.86 140.358 177.079 142.931 175.873C145.504 174.685 145.273 168.45 142.723 160.637Z" fill="#E9E9E9"/>
<path d="M229.302 38.1953C223.576 43.1327 213.191 59.6149 211.267 65.5721C211.614 68.4464 211.892 70.4863 212.078 72.2248C216.347 72.7952 220.678 72.7092 224.921 71.9698L224.874 70.069C229.835 53.8662 230.02 46.911 229.302 38.1953Z" fill="#E9E9E9"/>
<path d="M160.501 18.375C156.375 25.7694 152.063 42.7384 151.717 50.4354C152.945 52.4045 154.128 54.3516 155.263 56.2767C158.537 53.3642 162.254 50.9928 166.275 49.252C166.347 44.9393 166.922 37.235 160.501 18.375Z" fill="#E9E9E9"/>
<path d="M56.5567 180.271C56.2322 186.971 57.5546 192.349 59.6177 192.511C61.5697 192.674 63.5351 188.222 64.3232 182.195C61.6834 181.782 59.0846 181.138 56.5567 180.271Z" fill="#E9E9E9"/>
<path d="M113.445 204.24C111.974 204.906 110.647 205.857 109.543 207.036C108.438 208.215 107.576 209.601 107.007 211.113C106.438 212.625 106.172 214.234 106.224 215.85C106.277 217.464 106.647 219.053 107.314 220.525C107.98 221.996 108.93 223.322 110.11 224.428C111.289 225.533 112.674 226.394 114.186 226.963C115.698 227.532 117.308 227.798 118.923 227.746C120.538 227.694 122.127 227.323 123.598 226.657L113.445 204.24Z" fill="#E9E9E9"/>
<path d="M225.178 81.4277L225.247 84.812C229.304 83.8128 229.211 82.3549 225.178 81.4277Z" fill="#E9E9E9"/>
<path d="M155.238 70.7865C155.757 71.6857 158.761 70.972 162.609 69.2103C161.937 67.889 161.195 66.5263 160.43 65.1074C156.884 67.5865 154.713 69.8776 155.238 70.7865Z" fill="#E9E9E9"/>
<path d="M175.871 58.8719C175.523 58.2692 174.063 58.3839 172 59.0573L173.785 62.1171C175.407 60.6568 176.219 59.4746 175.871 58.8719Z" fill="#E9E9E9"/>
<path d="M116.366 157.483C115.757 159.423 114.949 161.296 113.955 163.07L116.435 164.253L116.366 157.483Z" fill="#E9E9E9"/>
<path d="M102.688 138.13L101.576 141.653L100.834 139.103L102.688 138.13Z" fill="#E9E9E9"/>
<path d="M204.313 83.119C204.313 84.2316 207.651 85.1588 212.287 85.5065C212.357 83.6289 212.38 82.0759 212.403 80.7314C207.698 81.056 204.313 82.0063 204.313 83.119Z" fill="#E9E9E9"/>
<path d="M124.223 113.928C124.636 113.659 124.987 113.305 125.251 112.889C125.514 112.473 125.686 112.005 125.753 111.517C125.823 110.998 125.775 110.47 125.612 109.972C125.448 109.474 125.175 109.02 124.81 108.643C124.447 108.266 124.003 107.977 123.511 107.796C123.019 107.615 122.492 107.548 121.971 107.6C122.286 107.169 122.485 106.665 122.551 106.136C122.673 105.23 122.431 104.312 121.88 103.583C121.329 102.854 120.512 102.372 119.607 102.242C118.925 102.147 118.23 102.26 117.614 102.566C117.658 102.423 117.689 102.275 117.706 102.126C117.809 101.377 117.663 100.615 117.292 99.9574C116.92 99.2992 116.344 98.7807 115.65 98.4812C114.956 98.1816 114.183 98.1174 113.45 98.2983C112.716 98.4792 112.062 98.8955 111.587 99.4833C111.592 98.6491 111.294 97.8414 110.748 97.2103C110.202 96.5793 109.446 96.1679 108.62 96.0527L108.388 96.0063C107.584 95.8948 106.766 96.0708 106.078 96.5033C105.391 96.9359 104.879 97.5972 104.632 98.3707C104.361 97.6524 103.858 97.0448 103.204 96.6437C102.549 96.2427 101.78 96.0713 101.017 96.1564C100.254 96.2414 99.5412 96.5782 98.9911 97.1134C98.4409 97.6488 98.0847 98.3521 97.9788 99.1124C97.9596 99.2117 97.9519 99.3127 97.9557 99.4138C97.4286 98.9049 96.7562 98.5728 96.0317 98.4634C95.5825 98.3994 95.1251 98.4249 94.6858 98.5385C94.2465 98.6521 93.834 98.8513 93.472 99.125C93.1101 99.3986 92.8058 99.7411 92.5768 100.133C92.3477 100.525 92.1985 100.958 92.1375 101.407C92.0773 101.89 92.118 102.38 92.257 102.846C91.9646 102.705 91.6517 102.611 91.3298 102.567C90.647 102.473 89.9514 102.585 89.3328 102.889C88.7143 103.194 88.2013 103.677 87.8598 104.276C87.5184 104.875 87.3642 105.562 87.4174 106.25C87.4705 106.937 87.7284 107.593 88.1578 108.132C87.3456 108.033 86.5246 108.227 85.8418 108.677C85.1588 109.128 84.6584 109.807 84.4296 110.593C84.201 111.378 84.259 112.22 84.5933 112.966C84.9275 113.713 85.5164 114.317 86.2546 114.67C85.4429 114.778 84.6961 115.172 84.1473 115.779C83.5986 116.387 83.2836 117.17 83.2584 117.989C83.2334 118.807 83.4999 119.608 84.0105 120.249C84.521 120.889 85.2424 121.327 86.046 121.485C85.4624 121.871 85.0105 122.427 84.7505 123.077C84.4905 123.727 84.4349 124.441 84.5911 125.123C84.7472 125.806 85.1076 126.425 85.6244 126.897C86.1411 127.369 86.7895 127.673 87.4832 127.767C87.7674 127.79 88.053 127.79 88.3372 127.767C88.0469 128.208 87.8571 128.708 87.7809 129.231C87.659 130.137 87.8999 131.054 88.4513 131.784C89.0027 132.512 89.8197 132.995 90.7247 133.125C91.4144 133.232 92.1202 133.119 92.7414 132.8C92.5709 133.438 92.5873 134.112 92.7887 134.741C92.99 135.37 93.3679 135.927 93.8772 136.348C93.4409 134.137 93.4252 131.865 93.8308 129.648C95.4303 118.058 101.48 124.061 102.662 128.257C102.941 128.999 103.427 129.022 104.285 127.747C106.071 125.105 109.339 128.628 105.515 132.29C105.121 132.684 104.934 135.373 106.491 138.294C106.995 138.75 107.625 139.041 108.299 139.128C108.773 139.193 109.254 139.158 109.714 139.027C110.174 138.895 110.601 138.67 110.969 138.365C111.337 138.06 111.638 137.681 111.853 137.254C112.068 136.827 112.191 136.36 112.216 135.883C112.669 136.337 113.24 136.655 113.864 136.802C114.489 136.948 115.141 136.918 115.749 136.713C116.357 136.508 116.895 136.137 117.303 135.643C117.711 135.148 117.972 134.549 118.058 133.913C118.121 133.44 118.089 132.959 117.965 132.499C118.454 132.721 118.988 132.826 119.524 132.805C120.061 132.784 120.585 132.639 121.056 132.381C121.526 132.122 121.929 131.757 122.234 131.314C122.539 130.873 122.735 130.365 122.81 129.833C122.877 129.376 122.849 128.91 122.729 128.463C122.609 128.017 122.401 127.599 122.114 127.237C122.928 127.34 123.75 127.15 124.437 126.701C125.123 126.253 125.626 125.574 125.858 124.787C126.089 124.002 126.033 123.157 125.7 122.41C125.367 121.66 124.777 121.054 124.038 120.7C124.79 120.604 125.489 120.264 126.029 119.732C126.57 119.201 126.92 118.507 127.028 117.756C127.148 116.879 126.922 115.99 126.399 115.276C125.877 114.562 125.096 114.078 124.223 113.928Z" fill="#E9E9E9"/>
<path d="M229.164 103.355C232.64 111.163 234.532 119.582 234.732 128.126C234.932 136.67 233.437 145.17 230.329 153.131C227.223 161.092 222.568 168.36 216.635 174.51C210.701 180.66 203.605 185.572 195.761 188.963" stroke="black" stroke-width="0.564931" stroke-linecap="round" stroke-linejoin="round"/>
<path d="M179.974 65.8486C191.999 67.68 203.259 72.8802 212.45 80.8473" stroke="black" stroke-width="0.564931" stroke-linecap="round" stroke-linejoin="round"/>
<path d="M141.376 71.8753C146.986 69.07 152.975 67.1023 159.155 66.0352" stroke="black" stroke-width="0.564931" stroke-linecap="round" stroke-linejoin="round"/>
<path d="M102.943 181.013L128.721 237.899" stroke="black" stroke-width="0.564931" stroke-linecap="round" stroke-linejoin="round"/>
<path d="M89.1279 150.507L52.7573 70.3003C50.787 66.0303 53.5686 62.2568 58.2278 62.8583L121.373 71.1103C125.044 71.5909 128.533 72.9901 131.518 75.1784C134.505 77.3667 136.89 80.2733 138.453 83.6288L209.896 237.851" stroke="black" stroke-width="0.564931" stroke-linecap="round" stroke-linejoin="round"/>
<path d="M101.94 143.116C93.8973 148.543 85.1478 152.84 75.9365 155.885C71.4188 156.534 66.8685 156.928 62.3066 157.067" stroke="black" stroke-width="0.564931" stroke-linecap="round" stroke-linejoin="round"/>
<path d="M66.919 167.08L57.8275 147.514C57.0673 145.889 55.6931 144.632 54.0068 144.019C52.3206 143.407 50.4599 143.488 48.8337 144.246L21.9717 156.786C20.3462 157.547 19.0889 158.92 18.4758 160.606C17.8628 162.294 17.9441 164.154 18.7021 165.78L34.7439 200.275C35.5041 201.9 36.8782 203.157 38.5646 203.77C40.2509 204.382 42.1115 204.301 43.7377 203.543L70.3264 191.14" stroke="black" stroke-width="0.564931" stroke-linecap="round" stroke-linejoin="round"/>
<path d="M35.2783 150.552C35.2783 150.552 17.215 148.89 9.80223 143.621C2.38951 138.352 8.54563 125.565 18.0775 132.354C27.7619 139.247 35.2783 150.552 35.2783 150.552Z" stroke="black" stroke-width="0.564931" stroke-linecap="round" stroke-linejoin="round"/>
<path d="M35.259 150.553C35.259 150.553 46.4904 136.321 47.7762 127.302C49.0621 118.283 35.5531 113.976 33.917 125.537C32.2383 137.319 35.259 150.553 35.259 150.553Z" stroke="black" stroke-width="0.564931" stroke-linecap="round" stroke-linejoin="round"/>
<path d="M101.537 141.769L102.686 138.109C102.686 138.109 91.8638 145.457 93.8549 129.647C95.2835 118.301 101.222 123.791 102.597 127.965C102.919 128.941 103.312 129.249 104.305 127.77C106.089 125.126 109.378 128.671 105.534 132.313C104.796 133.013 105.078 138.216 109.499 142.003C112.305 144.409 120.996 146.083 133.583 142.491" stroke="black" stroke-width="0.564931" stroke-linecap="round" stroke-linejoin="round"/>
<path d="M100.834 139.102C101.558 142.225 102.591 145.269 103.917 148.188" stroke="black" stroke-width="0.564931" stroke-linecap="round" stroke-linejoin="round"/>
<path d="M107.696 140.098C104.89 149.068 96.6374 159.036 90.1702 167.15C80.7399 167.959 71.2495 167.74 61.8662 166.5" stroke="black" stroke-width="0.564931" stroke-linecap="round" stroke-linejoin="round"/>
<path d="M142.723 160.634C138.702 163.825 133.83 165.76 128.714 166.195C123.599 166.629 118.469 165.543 113.968 163.074C110.712 169.179 107.092 175.082 103.129 180.754C101.82 182.728 99.8725 184.192 97.6126 184.902C85.3839 188.657 72.8122 191.189 60.083 192.459" stroke="black" stroke-width="0.564931" stroke-linecap="round" stroke-linejoin="round"/>
<path d="M131.364 165.873C135.723 172.851 140.354 177.06 142.932 175.864C150.907 172.164 132.35 132.022 124.248 135.76C122.44 136.596 122.023 139.886 122.784 144.454" stroke="black" stroke-width="0.564931" stroke-linecap="round" stroke-linejoin="round"/>
<path d="M204.315 83.1201C204.547 90.2596 205.427 116.06 205.427 118.726C201.348 119.352 169.15 127.094 167.318 127.418" stroke="black" stroke-width="0.564931" stroke-linecap="round" stroke-linejoin="round"/>
<path d="M180.439 155.627C229.329 138.425 228.257 139.238 229.239 125.817C229.863 117.263 228.845 92.7376 228.243 83.0947" stroke="black" stroke-width="0.564931" stroke-linecap="round" stroke-linejoin="round"/>
<path d="M155.239 70.7861C158.763 76.9984 172.807 100.226 174.063 102.567C172.721 103.564 166.575 110.218 161.497 114.993" stroke="black" stroke-width="0.564931" stroke-linecap="round" stroke-linejoin="round"/>
<path d="M192.191 121.622C201.764 106.809 199.906 103.126 196.949 96.9573C193.118 88.9858 180.49 66.4048 175.808 58.8018" stroke="black" stroke-width="0.564931" stroke-linecap="round" stroke-linejoin="round"/>
<path d="M160.501 18.374C156.375 25.7684 152.063 42.7374 151.717 50.4344C152.945 52.4035 154.128 54.3506 155.263 56.2758C158.549 53.379 162.264 51.0093 166.275 49.251C166.295 47.1087 166.922 37.234 160.501 18.374Z" stroke="black" stroke-width="0.564931" stroke-linecap="round" stroke-linejoin="round"/>
<path d="M52.6094 65.3961C53.8665 62.4562 56.0465 60.0056 58.8198 58.4145C61.5931 56.8234 64.8089 56.1782 67.9814 56.5767L129.898 64.5506C132.58 64.8947 135.131 65.9131 137.313 67.5107C139.495 69.1082 141.236 71.2328 142.375 73.686L218.431 237.854" stroke="black" stroke-width="0.564931" stroke-linecap="round" stroke-linejoin="round"/>
<path d="M65.3942 72.6621C66.2482 74.5165 65.9505 76.4868 64.722 77.0663C63.4934 77.6458 61.7781 76.6027 60.9204 74.7483C60.0628 72.8939 60.3592 70.9138 61.5927 70.3441C62.8261 69.7743 64.5402 70.8077 65.3942 72.6621Z" stroke="black" stroke-width="0.564931" stroke-linecap="round" stroke-linejoin="round"/>
<path d="M26.7715 82.5391L32.9605 95.9371" stroke="black" stroke-width="0.564931" stroke-linecap="round" stroke-linejoin="round"/>
<path d="M36.5536 86.1328L23.1787 92.3451" stroke="black" stroke-width="0.564931" stroke-linecap="round" stroke-linejoin="round"/>
<path d="M204.637 92.4141C212.465 94.9846 220.478 94.7321 228.723 92.4141" stroke="black" stroke-width="0.564931" stroke-linecap="round" stroke-linejoin="round"/>
<path d="M159.984 78.8726C168.028 77.3387 175.27 73.0089 180.428 66.6494" stroke="black" stroke-width="0.564931" stroke-linecap="round" stroke-linejoin="round"/>
<path d="M115.438 16.8433L99.4191 23.5667L113.653 13.5981L109.967 6.89905C109.846 6.68145 109.675 6.49599 109.468 6.35819C109.26 6.22038 109.023 6.13426 108.776 6.10701C108.528 6.07977 108.278 6.11222 108.046 6.20162C107.813 6.29103 107.606 6.4348 107.441 6.62089L88.1768 28.0636C87.9645 28.3044 87.8317 28.6049 87.7965 28.9241C87.7613 29.2432 87.8253 29.5654 87.9799 29.8468C88.1346 30.1282 88.3723 30.355 88.6606 30.4963C88.9488 30.6377 89.2737 30.6866 89.5908 30.6366L118.034 25.8383C118.278 25.7984 118.51 25.7007 118.709 25.5531C118.908 25.4055 119.068 25.2123 119.177 24.9899C119.286 24.7675 119.34 24.5222 119.335 24.2747C119.33 24.027 119.265 23.7842 119.147 23.5667L115.438 16.8433Z" stroke="black" stroke-width="0.564931" stroke-linecap="round" stroke-linejoin="round"/>
<path d="M212.797 196.148C223.971 202.152 226.312 185.021 237.485 191.024" stroke="black" stroke-width="0.564931" stroke-linecap="round" stroke-linejoin="round"/>
<path d="M52.2251 165.063C47.7768 164.021 43.5155 162.302 39.5908 159.964C37.2264 158.666 36.3395 159.971 38.6404 162.003C40.7711 163.81 43.0864 165.389 45.548 166.71" stroke="black" stroke-width="0.564931" stroke-linecap="round" stroke-linejoin="round"/>
<path d="M43.4311 165.501C40.9232 164.7 38.469 163.74 36.083 162.627C33.6991 161.369 33.0025 162.993 35.434 164.852C38.3844 166.863 41.4841 168.647 44.706 170.185" stroke="black" stroke-width="0.564931" stroke-linecap="round" stroke-linejoin="round"/>
<path d="M41.1886 168.426C39.3697 168.004 37.5746 167.485 35.8108 166.873C33.3184 165.938 32.7999 167.678 35.4168 169.168C38.185 170.606 41.0695 171.808 44.0397 172.76" stroke="black" stroke-width="0.564931" stroke-linecap="round" stroke-linejoin="round"/>
<path d="M64.3248 182.194C63.6757 182.403 52.2931 179.275 45.5941 176.678C42.9101 175.634 40.1041 174.586 37.4811 173.293C34.841 171.99 34.9972 170.687 37.5506 171.277C38.4766 171.49 39.5673 171.624 41.3522 171.856" stroke="black" stroke-width="0.564931" stroke-linecap="round" stroke-linejoin="round"/>
<path d="M56.5579 180.27C56.2334 186.969 57.5559 192.342 59.6189 192.509C64.7807 192.927 66.8169 167.346 61.6819 166.455C57.9419 165.62 54.5312 163.7 51.8768 160.937C46.793 155.379 45.1997 156.579 50.0224 164.344" stroke="black" stroke-width="0.564931" stroke-linecap="round" stroke-linejoin="round"/>
<path d="M113.444 204.261C111.262 205.246 109.416 206.845 108.13 208.863C106.844 210.881 106.176 213.232 106.206 215.624C106.237 218.017 106.965 220.349 108.301 222.334C109.638 224.319 111.525 225.871 113.731 226.8C115.937 227.728 118.365 227.992 120.719 227.56C123.073 227.128 125.25 226.018 126.982 224.367C128.713 222.715 129.926 220.595 130.47 218.263C131.016 215.933 130.867 213.494 130.046 211.247C129.463 209.661 128.56 208.212 127.393 206.99C126.227 205.768 124.822 204.799 123.264 204.144C121.707 203.489 120.031 203.161 118.342 203.182C116.652 203.201 114.985 203.57 113.444 204.261Z" stroke="black" stroke-width="0.564931" stroke-linecap="round" stroke-linejoin="round"/>
<path d="M171.999 59.0559C174.062 58.3837 175.518 58.2703 175.87 58.8705C176.846 60.5346 169.762 65.2145 168.1 66.2332C165.904 67.5752 156.425 72.8407 155.239 70.785C154.714 69.8761 156.885 67.5862 160.431 65.1059" stroke="black" stroke-width="0.564931" stroke-linecap="round" stroke-linejoin="round"/>
<path d="M166.274 49.251C162.265 50.9901 158.556 53.3532 155.285 56.2526C157.858 60.6104 160.547 65.1586 162.611 69.1846C166.637 67.3397 170.395 64.9595 173.784 62.1086L166.274 49.251Z" stroke="black" stroke-width="0.564931" stroke-linecap="round" stroke-linejoin="round"/>
<path d="M229.302 38.1934C223.576 43.1307 213.191 59.6129 211.267 65.5702C211.614 68.4445 211.892 70.4843 212.078 72.2228C216.347 72.7933 220.678 72.7073 224.921 71.9678L224.874 70.0671C229.835 53.8643 230.02 46.909 229.302 38.1934Z" stroke="black" stroke-width="0.564931" stroke-linecap="round" stroke-linejoin="round"/>
<path d="M224.922 71.9678C220.679 72.7072 216.348 72.7932 212.079 72.2228C212.509 76.6376 212.578 81.0799 212.288 85.5061C216.62 85.8683 220.981 85.6265 225.247 84.7875C224.926 71.8421 224.985 74.1589 224.922 71.9678Z" stroke="black" stroke-width="0.564931" stroke-linecap="round" stroke-linejoin="round"/>
<path d="M200.811 58.8938C200.433 59.1849 199.976 59.3573 199.5 59.3893C199.025 59.4212 198.549 59.3112 198.135 59.0732C197.722 58.8351 197.387 58.4797 197.176 58.052C196.964 57.6243 196.885 57.1434 196.946 56.6701C197.008 56.1968 197.208 55.7524 197.522 55.3931C197.836 55.0339 198.25 54.7757 198.711 54.6515C199.171 54.5273 199.659 54.5426 200.112 54.6952C200.563 54.8479 200.96 55.1313 201.251 55.5095C201.638 56.0179 201.81 56.6585 201.727 57.2923C201.644 57.926 201.315 58.5016 200.811 58.8938Z" stroke="black" stroke-width="0.564931" stroke-linecap="round" stroke-linejoin="round"/>
<path d="M127.027 117.751C126.92 118.501 126.57 119.196 126.029 119.727C125.489 120.259 124.789 120.599 124.037 120.694C124.776 121.049 125.366 121.654 125.699 122.404C126.032 123.152 126.088 123.996 125.857 124.781C125.626 125.568 125.122 126.247 124.436 126.696C123.749 127.143 122.927 127.334 122.113 127.231C122.399 127.595 122.607 128.012 122.727 128.458C122.846 128.904 122.874 129.37 122.809 129.827C122.746 130.276 122.596 130.708 122.367 131.1C122.138 131.49 121.833 131.833 121.471 132.106C121.11 132.38 120.698 132.578 120.259 132.693C119.82 132.807 119.363 132.833 118.914 132.771C118.586 132.725 118.265 132.632 117.964 132.493C118.087 132.954 118.119 133.434 118.057 133.907C117.971 134.543 117.71 135.142 117.302 135.637C116.894 136.131 116.356 136.502 115.748 136.707C115.14 136.912 114.488 136.942 113.863 136.796C113.239 136.65 112.668 136.331 112.215 135.877C112.219 135.979 112.211 136.08 112.192 136.179C112.062 137.084 111.58 137.901 110.851 138.452C110.122 139.003 109.204 139.245 108.298 139.123C107.625 139.033 106.994 138.743 106.49 138.288C104.937 135.367 105.117 132.676 105.514 132.284C109.296 128.58 106.068 125.097 104.284 127.741C103.545 128.839 102.976 129.221 102.589 128.012C101.254 123.836 95.4134 118.273 93.8299 129.642C93.4262 131.859 93.4418 134.132 93.8762 136.342C93.4212 135.969 93.0694 135.484 92.8544 134.937C92.6393 134.389 92.5681 133.795 92.6477 133.212C92.6664 133.07 92.6973 132.931 92.7404 132.794C92.1178 133.108 91.4133 133.221 90.7237 133.119C89.8208 132.985 89.0067 132.502 88.4561 131.773C87.9057 131.045 87.6629 130.13 87.7799 129.225C87.8566 128.703 88.0465 128.202 88.3362 127.761C88.0519 127.784 87.7663 127.784 87.4822 127.761C86.7885 127.667 86.1401 127.363 85.6233 126.891C85.1066 126.419 84.7461 125.799 84.59 125.117C84.4339 124.435 84.4896 123.721 84.7494 123.071C85.0094 122.421 85.4614 121.865 86.045 121.479C85.2414 121.321 84.52 120.883 84.0095 120.243C83.4989 119.602 83.2325 118.801 83.2575 117.983C83.2825 117.164 83.5975 116.381 84.1462 115.773C84.695 115.166 85.4419 114.772 86.2537 114.664C85.5168 114.311 84.9292 113.707 84.5957 112.961C84.2623 112.215 84.2044 111.374 84.4326 110.59C84.6608 109.805 85.1602 109.127 85.8418 108.676C86.5234 108.225 87.3429 108.03 88.1544 108.127C87.725 107.588 87.4671 106.932 87.414 106.245C87.3608 105.557 87.5149 104.87 87.8564 104.271C88.1977 103.672 88.7109 103.189 89.3294 102.885C89.948 102.58 90.6435 102.468 91.3264 102.563C91.6483 102.606 91.9612 102.7 92.2536 102.841C92.116 102.375 92.0765 101.886 92.1377 101.404C92.1976 100.954 92.3462 100.52 92.5749 100.128C92.8036 99.7354 93.1079 99.3925 93.4701 99.1186C93.8323 98.8448 94.2453 98.6456 94.685 98.5325C95.1248 98.4194 95.5825 98.3948 96.032 98.4599C96.7573 98.5663 97.4306 98.8989 97.9559 99.4103C97.9963 98.6185 98.308 97.8648 98.8387 97.2759C99.3694 96.6869 100.087 96.2986 100.87 96.1762C101.653 96.0538 102.455 96.2047 103.14 96.6038C103.825 97.0029 104.352 97.6254 104.632 98.3672C105.865 94.5559 111.639 95.6002 111.586 99.4798C112.061 98.892 112.715 98.4758 113.449 98.2949C114.182 98.1138 114.955 98.1781 115.649 98.4776C116.343 98.7772 116.919 99.2957 117.29 99.9538C117.662 100.612 117.808 101.374 117.705 102.122C117.688 102.272 117.657 102.419 117.613 102.563C118.229 102.255 118.924 102.142 119.606 102.238C120.512 102.368 121.331 102.85 121.883 103.581C122.435 104.311 122.676 105.23 122.554 106.137C122.486 106.666 122.288 107.17 121.974 107.601C122.252 107.576 122.532 107.584 122.809 107.623C123.711 107.758 124.525 108.241 125.077 108.97C125.627 109.698 125.87 110.613 125.752 111.519C125.685 112.007 125.513 112.475 125.25 112.891C124.986 113.307 124.635 113.661 124.223 113.93C125.095 114.077 125.876 114.559 126.399 115.272C126.922 115.985 127.148 116.874 127.027 117.751Z" stroke="black" stroke-width="0.564931" stroke-linecap="round" stroke-linejoin="round"/>
<path d="M32.334 151.942L37.619 163.301" stroke="black" stroke-width="0.564931" stroke-linecap="round" stroke-linejoin="round"/>
<path d="M43.4395 175.796L54.1035 198.699" stroke="black" stroke-width="0.564931" stroke-linecap="round" stroke-linejoin="round"/>
<path d="M38.5 149.067L44.805 162.605" stroke="black" stroke-width="0.564931" stroke-linecap="round" stroke-linejoin="round"/>
<path d="M52.4326 179.018L57.4859 189.866" stroke="black" stroke-width="0.564931" stroke-linecap="round" stroke-linejoin="round"/>
<path d="M58.2744 191.512L60.2679 195.824" stroke="black" stroke-width="0.564931" stroke-linecap="round" stroke-linejoin="round"/>
<path d="M212.402 80.7305C210.364 80.8708 203.496 81.6198 204.389 83.4413C205.323 85.336 214.393 85.6715 216.692 85.6654C225.866 85.6422 232.48 83.1192 225.152 81.4027" stroke="black" stroke-width="0.564931" stroke-linecap="round" stroke-linejoin="round"/>
<path d="M113.972 163.064C114.888 161.247 115.71 159.384 116.434 157.482V164.274" stroke="black" stroke-width="0.564931" stroke-linecap="round" stroke-linejoin="round"/>
</svg>
