<svg width="96" height="96" viewBox="0 0 96 96" fill="none" xmlns="http://www.w3.org/2000/svg">
<path d="M68.7296 65.7018C65.168 65.5098 59.0034 65.3768 57.7856 65.264C57.1592 62.3927 56.1503 57.8456 55.7504 55.712C55.7571 55.7077 55.7639 55.7034 55.7701 55.6986C58.2416 54.1026 60.4578 49.7341 56.9101 43.5781C52.1826 43.618 47.8458 44.6788 43.8503 47.1349C43.9506 48.0378 44.0327 48.8039 44.0783 49.3055C32.7239 54.4415 30.5351 55.954 30.1155 58.4984C29.6283 61.4701 32.2179 65.7128 39.7919 78.2159C42.6719 78.8879 47.0586 77.2415 48.0728 74.6226C46.9141 72.2816 42.8936 64.1807 41.625 61.9184C45.044 60.6704 49.017 59.1224 52.2944 57.5452C50.9543 58.8344 48.2907 61.5474 47.325 62.6936C48.7295 66.98 50.3711 71.9576 52.1495 72.7804C54.2264 73.7404 55.1835 74.0207 68.7205 74.0207C70.2743 72.6272 69.9263 67.7202 68.7296 65.7018Z" fill="#09AFF4"/>
<path d="M25.9574 13.3525C25.5834 14.0365 25.246 14.7023 24.9359 15.3316C22.4826 20.3932 21.9993 23.7402 22.0079 26.2391C22.017 27.4703 22.1356 28.4917 22.1999 29.422V29.4311C22.3732 29.5314 22.5359 29.6317 22.738 29.7503C23.1028 29.1743 23.4038 29.2852 24.2975 29.7229C25.5287 30.3249 25.6473 30.3796 25.7375 31.246C25.7466 31.3554 25.7558 31.4557 25.774 31.5561C26.6313 31.0727 27.6071 30.5893 28.7198 29.8761C30.8265 28.5172 33.3618 26.2919 36.2529 21.4674C36.6177 20.8564 36.9916 20.2194 37.3655 19.5249L25.9574 13.3525ZM29.6418 23.3389L29.0582 26.1114L27.7924 23.5761L24.9834 23.8953L26.9994 21.898L25.8321 19.317L28.3492 20.613L30.4377 18.7161L29.9817 21.5159L32.4441 22.9113L29.6418 23.3389Z" fill="#09AFF4"/>
<path d="M73.1074 9.59536C73.0983 10.0514 73.0983 10.4891 73.1074 10.8722C73.7185 10.6898 74.0012 10.4709 74.0468 10.252C74.1303 9.8584 73.3647 9.544 73.1074 9.59536Z" fill="#E9E9E9"/>
<path d="M69.9792 66.449C69.6903 66.4418 69.4018 66.4567 69.1152 66.4946C69.9178 68.4828 69.9634 71.5653 69.3072 73.1705C70.3632 74.5841 73.4832 76.7181 75.9101 77.3657C75.734 73.5535 71.6573 67.9994 69.9792 66.449Z" fill="#E9E9E9"/>
<path d="M67.7455 9.79601C67.5895 9.79169 66.9775 9.91313 66.9775 10.3341C66.9775 10.5621 67.2603 10.8174 67.9534 10.9907C68.0283 10.5805 67.9543 10.157 67.7455 9.79601Z" fill="#E9E9E9"/>
<path d="M57.3389 35.2312C57.4665 37.1191 57.6672 39.3717 57.6672 40.9312C58.3603 38.4962 59.2085 35.5504 59.7009 33.918L57.3389 35.2312Z" fill="#E9E9E9"/>
<path d="M53.7186 16.9915C53.7186 16.3714 52.9161 16.1616 52.4874 16.8365C52.4509 16.2528 51.5025 16.1165 51.0373 16.9094C50.937 16.2802 49.87 16.417 49.4961 17.1283C49.3866 16.572 48.4746 16.8821 48.3196 17.712C48.1554 18.5875 48.0095 19.381 47.9092 20.0923C49.0876 19.7459 50.3106 19.5738 51.5389 19.5816C51.2836 20.5483 51.3949 21.8525 51.8125 20.9678C52.2229 20.0832 53.2717 20.749 52.5325 21.9072C52.4135 22.147 52.3645 22.4157 52.3919 22.6821C52.4197 22.9484 52.522 23.2015 52.6876 23.412C52.797 21.5059 54.2745 19.0344 54.7305 18.0312C55.3511 16.6723 54.4117 16.3075 53.7186 16.9915Z" fill="#E9E9E9"/>
<path d="M46.459 60.0742C46.7326 60.8859 47.0244 61.7705 47.323 62.6916C48.3991 61.4148 51.5091 58.3961 52.6308 57.3838C50.6724 58.3414 48.5283 59.2625 46.459 60.0742Z" fill="#E9E9E9"/>
<path d="M49.8725 25.1451C49.8653 25.5609 49.8254 25.9756 49.7539 26.3854C50.3851 25.9406 50.8757 25.3243 51.1675 24.6094C50.7504 24.8213 50.3174 25.0004 49.8725 25.1451Z" fill="#E9E9E9"/>
<path d="M47.644 75.4326C48.0784 75.7696 48.4758 76.1517 48.8296 76.5726C46.7137 81.5886 42.1811 85.8112 40.3936 86.9329C40.5721 83.9877 41.1804 81.0841 42.1993 78.3145C44.2513 78.0409 46.5596 77.0013 47.644 75.4326Z" fill="#E9E9E9"/>
<path d="M42.82 38.3516C41.8806 39.4824 39.2723 42.2823 36.8281 43.8965C38.9949 43.1965 41.1125 42.3522 43.1665 41.3693C43.0388 40.2932 42.9203 39.2535 42.82 38.3516Z" fill="#E9E9E9"/>
<path d="M27.0145 32.55C26.8138 32.4315 26.4673 32.5774 26.2119 32.9513C26.422 33.3285 26.7614 33.6168 27.1676 33.763C27.3154 33.0516 27.2156 32.6686 27.0145 32.55Z" fill="#E9E9E9"/>
<path d="M24.7988 38.3786C24.3793 38.8529 24.0596 38.9906 23.8503 38.9258C23.558 38.8356 23.522 38.2874 23.6953 37.7129C24.0692 37.9318 24.4431 38.1507 24.7988 38.3786Z" fill="#E9E9E9"/>
<path d="M17.8955 72.2861C19.4116 72.2861 20.6406 71.0569 20.6406 69.541C20.6406 68.0247 19.4116 66.7959 17.8955 66.7959C16.3794 66.7959 15.1504 68.0247 15.1504 69.541C15.1504 71.0569 16.3794 72.2861 17.8955 72.2861Z" fill="#E9E9E9"/>
<path d="M22.1995 36.8462C22.2177 36.0162 22.6099 35.1316 23.2555 33.9278C23.1212 33.4827 23.0872 33.0135 23.1558 32.5537C23.2245 32.0939 23.3941 31.655 23.6525 31.2686C23.4888 31.5216 23.2983 31.756 23.0841 31.9679C23.3577 32.5242 22.9108 33.3724 22.1174 32.9711L22.2268 33.1444C23.1936 33.6916 22.5552 34.9319 21.5246 34.4404L21.7166 34.6137C22.6651 35.1153 22.0723 36.3282 21.0508 35.8814C20.604 35.6807 20.2392 35.5348 19.9382 35.4071C19.1539 36.0364 18.178 36.1823 16.5547 35.9543L23.5953 39.7665C22.5917 38.6246 22.1721 37.7673 22.1995 36.8462Z" fill="#E9E9E9"/>
<path d="M16.3191 35.8301L14.6045 38.0736L22.8946 42.5698L23.8431 39.9067L16.3191 35.8301Z" fill="#E9E9E9"/>
<path d="M24.7987 38.3785C23.9348 37.8131 22.9383 37.3115 22.1904 36.8281" stroke="white" stroke-width="0.564931" stroke-linecap="round" stroke-linejoin="round"/>
<path d="M47.8725 20.3841L46.1579 2.39941L32.8975 35.6509" stroke="white" stroke-width="0.564931" stroke-linecap="round" stroke-linejoin="round"/>
<path d="M48.6841 28.975L48.3193 25.0625" stroke="white" stroke-width="0.564931" stroke-linecap="round" stroke-linejoin="round"/>
<path d="M67.8647 65.6559L80.3317 34.3926L58.4346 38.2595" stroke="white" stroke-width="0.564931" stroke-linecap="round" stroke-linejoin="round"/>
<path d="M54.8223 73.6084L56.7283 93.5994L64.5442 74.0006" stroke="white" stroke-width="0.564931" stroke-linecap="round" stroke-linejoin="round"/>
<path d="M30.1256 42.6006L22.5469 61.6067L30.1347 60.266" stroke="white" stroke-width="0.564931" stroke-linecap="round" stroke-linejoin="round"/>
<path d="M24.9447 15.3498L20.2023 12.7871C16.4103 19.7913 19.874 25.0991 22.0172 26.2573" stroke="white" stroke-width="0.564931" stroke-linecap="round" stroke-linejoin="round"/>
<path d="M27.8002 23.5859L24.9912 23.896L26.9976 21.9078L25.8303 19.3269L28.3474 20.6219L30.4358 18.7158L29.9799 21.5065L32.4422 22.911L29.6424 23.3397L29.077 26.1121L27.8002 23.5859Z" stroke="white" stroke-width="0.564931" stroke-linecap="round" stroke-linejoin="round"/>
<path d="M36.2851 21.4795L40.9959 24.0412C37.2 31.0454 30.8641 31.0454 28.7295 29.8871" stroke="white" stroke-width="0.564931" stroke-linecap="round" stroke-linejoin="round"/>
<path d="M21.6655 79.9843C24.6369 79.9843 27.0458 77.5756 27.0458 74.604C27.0458 71.6323 24.6369 69.2236 21.6655 69.2236C18.694 69.2236 16.2852 71.6323 16.2852 74.604C16.2852 77.5756 18.694 79.9843 21.6655 79.9843Z" stroke="white" stroke-width="0.564931" stroke-linecap="round" stroke-linejoin="round"/>
<path d="M80.3493 21.1781C81.2661 21.1781 82.0091 20.4349 82.0091 19.5182C82.0091 18.6015 81.2661 17.8584 80.3493 17.8584C79.4325 17.8584 78.6895 18.6015 78.6895 19.5182C78.6895 20.4349 79.4325 21.1781 80.3493 21.1781Z" stroke="white" stroke-width="0.564931" stroke-linecap="round" stroke-linejoin="round"/>
<path d="M15.8892 48.8203C16.3576 48.8203 16.7373 48.4407 16.7373 47.9722C16.7373 47.5038 16.3576 47.124 15.8892 47.124C15.4207 47.124 15.041 47.5038 15.041 47.9722C15.041 48.4407 15.4207 48.8203 15.8892 48.8203Z" stroke="white" stroke-width="0.564931" stroke-linecap="round" stroke-linejoin="round"/>
<path d="M59.2642 7.16016L58.416 10.5528L60.9879 10.0968L60.1397 13.4894" stroke="white" stroke-width="0.564931" stroke-linecap="round" stroke-linejoin="round"/>
<path d="M21.5173 34.4288C22.5493 34.9184 23.1853 33.6824 22.2196 33.1328C21.4996 32.7233 20.9793 32.4665 20.3956 32.166C20.2217 32.0656 20.0158 32.0362 19.8207 32.0838C19.6256 32.1314 19.4564 32.2523 19.3483 32.4216C19.2402 32.5908 19.2015 32.7952 19.2403 32.9922C19.2791 33.1893 19.3923 33.3637 19.5565 33.4793C20.0212 33.7726 20.5703 33.9795 21.5173 34.4288Z" stroke="white" stroke-width="0.564931" stroke-linecap="round" stroke-linejoin="round"/>
<path d="M22.7475 29.7585C22.3827 29.5396 22.1192 29.3918 21.7626 29.1825C21.5943 29.0726 21.3899 29.0325 21.1925 29.0708C20.9952 29.109 20.8206 29.2226 20.7056 29.3874C20.5906 29.5522 20.5442 29.7553 20.5764 29.9537C20.6086 30.1521 20.7167 30.3302 20.8779 30.4502C21.268 30.7105 21.6764 30.9422 22.1 31.1433" stroke="white" stroke-width="0.564931" stroke-linecap="round" stroke-linejoin="round"/>
<path d="M21.0603 35.8794C22.0726 36.3263 22.6649 35.1148 21.7169 34.6118C21.0142 34.2388 20.4934 34.0036 19.9294 33.7362C19.7592 33.6406 19.5586 33.6148 19.3697 33.6641C19.1808 33.7135 19.0185 33.8342 18.9169 34.0008C18.8152 34.1675 18.7822 34.367 18.8248 34.5576C18.8674 34.7481 18.9822 34.9146 19.1451 35.0222C19.6011 35.2862 20.13 35.469 21.0603 35.8794Z" stroke="white" stroke-width="0.564931" stroke-linecap="round" stroke-linejoin="round"/>
<path d="M22.0807 31.1825C21.7067 30.9819 21.3765 30.8307 21.0136 30.6353C20.8395 30.5272 20.6301 30.4911 20.4298 30.5346C20.2295 30.578 20.0539 30.6977 19.9402 30.8682C19.8265 31.0388 19.7836 31.2468 19.8205 31.4484C19.8574 31.6501 19.9713 31.8294 20.1381 31.9486C20.6119 32.2596 21.1523 32.4828 22.1061 32.9609C22.901 33.3588 23.3464 32.514 23.0728 31.9577" stroke="white" stroke-width="0.564931" stroke-linecap="round" stroke-linejoin="round"/>
<path d="M26.204 32.9519C26.4685 32.578 26.8131 32.4354 27.0157 32.5506C27.3771 32.757 27.4074 33.8092 26.2861 36.0254C25.0909 38.3874 24.2518 39.0551 23.8419 38.9255C23.5587 38.8358 23.5136 38.278 23.6869 37.7126" stroke="white" stroke-width="0.564931" stroke-linecap="round" stroke-linejoin="round"/>
<path d="M27.1686 33.7633C26.5485 33.5079 25.9206 33.0524 25.7459 31.2462C25.6609 30.3822 25.5366 30.3241 24.3059 29.7231C22.8659 29.0199 22.947 29.1471 21.8617 31.7021C21.5949 32.3305 22.5731 32.9789 23.704 31.1549C22.8193 32.5503 22.984 33.9389 23.7952 34.8212" stroke="white" stroke-width="0.564931" stroke-linecap="round" stroke-linejoin="round"/>
<path d="M71.3277 6.112C71.2375 7.252 69.8546 7.28848 69.8594 6.18496C69.8627 5.36416 69.8978 4.78046 69.9323 4.12382C69.9899 3.02942 71.4496 3.03854 71.4827 3.94142C71.5039 4.48862 71.4117 5.0632 71.3277 6.112Z" stroke="white" stroke-width="0.564931" stroke-linecap="round" stroke-linejoin="round"/>
<path d="M66.688 5.27257C66.6789 4.87129 66.6851 4.57847 66.6789 4.19543C66.6621 3.15575 68.1433 3.10871 68.211 3.97655C68.2422 4.41985 68.2422 4.86476 68.211 5.30809" stroke="white" stroke-width="0.564931" stroke-linecap="round" stroke-linejoin="round"/>
<path d="M72.8979 6.37567C72.7837 7.48879 71.4431 7.48831 71.4843 6.41215C71.5151 5.61871 71.565 5.05327 71.612 4.42399C71.6912 3.36799 73.1077 3.41167 73.1077 4.27999C73.1077 4.80703 73.0021 5.36383 72.8979 6.37567Z" stroke="white" stroke-width="0.564931" stroke-linecap="round" stroke-linejoin="round"/>
<path d="M68.2461 5.29976C68.2552 4.87112 68.2912 4.5063 68.3008 4.0959C68.3267 2.98326 69.8123 2.96502 69.8695 3.87702C69.9045 4.43334 69.8239 5.01704 69.7691 6.08504C69.7725 6.2443 69.725 6.4005 69.6328 6.53043C69.5402 6.66037 69.4087 6.75709 69.257 6.80624C69.1058 6.85539 68.9421 6.85434 68.7914 6.80331C68.6402 6.75224 68.5101 6.65384 68.4194 6.5228" stroke="white" stroke-width="0.564931" stroke-linecap="round" stroke-linejoin="round"/>
<path d="M67.7371 9.79603C67.2811 9.86899 66.9893 10.0879 66.9893 10.3159C66.9893 10.7263 67.8739 11.2173 70.3454 11.1731C72.972 11.1251 73.967 10.6624 74.0573 10.2429C74.1221 9.94195 73.7381 9.66691 73.1635 9.57715" stroke="white" stroke-width="0.564931" stroke-linecap="round" stroke-linejoin="round"/>
<path d="M67.9648 10.9814C68.0469 10.3156 67.9614 9.56345 66.4965 8.61929C65.7928 8.16569 65.8029 8.02649 65.8946 6.66761C66.003 5.06249 66.0683 5.19785 68.813 5.33609C69.4878 5.37017 69.5608 6.53081 67.4267 6.74969C69.0683 6.56729 70.1901 7.31513 70.5467 8.41865" stroke="white" stroke-width="0.564931" stroke-linecap="round" stroke-linejoin="round"/>
<path d="M73.1172 10.8628C73.0625 8.98411 73.2612 5.95627 73.1172 4.49707" stroke="white" stroke-width="0.564931" stroke-linecap="round" stroke-linejoin="round"/>
<path d="M66.9875 10.3252C67.0058 12.6052 66.9875 18.442 66.8325 21.1689C66.1125 21.6431 60.4307 24.4809 57.9952 25.6103C55.7906 26.6332 53.9267 26.4215 53.0584 25.0314C51.8584 23.1114 53.9075 19.8825 54.7384 18.0316C55.3495 16.6727 54.4192 16.3079 53.7261 16.9919C53.7261 16.3809 52.9235 16.162 52.4949 16.8369C52.4493 16.2532 51.5008 16.1169 51.0448 16.9098C50.9354 16.2897 49.8775 16.4265 49.5035 17.1287C49.3941 16.5815 48.4883 16.8887 48.3271 17.7124C46.8789 25.0857 47.7511 26.3044 51.1816 24.6071C50.8898 25.322 50.3992 25.9383 49.768 26.3831" stroke="white" stroke-width="0.564931" stroke-linecap="round" stroke-linejoin="round"/>
<path d="M74.0568 10.252C74.0568 23.102 74.1965 23.7328 73.5187 24.999C72.6197 26.679 70.8466 27.7259 57.3398 35.2316C57.4766 37.1195 57.6682 39.3721 57.6682 40.9316" stroke="white" stroke-width="0.564931" stroke-linecap="round" stroke-linejoin="round"/>
<path d="M27.0156 32.5503C30.0252 34.3561 34.111 36.2165 34.6217 36.4537C36.9017 35.5234 44.443 32.1202 47.5337 30.0879C49.339 28.9013 49.8593 26.449 49.8684 25.1357" stroke="white" stroke-width="0.564931" stroke-linecap="round" stroke-linejoin="round"/>
<path d="M47.5352 30.0954C48.7299 31.354 53.3537 30.4794 54.5484 26.1465" stroke="white" stroke-width="0.564931" stroke-linecap="round" stroke-linejoin="round"/>
<path d="M47.9092 20.0919C49.0881 19.7472 50.3106 19.5752 51.5389 19.5812C51.2836 20.557 51.3949 21.8703 51.8125 20.9674C52.2301 20.0646 53.2761 20.7606 52.5325 21.9068C52.4116 22.1461 52.3617 22.4152 52.3895 22.6819C52.4169 22.9487 52.5205 23.2019 52.6876 23.4116" stroke="white" stroke-width="0.564931" stroke-linecap="round" stroke-linejoin="round"/>
<path d="M40.2295 62.4179C44.3517 60.9405 51.1025 58.4445 55.5785 55.8242C58.1148 54.3395 60.558 49.8962 56.9191 43.5761C57.6031 41.1761 59.0076 36.2253 59.7031 33.918" stroke="white" stroke-width="0.564931" stroke-linecap="round" stroke-linejoin="round"/>
<path d="M48.557 47.2881C33.2718 54.0917 30.5939 55.6425 30.1163 58.4966C29.7088 60.9321 30.7456 63.3758 39.7926 78.2246C42.3098 78.9086 47.0339 77.3856 48.0736 74.6246C45.3558 69.1046 42.5286 63.5366 41.6258 61.9205" stroke="white" stroke-width="0.564931" stroke-linecap="round" stroke-linejoin="round"/>
<path d="M46.4688 60.0742C48.0374 64.6525 49.9982 71.7752 52.1596 72.7784C54.3211 73.7816 55.1601 73.9822 68.7196 74.0187C70.0785 72.979 70.1241 67.9357 68.7196 65.6921C65.1196 65.4915 59.0798 65.3729 57.7939 65.2544C57.1646 62.336 56.1619 57.7664 55.7779 55.6875" stroke="white" stroke-width="0.564931" stroke-linecap="round" stroke-linejoin="round"/>
<path d="M47.6442 75.4326C48.2898 75.9678 48.8769 76.5702 49.3953 77.2293C48.3009 80.2845 43.9713 86.0665 40.4121 88.2645C40.2023 85.9024 41.0778 81.1235 42.1905 78.3145" stroke="white" stroke-width="0.564931" stroke-linecap="round" stroke-linejoin="round"/>
<path d="M65.8943 65.5742C67.0982 66.924 67.691 71.5296 65.7119 74.0102" stroke="white" stroke-width="0.564931" stroke-linecap="round" stroke-linejoin="round"/>
<path d="M38.1514 75.5237C40.9238 76.1347 45.3034 75.0221 46.7059 71.8574" stroke="white" stroke-width="0.564931" stroke-linecap="round" stroke-linejoin="round"/>
<path d="M40.377 86.9334C42.1462 85.8208 46.7062 81.5891 48.8221 76.5654" stroke="white" stroke-width="0.564931" stroke-linecap="round" stroke-linejoin="round"/>
<path d="M69.1133 66.4854C69.6614 66.4215 70.2158 66.4215 70.764 66.4854C72.3053 67.7334 76.6099 72.8967 76.6646 77.5206C74.184 77.1846 70.4904 74.739 69.3048 73.1612" stroke="white" stroke-width="0.564931" stroke-linecap="round" stroke-linejoin="round"/>
<path d="M69.9795 66.4502C71.6595 68.0006 75.7251 73.5542 75.9075 77.3668" stroke="white" stroke-width="0.564931" stroke-linecap="round" stroke-linejoin="round"/>
<path d="M42.6289 36.4531C42.866 39.2894 43.8769 46.9776 44.0689 49.2941" stroke="white" stroke-width="0.564931" stroke-linecap="round" stroke-linejoin="round"/>
<path d="M56.9205 43.5762C51.7586 43.6127 47.5087 44.8894 43.8516 47.133" stroke="white" stroke-width="0.564931" stroke-linecap="round" stroke-linejoin="round"/>
<path d="M43.6591 74.8026C41.6709 70.9448 37.5487 62.144 36.6641 60.3018C40.7863 58.2224 51.2652 53.8631 53.0709 52.7413C54.8767 51.6196 55.5881 50.1786 53.6729 43.7764" stroke="white" stroke-width="0.564931" stroke-linecap="round" stroke-linejoin="round"/>
<path d="M23.8516 38.9277C32.4882 44.1511 33.8749 44.7175 36.0359 44.1237C38.4825 43.3964 40.8673 42.4755 43.1677 41.3695" stroke="white" stroke-width="0.564931" stroke-linecap="round" stroke-linejoin="round"/>
<path d="M36.8291 43.8956C39.2651 42.2813 41.8816 39.4724 42.8209 38.3516" stroke="white" stroke-width="0.564931" stroke-linecap="round" stroke-linejoin="round"/>
<path d="M47.335 62.6916C48.4111 61.4148 51.521 58.4052 52.6428 57.3838" stroke="white" stroke-width="0.564931" stroke-linecap="round" stroke-linejoin="round"/>
<path d="M12.6426 22.627L12.9589 24.415" stroke="white" stroke-width="0.564931" stroke-linecap="round" stroke-linejoin="round"/>
<path d="M16.7362 25.4912L14.9482 25.8075" stroke="white" stroke-width="0.564931" stroke-linecap="round" stroke-linejoin="round"/>
<path d="M13.873 29.5858L13.5566 27.7979" stroke="white" stroke-width="0.564931" stroke-linecap="round" stroke-linejoin="round"/>
<path d="M9.77832 26.7216L11.5673 26.4053" stroke="white" stroke-width="0.564931" stroke-linecap="round" stroke-linejoin="round"/>
<path d="M14.9495 25.8075C14.7275 25.8468 14.4999 25.842 14.2798 25.7932C14.0597 25.7445 13.8514 25.6529 13.6667 25.5235C13.482 25.3942 13.3247 25.2297 13.2037 25.0395C13.0826 24.8493 13.0003 24.6371 12.9613 24.415C13.001 24.6372 12.9964 24.8649 12.9478 25.0853C12.8993 25.3056 12.8077 25.5141 12.6784 25.699C12.5491 25.8839 12.3846 26.0415 12.1942 26.1626C12.0039 26.2838 11.7916 26.3662 11.5693 26.4051C11.7914 26.3656 12.019 26.3702 12.2393 26.4188C12.4595 26.4674 12.668 26.559 12.8528 26.6883C13.0376 26.8176 13.195 26.9821 13.3162 27.1724C13.4372 27.3627 13.5196 27.575 13.5585 27.7971C13.519 27.5751 13.5236 27.3476 13.5721 27.1273C13.6207 26.9072 13.7122 26.6987 13.8414 26.5139C13.9706 26.3291 14.1349 26.1715 14.3251 26.0504C14.5152 25.9292 14.7274 25.8466 14.9495 25.8075Z" stroke="white" stroke-width="0.564931" stroke-linecap="round" stroke-linejoin="round"/>
<path d="M80.3398 49.6963L80.793 52.2604" stroke="white" stroke-width="0.564931" stroke-linecap="round" stroke-linejoin="round"/>
<path d="M86.2116 53.8027L83.6475 54.2559" stroke="white" stroke-width="0.564931" stroke-linecap="round" stroke-linejoin="round"/>
<path d="M82.105 59.6735L81.6514 57.1094" stroke="white" stroke-width="0.564931" stroke-linecap="round" stroke-linejoin="round"/>
<path d="M76.2334 55.5664L78.799 55.1133" stroke="white" stroke-width="0.564931" stroke-linecap="round" stroke-linejoin="round"/>
<path d="M83.6463 54.2571C83.3276 54.3137 83.0012 54.307 82.6854 54.2374C82.3695 54.1678 82.0705 54.0363 81.8055 53.851C81.5401 53.6657 81.3145 53.4295 81.1407 53.1569C80.967 52.8838 80.8484 52.5795 80.7927 52.2607C80.8494 52.579 80.8431 52.9054 80.7735 53.2217C80.7039 53.5375 80.5729 53.8366 80.3876 54.1015C80.2023 54.3665 79.9662 54.5926 79.6935 54.7663C79.4209 54.9401 79.1166 55.0582 78.7979 55.1143C79.1161 55.0577 79.443 55.0644 79.7583 55.134C80.0742 55.2036 80.3732 55.3351 80.6382 55.5204C80.9031 55.7057 81.1292 55.9419 81.3025 56.2145C81.4763 56.4876 81.5943 56.7919 81.65 57.1107C81.5934 56.7919 81.6001 56.4655 81.6697 56.1497C81.7393 55.8339 81.8708 55.5348 82.0561 55.2699C82.2414 55.0044 82.4775 54.7788 82.7502 54.6051C83.0233 54.4313 83.3276 54.3127 83.6463 54.2571Z" stroke="white" stroke-width="0.564931" stroke-linecap="round" stroke-linejoin="round"/>
<path d="M25.9583 13.3525C25.5844 14.0365 25.247 14.7023 24.9369 15.3316C22.4836 20.3932 22.0003 23.7402 22.0089 26.2391C22.018 27.4703 22.1366 28.4917 22.2009 29.422V29.4311C22.3742 29.5314 22.5369 29.6317 22.739 29.7503C23.1038 29.1743 23.4047 29.2852 24.2985 29.7229C25.5297 30.3249 25.6483 30.3796 25.7385 31.246C25.7476 31.3554 25.7567 31.4557 25.775 31.5561C26.6323 31.0727 27.6081 30.5893 28.7207 29.8761C30.8275 28.5172 33.3628 26.2919 36.2539 21.4674C36.6187 20.8564 36.9926 20.2194 37.3665 19.5249L25.9583 13.3525ZM29.6428 23.3389L29.0591 26.1114L27.7934 23.5761L24.9844 23.8953L27.0004 21.898L25.8331 19.317L28.3502 20.613L30.4387 18.7161L29.9827 21.5159L32.4451 22.9113L29.6428 23.3389Z" stroke="white" stroke-width="0.564931" stroke-linejoin="round"/>
<path d="M22.2005 36.8452C22.2187 36.0153 22.6109 35.1306 23.2565 33.9268C23.1222 33.4817 23.0882 33.0125 23.1568 32.5527C23.2255 32.0929 23.395 31.654 23.6534 31.2676C23.4898 31.5206 23.2992 31.7551 23.0851 31.9669C23.3587 32.5233 22.9118 33.3714 22.1184 32.9701L22.2278 33.1434C23.1945 33.6906 22.5561 34.9309 21.5256 34.4394L21.7176 34.6127C22.6661 35.1143 22.0733 36.3273 21.0518 35.8804C20.6049 35.6797 20.2401 35.5338 19.9392 35.4061C19.1549 36.0354 18.179 36.1813 16.5557 35.9533L23.5963 39.7655C22.5926 38.6236 22.1731 37.7663 22.2005 36.8452Z" stroke="white" stroke-width="0.564931" stroke-linejoin="round"/>
<path d="M16.3269 35.8291L14.6123 38.0726L22.9024 42.5688L23.8509 39.9057L16.3269 35.8291Z" stroke="white" stroke-width="0.564931" stroke-linejoin="round"/>
</svg>
