<svg width="96" height="96" viewBox="0 0 96 96" fill="none" xmlns="http://www.w3.org/2000/svg">
<path d="M22.7618 58.048C22.6146 57.7307 22.4061 57.4456 22.1483 57.209C21.8905 56.9723 21.5886 56.789 21.2598 56.6699C20.931 56.5504 20.5818 56.4966 20.2323 56.5125C19.8828 56.5283 19.5399 56.6133 19.2233 56.7621L15.1553 58.659L17.6359 63.987C18.2812 64.2731 18.9457 64.5136 19.6246 64.707C17.718 61.6518 18.4111 61.1229 20.418 63.3117C22.349 65.4189 24.7318 65.597 26.3369 65.7472L22.7618 58.048Z" fill="#09AFF4"/>
<path d="M22.2518 70.9261C21.7315 70.7734 21.1799 70.6064 20.6289 70.4336L22.6171 74.7018C22.2832 73.473 22.1597 72.1962 22.2518 70.9261Z" fill="#09AFF4"/>
<path d="M23.6564 75.7143C23.3842 75.83 23.1 75.6145 22.9268 75.349L23.7202 77.0458L27.6692 75.2031C26.5383 75.3591 24.3221 75.6318 23.6564 75.7143Z" fill="#09AFF4"/>
<path d="M17.0805 69.1672C16.2962 68.8571 15.4936 68.5379 14.7367 68.164C13.7152 67.6624 13.7767 67.1426 14.7731 67.3797C15.1379 67.4618 15.5666 67.5165 16.2688 67.6072C15.4654 67.3091 14.6825 66.9587 13.925 66.5584C12.8944 65.9752 13.0951 65.2998 14.08 65.656C14.3445 65.7563 14.9555 65.9473 15.6669 66.1297L15.5575 65.9017C14.9948 65.5821 14.45 65.2322 13.9255 64.8534C12.977 64.1234 13.2506 63.4849 14.1808 63.9774C14.3176 64.0504 14.5274 64.1416 14.7827 64.251L12.7034 59.7822L8.6445 61.6792C8.32712 61.8265 8.042 62.0349 7.80546 62.2926C7.56896 62.5504 7.38565 62.8523 7.26618 63.1811C7.1467 63.5099 7.09333 63.8593 7.10917 64.2088C7.12506 64.5582 7.20978 64.9009 7.35858 65.2177L13.6696 78.7893C13.8169 79.1065 14.0254 79.3917 14.2832 79.6283C14.541 79.8645 14.8429 80.0478 15.1717 80.1673C15.5005 80.2869 15.8497 80.3401 16.1992 80.3243C16.5486 80.3085 16.8915 80.224 17.2082 80.0752L21.2762 78.1777L17.0805 69.1672Z" fill="#09AFF4"/>
<path d="M45.418 6.6272L39.1156 9.27248L44.7157 5.3504L43.2657 2.71472C43.2181 2.6291 43.1508 2.55613 43.0692 2.50192C42.9876 2.4477 42.8942 2.41381 42.7969 2.4031C42.6996 2.39238 42.6011 2.40515 42.5097 2.44032C42.4183 2.47549 42.3366 2.53206 42.2716 2.60528L34.6924 11.0418C34.6089 11.1365 34.5566 11.2547 34.5428 11.3803C34.5289 11.5059 34.5541 11.6326 34.6149 11.7433C34.6758 11.8541 34.7693 11.9433 34.8827 11.9989C34.9961 12.0545 35.124 12.0738 35.2487 12.0541L46.4394 10.1662C46.5356 10.1505 46.6266 10.1121 46.7049 10.054C46.7832 9.99593 46.8463 9.91995 46.8892 9.83244C46.9321 9.74494 46.9534 9.64841 46.9513 9.55102C46.9492 9.45358 46.9238 9.35806 46.8772 9.27248L45.418 6.6272Z" fill="#09AFF4"/>
<path d="M48.8835 53.4151C48.1721 53.7439 48.0079 55.0384 48.3074 56.8356C49.7494 56.7194 51.1764 56.4597 52.567 56.0604C51.1543 54.1634 49.7134 53.032 48.8835 53.4151Z" fill="#E9E9E9"/>
<path d="M56.1529 63.2012C54.8487 64.2351 53.3166 64.9426 51.6836 65.2652C53.3986 68.0103 55.2226 69.6701 56.235 69.1959C57.2473 68.7284 57.1561 66.2751 56.1529 63.2012Z" fill="#E9E9E9"/>
<path d="M90.2169 15.0273C87.9643 16.9699 83.8781 23.4547 83.1211 25.7985C83.2579 26.9294 83.3673 27.732 83.4403 28.416C85.1198 28.6404 86.8238 28.6066 88.4933 28.3157L88.475 27.5678C90.4267 21.1929 90.4997 18.4565 90.2169 15.0273Z" fill="#E9E9E9"/>
<path d="M63.1474 7.22949C61.524 10.1388 59.8277 16.8151 59.6914 19.8434C60.1748 20.6181 60.6399 21.3842 61.0868 22.1417C62.3746 20.9957 63.8372 20.0627 65.4192 19.3778C65.4476 17.681 65.6736 14.6498 63.1474 7.22949Z" fill="#E9E9E9"/>
<path d="M22.2516 70.9268C22.124 73.5624 22.6443 75.6788 23.456 75.7421C24.224 75.8064 24.9972 74.0549 25.3073 71.6837C24.2687 71.521 23.2463 71.2676 22.2516 70.9268Z" fill="#E9E9E9"/>
<path d="M44.6337 80.3564C44.0547 80.6185 43.5329 80.9924 43.0982 81.4566C42.6636 81.9203 42.3246 82.4656 42.1005 83.0603C41.8765 83.6555 41.7719 84.2886 41.7926 84.9241C41.8133 85.5592 41.959 86.1846 42.2213 86.7635C42.4835 87.3424 42.8573 87.8641 43.3213 88.299C43.7852 88.7339 44.3302 89.0728 44.9251 89.2964C45.5201 89.5206 46.1533 89.6252 46.7887 89.6046C47.4241 89.584 48.0494 89.438 48.6283 89.176L44.6337 80.3564Z" fill="#E9E9E9"/>
<path d="M88.5947 32.0371L88.6221 33.3686C90.2181 32.9755 90.1816 32.4019 88.5947 32.0371Z" fill="#E9E9E9"/>
<path d="M61.0765 27.8506C61.2805 28.2044 62.4628 27.9236 63.9767 27.2305C63.7122 26.7106 63.4204 26.1745 63.1194 25.6162C61.7241 26.5916 60.8701 27.493 61.0765 27.8506Z" fill="#E9E9E9"/>
<path d="M69.1949 23.1632C69.0581 22.9261 68.4836 22.9712 67.6719 23.2361L68.3741 24.44C69.0125 23.8654 69.3317 23.4003 69.1949 23.1632Z" fill="#E9E9E9"/>
<path d="M45.7834 61.9609C45.5439 62.7241 45.2261 63.4609 44.835 64.1589L45.8108 64.6245L45.7834 61.9609Z" fill="#E9E9E9"/>
<path d="M40.4015 54.3457L39.9637 55.7319L39.6719 54.7287L40.4015 54.3457Z" fill="#E9E9E9"/>
<path d="M80.3857 32.703C80.3857 33.1408 81.699 33.5056 83.523 33.6424C83.5504 32.9037 83.5595 32.2926 83.5686 31.7637C81.7173 31.8914 80.3857 32.2653 80.3857 32.703Z" fill="#E9E9E9"/>
<path d="M48.8749 44.8238C49.0371 44.7181 49.1753 44.5787 49.279 44.4151C49.3827 44.2514 49.4504 44.0673 49.4768 43.8753C49.5041 43.6711 49.4854 43.4633 49.4211 43.2674C49.3568 43.0716 49.2493 42.8928 49.1057 42.7445C48.9627 42.5962 48.788 42.4823 48.5945 42.4112C48.4011 42.3401 48.1937 42.3138 47.9888 42.3341C48.1126 42.1645 48.1909 41.9663 48.2168 41.7581C48.2648 41.4016 48.1697 41.0406 47.953 40.7536C47.7361 40.4667 47.4146 40.277 47.0585 40.2259C46.7902 40.1885 46.5168 40.233 46.2742 40.3536C46.2916 40.2971 46.3039 40.239 46.3107 40.1803C46.351 39.8857 46.2937 39.5861 46.1475 39.3271C46.0014 39.0682 45.7746 38.8642 45.5016 38.7463C45.2286 38.6285 44.9246 38.6032 44.6359 38.6744C44.3473 38.7456 44.0898 38.9094 43.903 39.1406C43.905 38.8124 43.7877 38.4946 43.573 38.2463C43.3583 37.9981 43.0608 37.8362 42.7357 37.7909L42.6445 37.7726C42.328 37.7287 42.0062 37.798 41.7358 37.9682C41.4654 38.1384 41.2638 38.3985 41.1665 38.7029C41.06 38.4203 40.8624 38.1812 40.6048 38.0234C40.3473 37.8656 40.0446 37.7982 39.7444 37.8317C39.4443 37.8651 39.1638 37.9976 38.9474 38.2082C38.7309 38.4188 38.5908 38.6956 38.5491 38.9947C38.5415 39.0338 38.5385 39.0735 38.54 39.1133C38.3326 38.913 38.068 38.7824 37.783 38.7393C37.6063 38.7142 37.4263 38.7242 37.2535 38.7689C37.0806 38.8136 36.9183 38.892 36.7759 38.9996C36.6335 39.1073 36.5138 39.242 36.4237 39.3962C36.3336 39.5503 36.2749 39.7207 36.2509 39.8976C36.2272 40.0875 36.2432 40.2802 36.2979 40.4635C36.1828 40.408 36.0597 40.3711 35.9331 40.3541C35.6644 40.3168 35.3907 40.3609 35.1474 40.4807C34.904 40.6005 34.7022 40.7905 34.5678 41.0262C34.4335 41.2618 34.3729 41.5323 34.3938 41.8027C34.4147 42.0732 34.5161 42.3311 34.6851 42.5433C34.3655 42.5046 34.0425 42.5807 33.7739 42.758C33.5052 42.9354 33.3083 43.2024 33.2183 43.5115C33.1283 43.8206 33.1511 44.1516 33.2826 44.4455C33.4142 44.7393 33.6459 44.9768 33.9363 45.1157C33.6169 45.1583 33.3231 45.313 33.1072 45.5522C32.8913 45.7914 32.7674 46.0994 32.7575 46.4215C32.7476 46.7435 32.8525 47.0586 33.0533 47.3106C33.2542 47.5625 33.538 47.7349 33.8542 47.7969C33.6246 47.949 33.4468 48.1675 33.3445 48.4233C33.2422 48.6792 33.2203 48.96 33.2818 49.2283C33.3432 49.4971 33.485 49.7405 33.6883 49.9262C33.8916 50.112 34.1467 50.2315 34.4197 50.2685C34.5315 50.2776 34.6439 50.2776 34.7557 50.2685C34.6415 50.4422 34.5668 50.639 34.5368 50.8445C34.4888 51.2011 34.5836 51.5621 34.8005 51.8491C35.0175 52.1357 35.339 52.3257 35.695 52.3766C35.9664 52.4189 36.244 52.3742 36.4885 52.2489C36.4214 52.5 36.4278 52.7649 36.5071 53.0126C36.5863 53.2598 36.7349 53.4792 36.9353 53.6448C36.7637 52.775 36.7575 51.8808 36.9171 51.0086C37.5464 46.4486 39.9267 48.8107 40.3918 50.4614C40.5013 50.7533 40.6928 50.7624 41.0302 50.2608C41.7329 49.2211 43.0189 50.6073 41.5141 52.0483C41.359 52.2033 41.2856 53.2613 41.8981 54.4104C42.0963 54.5899 42.3444 54.7041 42.6094 54.7387C42.7958 54.7641 42.9854 54.7502 43.1662 54.6989C43.3471 54.647 43.5152 54.5582 43.66 54.4382C43.8049 54.3182 43.9233 54.1694 44.0077 54.0014C44.0922 53.8334 44.1409 53.6496 44.1507 53.4619C44.3289 53.6405 44.5535 53.7657 44.7991 53.8233C45.0448 53.8809 45.3016 53.8689 45.5407 53.7883C45.7797 53.7077 45.9915 53.5617 46.152 53.3673C46.3125 53.1725 46.4153 52.9368 46.4489 52.6867C46.4738 52.5005 46.4614 52.3113 46.4125 52.1304C46.6048 52.2177 46.8148 52.259 47.0259 52.2509C47.2371 52.2427 47.4434 52.1856 47.6284 52.0838C47.8135 51.9821 47.9723 51.8385 48.092 51.6643C48.212 51.4905 48.2893 51.2909 48.3185 51.0816C48.3449 50.9016 48.3339 50.7182 48.2869 50.5425C48.2398 50.3669 48.1577 50.2027 48.0449 50.0601C48.3651 50.1005 48.6886 50.0261 48.9589 49.8494C49.2286 49.6728 49.4269 49.4059 49.5181 49.0963C49.6088 48.7872 49.5867 48.455 49.4557 48.1608C49.3246 47.866 49.0928 47.6276 48.8019 47.4883C49.0976 47.4504 49.3726 47.3166 49.5853 47.1075C49.7979 46.8983 49.9357 46.6252 49.9784 46.3301C50.0254 45.9849 49.9366 45.635 49.7307 45.354C49.5253 45.073 49.2181 44.883 48.8749 44.8238Z" fill="#E9E9E9"/>
<path d="M90.1629 40.665C91.5304 43.7368 92.2749 47.0494 92.3536 50.411C92.4324 53.7724 91.8439 57.1166 90.6213 60.249C89.3992 63.381 87.5675 66.2404 85.2333 68.6601C82.8986 71.0798 80.1069 73.0127 77.0205 74.3466" stroke="black" stroke-width="0.564931" stroke-linecap="round" stroke-linejoin="round"/>
<path d="M70.8086 25.9082C75.54 26.6287 79.9699 28.6747 83.5862 31.8093" stroke="black" stroke-width="0.564931" stroke-linecap="round" stroke-linejoin="round"/>
<path d="M55.623 28.2792C57.8301 27.1755 60.1864 26.4013 62.6181 25.9814" stroke="black" stroke-width="0.564931" stroke-linecap="round" stroke-linejoin="round"/>
<path d="M40.502 71.2188L50.6439 93.6002" stroke="black" stroke-width="0.564931" stroke-linecap="round" stroke-linejoin="round"/>
<path d="M35.0659 59.2166L20.7561 27.66C19.9809 25.98 21.0753 24.4953 22.9085 24.732L47.7523 27.9787C49.1966 28.1677 50.5694 28.7183 51.744 29.5792C52.919 30.4402 53.8574 31.5838 54.4723 32.904L82.5811 93.5817" stroke="black" stroke-width="0.564931" stroke-linecap="round" stroke-linejoin="round"/>
<path d="M40.107 56.3086C36.9428 58.4436 33.5004 60.1342 29.8762 61.3323C28.0988 61.5876 26.3085 61.7427 24.5137 61.7974" stroke="black" stroke-width="0.564931" stroke-linecap="round" stroke-linejoin="round"/>
<path d="M26.3283 65.7369L22.7513 58.0392C22.4523 57.3998 21.9116 56.9049 21.2481 56.664C20.5847 56.423 19.8526 56.4552 19.2128 56.7532L8.64415 61.6872C8.0046 61.9862 7.50991 62.5267 7.26871 63.1901C7.02751 63.8539 7.05952 64.5859 7.35775 65.2257L13.6693 78.7972C13.9684 79.4366 14.509 79.9315 15.1725 80.1724C15.8359 80.4134 16.568 80.3812 17.2078 80.0832L27.6689 75.2035" stroke="black" stroke-width="0.564931" stroke-linecap="round" stroke-linejoin="round"/>
<path d="M13.8795 59.234C13.8795 59.234 6.77267 58.5803 3.85618 56.5071C0.939702 54.434 3.36178 49.4031 7.11203 52.0743C10.9223 54.7863 13.8795 59.234 13.8795 59.234Z" stroke="black" stroke-width="0.564931" stroke-linecap="round" stroke-linejoin="round"/>
<path d="M13.8723 59.2346C13.8723 59.2346 18.2912 53.6354 18.7971 50.0868C19.3031 46.5381 13.988 44.8437 13.3443 49.3922C12.6839 54.0281 13.8723 59.2346 13.8723 59.2346Z" stroke="black" stroke-width="0.564931" stroke-linecap="round" stroke-linejoin="round"/>
<path d="M39.9488 55.7785L40.401 54.3385C40.401 54.3385 36.1429 57.2295 36.9263 51.0092C37.4884 46.5452 39.825 48.7052 40.366 50.3473C40.4927 50.7313 40.6472 50.8527 41.038 50.2705C41.7397 49.2303 43.0338 50.6252 41.5213 52.058C41.2309 52.3335 41.3418 54.3807 43.0813 55.8706C44.1853 56.8172 47.6048 57.4757 52.557 56.0626" stroke="black" stroke-width="0.564931" stroke-linecap="round" stroke-linejoin="round"/>
<path d="M39.6719 54.7285C39.9567 55.9573 40.363 57.1549 40.8848 58.3036" stroke="black" stroke-width="0.564931" stroke-linecap="round" stroke-linejoin="round"/>
<path d="M42.371 55.1211C41.267 58.6505 38.0203 62.5721 35.4758 65.7646C31.7655 66.0829 28.0316 65.9969 24.3398 65.5088" stroke="black" stroke-width="0.564931" stroke-linecap="round" stroke-linejoin="round"/>
<path d="M56.1529 63.2002C54.5708 64.4559 52.6537 65.2172 50.6411 65.388C48.6284 65.5589 46.6102 65.1317 44.8393 64.1602C43.5581 66.5621 42.1341 68.8848 40.575 71.1164C40.0598 71.893 39.2935 72.469 38.4044 72.7484C33.5931 74.2258 28.6469 75.2218 23.6387 75.7215" stroke="black" stroke-width="0.564931" stroke-linecap="round" stroke-linejoin="round"/>
<path d="M51.6843 65.2618C53.3993 68.0069 55.2214 69.6629 56.2356 69.1925C59.3734 67.7367 52.0721 51.9432 48.8844 53.4139C48.1731 53.7427 48.0089 55.0373 48.3084 56.8344" stroke="black" stroke-width="0.564931" stroke-linecap="round" stroke-linejoin="round"/>
<path d="M80.3861 32.7031C80.4773 35.5121 80.8238 45.6631 80.8238 46.7119C79.2187 46.9582 66.5506 50.0042 65.8301 50.1319" stroke="black" stroke-width="0.564931" stroke-linecap="round" stroke-linejoin="round"/>
<path d="M70.9922 61.2308C90.2272 54.4628 89.8058 54.7825 90.1922 49.502C90.4375 46.1367 90.0372 36.4873 89.8 32.6934" stroke="black" stroke-width="0.564931" stroke-linecap="round" stroke-linejoin="round"/>
<path d="M61.0771 27.8506C62.4634 30.2947 67.9891 39.4335 68.4831 40.3546C67.9551 40.7467 65.5373 43.3647 63.5391 45.2434" stroke="black" stroke-width="0.564931" stroke-linecap="round" stroke-linejoin="round"/>
<path d="M75.6158 47.8519C79.3824 42.0237 78.6514 40.5746 77.4878 38.1477C75.9806 35.0114 71.0122 26.1271 69.1699 23.1357" stroke="black" stroke-width="0.564931" stroke-linecap="round" stroke-linejoin="round"/>
<path d="M63.1474 7.22949C61.524 10.1388 59.8277 16.8151 59.6914 19.8434C60.1748 20.6181 60.6399 21.3842 61.0868 22.1417C62.3794 21.0019 63.841 20.0696 65.4192 19.3778C65.4269 18.5349 65.6736 14.6498 63.1474 7.22949Z" stroke="black" stroke-width="0.564931" stroke-linecap="round" stroke-linejoin="round"/>
<path d="M20.6982 25.7299C21.1928 24.5733 22.0505 23.6091 23.1417 22.9831C24.2328 22.3571 25.498 22.1032 26.7462 22.26L51.1067 25.3973C52.1622 25.5326 53.1659 25.9334 54.0242 26.5619C54.8829 27.1904 55.5678 28.0263 56.0157 28.9915L85.9394 93.5823" stroke="black" stroke-width="0.564931" stroke-linecap="round" stroke-linejoin="round"/>
<path d="M25.7283 28.5888C26.0643 29.3184 25.9471 30.0936 25.4638 30.3216C24.9804 30.5496 24.3055 30.1392 23.9681 29.4096C23.6307 28.68 23.7473 27.901 24.2326 27.6768C24.7179 27.4527 25.3923 27.8592 25.7283 28.5888Z" stroke="black" stroke-width="0.564931" stroke-linecap="round" stroke-linejoin="round"/>
<path d="M10.5322 32.4746L12.9673 37.746" stroke="black" stroke-width="0.564931" stroke-linecap="round" stroke-linejoin="round"/>
<path d="M14.3814 33.8887L9.11914 36.3328" stroke="black" stroke-width="0.564931" stroke-linecap="round" stroke-linejoin="round"/>
<path d="M80.5127 36.3604C83.5929 37.3717 86.7455 37.2724 89.9893 36.3604" stroke="black" stroke-width="0.564931" stroke-linecap="round" stroke-linejoin="round"/>
<path d="M62.9443 31.0318C66.109 30.4283 68.9583 28.7248 70.9877 26.2227" stroke="black" stroke-width="0.564931" stroke-linecap="round" stroke-linejoin="round"/>
<path d="M45.418 6.6272L39.1156 9.27248L44.7157 5.3504L43.2657 2.71472C43.2181 2.6291 43.1508 2.55613 43.0692 2.50192C42.9876 2.4477 42.8942 2.41381 42.7969 2.4031C42.6996 2.39238 42.6011 2.40515 42.5097 2.44032C42.4183 2.47549 42.3366 2.53206 42.2716 2.60528L34.6924 11.0418C34.6089 11.1365 34.5566 11.2547 34.5428 11.3803C34.5289 11.5059 34.5541 11.6326 34.6149 11.7433C34.6758 11.8541 34.7693 11.9433 34.8827 11.9989C34.9961 12.0545 35.124 12.0738 35.2487 12.0541L46.4394 10.1662C46.5356 10.1505 46.6266 10.1121 46.7049 10.054C46.7832 9.99593 46.8463 9.91995 46.8892 9.83244C46.9321 9.74494 46.9534 9.64841 46.9513 9.55102C46.9492 9.45358 46.9238 9.35806 46.8772 9.27248L45.418 6.6272Z" stroke="black" stroke-width="0.564931" stroke-linecap="round" stroke-linejoin="round"/>
<path d="M83.7227 77.1736C88.119 79.5357 89.0401 72.7956 93.4359 75.1576" stroke="black" stroke-width="0.564931" stroke-linecap="round" stroke-linejoin="round"/>
<path d="M20.547 64.9431C18.7969 64.5332 17.1203 63.8569 15.5762 62.9367C14.6459 62.426 14.297 62.9396 15.2022 63.7393C16.0406 64.4502 16.9515 65.0713 17.92 65.5911" stroke="black" stroke-width="0.564931" stroke-linecap="round" stroke-linejoin="round"/>
<path d="M17.0876 65.1153C16.1009 64.8 15.1353 64.4222 14.1965 63.9845C13.2586 63.4896 12.9845 64.1285 13.9412 64.86C15.102 65.651 16.3216 66.3528 17.5892 66.9581" stroke="black" stroke-width="0.564931" stroke-linecap="round" stroke-linejoin="round"/>
<path d="M16.2051 66.2664C15.4895 66.1003 14.7832 65.8963 14.0893 65.6554C13.1086 65.2877 12.9046 65.9722 13.9342 66.5582C15.0234 67.1242 16.1583 67.597 17.3269 67.9718" stroke="black" stroke-width="0.564931" stroke-linecap="round" stroke-linejoin="round"/>
<path d="M25.3075 71.683C25.0522 71.765 20.5738 70.5343 17.9381 69.5124C16.8821 69.102 15.7781 68.6897 14.7461 68.1809C13.7074 67.6682 13.7688 67.1556 14.7735 67.3874C15.1378 67.4714 15.5669 67.5242 16.2691 67.6154" stroke="black" stroke-width="0.564931" stroke-linecap="round" stroke-linejoin="round"/>
<path d="M22.2517 70.9264C22.124 73.562 22.6444 75.676 23.456 75.7417C25.4869 75.9064 26.288 65.8417 24.2677 65.4908C22.7962 65.1625 21.4544 64.407 20.41 63.3198C18.4098 61.1334 17.7829 61.6052 19.6804 64.6604" stroke="black" stroke-width="0.564931" stroke-linecap="round" stroke-linejoin="round"/>
<path d="M44.6332 80.3656C43.775 80.753 43.0483 81.3822 42.5425 82.1762C42.0366 82.9701 41.7735 83.895 41.7855 84.8363C41.7975 85.7776 42.0841 86.6954 42.6099 87.4763C43.1358 88.2573 43.8783 88.8678 44.7461 89.2331C45.614 89.5984 46.5696 89.7021 47.4957 89.5322C48.4219 89.3622 49.2782 88.9254 49.9598 88.276C50.6409 87.6261 51.118 86.7918 51.3321 85.8746C51.5467 84.9578 51.4881 83.9982 51.1651 83.1141C50.9356 82.4901 50.5804 81.9198 50.1216 81.4394C49.6627 80.9584 49.1097 80.5773 48.4968 80.3195C47.8841 80.0618 47.2249 79.9326 46.5602 79.9408C45.8956 79.9485 45.2396 80.0934 44.6332 80.3656Z" stroke="black" stroke-width="0.564931" stroke-linecap="round" stroke-linejoin="round"/>
<path d="M67.6717 23.2356C68.4834 22.9711 69.0561 22.9265 69.1948 23.1626C69.5788 23.8173 66.7914 25.6586 66.1377 26.0594C65.2737 26.5874 61.5441 28.6591 61.0775 27.8503C60.8711 27.4927 61.725 26.5917 63.1204 25.6159" stroke="black" stroke-width="0.564931" stroke-linecap="round" stroke-linejoin="round"/>
<path d="M65.4191 19.3779C63.8418 20.0622 62.3826 20.9919 61.0957 22.1327C62.108 23.8472 63.1659 25.6366 63.9781 27.2206C65.5621 26.4948 67.0405 25.5583 68.3739 24.4367L65.4191 19.3779Z" stroke="black" stroke-width="0.564931" stroke-linecap="round" stroke-linejoin="round"/>
<path d="M90.2169 15.0273C87.9643 16.9699 83.8781 23.4547 83.1211 25.7985C83.2579 26.9294 83.3673 27.732 83.4403 28.416C85.1198 28.6404 86.8238 28.6066 88.4933 28.3157L88.475 27.5678C90.4267 21.1929 90.4997 18.4565 90.2169 15.0273Z" stroke="black" stroke-width="0.564931" stroke-linecap="round" stroke-linejoin="round"/>
<path d="M88.4934 28.3154C86.8239 28.6064 85.12 28.6402 83.4404 28.4157C83.6094 30.1527 83.6367 31.9005 83.5225 33.642C85.227 33.7845 86.943 33.6894 88.6211 33.3593C88.4948 28.266 88.5183 29.1775 88.4934 28.3154Z" stroke="black" stroke-width="0.564931" stroke-linecap="round" stroke-linejoin="round"/>
<path d="M79.007 23.1715C78.8582 23.2861 78.6787 23.3539 78.4915 23.3665C78.3043 23.379 78.1171 23.3358 77.9544 23.2421C77.7916 23.1485 77.6601 23.0086 77.5771 22.8403C77.4936 22.6721 77.4624 22.4828 77.4864 22.2966C77.5109 22.1104 77.5896 21.9356 77.7129 21.7942C77.8368 21.6529 77.9995 21.5513 78.1809 21.5024C78.3619 21.4536 78.5539 21.4596 78.732 21.5196C78.9096 21.5797 79.0656 21.6912 79.1803 21.84C79.3324 22.04 79.4001 22.2921 79.3675 22.5414C79.3348 22.7908 79.2052 23.0172 79.007 23.1715Z" stroke="black" stroke-width="0.564931" stroke-linecap="round" stroke-linejoin="round"/>
<path d="M49.9774 46.3288C49.9352 46.624 49.7974 46.8973 49.5848 47.1065C49.3721 47.3158 49.0966 47.4494 48.8009 47.487C49.0918 47.6264 49.3236 47.8647 49.4547 48.1595C49.5857 48.4537 49.6078 48.7859 49.5171 49.095C49.4259 49.4046 49.2276 49.6715 48.9579 49.8481C48.6876 50.0243 48.3641 50.0992 48.044 50.0589C48.1563 50.2019 48.2384 50.3661 48.2854 50.5417C48.3324 50.7169 48.3435 50.9003 48.3176 51.0803C48.2931 51.2569 48.234 51.4269 48.1438 51.5809C48.0536 51.7345 47.9337 51.8694 47.7914 51.9769C47.6491 52.0845 47.4871 52.1627 47.3145 52.2078C47.1418 52.2525 46.962 52.263 46.7854 52.2385C46.6561 52.2203 46.5301 52.1838 46.4115 52.1291C46.46 52.3105 46.4723 52.4992 46.448 52.6854C46.4144 52.9355 46.3115 53.1712 46.151 53.3661C45.9905 53.5605 45.7788 53.7064 45.5397 53.787C45.3006 53.8677 45.0437 53.8797 44.7981 53.8221C44.5525 53.7645 44.3279 53.6392 44.1497 53.4606C44.1512 53.5005 44.1481 53.5403 44.1406 53.5792C44.0895 53.9353 43.8998 54.2569 43.6129 54.4734C43.326 54.6904 42.9649 54.7854 42.6084 54.7374C42.3435 54.7024 42.0955 54.5881 41.8971 54.4091C41.286 53.26 41.3571 52.2011 41.5131 52.047C43.0011 50.5897 41.731 49.2193 41.0292 50.2595C40.7384 50.6915 40.5147 50.8417 40.3625 50.3661C39.8369 48.723 37.5392 46.5342 36.9161 51.0073C36.7573 51.8795 36.7634 52.7737 36.9344 53.6435C36.7553 53.4966 36.6169 53.3061 36.5323 53.0905C36.4477 52.875 36.4197 52.6413 36.451 52.4118C36.4583 52.3561 36.4705 52.3014 36.4875 52.2477C36.2425 52.371 35.9653 52.4157 35.694 52.3753C35.3388 52.3225 35.0185 52.1325 34.8019 51.8459C34.5853 51.5593 34.4898 51.1993 34.5358 50.8432C34.566 50.6377 34.6407 50.4409 34.7547 50.2672C34.6428 50.2763 34.5305 50.2763 34.4187 50.2672C34.1458 50.2302 33.8906 50.1107 33.6873 49.9249C33.484 49.7392 33.3422 49.4953 33.2808 49.227C33.2194 48.9587 33.2412 48.6779 33.3435 48.4221C33.4458 48.1662 33.6236 47.9478 33.8532 47.7957C33.5371 47.7335 33.2532 47.5612 33.0524 47.3093C32.8515 47.0573 32.7467 46.7422 32.7565 46.4202C32.7663 46.0981 32.8903 45.79 33.1062 45.5509C33.3221 45.3117 33.6159 45.157 33.9353 45.1144C33.6454 44.9753 33.4142 44.7379 33.283 44.4443C33.1518 44.1508 33.1291 43.8202 33.2188 43.5114C33.3086 43.2026 33.5051 42.9358 33.7733 42.7583C34.0415 42.5809 34.3639 42.5044 34.6832 42.5425C34.5142 42.3303 34.4127 42.0724 34.3919 41.8019C34.3709 41.5315 34.4316 41.261 34.5659 41.0254C34.7002 40.7897 34.9021 40.5997 35.1455 40.4799C35.3888 40.3601 35.6625 40.316 35.9312 40.3533C36.0578 40.3702 36.1809 40.4072 36.296 40.4627C36.2418 40.2794 36.2263 40.0869 36.2504 39.8973C36.2739 39.7202 36.3324 39.5495 36.4223 39.3952C36.5123 39.2409 36.6321 39.1059 36.7746 38.9982C36.9171 38.8905 37.0796 38.8121 37.2526 38.7676C37.4256 38.7231 37.6057 38.7134 37.7825 38.739C38.0679 38.7809 38.3328 38.9117 38.5395 39.1129C38.5554 38.8014 38.678 38.5049 38.8868 38.2732C39.0956 38.0414 39.3778 37.8886 39.686 37.8405C39.9942 37.7924 40.3095 37.8517 40.5791 38.0087C40.8486 38.1658 41.0559 38.4107 41.166 38.7025C41.6513 37.203 43.9232 37.6139 43.902 39.1403C44.0889 38.909 44.3463 38.7453 44.635 38.6741C44.9236 38.6028 45.2277 38.6281 45.5006 38.746C45.7736 38.8639 46.0005 39.0679 46.1465 39.3268C46.2926 39.5857 46.35 39.8854 46.3097 40.18C46.3029 40.2387 46.2907 40.2967 46.2732 40.3533C46.5156 40.2321 46.7892 40.1875 47.0576 40.2256C47.4142 40.2766 47.7361 40.4664 47.9534 40.7538C48.1707 41.0411 48.2652 41.4027 48.2172 41.7597C48.1908 41.9678 48.1126 42.1659 47.9892 42.3357C48.0987 42.3258 48.2086 42.3287 48.3176 42.3443C48.6728 42.3972 48.9929 42.5875 49.2099 42.874C49.4264 43.1606 49.5219 43.5207 49.4758 43.8769C49.4494 44.0689 49.3817 44.253 49.278 44.4166C49.1744 44.5803 49.0361 44.7197 48.8739 44.8254C49.2171 44.8835 49.5243 45.073 49.7302 45.3536C49.9361 45.6342 50.0249 45.9839 49.9774 46.3288Z" stroke="black" stroke-width="0.564931" stroke-linecap="round" stroke-linejoin="round"/>
<path d="M12.7217 59.7812L14.801 64.2501" stroke="black" stroke-width="0.564931" stroke-linecap="round" stroke-linejoin="round"/>
<path d="M17.0908 69.166L21.2865 78.1771" stroke="black" stroke-width="0.564931" stroke-linecap="round" stroke-linejoin="round"/>
<path d="M15.1465 58.6504L17.6271 63.9765" stroke="black" stroke-width="0.564931" stroke-linecap="round" stroke-linejoin="round"/>
<path d="M20.6289 70.4336L22.6171 74.7018" stroke="black" stroke-width="0.564931" stroke-linecap="round" stroke-linejoin="round"/>
<path d="M22.9277 75.3496L23.7121 77.0464" stroke="black" stroke-width="0.564931" stroke-linecap="round" stroke-linejoin="round"/>
<path d="M83.5678 31.7627C82.7657 31.8179 80.0638 32.1126 80.4151 32.8293C80.7823 33.5747 84.3511 33.7067 85.2554 33.7043C88.865 33.6952 91.4671 32.7025 88.5842 32.0272" stroke="black" stroke-width="0.564931" stroke-linecap="round" stroke-linejoin="round"/>
<path d="M44.8408 64.1569C45.2015 63.4422 45.5248 62.7093 45.8095 61.9609V64.6331" stroke="black" stroke-width="0.564931" stroke-linecap="round" stroke-linejoin="round"/>
</svg>
