<svg width="96" height="96" viewBox="0 0 96 96" fill="none" xmlns="http://www.w3.org/2000/svg">
<path d="M62.6564 27.6147C61.6911 26.6545 60.4109 26.0763 59.0525 25.9868C57.6941 25.8973 56.3492 26.3027 55.2663 27.128C54.1834 27.9532 53.436 29.1426 53.162 30.4762C52.8884 31.8098 53.1063 33.1975 53.7764 34.3827C54.4604 33.9454 56.0468 32.6777 55.9647 33.2883C55.8735 33.8993 54.433 35.1305 54.433 35.1305C54.4407 35.191 54.4436 35.252 54.4421 35.3129C54.9394 35.8825 55.5466 36.346 56.2272 36.6759C56.9079 37.0058 57.6476 37.1952 58.4031 37.233C59.1581 37.2707 59.9136 37.1559 60.6236 36.8955C61.3335 36.6351 61.9839 36.2344 62.5354 35.7173C63.0874 35.2002 63.5295 34.5772 63.8352 33.8855C64.141 33.1939 64.3047 32.4478 64.3157 31.6916C64.3272 30.9355 64.1861 30.1848 63.901 29.4843C63.6159 28.7839 63.1925 28.148 62.6564 27.6147Z" fill="#09AFF4"/>
<path d="M49.8069 55.6008C49.1224 54.9739 48.3626 54.4349 47.5452 53.9957C42.9132 51.4685 38.137 49.2149 33.2412 47.2464C33.1029 46.7352 32.9935 46.3905 32.9935 46.3905L27.8047 44.8857C27.8047 44.8857 21.7039 49.7097 23.1904 54.0321C24.0112 56.4321 27.2575 59.6405 38.2096 62.1571C37.0897 67.8533 35.6562 73.4832 33.9155 79.0214C34.3403 78.1013 36.7687 77.5565 39.6415 77.8785C42.7327 78.2251 45.1404 79.3469 45.0309 80.3957L45.0669 80.4413C45.7508 74.1864 45.9847 67.8902 45.7668 61.6017L55.1479 75.4685C54.6199 74.7216 56.0301 72.5755 58.3447 70.6205C60.6967 68.6323 63.0866 67.6017 63.6885 68.304L63.725 68.3222L49.8069 55.6008Z" fill="#09AFF4"/>
<path d="M85.1072 52.1716C84.9008 51.8332 84.5984 51.564 84.2388 51.3974C83.8793 51.2308 83.4785 51.1747 83.0868 51.2361C82.6956 51.2976 82.3308 51.4737 82.0395 51.742C81.7481 52.0108 81.5427 52.3598 81.4496 52.7448C81.3564 53.1297 81.38 53.5339 81.5163 53.9059C81.6531 54.2779 81.8969 54.6014 82.2171 54.8347C82.5372 55.068 82.9193 55.2014 83.3153 55.2172C83.7113 55.2336 84.103 55.1318 84.4414 54.9254C84.666 54.7886 84.8619 54.6086 85.0169 54.3964C85.1724 54.1838 85.2838 53.9424 85.3457 53.6865C85.4076 53.4307 85.4187 53.1652 85.3774 52.9056C85.3366 52.6454 85.2444 52.3963 85.1072 52.1716Z" fill="#E9E9E9"/>
<path d="M68.1004 63.3149C68.3068 63.6533 68.6092 63.9226 68.9687 64.0891C69.3283 64.2557 69.7291 64.3118 70.1207 64.2504C70.5119 64.189 70.8767 64.0128 71.1681 63.7445C71.4595 63.4757 71.6649 63.1267 71.758 62.7418C71.8511 62.3568 71.8276 61.9526 71.6913 61.5806C71.5545 61.2086 71.3107 60.8851 70.9905 60.6518C70.6703 60.4186 70.2883 60.2851 69.8923 60.2693C69.4963 60.253 69.1046 60.3547 68.7662 60.5611C68.5415 60.6979 68.3457 60.8779 68.1907 61.0906C68.0351 61.3027 67.9238 61.5442 67.8619 61.8C67.7999 62.0558 67.7889 62.3213 67.8302 62.581C67.871 62.8411 67.9631 63.0902 68.1004 63.3149Z" fill="#E9E9E9"/>
<path d="M80.676 19.9812C80.834 20.1323 81.0327 20.2333 81.2477 20.2713C81.4632 20.3092 81.6845 20.2826 81.8847 20.1946C82.0844 20.1066 82.2538 19.9612 82.3714 19.7769C82.4885 19.5927 82.5485 19.3777 82.5437 19.1593C82.5389 18.9409 82.4693 18.7288 82.3436 18.55C82.2183 18.3712 82.0426 18.2336 81.8386 18.1547C81.6351 18.0757 81.4124 18.059 81.1992 18.1066C80.9861 18.1542 80.7917 18.2641 80.641 18.4221C80.4399 18.634 80.3309 18.9168 80.3372 19.2088C80.3439 19.5009 80.4658 19.7785 80.676 19.9812Z" fill="#E9E9E9"/>
<path d="M13.3038 21.0391C13.2132 21.1807 13.165 21.3452 13.165 21.5133C13.165 21.6814 13.2132 21.846 13.3038 21.9875C13.3905 22.0894 13.5004 22.1689 13.6241 22.2197C13.7479 22.2705 13.8819 22.291 14.0152 22.2794L13.3038 21.0391Z" fill="#E9E9E9"/>
<path d="M17.5805 18.9419C17.5024 18.8231 17.3895 18.7314 17.2573 18.6792C17.1251 18.6269 16.98 18.6168 16.8418 18.6501C17.088 19.0422 17.3252 19.4435 17.5805 19.8352C17.6554 19.6982 17.6946 19.5446 17.6946 19.3885C17.6946 19.2324 17.6554 19.0788 17.5805 18.9419Z" fill="#E9E9E9"/>
<path d="M63.7411 68.3115C63.3398 67.8373 62.136 68.1382 60.6768 68.9864L62.674 71.0744C63.6772 69.8437 64.1241 68.7766 63.7411 68.3115Z" fill="#E9E9E9"/>
<path d="M56.6107 72.3613C55.3886 73.7567 54.7958 75.0061 55.225 75.5168C55.6622 76.0362 57.0576 75.6263 58.6901 74.5866L56.6107 72.3613Z" fill="#E9E9E9"/>
<path d="M36.2837 24.4409C35.9814 24.1408 35.5844 23.955 35.1603 23.9151C34.7362 23.8752 34.3115 23.9836 33.9585 24.222C33.2854 24.0709 32.5823 24.1281 31.9425 24.3862C31.7382 24.0444 31.4486 23.7614 31.1023 23.5648C30.7559 23.3683 30.3645 23.2648 29.9663 23.2646C29.568 23.2645 29.1765 23.3675 28.83 23.5637C28.4834 23.7599 28.1936 24.0426 27.9889 24.3842C27.7842 24.7258 27.6715 25.1147 27.6618 25.5128C27.6522 25.9109 27.7459 26.3047 27.9338 26.6559C28.1217 27.007 28.3975 27.3034 28.7341 27.5162C29.0707 27.729 29.4568 27.8509 29.8545 27.87C29.936 28.6424 30.2804 29.3635 30.8299 29.9124C30.8299 29.9124 32.5627 32.01 31.4774 33.0674C31.8415 32.783 32.1377 32.421 32.3443 32.0078C32.551 31.5945 32.663 31.1404 32.6721 30.6785C32.6804 30.5879 32.6648 30.4966 32.6265 30.414C31.5144 29.1468 32.6448 28.1162 33.1373 29.0004C33.3744 29.4291 33.5294 29.429 33.6389 29.201C34.0584 28.0706 35.9736 26.5294 36.4382 28.5449V28.5358C36.5119 28.9202 36.5456 29.3113 36.5385 29.7027C36.5385 29.4751 36.5477 28.7638 36.5477 28.0889C36.6223 27.65 36.6099 27.2006 36.5112 26.7665C36.7505 26.4132 36.8587 25.9873 36.8171 25.5626C36.7756 25.1379 36.5869 24.7411 36.2837 24.4409Z" fill="#E9E9E9"/>
<path d="M45.0653 80.4231C45.1478 79.7117 44.0621 78.973 42.4022 78.4551L42.0557 81.756C43.7793 81.6178 44.9837 81.1253 45.0653 80.4231Z" fill="#E9E9E9"/>
<path d="M33.8673 79.1729C33.7852 79.9116 34.9713 80.6959 36.767 81.2066L37.151 77.8145C35.29 77.9325 33.9585 78.4341 33.8673 79.1729Z" fill="#E9E9E9"/>
<path d="M68.0467 75.1152C65.5627 75.9466 62.9602 76.3685 60.3408 76.3632L61.5264 77.6396C64.9858 78.864 68.7063 79.1564 72.3144 78.4877C71.0031 77.2292 69.5741 76.0997 68.0467 75.1152Z" fill="#E9E9E9"/>
<path d="M42.4387 88.6108C40.2821 87.0201 38.3066 85.1975 36.5476 83.1758L36.3359 85.007C36.8831 86.53 38.0049 89.6851 42.227 93.599C42.694 92.2675 42.6302 90.3892 42.4387 88.6108Z" fill="#E9E9E9"/>
<path d="M35.7094 39.3408C35.6058 40.0469 35.4526 40.7448 35.251 41.4293C35.6186 41.7017 36.0064 41.9456 36.4111 42.1589C36.1923 41.2195 35.946 40.1069 35.7094 39.3408Z" fill="#E9E9E9"/>
<path d="M33.4023 32.3555C33.5756 32.8115 33.7383 33.2852 33.8948 33.8329C33.8761 33.4964 33.9587 33.162 34.1319 32.8729C33.855 32.7537 33.6064 32.5774 33.4023 32.3555Z" fill="#E9E9E9"/>
<path d="M38.2269 62.166L37.1143 67.5924L39.2483 62.3945L38.2269 62.166Z" fill="#E9E9E9"/>
<path d="M25.7891 36.2871L26.5724 39.1388L27.2924 37.4794C27.2924 37.4794 25.8731 36.3519 25.7891 36.2871Z" fill="#E9E9E9"/>
<path d="M46.4326 16.3059L41.9004 15.1295L43.6058 8.57315L46.2684 7.63379L48.138 9.75827L46.4326 16.3059Z" fill="#E9E9E9"/>
<path d="M67.8264 12.8505C67.8897 13.0886 67.8806 13.3401 67.8009 13.5732C67.7212 13.8063 67.5739 14.0106 67.378 14.16C67.1822 14.3095 66.9465 14.3975 66.7008 14.413C66.455 14.4285 66.2097 14.3707 65.9966 14.2469C65.784 14.1232 65.6121 13.9391 65.5036 13.7178C65.3956 13.4966 65.3553 13.2482 65.388 13.004C65.4206 12.7598 65.5252 12.5309 65.688 12.3461C65.8512 12.1613 66.0652 12.029 66.3033 11.9658C66.6225 11.8819 66.9619 11.9278 67.2475 12.0936C67.5331 12.2595 67.7409 12.5316 67.8264 12.8505Z" stroke="black" stroke-width="0.564931" stroke-linecap="round" stroke-linejoin="round"/>
<path d="M71.7385 15.0834C71.8018 15.3215 71.7932 15.5731 71.713 15.8062C71.6333 16.0393 71.4865 16.2436 71.2906 16.3931C71.0948 16.5427 70.8591 16.6308 70.6133 16.6464C70.3671 16.662 70.1223 16.6042 69.9092 16.4805C69.6961 16.3568 69.5247 16.1727 69.4162 15.9515C69.3078 15.7302 69.2674 15.4818 69.3001 15.2376C69.3327 14.9934 69.4373 14.7644 69.6001 14.5796C69.7633 14.3948 69.9773 14.2624 70.2154 14.1993C70.5346 14.1153 70.874 14.1612 71.1596 14.3269C71.4447 14.4926 71.653 14.7646 71.7385 15.0834Z" stroke="black" stroke-width="0.564931" stroke-linecap="round" stroke-linejoin="round"/>
<path d="M66.5498 17.7374L70.5986 10.7793" stroke="black" stroke-width="0.564931" stroke-linecap="round" stroke-linejoin="round"/>
<path d="M85.1072 52.1716C84.9008 51.8332 84.5984 51.564 84.2388 51.3974C83.8793 51.2308 83.4785 51.1747 83.0868 51.2361C82.6956 51.2976 82.3308 51.4737 82.0395 51.742C81.7481 52.0108 81.5427 52.3598 81.4496 52.7448C81.3564 53.1297 81.38 53.5339 81.5163 53.9059C81.6531 54.2779 81.8969 54.6014 82.2171 54.8347C82.5372 55.068 82.9193 55.2014 83.3153 55.2172C83.7113 55.2336 84.103 55.1318 84.4414 54.9254C84.666 54.7886 84.8619 54.6086 85.0169 54.3964C85.1724 54.1838 85.2838 53.9424 85.3457 53.6865C85.4076 53.4307 85.4187 53.1652 85.3774 52.9056C85.3366 52.6454 85.2444 52.3963 85.1072 52.1716Z" stroke="black" stroke-width="0.564931" stroke-linecap="round" stroke-linejoin="round"/>
<path d="M68.0994 63.3149C68.3058 63.6533 68.6082 63.9226 68.9678 64.0891C69.3273 64.2557 69.7281 64.3118 70.1198 64.2504C70.511 64.189 70.8758 64.0128 71.1671 63.7445C71.4585 63.4757 71.6639 63.1267 71.757 62.7418C71.8502 62.3568 71.8266 61.9526 71.6903 61.5806C71.5535 61.2086 71.3097 60.8851 70.9895 60.6518C70.6694 60.4186 70.2873 60.2851 69.8913 60.2693C69.4953 60.253 69.1036 60.3547 68.7652 60.5611C68.5406 60.6979 68.3447 60.8779 68.1897 61.0906C68.0342 61.3027 67.9228 61.5442 67.8609 61.8C67.799 62.0558 67.7879 62.3213 67.8292 62.581C67.87 62.8411 67.9622 63.0902 68.0994 63.3149Z" stroke="black" stroke-width="0.564931" stroke-linecap="round" stroke-linejoin="round"/>
<path d="M81.7235 54.3867L71.583 61.3448" stroke="black" stroke-width="0.564931" stroke-linecap="round" stroke-linejoin="round"/>
<path d="M83.1006 51.2409L77.3828 22.8259L81.4407 19.1875" stroke="black" stroke-width="0.564931" stroke-linecap="round" stroke-linejoin="round"/>
<path d="M82.0158 45.8246L61.9172 56.795L51.1475 47.1197L78.7331 29.5469L82.0158 45.8246Z" stroke="black" stroke-width="0.564931" stroke-linecap="round" stroke-linejoin="round"/>
<path d="M80.6741 19.9812C80.832 20.1323 81.0307 20.2333 81.2458 20.2713C81.4613 20.3092 81.6826 20.2826 81.8827 20.1946C82.0824 20.1066 82.2519 19.9612 82.3695 19.7769C82.4866 19.5927 82.5466 19.3777 82.5418 19.1593C82.537 18.9409 82.4674 18.7288 82.3416 18.55C82.2163 18.3712 82.0407 18.2336 81.8367 18.1547C81.6331 18.0757 81.4104 18.059 81.1973 18.1066C80.9842 18.1542 80.7898 18.2641 80.6391 18.4221C80.4379 18.634 80.329 18.9168 80.3352 19.2088C80.3419 19.5009 80.4639 19.7785 80.6741 19.9812Z" stroke="black" stroke-width="0.564931" stroke-linecap="round" stroke-linejoin="round"/>
<path d="M51.5576 39.6953C51.7496 39.632 55.0616 38.5318 56.8755 36.9512" stroke="black" stroke-width="0.564931" stroke-linecap="round" stroke-linejoin="round"/>
<path d="M55.9077 37.2436C55.8918 36.976 55.8525 36.7102 55.791 36.4492" stroke="black" stroke-width="0.564931" stroke-linecap="round" stroke-linejoin="round"/>
<path d="M54.4396 35.3098C54.5217 35.4101 54.61 35.5018 54.7041 35.6016C55.716 36.6095 57.0724 37.1958 58.5 37.242C59.9275 37.2883 61.319 36.791 62.3942 35.8508C63.4689 34.9105 64.1472 33.5973 64.2912 32.1765C64.4356 30.7557 64.0353 29.333 63.1708 28.196C62.3068 27.059 61.0435 26.2923 59.6356 26.0509C58.2283 25.8094 56.7811 26.1113 55.5878 26.8953C54.394 27.6793 53.542 28.8872 53.2046 30.2749C52.8672 31.6626 53.0688 33.1267 53.7691 34.3714" stroke="black" stroke-width="0.564931" stroke-linecap="round" stroke-linejoin="round"/>
<path d="M26.5806 39.2036L27.2828 37.4895L25.7881 36.2881" stroke="black" stroke-width="0.564931" stroke-linecap="round" stroke-linejoin="round"/>
<path d="M33.8953 33.8739L33.374 32.3379C33.6175 32.5313 33.8774 32.7032 34.1507 32.8515" stroke="black" stroke-width="0.564931" stroke-linecap="round" stroke-linejoin="round"/>
<path d="M34.97 35.5472C33.4105 35.5198 31.7871 34.3798 30.4014 33.1035" stroke="black" stroke-width="0.564931" stroke-linecap="round" stroke-linejoin="round"/>
<path d="M30.3921 33.1035L30.082 35.4104L32.9088 35.1733L34.7784 37.2253L34.9699 35.5472" stroke="black" stroke-width="0.564931" stroke-linecap="round" stroke-linejoin="round"/>
<path d="M16.8414 18.6499C16.9796 18.6179 17.1242 18.6286 17.2562 18.6807C17.3881 18.7329 17.5011 18.8239 17.5801 18.9417C17.9742 19.4875 17.3247 20.6102 16.1487 21.4492C14.9727 22.2883 13.6959 22.5249 13.3124 21.9772C13.2219 21.8356 13.1738 21.6711 13.1738 21.503C13.1738 21.3349 13.2219 21.1704 13.3124 21.0288" stroke="black" stroke-width="0.564931" stroke-linecap="round" stroke-linejoin="round"/>
<path d="M52.7608 37.3531C53.2441 37.0247 54.5483 36.0945 54.4297 35.1187C54.4297 35.1187 55.8697 33.8875 55.9614 33.2769C56.0531 32.6663 54.4297 33.9513 53.7534 34.3809C52.6177 35.1109 51.436 35.7659 50.2148 36.3417" stroke="black" stroke-width="0.564931" stroke-linecap="round" stroke-linejoin="round"/>
<path d="M35.709 39.3408L36.4107 42.1589" stroke="black" stroke-width="0.564931" stroke-linecap="round" stroke-linejoin="round"/>
<path d="M36.538 29.7022C36.538 29.4742 36.5472 28.7633 36.5472 28.0884C36.6218 27.6495 36.6094 27.2001 36.5107 26.766C36.7481 26.4123 36.8551 25.987 36.8135 25.5631C36.7718 25.1391 36.584 24.7429 36.2822 24.4422C35.9804 24.1415 35.5835 23.9551 35.1594 23.9149C34.7353 23.8748 34.3104 23.9833 33.9576 24.222C33.2845 24.0704 32.5812 24.1277 31.9416 24.3862C31.7372 24.0444 31.4476 23.7614 31.1013 23.5648C30.755 23.3683 30.3636 23.2648 29.9653 23.2646C29.5671 23.2645 29.1756 23.3675 28.829 23.5637C28.4824 23.7599 28.1927 24.0426 27.9879 24.3842C27.7832 24.7258 27.6705 25.1146 27.6608 25.5128C27.6512 25.9109 27.7449 26.3047 27.9328 26.6559C28.1207 27.007 28.3965 27.3034 28.7331 27.5162C29.0697 27.729 29.4558 27.8509 29.8536 27.87C29.935 28.6425 30.2793 29.3635 30.8289 29.9124C30.8289 29.9124 32.6395 32.1041 31.4001 33.1366" stroke="black" stroke-width="0.564931" stroke-linecap="round" stroke-linejoin="round"/>
<path d="M58.6887 74.5865C57.0567 75.6262 55.6536 76.0347 55.2139 75.5168C54.3499 74.4968 57.2506 71.5808 58.4242 70.5901C59.5282 69.6584 62.8839 67.2963 63.7407 68.3125C64.1247 68.768 63.6768 69.8537 62.6736 71.0849" stroke="black" stroke-width="0.564931" stroke-linecap="round" stroke-linejoin="round"/>
<path d="M68.0448 75.1152C65.5608 75.9471 62.9582 76.3685 60.3389 76.3632" stroke="black" stroke-width="0.564931" stroke-linecap="round" stroke-linejoin="round"/>
<path d="M60.6764 68.9961L63.002 71.422C63.9486 72.5083 65.0742 73.4241 66.3303 74.1302C68.5244 75.2913 70.5414 76.7591 72.3217 78.4891C68.7135 79.1577 64.9931 78.8654 61.5337 77.6409L56.6094 72.3609" stroke="black" stroke-width="0.564931" stroke-linecap="round" stroke-linejoin="round"/>
<path d="M42.0556 81.7528C43.7793 81.6165 44.9879 81.1235 45.0652 80.4218C45.2183 79.0235 41.6202 78.1586 40.0583 77.9493C38.1791 77.6978 34.0319 77.6843 33.8663 79.1723C33.7842 79.9111 34.9703 80.6954 36.766 81.2061" stroke="black" stroke-width="0.564931" stroke-linecap="round" stroke-linejoin="round"/>
<path d="M36.5479 83.1758C38.3 85.2043 40.2763 87.0273 42.4389 88.6108" stroke="black" stroke-width="0.564931" stroke-linecap="round" stroke-linejoin="round"/>
<path d="M37.1567 77.8408L36.3359 85C36.8831 86.5226 38.0049 89.6781 42.227 93.592C42.9033 91.6303 42.4468 88.4152 42.1267 86.3608C41.9022 84.9429 41.8654 83.5019 42.0172 82.0744C42.0585 81.6943 41.9937 82.3283 42.3988 78.4663" stroke="black" stroke-width="0.564931" stroke-linecap="round" stroke-linejoin="round"/>
<path d="M36.8945 68.275L39.2293 62.3662L38.1992 62.1367" stroke="black" stroke-width="0.564931" stroke-linecap="round" stroke-linejoin="round"/>
<path d="M33.9188 78.9794C35.6757 73.4546 37.1048 67.8309 38.1984 62.1376C27.2453 59.6243 24.002 56.4025 23.1879 54.0136C21.6999 49.6936 27.8021 44.8672 27.8021 44.8672" stroke="black" stroke-width="0.564931" stroke-linecap="round" stroke-linejoin="round"/>
<path d="M32.4531 49.5C36.5896 51.7603 40.4985 54.4142 44.1258 57.4248C44.605 57.8102 44.9968 58.2936 45.2751 58.8422C45.5533 59.3909 45.7116 59.9928 45.7395 60.6072C46.0173 67.2197 45.7949 73.8442 45.0742 80.423" stroke="black" stroke-width="0.564931" stroke-linecap="round" stroke-linejoin="round"/>
<path d="M32.9912 46.3711C33.3917 47.6287 33.6607 48.9242 33.7938 50.2375" stroke="black" stroke-width="0.564931" stroke-linecap="round" stroke-linejoin="round"/>
<path d="M55.1167 75.3633L45.7754 61.5557" stroke="black" stroke-width="0.564931" stroke-linecap="round" stroke-linejoin="round"/>
<path d="M33.2285 47.2197C38.1291 49.1964 42.9123 51.4524 47.5546 53.9767C48.3735 54.4135 49.1338 54.953 49.8164 55.5818L63.6404 68.2144" stroke="black" stroke-width="0.564931" stroke-linecap="round" stroke-linejoin="round"/>
<path d="M17.5705 19.8353C17.5705 19.8353 15.3274 16.8261 15.7105 14.6191C16.1026 12.3578 15.65 12.3151 14.6617 14.3551C14.0074 15.7058 13.7861 18.8599 13.7861 18.8599" stroke="black" stroke-width="0.564931" stroke-linecap="round" stroke-linejoin="round"/>
<path d="M14.0159 22.279C14.0159 22.279 12.0067 18.8336 10.9065 16.471C10.0833 14.7032 11.1436 15.404 11.4446 15.9968" stroke="black" stroke-width="0.564931" stroke-linecap="round" stroke-linejoin="round"/>
<path d="M13.0382 14.6092C12.9013 13.9491 12.828 13.2774 12.8193 12.6033C12.8193 10.5786 13.3142 10.6785 13.7496 12.3935C13.9527 13.1995 14.1993 13.994 14.4883 14.7733" stroke="black" stroke-width="0.564931" stroke-linecap="round" stroke-linejoin="round"/>
<path d="M13.4132 14.2637C12.609 15.1467 12.1325 16.2792 12.0635 17.4715" stroke="black" stroke-width="0.564931" stroke-linecap="round" stroke-linejoin="round"/>
<path d="M12.8925 13.6619C12.7101 13.2424 12.5282 12.7499 12.3544 12.2219C11.7443 10.3615 11.3608 10.7719 11.5615 12.4682C11.706 13.6506 11.9937 14.8112 12.4183 15.9242" stroke="black" stroke-width="0.564931" stroke-linecap="round" stroke-linejoin="round"/>
<path d="M11.7526 13.6979C11.1238 11.6642 10.6563 12.0295 10.914 13.8899C11.1114 15.1333 11.4988 16.3389 12.0627 17.4645" stroke="black" stroke-width="0.564931" stroke-linecap="round" stroke-linejoin="round"/>
<path d="M23.8536 65.6309L22.5859 70.5461" stroke="black" stroke-width="0.564931" stroke-linecap="round" stroke-linejoin="round"/>
<path d="M25.6779 68.7319L20.7627 67.4551" stroke="black" stroke-width="0.564931" stroke-linecap="round" stroke-linejoin="round"/>
<path d="M46.4325 16.3059L41.9004 15.1295L43.6058 8.57315L46.2684 7.63379L48.138 9.75827L46.4325 16.3059Z" stroke="black" stroke-width="0.564931" stroke-linecap="round" stroke-linejoin="round"/>
<path d="M46.3505 9.47587C46.3236 9.57868 46.2667 9.67118 46.1871 9.74169C46.1076 9.8122 46.0089 9.85751 45.9036 9.87196C45.7983 9.88641 45.691 9.86927 45.5954 9.82281C45.4998 9.7763 45.4202 9.70252 45.3665 9.61075C45.3128 9.51897 45.2876 9.41337 45.2939 9.30724C45.3003 9.20112 45.3379 9.09931 45.4022 9.01459C45.4664 8.92987 45.5543 8.86607 45.6547 8.83132C45.7552 8.79657 45.8637 8.79235 45.9665 8.81923C46.103 8.85791 46.2191 8.94791 46.2906 9.07031C46.3623 9.19267 46.3837 9.33801 46.3505 9.47587Z" stroke="black" stroke-width="0.564931" stroke-linecap="round" stroke-linejoin="round"/>
<path d="M45.918 8.80741C48.8733 7.08325 45.2676 4.12213 48.2402 2.39941" stroke="black" stroke-width="0.564931" stroke-linecap="round" stroke-linejoin="round"/>
<path d="M59.829 29.583L57.5312 33.6227" stroke="black" stroke-width="0.564931" stroke-linecap="round" stroke-linejoin="round"/>
<path d="M60.7047 32.7576L56.665 30.4502" stroke="black" stroke-width="0.564931" stroke-linecap="round" stroke-linejoin="round"/>
<path d="M13.2617 21.9087C15.6056 26.5796 20.2889 31.7862 25.7897 36.2886C26.6134 39.1103 27.2863 41.9739 27.8057 44.8671L32.9945 46.3719C33.8664 44.7808 34.6215 43.1285 35.2539 41.4279C36.6459 42.3726 38.1629 43.1183 39.7611 43.6436C40.5483 43.9257 41.4057 43.9449 42.2048 43.6983C45.427 42.7189 48.5724 41.5028 51.6156 40.0599C51.45 38.5997 50.8889 37.2124 49.9928 36.0476C47.2654 37.3007 44.3966 38.2194 41.4488 38.7836C38.987 37.9027 36.6481 36.7106 34.4888 35.2364C33.7208 34.731 33.7995 33.6399 34.1528 32.8503C35.0676 33.2982 36.4731 33.386 36.5403 29.7649C36.6118 26.1169 34.232 27.8166 33.6752 29.113C33.5475 29.4111 33.4164 29.497 33.139 28.9988C32.648 28.1137 31.507 29.1428 32.6283 30.4124C32.674 30.5598 32.6865 30.7156 32.6648 30.8684C32.2884 32.8503 31.2876 33.9884 29.6921 32.6444C25.0587 28.7511 21.4025 25.2486 17.5817 18.9385" stroke="black" stroke-width="0.564931" stroke-linecap="round" stroke-linejoin="round"/>
<path d="M35.251 41.4288C35.6149 40.4949 35.7681 39.4922 35.6998 38.4922" stroke="black" stroke-width="0.564931" stroke-linecap="round" stroke-linejoin="round"/>
</svg>
