<svg width="96" height="96" viewBox="0 0 96 96" fill="none" xmlns="http://www.w3.org/2000/svg">
<path d="M55.9724 48.9336L51.2684 47.8118L30.8727 26.7432C27.7192 28.3167 25.1203 30.8143 23.4226 33.9028L32.005 43.224L22.1367 40.872C20.185 43.8998 19.346 47.0832 19.7847 50.4576L44.8114 57.1248C46.9066 59.3966 47.9127 60.6825 49.9095 61.8288C51.9615 63.0053 55.3004 64.3118 58.994 63.3451C59.4572 63.2822 57.4681 53.2315 55.9724 48.9336Z" fill="#09AFF4"/>
<path d="M67.8558 15.0872L65.2748 9.67907C65.0905 9.29094 64.8313 8.9429 64.5126 8.6549C64.1934 8.3669 63.8209 8.14456 63.4163 8.00061C63.0112 7.85661 62.582 7.79382 62.1529 7.81581C61.7238 7.83779 61.3033 7.94406 60.915 8.12867L58.252 9.39587L63.6419 20.7148L66.3054 19.4471C66.6942 19.2634 67.0427 19.0048 67.3316 18.686C67.6201 18.3672 67.8428 17.9945 67.9868 17.5894C68.1308 17.1842 68.1932 16.7546 68.1711 16.3252C68.1486 15.8958 68.0415 15.4751 67.8558 15.0872ZM64.6 15.7712C64.6 15.7954 64.5904 15.8186 64.5731 15.8357C64.5563 15.8528 64.5328 15.8624 64.5088 15.8624C64.4848 15.8624 64.4612 15.8528 64.4444 15.8357C64.4272 15.8186 64.4176 15.7954 64.4176 15.7712V13.7274L63.0587 14.3293C63.0448 14.3343 63.0299 14.336 63.0155 14.3344C63.0011 14.3327 62.9867 14.3277 62.9742 14.3198C62.9622 14.3119 62.9516 14.3012 62.9439 14.2886C62.9363 14.276 62.9319 14.2619 62.9305 14.2472V12.0685C62.9305 12.0443 62.9401 12.0211 62.9574 12.004C62.9742 11.9869 62.9977 11.9773 63.0217 11.9773C63.0457 11.9773 63.0692 11.9869 63.086 12.004C63.1033 12.0211 63.1129 12.0443 63.1129 12.0685V14.1114L64.4723 13.5095C64.4857 13.504 64.5001 13.5019 64.5145 13.5035C64.5289 13.5051 64.5424 13.5103 64.5544 13.5186C64.5673 13.5262 64.5783 13.5368 64.586 13.5495C64.5942 13.5622 64.599 13.5766 64.6 13.5916V15.7712Z" fill="#09AFF4"/>
<path d="M75.2275 39.6777C75.2808 39.8989 75.2866 40.1288 75.2458 40.3526C75.8765 40.072 76.4511 39.6796 76.9421 39.1943C76.3853 39.4044 75.8117 39.5661 75.2275 39.6777Z" fill="#E9E9E9"/>
<path d="M57.2511 47.6036C56.2205 45.1047 54.1042 40.8908 52.2529 41.3742C51.0399 41.6934 50.5109 44.0007 50.6933 47.2302L51.2588 47.8138L55.9652 48.9356C55.7885 48.3582 55.5437 47.8042 55.2356 47.2849C55.8725 47.403 56.5925 47.5033 57.2511 47.6036Z" fill="#E9E9E9"/>
<path d="M22.7206 18.2168C21.9362 19.6126 21.6262 24.6286 20.8236 27.3282C20.5123 28.3221 20.3105 29.347 20.2217 30.3848C20.6525 31.0958 21.2016 31.728 21.845 32.2544C22.6806 30.1759 23.8857 28.2659 25.4018 26.6168C24.4697 24.2173 24.6852 21.4914 22.7206 18.2168Z" fill="#E9E9E9"/>
<path d="M17.887 43.2889C15.7659 41.7154 14.611 39.3927 11.1377 37.6162C11.2198 39.2122 13.6366 43.6263 14.3935 46.3349C14.6573 47.3409 15.0336 48.314 15.5153 49.2356C16.2596 49.6061 17.0617 49.8466 17.887 49.9469C17.4886 47.7455 17.4886 45.4903 17.887 43.2889Z" fill="#E9E9E9"/>
<path d="M67.8118 39.6592C67.5291 42.3222 68.9427 42.8603 70.3654 40.6259C69.4716 40.4303 68.611 40.1046 67.8118 39.6592Z" fill="#E9E9E9"/>
<path d="M69.6641 35.2084C70.1201 35.4273 70.8679 35.6097 71.0503 35.482L71.3239 34.8162C70.8861 34.2873 70.2204 34.6089 69.6641 35.2084Z" fill="#E9E9E9"/>
<path d="M78.7678 33.6129C78.367 32.1288 77.263 30.3571 74.7277 28.1592C74.1565 30.3382 73.7149 32.5491 73.4053 34.7803C74.6038 34.4826 75.8365 34.3415 77.0715 34.3608C77.181 34.1237 77.4109 34.3752 77.7008 35.2089C77.7104 35.2363 77.7373 35.3093 77.7646 35.4009C77.8232 35.3814 77.8856 35.3752 77.947 35.3827C77.9197 35.0088 77.875 34.5984 77.8194 34.1515C77.5506 31.9987 78.1789 31.6997 78.7496 33.8597C78.7856 33.9965 78.859 34.3704 78.9416 34.8264C78.933 34.4164 78.8749 34.0089 78.7678 33.6129Z" fill="#E9E9E9"/>
<path d="M77.5439 49.1172L77.0879 52.2453C77.0879 52.2453 78.4468 50.5125 78.921 49.7013L77.5439 49.1172Z" fill="#E9E9E9"/>
<path d="M29.7531 72.0637L39.1654 73.8969L30.3459 66.0445L20.9336 64.2109L29.7531 72.0637Z" fill="#E9E9E9"/>
<path d="M39.1471 73.8977L47.921 68.143L37.6332 66.8936L33.9756 69.2921L39.1471 73.8977Z" fill="#E9E9E9"/>
<path d="M29.7521 72.0628L39.1645 73.8959L30.3449 66.0436L20.9326 64.21L29.7521 72.0628Z" stroke="black" stroke-width="0.564931" stroke-linejoin="round"/>
<path d="M39.1461 73.8967L47.9201 68.142L37.6322 66.8926L33.9746 69.2911L39.1461 73.8967Z" stroke="black" stroke-width="0.564931" stroke-linejoin="round"/>
<path d="M37.6592 33.7484C41.0742 32.3779 44.7725 31.8634 48.4318 32.2497C52.0913 32.636 55.6006 33.9113 58.6544 35.9645" stroke="black" stroke-width="0.564931" stroke-linecap="round" stroke-linejoin="round"/>
<path d="M27.3721 42.1201C27.8742 41.3719 28.4191 40.6532 29.0041 39.9678" stroke="black" stroke-width="0.564931" stroke-linecap="round" stroke-linejoin="round"/>
<path d="M23.7957 51.5254C23.6566 52.5502 23.5865 53.5832 23.586 54.6171C23.5785 58.3299 24.495 61.986 26.2518 65.2553" stroke="black" stroke-width="0.564931" stroke-linecap="round" stroke-linejoin="round"/>
<path d="M68.0307 59.5498C67.2032 63.2333 65.4623 66.649 62.9682 69.4829C60.4736 72.3168 57.3061 74.4773 53.7579 75.7656C50.2093 77.054 46.3934 77.4284 42.662 76.8548C39.0264 76.2956 35.5847 74.8536 32.6377 72.6572" stroke="black" stroke-width="0.564931" stroke-linecap="round" stroke-linejoin="round"/>
<path d="M68.3223 11.7771C69.7176 10.9016 71.5786 10.4629 73.1655 11.0293C75.7925 11.9672 77.1178 15.116 76.4669 17.7325C75.8587 20.1776 73.9229 22.3026 72.6087 24.3906C70.3935 27.9119 69.4887 30.5288 70.7938 34.5507" stroke="black" stroke-width="0.564931" stroke-linecap="round" stroke-linejoin="round"/>
<path d="M66.1338 11.4667L67.2555 13.8105L68.049 13.4265C68.264 13.322 68.4291 13.1373 68.5093 12.9122C68.5895 12.6871 68.578 12.4395 68.4776 12.2227L68.1416 11.5113C68.037 11.2964 67.8527 11.131 67.6276 11.0509C67.4024 10.9707 67.1547 10.9821 66.9378 11.0827L66.1338 11.4667Z" stroke="black" stroke-width="0.564931" stroke-linecap="round" stroke-linejoin="round"/>
<path d="M63.6517 20.7154L58.2618 9.39648L52.917 11.9414L58.3074 23.2598L63.6517 20.7154Z" stroke="black" stroke-width="0.564931" stroke-linecap="round" stroke-linejoin="round"/>
<path d="M67.8665 15.0876L65.2856 9.67028C65.1013 9.28215 64.8421 8.93411 64.5233 8.64615C64.2041 8.35815 63.8317 8.13582 63.427 7.99182C63.0219 7.84782 62.5928 7.78503 62.1637 7.80702C61.7345 7.829 61.3136 7.93532 60.9257 8.11988L58.2627 9.3962L63.6526 20.7151L66.3161 19.4474C66.7045 19.263 67.052 19.0039 67.34 18.685C67.628 18.366 67.8502 17.9935 67.9942 17.5887C68.1382 17.1838 68.2011 16.7545 68.179 16.3254C68.1574 15.8962 68.0509 15.4756 67.8665 15.0876Z" stroke="black" stroke-width="0.564931" stroke-linecap="round" stroke-linejoin="round"/>
<path d="M63.0146 12.0742V14.2043L64.4998 13.6043V15.7792" stroke="black" stroke-width="0.564931" stroke-linecap="round" stroke-linejoin="round"/>
<path d="M58.3089 23.2588L52.9185 11.9404L47.5742 14.4849L52.9641 25.8033L58.3089 23.2588Z" stroke="black" stroke-width="0.564931" stroke-linecap="round" stroke-linejoin="round"/>
<path d="M43.523 20.0409C43.3385 19.6528 43.2322 19.2322 43.2103 18.803C43.1884 18.3738 43.2512 17.9446 43.3953 17.5397C43.5393 17.1349 43.7617 16.7623 44.0497 16.4434C44.3377 16.1245 44.6857 15.8655 45.0739 15.681L47.5727 14.4863L52.9627 25.8047L50.4638 26.9994C50.0759 27.184 49.655 27.2903 49.2259 27.3123C48.7967 27.3342 48.3676 27.2715 47.9628 27.1275C47.558 26.9835 47.1855 26.7612 46.8667 26.4732C46.5477 26.1852 46.2887 25.8372 46.1044 25.449L43.523 20.0409Z" stroke="black" stroke-width="0.564931" stroke-linecap="round" stroke-linejoin="round"/>
<path d="M44.8099 57.1249L19.7755 50.4577C19.3378 47.0833 20.1768 43.8999 22.1275 40.8721L32.005 43.2241" stroke="black" stroke-width="0.564931" stroke-linecap="round" stroke-linejoin="round"/>
<path d="M55.9649 48.9333L51.2676 47.8115" stroke="black" stroke-width="0.564931" stroke-linecap="round" stroke-linejoin="round"/>
<path d="M58.5452 60.0063C56.9655 60.3058 55.334 60.1637 53.8296 59.5959C51.8775 58.8951 50.1336 57.7133 48.7589 56.16L25.7568 30.624" stroke="black" stroke-width="0.564931" stroke-linecap="round" stroke-linejoin="round"/>
<path d="M19.8018 46.8447L40.1586 52.0796" stroke="black" stroke-width="0.564931" stroke-linecap="round" stroke-linejoin="round"/>
<path d="M73.4027 34.8057C72.8003 39.6124 73.9408 40.3876 76.9321 39.1929" stroke="black" stroke-width="0.564931" stroke-linecap="round" stroke-linejoin="round"/>
<path d="M54.9598 51.6336L30.8677 26.7471C27.7168 28.3206 25.1202 30.8169 23.4238 33.9034L46.964 59.4682C47.8152 60.4023 48.8057 61.1991 49.9006 61.8303C51.9569 63.0101 55.2973 64.3133 58.9942 63.3466" stroke="black" stroke-width="0.564931" stroke-linecap="round" stroke-linejoin="round"/>
<path d="M72.3711 40.6515C75.5453 42.2835 75.2717 39.8398 75.2717 39.8398L75.2525 39.6699" stroke="black" stroke-width="0.564931" stroke-linecap="round" stroke-linejoin="round"/>
<path d="M75.107 40.7158C74.651 42.8134 65.9226 48.2403 53.0898 41.4637" stroke="black" stroke-width="0.564931" stroke-linecap="round" stroke-linejoin="round"/>
<path d="M50.6924 47.2285C50.51 43.9995 51.0385 41.6912 52.2519 41.3725C54.1028 40.8872 56.2196 45.1026 57.2501 47.6019C56.6391 47.4742 55.8913 47.3648 55.2341 47.2827" stroke="black" stroke-width="0.564931" stroke-linecap="round" stroke-linejoin="round"/>
<path d="M22.7195 18.2166C22.4732 17.7971 22.2635 17.559 22.1084 17.5782C21.1408 17.6992 20.8964 23.188 20.0747 25.9417C19.7746 26.873 19.5933 27.8384 19.5352 28.815C19.655 29.3792 19.8882 29.9132 20.2205 30.3846C20.303 29.3463 20.505 28.321 20.8225 27.3289C21.6246 24.6285 21.9352 19.6125 22.7195 18.2166Z" stroke="black" stroke-width="0.564931" stroke-linecap="round" stroke-linejoin="round"/>
<path d="M25.4009 26.6158C24.7807 25.0198 24.6924 23.551 24.2882 22.0376C23.9287 20.7026 23.4016 19.4185 22.7196 18.2158C21.9353 19.6117 21.6204 24.6262 20.8226 27.3272C20.5106 28.3209 20.3088 29.346 20.2207 30.3838C20.6516 31.0948 21.2006 31.727 21.8441 32.2534C22.6795 30.1749 23.8845 28.2649 25.4009 26.6158Z" stroke="black" stroke-width="0.564931" stroke-linecap="round" stroke-linejoin="round"/>
<path d="M21.8447 32.2529L23.4225 33.9037" stroke="black" stroke-width="0.564931" stroke-linecap="round" stroke-linejoin="round"/>
<path d="M25.4014 26.6152L27.4903 28.9596" stroke="black" stroke-width="0.564931" stroke-linecap="round" stroke-linejoin="round"/>
<path d="M11.1356 37.6157C10.707 37.3964 10.3969 37.3056 10.2783 37.406C9.53146 38.0362 12.2396 42.7983 13.0235 45.5592C13.2702 46.5057 13.6316 47.4186 14.0996 48.2775C14.5001 48.6927 14.9811 49.0215 15.5132 49.2442C15.0313 48.3226 14.6551 47.3495 14.3915 46.3436C13.6407 43.6244 11.2191 39.2117 11.1356 37.6157Z" stroke="black" stroke-width="0.564931" stroke-linecap="round" stroke-linejoin="round"/>
<path d="M17.886 43.2874C16.5089 42.2659 15.6415 41.0722 14.502 40.0133C13.4854 39.0753 12.3547 38.269 11.1367 37.6133C11.2188 39.2093 13.6327 43.6243 14.3926 46.332C14.6559 47.3381 15.0322 48.311 15.5143 49.2326C16.2587 49.6032 17.0607 49.8437 17.886 49.944C17.4877 47.743 17.4877 45.4884 17.886 43.2874Z" stroke="black" stroke-width="0.564931" stroke-linecap="round" stroke-linejoin="round"/>
<path d="M17.8955 49.9463L19.7742 50.457" stroke="black" stroke-width="0.564931" stroke-linecap="round" stroke-linejoin="round"/>
<path d="M17.8867 43.2881L20.5224 44.045" stroke="black" stroke-width="0.564931" stroke-linecap="round" stroke-linejoin="round"/>
<path d="M81.7112 60.7906C81.98 61.3714 82.0703 62.019 81.9714 62.6511C81.8721 63.2833 81.5874 63.8718 81.154 64.3426C80.7201 64.813 80.1565 65.1442 79.5345 65.2945C78.9124 65.4447 78.2596 65.4073 77.6591 65.1865C77.0586 64.9662 76.5364 64.5721 76.1596 64.0551C75.7828 63.5377 75.5677 62.9204 75.5418 62.281C75.5154 61.6417 75.6796 61.009 76.0132 60.4628C76.3468 59.9166 76.8349 59.4817 77.4157 59.2129C77.8012 59.0338 78.2183 58.9326 78.6431 58.9148C79.0679 58.8975 79.4917 58.9638 79.8911 59.1102C80.29 59.257 80.6562 59.4807 80.9687 59.7692C81.2807 60.0577 81.5332 60.4047 81.7112 60.7906Z" stroke="black" stroke-width="0.564931" stroke-linecap="round" stroke-linejoin="round"/>
<path d="M77.8535 60.1523L78.7746 62.1496L80.7354 61.2467" stroke="black" stroke-width="0.564931" stroke-linecap="round" stroke-linejoin="round"/>
<path d="M71.3228 34.8157C71.2388 34.7126 71.1284 34.6339 71.0036 34.5877C70.1876 34.2906 68.9425 35.7277 68.2403 37.7711C67.538 39.8145 67.6393 41.6985 68.4683 41.9845C69.0164 42.1737 69.7359 41.6106 70.3743 40.6257" stroke="black" stroke-width="0.564931" stroke-linecap="round" stroke-linejoin="round"/>
<path d="M71.0044 34.5866C68.6706 34.0423 66.3662 33.3787 64.1006 32.5985C61.4923 31.6951 57.1319 33.0636 59.2391 38.0618C60.2697 40.506 63.2519 43.3058 65.6419 44.7559" stroke="black" stroke-width="0.564931" stroke-linecap="round" stroke-linejoin="round"/>
<path d="M68.4679 41.984L61.9922 38.71" stroke="black" stroke-width="0.564931" stroke-linecap="round" stroke-linejoin="round"/>
<path d="M73.9491 39.3848C73.7485 39.6401 73.5493 39.8878 73.3563 40.1048C72.4688 41.1046 70.1456 40.9347 67.8018 39.667" stroke="black" stroke-width="0.564931" stroke-linecap="round" stroke-linejoin="round"/>
<path d="M71.0311 35.4624C70.8487 35.5992 70.1191 35.4168 69.6631 35.207" stroke="black" stroke-width="0.564931" stroke-linecap="round" stroke-linejoin="round"/>
<path d="M72.5992 34.268C72.6083 34.1677 72.6265 33.5 72.6356 33.4108C72.6812 31.8056 72.3121 32.0807 71.7419 33.73C71.2576 35.0387 70.7036 36.3206 70.082 37.57" stroke="black" stroke-width="0.564931" stroke-linecap="round" stroke-linejoin="round"/>
<path d="M74.05 31.0485C73.895 30.483 73.44 30.9577 73.0651 32.3982C72.756 33.5843 72.5174 34.6062 72.2803 35.3805" stroke="black" stroke-width="0.564931" stroke-linecap="round" stroke-linejoin="round"/>
<path d="M73.3663 35.1436C72.8435 35.1558 72.3352 35.3137 71.8975 35.5996" stroke="black" stroke-width="0.564931" stroke-linecap="round" stroke-linejoin="round"/>
<path d="M86.563 50.4959L80.131 47.1306C80.6417 44.3303 82.256 41.5487 84.547 40.1533C84.547 40.1533 89.8179 43.5834 92.5457 46.328C95.2395 49.0381 93.0737 54.7804 86.5899 53.1407C84.4505 52.5964 81.6147 50.9236 78.92 49.6967C73.4043 58.5287 63.1246 61.8959 59.912 63.0637C59.6033 63.1756 59.2961 63.2692 58.9913 63.3488C59.5294 63.2759 56.6835 49.365 55.2334 47.2856C58.8267 47.997 69.835 49.3285 77.1497 41.8136" stroke="black" stroke-width="0.564931" stroke-linecap="round" stroke-linejoin="round"/>
<path d="M80.8086 37.7699C80.8086 37.7699 81.374 36.3554 82.1046 36.0899C82.8889 35.8067 81.5104 38.3795 81.5848 39.8114C81.6116 40.3221 83.2542 41.152 83.2542 41.152" stroke="black" stroke-width="0.564931" stroke-linecap="round" stroke-linejoin="round"/>
<path d="M79.8406 34.1039C79.7768 33.2923 79.9102 30.6734 80.5246 33.2102C80.6418 33.8921 80.7176 34.5803 80.7526 35.2713C80.8832 36.4211 80.8616 37.5831 80.6888 38.7273" stroke="black" stroke-width="0.564931" stroke-linecap="round" stroke-linejoin="round"/>
<path d="M77.9996 36.0823C77.9632 35.982 77.7443 35.3623 77.7169 35.2706C77.1697 33.7658 76.9211 34.158 77.0056 35.8999C77.0766 37.3687 76.9259 39.5119 76.8961 40.0865C76.7857 42.2302 77.7443 42.8498 80.6809 45.0842" stroke="black" stroke-width="0.564931" stroke-linecap="round" stroke-linejoin="round"/>
<path d="M79.2033 36.6117C79.0848 35.5811 78.8366 34.2117 78.7564 33.9122C78.1848 31.7546 77.5536 32.0608 77.8262 34.204C77.9817 35.4261 77.9995 36.3472 78.0724 37.1594" stroke="black" stroke-width="0.564931" stroke-linecap="round" stroke-linejoin="round"/>
<path d="M78.7745 33.9758C78.7654 29.7998 79.5905 31.5585 79.8142 33.8846C79.9159 34.9334 80.0331 35.7086 80.0513 36.3287" stroke="black" stroke-width="0.564931" stroke-linecap="round" stroke-linejoin="round"/>
<path d="M78.776 33.6503C78.392 32.1556 77.2832 30.3743 74.7257 28.1572C74.1545 30.3362 73.7129 32.5471 73.4033 34.7783C74.6019 34.4806 75.8345 34.3396 77.0696 34.3588" stroke="black" stroke-width="0.564931" stroke-linecap="round" stroke-linejoin="round"/>
<path d="M73.1377 42.7676C73.694 43.2783 74.2321 43.7276 75.8646 43.0138" stroke="black" stroke-width="0.564931" stroke-linecap="round" stroke-linejoin="round"/>
<path d="M76.9414 39.1934C76.5675 39.7406 75.2451 40.3516 75.2451 40.3516" stroke="black" stroke-width="0.564931" stroke-linecap="round" stroke-linejoin="round"/>
<path d="M90.4384 26.4425C90.3563 26.9076 87.8665 26.8265 84.8752 26.2601C81.8838 25.6937 79.5304 24.8647 79.6124 24.3996C79.6945 23.9345 82.1843 24.0156 85.1761 24.582C88.168 25.1484 90.5204 25.9773 90.4384 26.4425Z" stroke="black" stroke-width="0.564931" stroke-linecap="round" stroke-linejoin="round"/>
<path d="M87.8224 30.3009C87.4302 30.538 85.8582 28.5517 84.3112 25.8498C82.7642 23.1479 81.8301 20.77 82.2222 20.5329C82.6144 20.2957 84.1835 22.2839 85.7339 24.9834C87.2843 27.6829 88.2146 30.0637 87.8224 30.3009Z" stroke="black" stroke-width="0.564931" stroke-linecap="round" stroke-linejoin="round"/>
<path d="M2.39941 58.8752L7.13318 62.961L8.38262 54.415" stroke="black" stroke-width="0.564931" stroke-linecap="round" stroke-linejoin="round"/>
<path d="M34.2297 13.8739C34.2234 14.0715 34.1586 14.2628 34.0436 14.4236C33.9286 14.5844 33.7685 14.7074 33.5835 14.7772C33.3986 14.847 33.197 14.8603 33.0045 14.8155C32.8119 14.7707 32.637 14.6699 32.5018 14.5257C32.3666 14.3815 32.2771 14.2004 32.2449 14.0053C32.2126 13.8103 32.2389 13.6101 32.3204 13.43C32.4019 13.2499 32.535 13.098 32.7029 12.9936C32.8708 12.8891 33.0658 12.8369 33.2634 12.8433C33.3945 12.8475 33.5235 12.8775 33.6431 12.9316C33.7626 12.9857 33.8702 13.0628 33.96 13.1585C34.0497 13.2542 34.1197 13.3666 34.166 13.4893C34.2122 13.6121 34.2339 13.7428 34.2297 13.8739Z" stroke="black" stroke-width="0.564931" stroke-linecap="round" stroke-linejoin="round"/>
<path d="M51.0117 84.0205L54.9156 88.1975" stroke="black" stroke-width="0.564931" stroke-linecap="round" stroke-linejoin="round"/>
<path d="M55.0524 84.1562L50.875 88.0596" stroke="black" stroke-width="0.564931" stroke-linecap="round" stroke-linejoin="round"/>
<path d="M78.9205 49.6935C78.4554 49.4818 77.9951 49.2836 77.5429 49.1064L77.0869 52.2437" stroke="black" stroke-width="0.564931" stroke-linecap="round" stroke-linejoin="round"/>
</svg>
