<svg width="96" height="96" viewBox="0 0 96 96" fill="none" xmlns="http://www.w3.org/2000/svg">
<path d="M59.6647 33.0779C58.9625 33.8713 56.5447 36.5339 55.7887 37.5467C50.9249 30.4734 49.9673 29.7227 46.1215 29.7227C39.3607 29.7582 32.3244 32.2095 26.6326 35.75C22.8569 38.102 22.5468 39.2795 22.1091 42.9275C21.7831 45.4655 21.6068 48.0203 21.5811 50.5791C21.75 49.3638 29.3787 49.6158 29.3787 51.0169C29.3969 48.7095 29.6067 43.3287 29.7343 42.1067C30.2359 41.9243 30.9108 41.678 31.6495 41.4227C33.0018 40.23 34.2781 38.9537 35.4708 37.6014C35.932 39.8278 36.2126 42.0877 36.3099 44.3593C39.439 42.8583 43.3294 42.6721 46.7705 43.3743C46.8161 43.2467 46.8708 43.1099 46.9145 42.9822C46.9346 41.22 46.831 39.4585 46.6044 37.7108C47.6172 39.3179 51.3991 44.5369 52.8444 45.9553C55.1964 48.2718 57.2124 48.062 59.4838 45.4081C61.4455 43.1378 63.2753 40.7566 64.9639 38.2763C65.275 34.8534 61.8439 32.5086 59.6647 33.0779Z" fill="#09AFF4"/>
<path d="M58.9182 79.7088C58.5188 79.1775 58.3244 78.5203 58.371 77.8575C56.6632 77.497 54.9164 77.353 53.1726 77.4288C52.852 79.4448 52.658 81.3509 52.5068 82.3728C52.9264 81.0231 65.5484 84.7623 65.822 86.4221C65.8902 84.0279 60.7427 82.1055 58.9182 79.7088Z" fill="#09AFF4"/>
<path d="M81.5633 11.8107C79.4201 9.76778 81.4721 7.7249 80.6422 5.59082C83.0955 6.56666 84.7553 9.07466 83.6518 11.4367L81.5633 11.8107Z" fill="#09AFF4"/>
<path d="M17.9963 75.0127C15.686 75.497 14.3003 75.9127 13.3086 76.1345C14.9046 76.1345 15.7436 89.1761 14.1568 90.3252C16.5025 89.3383 16.334 84.0597 17.2768 81.8618C17.4146 81.4721 17.6507 81.1245 17.9623 80.8529C18.2739 80.5812 18.6503 80.3949 19.0552 80.3114C18.9938 78.4994 18.6361 76.7095 17.9963 75.0127Z" fill="#09AFF4"/>
<path d="M70.4451 23.7309C68.156 21.8795 64.9275 23.895 65.0825 26.3665C65.5779 26.3775 66.0665 26.4827 66.5225 26.6766C66.7928 27.1206 66.9464 27.6257 66.9694 28.1449C67.2795 28.7104 67.5257 29.1755 67.7264 29.5768C70.7643 30.4979 73.4547 26.1592 70.4451 23.7309Z" fill="#09AFF4"/>
<path d="M61.0426 27.4419L60.3226 26.6576L59.7025 24.7424C57.3404 23.73 53.3665 25.7456 53.5282 29.7401C53.6722 33.2148 57.0577 34.6284 58.8082 34.063C59.1821 33.6435 59.4922 33.295 59.6837 33.078C59.8887 33.0218 60.1009 32.9972 60.313 33.0051C60.4042 31.2996 60.1489 30.3785 60.1489 29.5121C60.1489 29.1656 60.5593 28.5272 61.0426 27.4419Z" fill="#09AFF4"/>
<path d="M77.9871 20.5853L53.7826 14.832C52.1957 14.5402 51.2746 15.2059 50.8186 16.3915L49.0397 20.9722C49.5528 25.0762 49.5039 26.9602 49.1223 27.4267C48.794 27.828 48.037 28.0195 47.125 27.8827C47.218 28.5179 47.3428 29.148 47.4989 29.7706C47.8365 29.7992 48.1719 29.851 48.5021 29.9256L53.4725 16.9738L76.7376 22.6191L69.4052 43.5768L62.629 41.5339C62.1092 42.2088 61.5437 42.9293 60.9236 43.6863L69.4508 46.249C70.7549 46.6411 72.0135 46.2216 72.588 44.6439L79.802 23.8959C80.2944 22.4731 80.1485 21.1143 77.9871 20.5853ZM75.324 34.0647C75.2943 34.1724 75.2429 34.2729 75.1728 34.36C75.1028 34.4471 75.0154 34.519 74.917 34.5712C74.8181 34.6234 74.7096 34.6549 74.5983 34.6637C74.4869 34.6726 74.3746 34.6586 74.269 34.6225C74.1629 34.5865 74.066 34.5292 73.9829 34.4542C73.8999 34.3792 73.8336 34.2881 73.7871 34.1864C73.7405 34.0848 73.7156 33.9747 73.7132 33.8629C73.7108 33.7512 73.7314 33.6402 73.7736 33.5367C73.8034 33.4289 73.8548 33.3284 73.9248 33.2414C73.9949 33.1542 74.0818 33.0824 74.1807 33.0301C74.2796 32.9779 74.388 32.9464 74.4994 32.9376C74.6108 32.9287 74.7231 32.9428 74.8287 32.9788C74.9343 33.0148 75.0317 33.0721 75.1148 33.1471C75.1973 33.2221 75.264 33.3132 75.3106 33.4149C75.3572 33.5165 75.3821 33.6267 75.3845 33.7384C75.3869 33.8501 75.3663 33.9612 75.324 34.0647Z" fill="#E9E9E9"/>
<path d="M62.1005 28.5928L64.1251 30.8089C63.0763 31.2649 61.9272 30.3361 62.1005 28.5928Z" fill="#E9E9E9"/>
<path d="M64.9821 27.9002C64.7268 27.8364 64.1613 27.7361 63.4941 27.6357L64.9821 29.2591C65.0186 28.8069 65.0186 28.3524 64.9821 27.9002Z" fill="#E9E9E9"/>
<path d="M58.379 77.8496C59.9476 78.2144 60.3671 78.7069 60.3671 79.0717C60.3671 79.5368 59.5991 79.701 58.9271 79.701C58.5302 79.1687 58.3358 78.5125 58.379 77.8496Z" fill="#E9E9E9"/>
<path d="M53.1724 77.4307C53.0539 78.2332 52.9536 78.899 52.8806 79.4735C51.8044 79.2638 51.1171 78.8073 51.1569 78.3062C51.1905 77.8862 51.7588 77.531 53.1724 77.4307Z" fill="#E9E9E9"/>
<path d="M16.4546 73.4723C16.8751 73.3658 17.4578 73.7368 17.9959 75.0227C17.0359 75.2325 16.3087 75.4067 15.7159 75.5507C15.57 74.4299 15.9722 73.5943 16.4546 73.4723Z" fill="#E9E9E9"/>
<path d="M19.0538 80.3125C18.6508 80.4003 18.2766 80.5885 17.9657 80.8597C17.6548 81.1304 17.4174 81.4755 17.2754 81.8629C17.4674 82.4634 17.9805 83.0984 18.45 82.7634C18.7922 82.5195 19.0864 81.7607 19.0538 80.3125Z" fill="#E9E9E9"/>
<path d="M44.4718 50.6543C44.3076 52.9799 44.4262 58.5157 44.4718 60.4674C43.5598 60.1756 42.7572 59.9293 42.1553 59.7652C43.049 56.0898 43.7604 53.1988 44.4718 50.6543Z" fill="#E9E9E9"/>
<path d="M21.5888 50.5629C21.534 50.9642 22.2819 51.3837 23.3648 51.4385C23.4623 51.3641 23.5406 51.2671 23.5928 51.1557C23.6766 50.717 23.7072 50.2701 23.684 49.8242C22.2363 49.9245 21.6344 50.2437 21.5888 50.5629Z" fill="#E9E9E9"/>
<path d="M29.3768 50.9162C29.2967 50.6124 28.8176 50.286 27.7842 50.0791C27.8115 50.4804 27.8298 51.0641 27.8571 51.7111C28.461 51.6924 29.5208 51.4625 29.3768 50.9162Z" fill="#E9E9E9"/>
<path d="M35.4782 37.5947C35.6423 38.379 35.7974 39.2454 35.9251 40.1387C34.4849 40.4928 33.0634 40.919 31.666 41.4155C33.011 40.2182 34.2839 38.9424 35.4782 37.5947Z" fill="#E9E9E9"/>
<path d="M48.1099 39.9103C47.6813 40.9865 47.2891 41.9988 46.9243 42.9823C46.9442 41.2201 46.8406 39.4587 46.6143 37.7109C46.8696 38.1228 47.4245 38.9436 48.1099 39.9103Z" fill="#E9E9E9"/>
<path d="M60.0605 83.5307C56.5676 82.4094 52.7391 81.6409 52.5063 82.3739C52.1981 83.355 55.6968 84.7777 59.1845 85.7469C62.2085 86.5878 65.2268 87.088 65.7437 86.6637C66.7388 85.8477 61.297 83.9277 60.0605 83.5307Z" fill="#E9E9E9"/>
<path d="M14.92 82.6082C14.6963 79.279 14.091 76.1455 13.299 76.1455C12.3356 76.1412 12.003 79.3428 12.1187 82.7134C12.2478 86.4574 12.9304 90.4092 13.9192 90.4092C15.3126 90.0986 15.015 84.0204 14.92 82.6082Z" fill="#E9E9E9"/>
<path d="M83.2859 52.5777C80.8811 52.1068 78.3918 52.3382 76.1156 53.2449C73.839 54.1521 71.872 55.6953 70.4502 57.6906C69.028 59.6865 68.211 62.0495 68.0968 64.497C67.983 66.9445 68.5763 69.3734 69.8065 71.4925C76.6009 67.2426 81.2886 60.4209 83.2859 52.5777Z" fill="#E9E9E9"/>
<path d="M47.0527 26.6318C48.0012 27.3158 48.8767 27.7627 49.1686 27.3341C48.8859 27.8995 48.2931 28.0637 47.1439 27.8813C47.0983 27.4618 47.071 27.0422 47.0527 26.6318Z" fill="#E9E9E9"/>
<path d="M50.2442 17.0195C49.7335 16.372 48.8489 15.9798 47.49 16.1257C48.0919 11.1553 41.0057 10.444 40.7321 14.6027C37.1114 11.7846 31.2929 16.1531 35.3878 19.1627C33.1625 19.2995 32.4238 22.2452 34.8041 22.2452C29.3138 25.9936 33.6367 34.3384 45.511 26.4212C46.1509 25.8713 46.7262 25.2501 47.2255 24.5699C46.2132 23.1928 47.3441 22.3264 47.7636 23.3113C48.0007 23.8768 48.2652 23.0104 48.2652 22.3081C48.5993 22.3279 48.9257 22.4148 49.2252 22.5635C50.5927 21.771 51.5047 18.6064 50.2442 17.0195Z" fill="#E9E9E9"/>
<path d="M81.5623 11.8107C79.4191 9.76778 81.4711 7.7249 80.6412 5.59082C83.0945 6.56666 84.7543 9.07466 83.6508 11.4367L81.5623 11.8107Z" stroke="black" stroke-width="0.564931" stroke-linecap="round" stroke-linejoin="round"/>
<path d="M47.498 29.7696C47.8356 29.7983 48.1705 29.85 48.5012 29.9246L53.4716 16.9728L76.7368 22.6181L69.4043 43.5758L62.6281 41.533C62.1083 42.2078 61.5428 42.9283 60.9227 43.6853L69.4499 46.248C70.754 46.6402 72.0126 46.2206 72.5872 44.6429L79.8011 23.8949C80.2936 22.4722 80.1476 21.1133 77.9862 20.5843L53.7817 14.831C52.1948 14.5392 51.2737 15.205 50.8177 16.3906L50.4491 17.3392L47.498 29.7696ZM75.3232 34.0637C75.2934 34.1714 75.242 34.2719 75.172 34.359C75.1019 34.4461 75.0145 34.518 74.9161 34.5702C74.8172 34.6224 74.7088 34.6539 74.5974 34.6628C74.486 34.6716 74.3737 34.6576 74.2681 34.6215C74.162 34.5855 74.0651 34.5283 73.982 34.4532C73.899 34.3783 73.8328 34.2871 73.7862 34.1855C73.7396 34.0838 73.7147 33.9737 73.7123 33.8619C73.7099 33.7502 73.7305 33.6392 73.7728 33.5357C73.8025 33.428 73.8539 33.3275 73.924 33.2404C73.994 33.1533 74.0809 33.0814 74.1798 33.0291C74.2787 32.9769 74.3872 32.9454 74.4985 32.9366C74.6099 32.9278 74.7222 32.9418 74.8278 32.9778C74.9334 33.0139 75.0308 33.0711 75.1139 33.1461C75.1964 33.2211 75.2632 33.3122 75.3097 33.4139C75.3563 33.5156 75.3812 33.6257 75.3836 33.7374C75.386 33.8492 75.3654 33.9602 75.3232 34.0637Z" stroke="black" stroke-width="0.564931" stroke-linejoin="round"/>
<path d="M3.69531 72.6418L9.75099 63.9961" stroke="black" stroke-width="0.564931" stroke-linecap="round" stroke-linejoin="round"/>
<path d="M2.40039 65.29L11.0461 71.3457" stroke="black" stroke-width="0.564931" stroke-linecap="round" stroke-linejoin="round"/>
<path d="M61.3066 52.805L67.1434 51.7744" stroke="black" stroke-width="0.564931" stroke-linecap="round" stroke-linejoin="round"/>
<path d="M63.7139 49.376L64.7353 55.2128" stroke="black" stroke-width="0.564931" stroke-linecap="round" stroke-linejoin="round"/>
<path d="M80.8419 77.8586C87.8883 77.8586 93.6008 72.1461 93.6008 65.0997C93.6008 58.0533 87.8883 52.3408 80.8419 52.3408C73.7955 52.3408 68.083 58.0533 68.083 65.0997C68.083 72.1461 73.7955 77.8586 80.8419 77.8586Z" stroke="black" stroke-width="0.564931" stroke-linecap="round" stroke-linejoin="round"/>
<path d="M15.7606 38.1589C18.6416 38.1589 20.9772 35.8233 20.9772 32.9422C20.9772 30.0612 18.6416 27.7256 15.7606 27.7256C12.8795 27.7256 10.5439 30.0612 10.5439 32.9422C10.5439 35.8233 12.8795 38.1589 15.7606 38.1589Z" stroke="black" stroke-width="0.564931" stroke-linecap="round" stroke-linejoin="round"/>
<path d="M38.333 75.167C42.5554 76.0156 46.8594 76.3886 51.1648 76.2796" stroke="black" stroke-width="0.564931" stroke-linecap="round" stroke-linejoin="round"/>
<path d="M26.6323 71.1993C16.7925 66.3533 9.23572 57.8539 5.57419 47.5147C-2.14134 26.3563 11.0198 16.9838 23.4038 20.6654C29.8511 22.5821 32.9798 20.9025 33.3811 15.1934C33.755 9.87646 37.5307 5.88862 48.803 6.57502C58.571 7.17046 69.7526 12.9063 75.9067 20.0764M60.3671 75.3499C81.4507 70.6723 90.9753 45.8376 79.3732 25.1506L60.3671 75.3499Z" stroke="black" stroke-width="0.564931" stroke-linecap="round" stroke-linejoin="round"/>
<path d="M18.4063 9.62207L6.35832 11.747C5.89277 11.8369 5.48122 12.1063 5.21256 12.497C4.94386 12.8877 4.83955 13.3683 4.92216 13.8352C5.00477 14.3021 5.26767 14.7178 5.65407 14.9925C6.04051 15.2673 6.51946 15.3791 6.9876 15.3038L19.0356 13.1789L22.4647 10.7347L18.4063 9.62207Z" stroke="black" stroke-width="0.564931" stroke-linecap="round" stroke-linejoin="round"/>
<path d="M6.92383 11.6475L7.55311 15.2043" stroke="black" stroke-width="0.564931" stroke-linecap="round" stroke-linejoin="round"/>
<path d="M8.96777 11.291L9.58793 14.8478" stroke="black" stroke-width="0.564931" stroke-linecap="round" stroke-linejoin="round"/>
<path d="M18.4062 9.62207L19.0355 13.1789" stroke="black" stroke-width="0.564931" stroke-linecap="round" stroke-linejoin="round"/>
<path d="M81.5615 11.8111C81.598 13.4247 81.7473 15.0337 82.0084 16.6264C82.8369 21.3343 84.3705 26.2936 85.1639 26.1568C85.9574 26.02 85.7068 20.8288 84.8721 16.1248C84.5764 14.5383 84.1679 12.9748 83.65 11.4463L81.5615 11.8111Z" stroke="black" stroke-width="0.564931" stroke-linecap="round" stroke-linejoin="round"/>
<path d="M81.9082 16.0426L84.7719 15.541" stroke="black" stroke-width="0.564931" stroke-linecap="round" stroke-linejoin="round"/>
<path d="M23.3677 51.4462C22.2825 51.3915 21.5365 50.972 21.5917 50.5707C21.6484 50.142 22.677 49.7235 25.3218 49.8027C28.3132 49.8948 29.4205 50.514 29.3985 51.0156C29.3831 51.3713 28.7418 51.6723 27.8663 51.6996" stroke="black" stroke-width="0.564931" stroke-linecap="round" stroke-linejoin="round"/>
<path d="M55.7981 37.5382C56.5551 36.5258 58.9719 33.8719 59.6741 33.0694C61.3795 32.6042 65.2647 34.3553 64.9637 38.2769C63.2722 40.7546 61.4419 43.135 59.4826 45.4068C57.2059 48.0554 55.2067 48.2782 52.8432 45.954C51.3211 44.4574 47.4351 39.042 46.6143 37.7095C46.8408 39.4572 46.9445 41.2187 46.9243 42.9809" stroke="black" stroke-width="0.564931" stroke-linecap="round" stroke-linejoin="round"/>
<path d="M56.7278 38.9059C50.9366 30.3878 50.0884 29.7129 46.1303 29.7129C39.9561 29.7129 32.7686 31.9094 26.6423 35.7412C22.8662 38.1023 22.5729 39.2817 22.1188 42.9187C21.798 45.4572 21.6218 48.0119 21.5908 50.5703" stroke="black" stroke-width="0.564931" stroke-linecap="round" stroke-linejoin="round"/>
<path d="M48.1095 39.9004C44.6165 48.6099 43.6988 53.3807 39.0807 72.6843C38.2081 76.3439 37.2481 78.1549 32.9703 79.3909C28.5006 80.6821 19.5821 82.4826 18.2871 82.8291" stroke="black" stroke-width="0.564931" stroke-linecap="round" stroke-linejoin="round"/>
<path d="M15.7153 75.5416C15.5713 74.4376 15.9707 73.5981 16.4541 73.4714C17.0829 73.3062 18.0784 74.2283 18.7341 77.6301C19.4281 81.2301 18.8781 82.697 18.2872 82.8376C17.9128 82.9264 17.4846 82.5184 17.2749 81.8618" stroke="black" stroke-width="0.564931" stroke-linecap="round" stroke-linejoin="round"/>
<path d="M16.4541 73.4715C19.6461 72.7601 31.2923 70.1595 32.0858 69.9785" stroke="black" stroke-width="0.564931" stroke-linecap="round" stroke-linejoin="round"/>
<path d="M46.7781 43.3757C40.5036 42.0989 33.4562 43.8235 31.2002 49.787C29.2221 55.0224 29.8322 61.6248 30.3362 70.3617" stroke="black" stroke-width="0.564931" stroke-linecap="round" stroke-linejoin="round"/>
<path d="M34.9131 35.4131C35.7269 38.3307 36.1983 41.3332 36.3176 44.3598" stroke="black" stroke-width="0.564931" stroke-linecap="round" stroke-linejoin="round"/>
<path d="M29.3867 51.0179C29.405 48.7196 29.6147 43.3206 29.7424 42.0985C31.7632 41.3326 33.8243 40.678 35.9166 40.1377" stroke="black" stroke-width="0.564931" stroke-linecap="round" stroke-linejoin="round"/>
<path d="M13.3087 76.1436C14.9777 76.1474 15.8258 90.4164 13.9289 90.4072C12.0319 90.3981 11.2749 76.1388 13.3087 76.1436Z" stroke="black" stroke-width="0.564931" stroke-linecap="round" stroke-linejoin="round"/>
<path d="M13.3076 76.1436C14.3636 75.9065 15.2593 75.6156 17.9953 75.0127" stroke="black" stroke-width="0.564931" stroke-linecap="round" stroke-linejoin="round"/>
<path d="M19.0633 80.3115C17.75 80.6955 17.1102 81.3248 16.6009 84.7438C16.2505 87.0958 15.5977 89.9787 13.9287 90.4078" stroke="black" stroke-width="0.564931" stroke-linecap="round" stroke-linejoin="round"/>
<path d="M52.88 79.4731C51.8039 79.2633 51.1247 78.8068 51.1563 78.3148C51.1967 77.6851 52.388 77.2046 55.7619 77.4758C59.5199 77.7782 60.3584 78.552 60.3584 79.0718C60.3584 79.5369 59.5904 79.7011 58.9184 79.7011" stroke="black" stroke-width="0.564931" stroke-linecap="round" stroke-linejoin="round"/>
<path d="M52.5053 82.3723C52.943 80.9769 66.3293 84.9989 65.8113 86.5675C65.4096 87.7805 51.9129 84.2601 52.5053 82.3723Z" stroke="black" stroke-width="0.564931" stroke-linecap="round" stroke-linejoin="round"/>
<path d="M52.5059 82.3717C52.6609 81.3229 52.7703 80.1282 53.1716 77.4277" stroke="black" stroke-width="0.564931" stroke-linecap="round" stroke-linejoin="round"/>
<path d="M58.3791 77.8486C58.3699 79.1984 58.7631 80.0202 61.5802 82.0246C63.7882 83.5942 66.0034 84.8974 65.8119 86.5664" stroke="black" stroke-width="0.564931" stroke-linecap="round" stroke-linejoin="round"/>
<path d="M45.374 47.5605C49.1651 49.9759 52.8183 52.6006 56.318 55.422C59.9915 58.4796 60.3673 59.6172 60.3673 64.9159V79.0702" stroke="black" stroke-width="0.564931" stroke-linecap="round" stroke-linejoin="round"/>
<path d="M51.1557 78.3139C51.2196 74.6568 51.2469 64.0579 51.1557 62.7005C48.4015 61.752 44.1333 60.3201 42.1543 59.7725" stroke="black" stroke-width="0.564931" stroke-linecap="round" stroke-linejoin="round"/>
<path d="M43.9235 43.0107C40.2482 47.5616 37.9317 58.0861 35.9162 73.0155C30.2891 74.7848 21.771 76.7638 18.6885 77.4022" stroke="black" stroke-width="0.564931" stroke-linecap="round" stroke-linejoin="round"/>
<path d="M27.7923 50.0603C27.8653 51.4922 28.0112 55.1963 27.8197 55.888C27.6282 56.5797 25.5771 59.956 24.3541 61.3965C23.5794 62.3085 22.6261 62.5163 23.6063 60.6213C24.183 59.4894 24.6803 58.3182 25.0943 57.1173C26.2568 53.8077 23.7983 53.0963 22.8143 54.281C21.3109 56.0877 20.1848 56.5418 20.7805 55.12C21.1439 54.2531 21.3368 53.7338 21.5922 53.0771C21.8475 52.4205 23.4891 51.5632 23.5986 51.1802C23.6863 50.7419 23.717 50.2946 23.6898 49.8486" stroke="black" stroke-width="0.564931" stroke-linecap="round" stroke-linejoin="round"/>
<path d="M24.4982 58.669C23.7433 59.4394 22.8909 60.1075 21.9628 60.6571C20.8315 61.32 20.4398 60.7027 21.7708 59.4624C22.7015 58.5979 23.5406 57.6398 24.275 56.6035" stroke="black" stroke-width="0.564931" stroke-linecap="round" stroke-linejoin="round"/>
<path d="M23.4951 55.9424C23.9663 56.4099 24.5059 56.8025 25.0954 57.1073" stroke="black" stroke-width="0.564931" stroke-linecap="round" stroke-linejoin="round"/>
<path d="M23.1944 57.9767C22.3292 58.4068 21.413 58.7255 20.4675 58.9252C19.2368 59.1829 19.4014 58.4624 20.7046 57.9128C21.7517 57.4175 22.745 56.8151 23.6686 56.1162" stroke="black" stroke-width="0.564931" stroke-linecap="round" stroke-linejoin="round"/>
<path d="M21.9809 57.2469C21.3181 57.3563 20.6453 57.3928 19.9745 57.3563C19.0807 57.2469 18.8249 56.7246 20.1843 56.5173C21.2536 56.3632 22.2931 56.0464 23.2668 55.5779C23.3723 54.9165 23.6178 54.2853 23.9868 53.7266" stroke="black" stroke-width="0.564931" stroke-linecap="round" stroke-linejoin="round"/>
<path d="M44.4797 60.4665C44.4341 58.4874 44.3155 52.8422 44.4797 50.5713" stroke="black" stroke-width="0.564931" stroke-linecap="round" stroke-linejoin="round"/>
<path d="M31.6572 41.415C33.0096 40.2224 34.2858 38.9461 35.4785 37.5938" stroke="black" stroke-width="0.564931" stroke-linecap="round" stroke-linejoin="round"/>
<path d="M61.0423 27.4336L60.3223 26.6492L59.7021 24.7432L61.5535 25.5184L70.2247 34.9393C70.3745 35.1014 70.4541 35.3164 70.4455 35.537C70.4369 35.7577 70.3413 35.9659 70.1791 36.1158C70.0169 36.2658 69.8018 36.3452 69.5815 36.3367C69.3607 36.3282 69.1524 36.2323 69.0026 36.0703L62.117 28.5822" stroke="black" stroke-width="0.564931" stroke-linecap="round" stroke-linejoin="round"/>
<path d="M68.9118 33.5166C68.621 33.5701 68.3507 33.7045 68.1328 33.9046C67.9149 34.1046 67.7579 34.3621 67.6797 34.6475" stroke="black" stroke-width="0.564931" stroke-linecap="round" stroke-linejoin="round"/>
<path d="M69.405 34.0537C69.1141 34.1073 68.8444 34.2419 68.6265 34.4419C68.409 34.642 68.2521 34.8994 68.1738 35.1846" stroke="black" stroke-width="0.564931" stroke-linecap="round" stroke-linejoin="round"/>
<path d="M60.3028 32.9967C60.394 31.2913 60.1387 30.3701 60.1387 29.5037C60.1387 29.1025 60.6955 28.2908 61.2878 26.8316C61.6804 25.8649 62.4542 26.485 62.136 28.2634C61.7884 30.206 63.0115 31.2913 64.1332 30.7897" stroke="black" stroke-width="0.564931" stroke-linecap="round" stroke-linejoin="round"/>
<path d="M63.4951 27.625C64.1609 27.7253 64.7263 27.8256 64.9831 27.8895C65.0196 28.3417 65.0196 28.7962 64.9831 29.2484" stroke="black" stroke-width="0.564931" stroke-linecap="round" stroke-linejoin="round"/>
<path d="M62.1367 26.1592C63.377 26.2139 66.2225 26.3781 66.5234 26.679C66.9794 27.135 67.0889 29.3603 67.1436 30.1446" stroke="black" stroke-width="0.564931" stroke-linecap="round" stroke-linejoin="round"/>
<path d="M66.9697 28.1455C68.5657 31.0365 68.584 31.4287 67.8908 32.4045" stroke="black" stroke-width="0.564931" stroke-linecap="round" stroke-linejoin="round"/>
<path d="M66.8785 33.791C66.0121 34.9037 65.0065 35.9251 64.79 36.4814" stroke="black" stroke-width="0.564931" stroke-linecap="round" stroke-linejoin="round"/>
<path d="M45.5231 26.4138C46.1616 25.8662 46.7359 25.2478 47.2348 24.5706C46.2316 23.1935 47.3495 22.329 47.7728 23.312C48.0167 23.8784 48.2744 23.0111 48.2744 22.3088C48.608 22.3298 48.9344 22.4166 49.2344 22.5642C51.1588 21.4424 52.1893 15.633 47.4925 16.1163C48.092 11.1459 40.9967 10.4437 40.7322 14.5919C37.1116 11.7829 31.293 16.1605 35.3879 19.161C33.1626 19.2978 32.4239 22.2435 34.8042 22.2435C29.3029 25.9947 33.6397 34.353 45.5231 26.4138Z" stroke="black" stroke-width="0.564931" stroke-linecap="round" stroke-linejoin="round"/>
<path d="M40.2021 30.3159C43.0385 28.6926 46.3673 25.8999 47.2337 24.5703" stroke="black" stroke-width="0.564931" stroke-linecap="round" stroke-linejoin="round"/>
<path d="M47.4074 29.75C47.2859 29.126 47.1947 28.502 47.1318 27.8728C49.8429 28.3048 49.4502 26.8508 49.2222 22.5635" stroke="black" stroke-width="0.564931" stroke-linecap="round" stroke-linejoin="round"/>
<path d="M47.1323 27.8726C47.0905 27.4593 47.0612 27.047 47.043 26.6309C47.9914 27.324 48.867 27.7617 49.1588 27.324" stroke="black" stroke-width="0.564931" stroke-linecap="round" stroke-linejoin="round"/>
</svg>
