<svg width="96" height="96" viewBox="0 0 96 96" fill="none" xmlns="http://www.w3.org/2000/svg">
<path d="M20.3304 75.5593C20.2294 75.2565 20.1911 74.9358 20.2178 74.6176C20.2444 74.2993 20.3355 73.9897 20.4854 73.708C19.2147 72.6217 17.7999 71.7165 16.2811 71.0176C15.1771 72.1725 13.8014 73.8333 13.2715 74.392C14.1835 73.7901 22.5465 79.7819 22.8748 81.2776C23.0299 79.2165 20.9083 77.3709 20.3304 75.5593Z" fill="#09AFF4"/>
<path d="M44.626 72.1946C44.2623 71.766 44.0763 71.2145 44.1062 70.6533C42.5303 70.3922 40.9281 70.3274 39.3364 70.4613C39.316 70.9711 39.2679 71.4799 39.1924 71.9844C39.0191 73.0884 38.7729 73.5257 38.5996 74.5562C38.8641 73.5621 49.1332 75.4044 49.6074 76.5535C49.2407 74.3469 45.9302 73.7997 44.626 72.1946Z" fill="#09AFF4"/>
<path d="M88.0727 58.8978C87.5347 58.5138 86.2488 57.7305 84.5688 56.7273L76.7447 58.378L74.4475 47.5525L75.7334 47.2789C74.7225 40.4999 74.5276 39.4367 73.6723 35.8242C71.183 38.4796 65.1633 39.8418 62.5732 39.1165C62.6414 39.321 62.6918 39.4525 62.9198 40.0012C58.6958 49.2215 58.0406 50.9087 57.9129 52.4226C57.7689 54.1986 57.9585 55.3866 61.3511 68.565C63.4151 69.141 66.8649 68.1705 67.9905 66.9781C67.042 62.8833 66.0753 58.8066 65.0265 53.4714C65.1556 53.1153 65.3083 52.7682 65.4825 52.4317C66.4022 49.7524 66.9959 46.972 67.2518 44.1508C68.9452 51.826 69.443 54.4415 70.6079 55.7423C71.7844 57.0465 73.1519 57.8764 84.5342 64.2863C86.2411 63.8442 88.3675 60.7919 88.0727 58.8978Z" fill="#09AFF4"/>
<path d="M22.7104 55.4326C17.174 56.1157 16.3264 56.2136 11.6113 56.828L21.3515 63.6478C21.772 63.2225 23.7443 61.2267 24.1604 60.7933C23.9396 60.0958 23.0612 56.8352 22.7104 55.4326Z" fill="#09AFF4"/>
<path d="M14.9501 54.3659C14.9501 54.3606 14.9683 52.6514 14.9683 52.6514C14.5286 52.7157 14.1312 52.949 13.8605 53.3013C13.5898 53.6536 13.467 54.0976 13.5182 54.5392L13.7462 56.1712L15.169 55.9888L14.9501 54.3659Z" fill="#09AFF4"/>
<path d="M20.9761 53.6266C20.9236 53.2114 20.7182 52.8313 20.4001 52.5596C20.0467 52.6844 19.679 52.7641 19.3057 52.7967C19.3829 53.1327 19.4074 53.2517 19.4881 53.654C19.5629 53.7289 19.5404 53.7125 19.7708 55.43L21.1935 55.2476L20.9761 53.6266Z" fill="#09AFF4"/>
<path d="M88.0645 59.792C87.6839 61.4965 86.6739 62.9946 85.2373 63.9872C85.3813 65.8477 86.1767 70.0885 86.9336 71.2285C88.4216 69.4501 90.3627 63.0478 90.4631 60.5946C89.685 60.2672 88.8829 59.9989 88.0645 59.792Z" fill="#E9E9E9"/>
<path d="M67.4716 67.416C65.9788 68.2997 64.2724 68.7566 62.5377 68.7384C61.1711 70.4875 60.1017 72.4498 59.373 74.5464C61.725 74.2819 67.0156 71.9107 68.7666 70.1141C68.4316 69.1714 67.9977 68.2671 67.4716 67.416Z" fill="#E9E9E9"/>
<path d="M22.3927 81.5182C20.3614 81.0233 12.4322 75.788 13.2074 74.4473C13.9058 73.6093 21.7831 79.2713 22.7676 81.0401C22.9922 81.4472 22.879 81.6373 22.3927 81.5182Z" fill="#E9E9E9"/>
<path d="M45.1303 74.9666C42.2599 74.37 39.0103 74.022 38.6373 74.5049C37.8386 75.5378 43.5866 76.5209 44.8845 76.6894C47.0301 76.9706 49.0188 77.0436 49.5156 76.7906C50.5384 76.2718 46.3231 75.2158 45.1303 74.9666Z" fill="#E9E9E9"/>
<path d="M45.9292 71.6845C45.911 71.3562 45.4732 70.9367 44.1143 70.6631C44.0802 71.2252 44.2667 71.7781 44.6342 72.2044C45.5553 72.2044 45.9475 71.9581 45.9292 71.6845Z" fill="#E9E9E9"/>
<path d="M37.9317 71.1739C37.8952 71.5661 38.3603 71.8397 39.1994 71.9947C39.2723 71.484 39.3179 70.9824 39.3434 70.4717C38.3786 70.5902 37.9682 70.848 37.9317 71.1739Z" fill="#E9E9E9"/>
<path d="M16.2807 71.0087C15.8885 71.4099 15.4167 71.948 14.94 72.4861C14.2287 71.9024 13.98 71.2458 14.2378 70.8992L14.2925 70.8354C14.557 70.5891 15.2045 70.5618 16.2807 71.0087Z" fill="#E9E9E9"/>
<path d="M20.4963 73.71C21.6272 74.6767 22.0572 75.39 21.9099 75.6981C21.7836 75.9631 21.235 75.9535 20.3321 75.5613C20.2272 75.2584 20.1876 74.9373 20.2159 74.6181C20.2442 74.2989 20.3398 73.9893 20.4963 73.71Z" fill="#E9E9E9"/>
<path d="M62.736 39.5631C62.1398 37.8956 62.6745 39.5295 61.1582 35.2402C61.4064 37.0469 61.5009 38.8713 61.4409 40.694C61.99 40.2289 62.4369 39.8276 62.736 39.5631Z" fill="#E9E9E9"/>
<path d="M73.3439 34.4834C71.1095 37.0274 64.6079 38.6786 62.0898 37.8487C62.2631 38.3229 62.4258 38.7607 62.5641 39.1255C65.2098 39.8661 71.2161 38.4343 73.6631 35.824C73.5542 35.368 73.4538 34.912 73.3439 34.4834Z" fill="#E9E9E9"/>
<path d="M67.2527 44.1514C66.9968 46.9726 66.4031 49.753 65.4834 52.4323C65.9576 51.493 66.7511 50.1432 68.0274 47.6626L67.2527 44.1514Z" fill="#E9E9E9"/>
<path d="M83.5325 39.5186C83.352 39.1372 83.2051 38.7404 83.0947 38.333C83.6467 38.3565 83.9405 38.4924 84.0547 38.669C84.2645 38.9906 83.9357 39.3876 83.5325 39.5186Z" fill="#E9E9E9"/>
<path d="M78.99 39.1807C78.3334 39.4816 78.078 39.7826 78.0871 40.0015C78.1145 40.2842 78.4611 40.4666 79.0903 40.3571C79.2372 40.0639 79.05 39.5037 78.99 39.1807Z" fill="#E9E9E9"/>
<path d="M72.5149 31.2098C71.7215 31.1004 70.7 30.991 69.3594 30.8633C70.6295 31.5195 71.8487 32.2694 73.0074 33.1068C72.8163 32.359 72.6426 31.7023 72.5149 31.2098Z" fill="#E9E9E9"/>
<path d="M62.7846 21.4609C62.6123 22.075 62.3536 22.6615 62.0166 23.2029C62.0348 22.9475 62.0348 22.6269 62.0622 22.227C62.2643 22.0173 62.5014 21.7619 62.7846 21.4609Z" fill="#E9E9E9"/>
<path d="M62.0542 17.5025C61.9995 16.8641 61.7897 16.7345 59.9475 16.6178C57.9958 16.481 57.8499 16.8002 58.0505 17.8399C58.1873 18.5422 58.5521 18.7428 59.2909 18.7428C59.7469 18.7428 60.3469 18.6607 61.1057 18.5786C61.6894 19.3174 62.0725 19.7004 62.0725 19.2535C62.0725 18.4054 62.9571 18.4236 62.9753 19.7815C63.3037 20.1175 63.6685 20.5202 64.0606 20.9124C63.6593 17.6849 63.5773 17.6393 62.0542 17.5025Z" fill="#E9E9E9"/>
<path d="M62.9475 26.3497C63.1645 26.027 63.345 25.6814 63.4856 25.3191C63.212 24.9269 62.9658 24.5165 62.7176 24.0879C62.5534 24.4719 62.3816 24.8631 62.2342 25.2461C62.3058 25.6284 62.4349 25.9975 62.6182 26.3405C62.5088 27.3711 61.9434 34.7492 61.9434 35.2325C62.251 35.8724 62.6302 36.4752 63.0742 37.0292C63.5691 36.4904 64.0088 35.9039 64.3875 35.2781C64.2061 33.9101 63.0934 26.8421 62.9475 26.3497Z" fill="#E9E9E9"/>
<path d="M51.4476 41.0328C51.6122 40.9152 51.9492 40.9689 52.4325 41.2881C52.0221 41.6347 51.785 41.8444 51.6117 41.9904C51.2378 41.5252 51.2292 41.1888 51.4476 41.0328Z" fill="#E9E9E9"/>
<path d="M55.3234 44.5342C55.6062 45.0622 55.6594 45.4097 55.5605 45.583C55.5538 45.6017 55.5409 45.6178 55.5241 45.6286C55.3599 45.8019 54.9313 45.7107 54.457 45.3003C54.7945 44.9993 55.3234 44.5342 55.3234 44.5342Z" fill="#E9E9E9"/>
<path d="M14.7308 48.6738C14.7126 48.9383 14.7034 49.2302 14.7034 49.5311C14.0377 49.5585 13.7233 49.4404 13.7093 49.2666C13.6964 49.1029 14.0285 48.8653 14.7308 48.6738Z" fill="#E9E9E9"/>
<path d="M19.8564 48.6558C19.8838 48.82 19.6467 49.0206 18.9262 49.1301C18.7759 48.8766 18.7029 48.5853 18.7164 48.291C19.446 48.3352 19.8291 48.4917 19.8564 48.6558Z" fill="#E9E9E9"/>
<path d="M30.5994 36.6543C30.3901 39.2132 30.3157 41.9233 30.2634 43.1569C26.096 43.2572 22.5762 43.9047 20.9619 45.0903C20.971 45.5828 20.9802 46.0661 21.0075 46.5303C23.4339 44.7725 28.7274 44.4701 31.7326 44.4145C31.2416 42.5953 30.8672 39.1277 30.5994 36.6543Z" fill="#E9E9E9"/>
<path d="M21.3519 38.707C21.2972 39.1813 21.2516 39.6464 21.2151 40.0933C20.7773 40.2373 20.2028 40.4211 19.6373 40.5949C19.0445 40.7768 18.4609 40.9414 18.0596 41.06C19.1961 40.3318 20.2949 39.5465 21.3519 38.707Z" fill="#E9E9E9"/>
<path d="M33.5639 28.3463C33.5351 28.3923 33.5015 28.4351 33.4636 28.474C33.2399 28.7068 32.5267 28.6751 31.8883 28.5748C31.7517 28.1937 31.677 27.7933 31.667 27.3887C32.4513 28.173 33.2539 28.7932 33.5639 28.3463Z" fill="#E9E9E9"/>
<path d="M33.8005 22.0174C33.8552 21.0142 32.6058 21.2149 32.5045 21.7803C32.4294 21.6485 32.3131 21.545 32.1735 21.4856C32.0339 21.4262 31.8787 21.4142 31.7316 21.4515C31.5845 21.4887 31.4537 21.5731 31.3593 21.6918C31.2647 21.8105 31.2118 21.9569 31.2085 22.1086C30.7616 21.5806 29.8496 21.7726 30.0046 22.5737C29.3754 21.9627 27.7611 22.3275 30.3406 27.2614C30.8787 26.8054 31.3712 26.3585 31.7998 25.9573C31.0702 24.8173 31.9093 24.2773 32.2832 25.0179C32.4838 25.4101 32.8592 25.3736 32.8112 24.2701C33.1061 24.194 33.3932 24.0902 33.6685 23.96C34.2122 23.7195 34.6747 23.3267 35 22.8291C35.4786 22.063 34.5574 21.151 33.8005 22.0174Z" fill="#E9E9E9"/>
<path d="M31.4649 55.0041C32.0212 59.6461 32.158 61.3516 32.1307 62.3183C31.0172 59.1719 29.7289 56.0903 28.2715 53.0879C29.1484 53.6361 30.2064 54.2562 31.4649 55.0041Z" fill="#E9E9E9"/>
<path d="M84.4615 43.3846L84.8157 45.0713L86.2202 44.7704L85.8007 42.8096C85.7273 42.4713 85.5348 42.1706 85.2588 41.9615C84.9828 41.7525 84.6415 41.6489 84.2959 41.6696C84.4221 42.2322 84.4773 42.8083 84.4615 43.3846Z" fill="#E9E9E9"/>
<path d="M79.6002 42.6553L79.509 42.6735C79.3228 42.7116 79.1456 42.7864 78.9882 42.8935C78.8312 43.0006 78.6968 43.138 78.5932 43.2976C78.49 43.4572 78.4189 43.6358 78.3853 43.823C78.3512 44.0103 78.3551 44.2023 78.3964 44.3881L78.7976 46.3489L80.2021 46.0479C80.1858 45.9697 79.654 42.8156 79.6002 42.6553Z" fill="#E9E9E9"/>
<path d="M84.4615 43.3846L84.8709 45.326L86.2754 45.0251L85.8007 42.8096C85.7273 42.4713 85.5348 42.1706 85.2588 41.9615C84.9828 41.7525 84.6415 41.6489 84.2959 41.6696C84.4221 42.2322 84.4773 42.8083 84.4615 43.3846Z" stroke="white" stroke-width="0.564931" stroke-linejoin="round"/>
<path d="M79.6002 42.6553L79.509 42.6735C79.3228 42.7116 79.1456 42.7864 78.9882 42.8935C78.8312 43.0007 78.6968 43.1381 78.5932 43.2976C78.49 43.4572 78.4189 43.6358 78.3853 43.8231C78.3512 44.0103 78.3551 44.2024 78.3964 44.3881L78.8476 46.6146L80.252 46.3136C80.2357 46.2354 79.654 42.8156 79.6002 42.6553Z" stroke="white" stroke-width="0.564931" stroke-linejoin="round"/>
<path d="M14.2834 47.1874C14.6391 47.0238 14.6391 47.8076 14.3472 47.8988C14.0554 47.99 14.064 47.2882 14.2834 47.1874Z" fill="#E9E9E9"/>
<path d="M43.1487 47.5895C43.334 47.2353 44.0866 47.2785 43.933 47.626C43.7794 47.9735 42.924 48.0201 43.1487 47.5895Z" fill="#E9E9E9"/>
<path d="M56.0439 44.1052C56.1168 44.4791 56.7879 43.9612 56.6731 43.6492C56.5584 43.3372 55.9618 43.6857 56.0439 44.1052Z" fill="#E9E9E9"/>
<path d="M82.7199 36.5537C83.0756 36.5494 83.2959 37.3654 82.8567 37.3563C82.4175 37.3472 82.3369 36.558 82.7199 36.5537Z" fill="#E9E9E9"/>
<path d="M91.0282 44.6875L91.1194 50.6875C91.1204 50.7173 91.1108 50.7461 91.0925 50.7696C91.0743 50.7926 91.0479 50.8089 91.0191 50.8152L88.9215 51.2621L89.2042 52.5753L87.8453 52.8672L87.5626 51.5539L80.5584 53.0419L80.8412 54.3552L79.4823 54.647L79.2 53.3347L77.1025 53.7816C77.0741 53.7854 77.0448 53.7801 77.0194 53.7672C76.9935 53.7542 76.9724 53.7336 76.9584 53.7086L74.6064 48.1886L76.7664 58.3848L93.2098 54.8918L91.0282 44.6875Z" fill="#E9E9E9"/>
<path d="M90.7642 44.0781L74.5762 47.5255L77.1298 53.5173L79.1362 53.0887L78.8626 51.8119L80.2215 51.52L80.4951 52.7968L87.4992 51.3103L87.2347 50.0335L88.5936 49.7416L88.8672 51.0184L90.8645 50.5989L90.7642 44.0781Z" fill="#E9E9E9"/>
<path d="M76.7662 58.3854L74.4502 47.552L90.8912 44.0498L93.2096 54.8925L76.7662 58.3854Z" stroke="white" stroke-width="0.564931" stroke-linecap="round" stroke-linejoin="round"/>
<path d="M77.2529 46.9477L78.5417 45.1182" stroke="white" stroke-width="0.564931" stroke-linecap="round" stroke-linejoin="round"/>
<path d="M83.8498 37.5581L93.5991 23.6318L76.3805 11.5752L68.1816 23.2762" stroke="white" stroke-width="0.564931" stroke-linecap="round" stroke-linejoin="round"/>
<path d="M66.8145 61.8908L70.9002 56.0449" stroke="white" stroke-width="0.564931" stroke-linecap="round" stroke-linejoin="round"/>
<path d="M28.3721 68.5664L51.0261 84.4261L62.0431 68.7032" stroke="white" stroke-width="0.564931" stroke-linecap="round" stroke-linejoin="round"/>
<path d="M16.9823 34.9314L14.4561 33.1621L2.39941 50.3807L21.3508 63.6503" stroke="white" stroke-width="0.564931" stroke-linecap="round" stroke-linejoin="round"/>
<path d="M50.2705 48.8574L45.8655 55.1502L44.3242 54.0741" stroke="white" stroke-width="0.564931" stroke-linecap="round" stroke-linejoin="round"/>
<path d="M38.7979 26.5777L43.8686 19.3273L48.6566 22.6744L54.311 14.6123" stroke="white" stroke-width="0.564931" stroke-linecap="round" stroke-linejoin="round"/>
<path d="M50.7451 15.2325L54.311 14.6123L54.9403 18.1691" stroke="white" stroke-width="0.564931" stroke-linecap="round" stroke-linejoin="round"/>
<path d="M16.599 25.265L19.8822 24.6813C21.8363 24.3261 21.2771 21.4346 19.3715 21.7812L17.5384 22.0913C15.5862 22.4239 15.1197 19.5165 17.0277 19.1911L20.3109 18.6074" stroke="white" stroke-width="0.564931" stroke-linecap="round" stroke-linejoin="round"/>
<path d="M17.748 17.9492L19.1616 25.9201" stroke="white" stroke-width="0.564931" stroke-linecap="round" stroke-linejoin="round"/>
<path d="M49.2031 61.3253L53.1612 60.623" stroke="white" stroke-width="0.564931" stroke-linecap="round" stroke-linejoin="round"/>
<path d="M50.8359 58.9902L51.5291 62.9574" stroke="white" stroke-width="0.564931" stroke-linecap="round" stroke-linejoin="round"/>
<path d="M73.8906 68.8489L79.4265 67.873" stroke="white" stroke-width="0.564931" stroke-linecap="round" stroke-linejoin="round"/>
<path d="M76.1709 65.5928L77.1467 71.1377" stroke="white" stroke-width="0.564931" stroke-linecap="round" stroke-linejoin="round"/>
<path d="M30.2605 80.5318C30.9707 80.5318 31.5464 79.9563 31.5464 79.2459C31.5464 78.5355 30.9707 77.96 30.2605 77.96C29.5503 77.96 28.9746 78.5355 28.9746 79.2459C28.9746 79.9563 29.5503 80.5318 30.2605 80.5318Z" stroke="white" stroke-width="0.564931" stroke-linecap="round" stroke-linejoin="round"/>
<path d="M18.2774 66.7684L11.2003 67.6531L9.87793 57.0451L22.7189 55.4404" stroke="white" stroke-width="0.564931" stroke-linecap="round" stroke-linejoin="round"/>
<path d="M33.6643 23.9769C34.216 23.7382 34.6851 23.3422 35.0131 22.8383C35.4782 22.0703 34.5754 21.1512 33.8093 22.0267C33.864 21.0144 32.6237 21.2241 32.5133 21.7896C32.4374 21.6588 32.3211 21.5563 32.1818 21.4977C32.0425 21.439 31.8878 21.4273 31.7413 21.4644C31.5948 21.5016 31.4644 21.5855 31.3698 21.7033C31.2753 21.8213 31.2217 21.9668 31.2173 22.1179C30.7704 21.5899 29.8584 21.7819 30.0134 22.583C29.3842 21.972 27.7699 22.3368 30.3494 27.2707" stroke="white" stroke-width="0.564931" stroke-linecap="round" stroke-linejoin="round"/>
<path d="M31.887 28.5747C31.7529 28.1934 31.6812 27.7929 31.6748 27.3887C32.3948 28.1159 33.1431 28.7096 33.4959 28.4365" stroke="white" stroke-width="0.564931" stroke-linecap="round" stroke-linejoin="round"/>
<path d="M21.8616 34.6123C20.8675 41.9448 20.6443 46.1045 21.4512 50.0616C22.1861 53.6649 23.4941 58.5341 24.169 60.8049C21.0317 64.0061 14.8848 70.1438 14.2373 70.9099" stroke="white" stroke-width="0.564931" stroke-linecap="round" stroke-linejoin="round"/>
<path d="M14.9394 72.4959C14.228 71.9123 13.9832 71.2571 14.2371 70.9091C14.5952 70.4185 15.9983 70.5515 18.7424 72.3971C21.1693 74.0291 22.1192 75.2617 21.9071 75.7091C21.7808 75.974 21.2322 75.9644 20.3293 75.5723" stroke="white" stroke-width="0.564931" stroke-linecap="round" stroke-linejoin="round"/>
<path d="M39.1901 71.9949C38.351 71.8399 37.8816 71.5658 37.9224 71.1741C37.9805 70.6173 39.1445 70.2707 42.1997 70.4445C45.0797 70.6082 45.8957 71.2283 45.9297 71.6848C45.9499 71.9584 45.5558 72.2047 44.6256 72.2047" stroke="white" stroke-width="0.564931" stroke-linecap="round" stroke-linejoin="round"/>
<path d="M21.8984 75.6965C31.4288 65.3362 31.844 64.67 32.0744 62.965C32.1997 62.0434 32.1656 60.8857 31.4634 54.9941" stroke="white" stroke-width="0.564931" stroke-linecap="round" stroke-linejoin="round"/>
<path d="M13.2164 74.4572C13.8005 73.454 23.522 80.4764 22.8471 81.4887C22.32 82.2821 12.3504 75.9442 13.2164 74.4572Z" stroke="white" stroke-width="0.564931" stroke-linecap="round" stroke-linejoin="round"/>
<path d="M38.5969 74.5859C38.6857 73.4915 49.7866 75.5161 49.6229 76.6561C49.4948 77.5499 38.4658 76.1996 38.5969 74.5859Z" stroke="white" stroke-width="0.564931" stroke-linecap="round" stroke-linejoin="round"/>
<path d="M16.2801 71.0107C15.3043 72.0231 13.7448 73.8907 13.2158 74.449" stroke="white" stroke-width="0.564931" stroke-linecap="round" stroke-linejoin="round"/>
<path d="M20.495 73.71C19.0997 76.2362 23.2858 78.6348 22.847 81.4893" stroke="white" stroke-width="0.564931" stroke-linecap="round" stroke-linejoin="round"/>
<path d="M38.5967 74.5848C38.8338 73.153 39.2168 72.8702 39.3445 70.4717" stroke="white" stroke-width="0.564931" stroke-linecap="round" stroke-linejoin="round"/>
<path d="M44.1142 70.6641C43.9702 73.6645 49.267 73.7649 49.6318 76.6559" stroke="white" stroke-width="0.564931" stroke-linecap="round" stroke-linejoin="round"/>
<path d="M37.931 71.174C38.0495 68.1644 37.6847 60.0476 37.5388 58.7252C28.7289 53.0799 25.3363 52.022 24.7891 49.5322" stroke="white" stroke-width="0.564931" stroke-linecap="round" stroke-linejoin="round"/>
<path d="M45.9294 71.6851C45.3731 57.0567 45.2094 55.3608 44.0598 53.6458C42.9371 51.9682 42.0078 51.2563 37.1104 48.2559" stroke="white" stroke-width="0.564931" stroke-linecap="round" stroke-linejoin="round"/>
<path d="M13.7082 49.2684C13.161 41.9633 13.2162 39.1207 14.3831 37.3927C16.0631 34.9126 20.9403 32.2212 26.0749 30.8647C32.5227 29.1588 35.1402 29.3964 36.3167 30.4543C37.2767 31.3212 37.5647 32.6806 37.8488 41.6887C39.6133 41.8975 43.7135 42.3919 44.5429 42.5383C45.7194 43.5689 45.92 47.0983 44.5429 48.4025C38.1042 48.4025 35.1666 48.331 33.8725 47.5178C31.8738 46.2617 31.5013 45.0646 30.5893 36.665C30.38 39.2191 30.2979 41.9177 30.2533 43.1546" stroke="white" stroke-width="0.564931" stroke-linecap="round" stroke-linejoin="round"/>
<path d="M37.3193 41.626L37.8473 41.6884" stroke="white" stroke-width="0.564931" stroke-linecap="round" stroke-linejoin="round"/>
<path d="M14.6929 49.5332C14.0272 49.5515 13.7161 49.442 13.6989 49.2687C13.6705 48.986 14.62 48.5367 16.6537 48.3385C18.7331 48.1355 19.8001 48.375 19.8457 48.6486C19.8731 48.8127 19.636 49.0134 18.9155 49.1228" stroke="white" stroke-width="0.564931" stroke-linecap="round" stroke-linejoin="round"/>
<path d="M21.2151 40.0928C20.3122 40.3938 18.8348 40.8407 18.0596 41.0528C19.1995 40.333 20.2986 39.5505 21.3519 38.709" stroke="white" stroke-width="0.564931" stroke-linecap="round" stroke-linejoin="round"/>
<path d="M19.8556 48.6577C19.7644 46.7425 19.6367 42.6659 19.6367 40.5938" stroke="white" stroke-width="0.564931" stroke-linecap="round" stroke-linejoin="round"/>
<path d="M13.5352 46.7871C14.3286 45.6471 18.9798 45.2458 19.7459 46.0191" stroke="white" stroke-width="0.564931" stroke-linecap="round" stroke-linejoin="round"/>
<path d="M41.8346 42.1738C42.9837 43.2226 42.8742 47.2081 41.415 48.3937" stroke="white" stroke-width="0.564931" stroke-linecap="round" stroke-linejoin="round"/>
<path d="M21.0039 46.5319C22.8821 45.1735 26.8196 44.4803 31.7237 44.416" stroke="white" stroke-width="0.564931" stroke-linecap="round" stroke-linejoin="round"/>
<path d="M20.958 45.0913C22.7172 43.7953 26.766 43.1401 31.4398 43.1396" stroke="white" stroke-width="0.564931" stroke-linecap="round" stroke-linejoin="round"/>
<path d="M18.715 48.2832C18.6999 48.6125 18.7963 48.937 18.9886 49.2043C19.1326 49.3867 20.0926 50.2426 20.3019 50.5541C20.5323 50.8992 20.6484 52.3507 20.466 52.5058C20.2289 52.7069 18.6329 52.8706 17.9945 52.8706C17.5385 52.8706 17.6479 52.0954 19.1527 51.7123C17.9047 51.7853 17.0643 51.4205 16.8545 50.3352" stroke="white" stroke-width="0.564931" stroke-linecap="round" stroke-linejoin="round"/>
<path d="M14.7285 48.6758C14.6556 50.0164 14.68 51.3604 14.8014 52.6977" stroke="white" stroke-width="0.564931" stroke-linecap="round" stroke-linejoin="round"/>
<path d="M16.0154 52.816C15.9674 51.9861 16.9562 51.8767 17.055 52.672C17.129 53.2648 17.1654 53.6844 17.2101 54.16C17.2403 54.304 17.2121 54.4538 17.1317 54.5772C17.0513 54.7 16.9253 54.7864 16.7814 54.8167C16.6375 54.8469 16.4875 54.8186 16.3643 54.7384C16.2412 54.6578 16.155 54.532 16.1248 54.388C16.0614 53.8663 16.0249 53.3416 16.0154 52.816Z" stroke="white" stroke-width="0.564931" stroke-linecap="round" stroke-linejoin="round"/>
<path d="M19.3076 52.7793C19.3897 53.1633 19.456 53.4719 19.5265 53.8099C19.56 53.9467 19.5403 54.0911 19.4715 54.2135C19.4026 54.3364 19.2896 54.4286 19.1555 54.4713C19.0214 54.514 18.876 54.5039 18.7488 54.4435C18.6217 54.3835 18.5222 54.2769 18.4705 54.1459C18.3641 53.7259 18.2849 53.2991 18.2334 52.8691" stroke="white" stroke-width="0.564931" stroke-linecap="round" stroke-linejoin="round"/>
<path d="M14.9667 52.8164C14.9667 52.0139 15.9267 51.9591 15.9791 52.7343C16.0175 53.3103 16.0271 53.7193 16.0429 54.1744C16.0605 54.314 16.0229 54.4547 15.9382 54.567C15.8534 54.6793 15.7283 54.7542 15.5892 54.7753C15.4502 54.7969 15.3083 54.7633 15.1938 54.6817C15.0792 54.6001 15.0011 54.4768 14.9759 54.3385C14.9307 53.9564 14.9667 53.546 14.9667 52.8164Z" stroke="white" stroke-width="0.564931" stroke-linecap="round" stroke-linejoin="round"/>
<path d="M18.2135 52.8708C18.2864 53.3086 18.3335 53.6552 18.3868 54.0382C18.419 54.1817 18.3943 54.332 18.3177 54.4572C18.2412 54.5825 18.1188 54.6732 17.9766 54.7097C17.8343 54.7467 17.6834 54.7265 17.5557 54.654C17.428 54.5816 17.3335 54.462 17.2924 54.3209C17.2049 53.7924 17.144 53.2596 17.11 52.7249C17.036 52.0136 17.7301 51.7947 18.0402 52.2142" stroke="white" stroke-width="0.564931" stroke-linecap="round" stroke-linejoin="round"/>
<path d="M49.1672 47.9999C49.2747 47.2424 48.4246 47.0231 48.2369 47.7354C48.1625 48.0176 48.0641 48.4012 47.9998 48.6954C47.9661 48.825 47.9847 48.9632 48.0517 49.0794C48.1189 49.1956 48.2288 49.2805 48.3579 49.3165C48.487 49.3525 48.6252 49.3362 48.7424 49.2709C48.8595 49.2061 48.9469 49.0976 48.9848 48.969C49.0621 48.6493 49.123 48.3258 49.1672 47.9999Z" stroke="white" stroke-width="0.564931" stroke-linecap="round" stroke-linejoin="round"/>
<path d="M48.1995 47.7716C48.3958 47.018 47.503 46.7401 47.2693 47.4524C47.1766 47.7347 47.0465 48.1355 46.9865 48.3371C46.7729 49.0537 47.7445 49.3681 47.9442 48.7384C48.0541 48.3918 48.14 47.9996 48.1995 47.7716Z" stroke="white" stroke-width="0.564931" stroke-linecap="round" stroke-linejoin="round"/>
<path d="M47.2154 47.5536C47.4453 46.8307 46.6519 46.524 46.3216 47.1888C46.2309 47.3717 46.0912 47.6986 45.9659 48.0279C45.9055 48.1488 45.8955 48.289 45.9383 48.4171C45.9811 48.5453 46.073 48.6514 46.1939 48.7119C46.3149 48.7723 46.4549 48.7824 46.5832 48.7397C46.7114 48.697 46.8175 48.6048 46.8779 48.4839C46.9759 48.2731 47.14 47.7898 47.2154 47.5536Z" stroke="white" stroke-width="0.564931" stroke-linecap="round" stroke-linejoin="round"/>
<path d="M50.1237 48.1381C50.1482 47.3994 49.3461 47.2261 49.2117 47.9283C49.156 48.2202 49.0725 48.7923 49.0566 48.9498C49.0624 49.0674 49.1094 49.1787 49.1896 49.2651C49.2698 49.3511 49.3778 49.4063 49.4944 49.4202C49.6115 49.4346 49.7296 49.4067 49.828 49.3424C49.9264 49.2781 49.9989 49.1811 50.0325 49.0683C50.0805 48.7602 50.1107 48.4496 50.1237 48.1381Z" stroke="white" stroke-width="0.564931" stroke-linecap="round" stroke-linejoin="round"/>
<path d="M42.9291 70.5088C42.5451 58.1147 42.6828 56.09 41.7799 54.7494C40.5027 52.8524 38.9686 52.0086 31.8391 47.7817C30.6713 47.0896 30.3252 46.3134 30.2705 44.4697" stroke="white" stroke-width="0.564931" stroke-linecap="round" stroke-linejoin="round"/>
<path d="M28.2705 53.0811C29.7233 56.0883 31.0116 59.1723 32.1297 62.3196" stroke="white" stroke-width="0.564931" stroke-linecap="round" stroke-linejoin="round"/>
<path d="M59.2998 18.7344C59.9291 22.3344 60.1115 22.8744 60.6769 22.9387C61.2332 23.0021 61.5798 22.7745 62.7928 21.4613C62.6569 22.092 62.3987 22.6899 62.0324 23.2209" stroke="white" stroke-width="0.564931" stroke-linecap="round" stroke-linejoin="round"/>
<path d="M62.0529 17.5034C61.9891 16.8742 61.7793 16.7465 59.9553 16.6188C58.0036 16.482 57.8577 16.8012 58.0583 17.8409C58.2681 18.9809 59.1072 18.7985 61.1044 18.5796C61.6881 19.3183 62.0711 19.7105 62.0711 19.2545C62.0711 18.4063 62.9558 18.4246 62.974 19.7825C63.2884 20.2228 63.6532 20.6255 64.0598 20.9825C63.658 17.7502 63.5769 17.6402 62.0529 17.5034Z" stroke="white" stroke-width="0.564931" stroke-linecap="round" stroke-linejoin="round"/>
<path d="M62.0548 22.2295C62.1167 23.0455 62.0145 24.0343 61.4245 24.3703C59.7009 25.3644 59.0087 25.7661 58.4241 26.5956C57.3042 28.1839 57.3753 29.2404 57.1655 36.2993C55.0497 38.1233 52.4135 40.1753 51.4473 41.0417" stroke="white" stroke-width="0.564931" stroke-linecap="round" stroke-linejoin="round"/>
<path d="M51.6106 41.9909C51.2266 41.5258 51.2266 41.1908 51.4464 41.0425C51.7493 40.8361 52.6215 41.1711 53.9544 42.6932C55.3848 44.3252 55.7482 45.2636 55.5596 45.5934C55.43 45.8204 54.9668 45.7575 54.4556 45.3106" stroke="white" stroke-width="0.564931" stroke-linecap="round" stroke-linejoin="round"/>
<path d="M79.0989 40.3582C78.4696 40.4677 78.1197 40.2858 78.0957 40.0026C78.064 39.6291 78.7898 39.0488 80.8956 38.589C83.2586 38.0734 84.0559 38.397 84.1058 38.8078C84.1034 38.9738 84.0453 39.1342 83.9412 39.2632C83.8365 39.3922 83.6916 39.4824 83.5298 39.5192" stroke="white" stroke-width="0.564931" stroke-linecap="round" stroke-linejoin="round"/>
<path d="M78.0957 40.0119C76.5726 33.3635 76.4157 32.6814 75.7883 32.2235C74.9291 31.5966 74.3291 31.3479 69.3496 30.8828C70.6197 31.539 71.8389 32.2889 72.9976 33.1263" stroke="white" stroke-width="0.564931" stroke-linecap="round" stroke-linejoin="round"/>
<path d="M84.5608 56.7288C86.2408 57.7412 87.5339 58.5164 88.072 58.8994C88.3912 60.9154 86.0473 63.9701 84.5334 64.2893C73.1517 57.878 71.7846 57.0471 70.6072 55.7453C69.4864 54.504 69.0933 52.4895 67.2419 44.1629C66.8382 44.139 66.4408 44.0497 66.0654 43.8984" stroke="white" stroke-width="0.564931" stroke-linecap="round" stroke-linejoin="round"/>
<path d="M72.5137 31.2197C73.0244 33.1714 74.2004 37.7132 74.7481 40.9872C75.0486 42.7839 75.4138 45.2112 75.733 47.28" stroke="white" stroke-width="0.564931" stroke-linecap="round" stroke-linejoin="round"/>
<path d="M59.7278 27.7627C59.6227 28.7754 59.6227 29.7961 59.7278 30.8088C59.8031 31.5029 62.3635 38.6808 62.9198 40.0017C58.6958 49.2038 58.0339 50.9093 57.9129 52.4141C57.7689 54.1901 57.9585 55.3781 61.3511 68.5565C63.4214 69.1675 67.0055 68.0731 67.9814 66.9696C67.0329 62.8747 66.0662 58.7889 65.0174 53.4629C65.3731 52.4414 66.1939 51.192 68.0179 47.6549" stroke="white" stroke-width="0.564931" stroke-linecap="round" stroke-linejoin="round"/>
<path d="M88.0642 59.7832C88.884 59.9958 89.6885 60.2637 90.4719 60.5858C90.3715 63.039 88.429 69.4413 86.9424 71.2197C86.1855 70.0797 85.392 65.8389 85.2461 63.9784" stroke="white" stroke-width="0.564931" stroke-linecap="round" stroke-linejoin="round"/>
<path d="M67.4619 67.4082C67.9879 68.2597 68.4223 69.1645 68.7579 70.1077C67.0068 71.9044 61.7172 74.2756 59.3643 74.54C60.1025 72.4501 61.171 70.4917 62.5289 68.7397" stroke="white" stroke-width="0.564931" stroke-linecap="round" stroke-linejoin="round"/>
<path d="M55.5508 45.6089C57.4943 44.1022 61.4941 40.6813 62.7469 39.5557" stroke="white" stroke-width="0.564931" stroke-linecap="round" stroke-linejoin="round"/>
<path d="M53.5439 39.291C55.2494 39.4278 57.6571 42.5925 57.4838 44.0517" stroke="white" stroke-width="0.564931" stroke-linecap="round" stroke-linejoin="round"/>
<path d="M77.5205 37.486C78.1647 36.0887 82.5821 35.242 83.5162 35.998" stroke="white" stroke-width="0.564931" stroke-linecap="round" stroke-linejoin="round"/>
<path d="M61.9902 23.4499C62.1909 23.7116 62.4458 23.9264 62.7381 24.0791C63.807 23.6158 64.8122 23.0174 65.729 22.2988" stroke="white" stroke-width="0.564931" stroke-linecap="round" stroke-linejoin="round"/>
<path d="M66.276 22.6475C65.892 23.906 64.5523 25.803 64.2331 26.2225C63.636 25.5883 63.132 24.8727 62.7355 24.0971C62.3937 24.8038 62.1245 25.5436 61.9329 26.3051C61.7568 25.4736 61.7409 24.6161 61.8873 23.7788" stroke="white" stroke-width="0.564931" stroke-linecap="round" stroke-linejoin="round"/>
<path d="M62.2557 25.248C62.3287 25.6299 62.4578 25.9988 62.6397 26.3424C62.5303 27.3639 61.9648 34.7424 61.9648 35.2344C62.2692 35.8762 62.6488 36.4793 63.0957 37.0311C63.5858 36.4909 64.0226 35.9044 64.3999 35.28C64.2175 33.912 63.1039 26.844 62.9599 26.352C63.1696 26.027 63.3468 25.6818 63.4879 25.3215" stroke="white" stroke-width="0.564931" stroke-linecap="round" stroke-linejoin="round"/>
<path d="M62.0986 37.8506C64.5975 38.6805 71.1001 37.0298 73.3436 34.4854" stroke="white" stroke-width="0.564931" stroke-linecap="round" stroke-linejoin="round"/>
<path d="M62.5732 39.1273C65.2089 39.8751 71.3376 38.4073 73.6723 35.835" stroke="white" stroke-width="0.564931" stroke-linecap="round" stroke-linejoin="round"/>
<path d="M61.4517 40.6959C61.5121 38.8733 61.4176 37.0488 61.1689 35.2422" stroke="white" stroke-width="0.564931" stroke-linecap="round" stroke-linejoin="round"/>
<path d="M67.2429 44.1426C66.9871 46.9638 66.3933 49.7442 65.4736 52.4235" stroke="white" stroke-width="0.564931" stroke-linecap="round" stroke-linejoin="round"/>
<path d="M65.1904 39.2822C65.7184 41.5075 65.7468 41.7173 66.5219 41.6717" stroke="white" stroke-width="0.564931" stroke-linecap="round" stroke-linejoin="round"/>
<path d="M82.4551 57.1758C84.9175 58.7353 87.1428 60.1398 87.8541 60.5958" stroke="white" stroke-width="0.564931" stroke-linecap="round" stroke-linejoin="round"/>
<path d="M71.7842 37.2842C72.8603 41.8442 74.0824 47.9911 74.4655 52.0586C74.7117 52.2319 75.0856 52.4781 75.5599 52.7882" stroke="white" stroke-width="0.564931" stroke-linecap="round" stroke-linejoin="round"/>
<path d="M52.4318 41.2881C51.5472 42.0268 51.4833 42.1924 51.1003 42.2092C50.1974 42.249 49.4337 41.9558 49.1212 42.3004C48.5352 42.9806 47.9958 43.6997 47.507 44.4527C47.1134 45.0287 48.191 45.4286 49.5134 43.8964C49.9032 44.0984 50.3308 44.2166 50.7691 44.2433C51.2073 44.27 51.646 44.2046 52.0574 44.0514" stroke="white" stroke-width="0.564931" stroke-linecap="round" stroke-linejoin="round"/>
<path d="M45.0537 43.2489C46.1937 43.413 46.4299 43.4663 46.7592 43.2762C47.5411 42.8255 47.8632 42.2682 48.3096 42.4007C48.4924 42.454 48.6744 42.5102 48.8659 42.574" stroke="white" stroke-width="0.564931" stroke-linecap="round" stroke-linejoin="round"/>
<path d="M55.3131 44.5352C54.9118 44.8908 53.9451 45.7481 53.5371 46.1494" stroke="white" stroke-width="0.564931" stroke-linecap="round" stroke-linejoin="round"/>
<path d="M51.1826 44.2422C53.5538 45.4643 54.0007 46.2486 53.2073 46.9691" stroke="white" stroke-width="0.564931" stroke-linecap="round" stroke-linejoin="round"/>
<path d="M51.7663 45.9482C53.1251 46.6414 53.5423 47.0321 53.1069 47.6282C52.8597 47.9642 52.5232 47.9748 51.2373 47.081" stroke="white" stroke-width="0.564931" stroke-linecap="round" stroke-linejoin="round"/>
<path d="M44.9814 47.8574C45.3371 47.8939 45.7658 47.9486 45.9938 47.9851" stroke="white" stroke-width="0.564931" stroke-linecap="round" stroke-linejoin="round"/>
<path d="M50.6719 47.9099C51.1096 48.2017 52.1037 49.1502 52.5688 47.8096" stroke="white" stroke-width="0.564931" stroke-linecap="round" stroke-linejoin="round"/>
<path d="M50.0693 48.8117C50.4706 48.9121 51.2002 49.1674 51.4647 48.4277" stroke="white" stroke-width="0.564931" stroke-linecap="round" stroke-linejoin="round"/>
<path d="M83.0928 38.3242C83.3208 39.3183 83.9405 40.0753 84.3408 41.8282C84.4685 42.5109 84.4901 43.2092 84.4046 43.8985C84.3677 43.9912 84.3115 44.0751 84.2395 44.1445C84.1675 44.2138 84.0821 44.2671 83.988 44.3007C83.8939 44.3344 83.7936 44.3476 83.6942 44.3396C83.5949 44.3316 83.4979 44.3024 83.4105 44.2541" stroke="white" stroke-width="0.564931" stroke-linecap="round" stroke-linejoin="round"/>
<path d="M83.4303 42.9482C83.4668 43.3456 83.4668 43.7456 83.4303 44.143C83.3847 44.563 82.8822 44.9278 82.2783 44.527" stroke="white" stroke-width="0.564931" stroke-linecap="round" stroke-linejoin="round"/>
<path d="M82.2908 43.2764C82.3196 43.6374 82.3259 43.9999 82.3091 44.3616C82.2995 44.4985 82.25 44.6296 82.167 44.7388C82.0839 44.848 81.9707 44.9306 81.8415 44.9764C81.7119 45.0223 81.5723 45.0294 81.4388 44.997C81.3054 44.9645 81.1844 44.8938 81.0908 44.7936" stroke="white" stroke-width="0.564931" stroke-linecap="round" stroke-linejoin="round"/>
<path d="M81.0687 43.5598C81.1244 43.9126 81.1426 44.2702 81.1234 44.6268C81.1138 44.7818 81.0461 44.9273 80.9333 45.0341C80.821 45.1409 80.6717 45.201 80.5167 45.2021C80.3616 45.2033 80.2114 45.1455 80.0972 45.0404C79.9829 44.9353 79.9128 44.7907 79.9013 44.636C79.824 43.7701 79.6714 42.9126 79.4453 42.0732" stroke="white" stroke-width="0.564931" stroke-linecap="round" stroke-linejoin="round"/>
<path d="M78.9893 39.1816C79.093 39.5088 79.1414 39.8509 79.1333 40.194C79.0968 40.5861 78.3398 41.3796 78.3398 41.8173C78.3638 42.2637 78.5088 42.6951 78.7594 43.0653" stroke="white" stroke-width="0.564931" stroke-linecap="round" stroke-linejoin="round"/>
<path d="M80.4844 43.0122C81.0772 42.8298 83.038 42.3282 83.649 42.2188" stroke="white" stroke-width="0.564931" stroke-linecap="round" stroke-linejoin="round"/>
<path d="M32.769 29.5686C32.3689 29.3494 32.057 28.9982 31.8867 28.575C32.5242 28.6748 33.2437 28.7108 33.4621 28.4742C33.8461 28.0734 33.9637 27.1258 33.6637 23.9766C33.3909 24.1041 33.1066 24.2054 32.8146 24.279C32.8602 25.383 32.4853 25.4194 32.2866 25.0268C31.9112 24.289 31.0736 24.8262 31.8032 25.9662C29.9159 27.7215 26.8794 30.3255 23.5674 31.6326" stroke="white" stroke-width="0.564931" stroke-linecap="round" stroke-linejoin="round"/>
<path d="M84.0952 38.8072C82.4632 30.4989 81.5032 28.5563 79.745 26.933C76.7637 24.1696 73.3432 23.9042 67.4872 23.1938C66.8311 23.1083 65.2269 22.0514 64.0586 20.9824" stroke="white" stroke-width="0.564931" stroke-linecap="round" stroke-linejoin="round"/>
<path d="M80.5264 52.925L87.5305 51.4385" stroke="white" stroke-width="0.564931" stroke-linecap="round" stroke-linejoin="round"/>
<path d="M80.2202 51.5205L78.8613 51.8123L79.4815 54.6477L80.8404 54.3559L80.2202 51.5205Z" stroke="white" stroke-width="0.564931" stroke-linecap="round" stroke-linejoin="round"/>
<path d="M88.5923 49.7432L87.2334 50.035L87.8444 52.8689L89.2033 52.5771L88.5923 49.7432Z" stroke="white" stroke-width="0.564931" stroke-linecap="round" stroke-linejoin="round"/>
<path d="M88.8945 51.1516L90.9969 50.7023L90.9105 44.1426" stroke="white" stroke-width="0.564931" stroke-linecap="round" stroke-linejoin="round"/>
<path d="M79.1627 53.2223L77.0679 53.6591L74.4678 47.6416" stroke="white" stroke-width="0.564931" stroke-linecap="round" stroke-linejoin="round"/>
<path d="M14.9491 54.3669C14.9491 54.3616 14.9673 52.6523 14.9673 52.6523C14.5276 52.7167 14.1302 52.9499 13.8595 53.3023C13.5888 53.6546 13.466 54.0986 13.5173 54.5402L13.7864 56.5427L15.2091 56.3603L14.9491 54.3669Z" stroke="white" stroke-width="0.564931" stroke-linejoin="round"/>
<path d="M20.9751 53.6286C20.9226 53.2134 20.7172 52.8332 20.3991 52.5615C20.0458 52.6863 19.678 52.766 19.3047 52.7986C19.382 53.1346 19.4064 53.2537 19.4871 53.6559C19.562 53.7308 19.5805 54.073 19.8109 55.7905L21.2337 55.6081L20.9751 53.6286Z" stroke="white" stroke-width="0.564931" stroke-linejoin="round"/>
</svg>
