<svg width="96" height="96" viewBox="0 0 96 96" fill="none" xmlns="http://www.w3.org/2000/svg">
<path d="M39.8739 35.9072C38.4786 37.0746 34.1557 37.8954 30.0973 48.1371L24.1237 42.7655C21.3664 44.1647 19.2299 46.5418 18.1318 49.4322L27.115 57.5043C28.1556 58.436 29.5233 58.917 30.918 58.8416C32.3127 58.7667 33.6207 58.1413 34.555 57.1031L38.2774 52.9592L36.7986 62.7666L30.7429 69.5154C32.2623 72.1832 34.6042 74.288 37.4187 75.5154L43.8301 68.3835C44.7792 67.328 45.45 66.0522 45.7818 64.6717C47.1771 58.8157 46.7029 48.4837 47.6058 39.5826C43.987 38.9077 42.6464 38.0869 39.8739 35.9072Z" fill="#09AFF4"/>
<path d="M89.2991 36.3177L78.9023 47.2891L83.0246 29.1403L93.4214 18.1689L89.2991 36.3177Z" fill="#E9E9E9"/>
<path d="M56.3363 32.2955C56.1995 32.2043 55.9624 32.2864 55.6523 32.5052L56.3723 33.098C56.4914 32.6785 56.4914 32.3867 56.3363 32.2955Z" fill="#E9E9E9"/>
<path d="M49.8985 37.9043C49.7065 38.3968 49.7319 38.8105 49.8802 38.9075C50.0286 39.0045 50.4562 38.9075 50.7442 38.5336L49.8985 37.9043Z" fill="#E9E9E9"/>
<path d="M54.0492 32.6968C53.9124 32.6056 53.6753 32.6877 53.3652 32.9066L54.0852 33.4994C54.2028 33.089 54.1932 32.7972 54.0492 32.6968Z" fill="#E9E9E9"/>
<path d="M32.7162 67.2705L30.7002 69.514C32.2196 72.1819 34.5616 74.2867 37.376 75.514L39.4828 73.1702C36.7126 71.8862 34.3655 69.8399 32.7162 67.2705Z" fill="#E9E9E9"/>
<path d="M44.3174 34.1924L47.6918 39.4364L48.5855 37.813L44.3174 34.1924Z" fill="#E9E9E9"/>
<path d="M47.7734 20.9688L48.2386 21.972L48.4939 21.288L47.7734 20.9688Z" fill="#E9E9E9"/>
<path d="M45.3565 45.082L38.2703 52.9617L37.5498 57.7953L45.3565 45.082Z" fill="#E9E9E9"/>
<path d="M28.1381 75.3867C27.5453 76.0251 26.9343 76.6635 26.305 77.3202C25.8034 80.2842 26.0405 87.0877 26.9981 90.2523C29.5421 86.0206 30.4637 83.3403 31.7501 78.98C30.3643 77.9802 29.1452 76.7672 28.1381 75.3867Z" fill="#E9E9E9"/>
<path d="M18.0972 40.4121C17.6594 39.9744 17.1578 39.4363 16.4921 38.7158C11.3292 39.4454 5.64792 41.1691 3.24023 42.3091C6.91253 43.6978 10.8462 44.2583 14.7602 43.9507L14.9609 44.1331C15.8217 42.7483 16.878 41.495 18.0972 40.4121Z" fill="#E9E9E9"/>
<path d="M26.0956 44.4889L24.1276 42.7129C21.3723 44.1148 19.2367 46.491 18.1357 49.3796L20.133 51.1763C21.5148 48.4729 23.568 46.1704 26.0956 44.4889Z" fill="#E9E9E9"/>
<path d="M51.7867 15.0313C51.8255 14.8104 51.7843 14.5828 51.6705 14.3893C51.5572 14.1959 51.3782 14.0492 51.1665 13.9753C51.3028 13.8493 51.3993 13.6862 51.4444 13.506C51.4895 13.3259 51.4809 13.1365 51.4195 12.9612C51.3585 12.7859 51.2471 12.6322 51.1003 12.5191C50.9529 12.406 50.7758 12.3384 50.5905 12.3246C50.6659 12.1638 50.6956 11.9853 50.6755 11.8088C50.6558 11.6323 50.5871 11.4648 50.4777 11.3249C50.3683 11.185 50.2223 11.0782 50.0558 11.0164C49.8892 10.9546 49.7087 10.9402 49.5345 10.9748C49.5571 10.7978 49.5292 10.6181 49.4543 10.4561C49.3795 10.2941 49.2609 10.1563 49.1116 10.0585C48.9623 9.96058 48.7886 9.90658 48.6105 9.9025C48.4319 9.89842 48.2563 9.9445 48.1027 10.0355C48.07 9.85368 47.9859 9.68511 47.86 9.54999C47.7341 9.41487 47.5719 9.31896 47.3928 9.2737C47.2138 9.22843 47.0255 9.23583 46.8505 9.29491C46.6755 9.354 46.5213 9.46229 46.4063 9.60682C46.3194 9.43272 46.1835 9.28771 46.0155 9.18951C45.8474 9.0913 45.6544 9.04416 45.46 9.05381C45.2656 9.06351 45.0782 9.12955 44.9207 9.24399C44.7633 9.35837 44.6425 9.51615 44.5732 9.69802C44.463 9.58186 44.3254 9.49527 44.1729 9.44626C44.0205 9.3973 43.8581 9.38741 43.7008 9.41765C43.5436 9.44789 43.3965 9.51715 43.2731 9.6192C43.1496 9.7212 43.0538 9.85263 42.9945 10.0014C43.0102 9.77333 42.9604 9.54557 42.851 9.34488C42.7416 9.14415 42.5772 8.97888 42.3771 8.86843C42.1769 8.75803 41.9494 8.70706 41.7213 8.72151C41.4932 8.736 41.2739 8.81535 41.0894 8.95018C40.9883 8.71695 40.8185 8.5201 40.6025 8.38599C40.3866 8.25192 40.1348 8.18698 39.8809 8.19984C39.627 8.21275 39.3831 8.30285 39.1819 8.45813C38.9806 8.61341 38.8316 8.82643 38.7547 9.06874C38.5459 8.9425 38.3035 8.88322 38.0601 8.89891C37.8166 8.91461 37.5838 9.00451 37.393 9.15648C37.2022 9.3085 37.0625 9.51533 36.9928 9.74914C36.9231 9.9829 36.9267 10.2325 37.0031 10.4641C36.759 10.4917 36.5292 10.594 36.3452 10.7569C36.1612 10.9199 36.032 11.1355 35.975 11.3746C35.918 11.6137 35.9361 11.8645 36.0268 12.0929C36.1175 12.3213 36.2764 12.5161 36.4819 12.651C36.2895 12.8068 36.1501 13.0184 36.0832 13.2567C36.0162 13.4951 36.0248 13.7483 36.1079 13.9815C36.191 14.2147 36.3444 14.4164 36.547 14.5587C36.7495 14.701 36.9913 14.7769 37.2388 14.7759C37.1891 15.0137 37.2132 15.261 37.3079 15.4847C37.4026 15.7084 37.5633 15.8979 37.7686 16.0278C37.9738 16.1577 38.2138 16.2218 38.4565 16.2116C38.6992 16.2014 38.933 16.1173 39.1267 15.9707C39.2034 16.1674 39.3323 16.3394 39.4997 16.4682C39.667 16.5969 39.8663 16.6775 40.0761 16.7012C40.0376 16.8374 40.0298 16.9805 40.0534 17.12C40.0769 17.2596 40.1312 17.3922 40.2123 17.5081C40.2934 17.6242 40.3992 17.7207 40.5222 17.7908C40.6451 17.8608 40.7822 17.9027 40.9233 17.9132C40.8471 18.0745 40.8176 18.2539 40.8381 18.4311C40.8587 18.6083 40.9284 18.7762 41.0395 18.9157C41.1506 19.0553 41.2985 19.1609 41.4666 19.2207C41.6347 19.2805 41.8161 19.292 41.9903 19.2539C41.9694 19.4312 41.9986 19.6108 42.0746 19.7724C42.1507 19.9339 42.2705 20.0709 42.4204 20.1678C42.5704 20.2647 42.7445 20.3175 42.923 20.3205C43.1016 20.3233 43.2773 20.2761 43.4303 20.1841C43.4629 20.3661 43.5475 20.5347 43.6739 20.6696C43.8002 20.8045 43.963 20.9 44.1424 20.9443C44.3218 20.9887 44.5103 20.9801 44.685 20.9197C44.8596 20.8592 45.0131 20.7494 45.1267 20.6036C45.2417 20.7685 45.3908 20.9068 45.5639 21.0091C45.7369 21.1113 45.9299 21.1753 46.1299 21.1964C46.4354 20.6445 46.6422 20.0435 46.7409 19.4204C46.8424 18.786 46.7238 18.1359 46.4049 17.5782C45.046 17.1313 45.6571 15.5353 46.5782 16.1555C47.0159 16.4564 47.182 16.4372 47.2166 16.1463C47.2191 16.0623 47.2444 15.9805 47.2897 15.9097C47.335 15.8389 47.3987 15.7816 47.4739 15.7441C47.5549 15.9152 47.6848 16.0584 47.8471 16.1558C48.0091 16.2533 48.1967 16.3006 48.3859 16.2919C48.575 16.2831 48.7574 16.2186 48.9095 16.1065C49.0622 15.9945 49.1783 15.8399 49.2431 15.662C49.3315 15.7553 49.4375 15.83 49.5551 15.8815C49.6727 15.9331 49.7995 15.9605 49.9276 15.9623C50.0563 15.9639 50.1835 15.9399 50.3025 15.8914C50.4215 15.843 50.5295 15.7712 50.6203 15.6803C50.8459 16.2118 51.0172 16.7649 51.131 17.331C51.2678 17.2538 51.3839 17.1443 51.4684 17.0118C51.5534 16.8794 51.6043 16.7282 51.6167 16.5715C51.6292 16.4148 51.6033 16.2574 51.5409 16.1132C51.4785 15.9689 51.3815 15.8422 51.2587 15.7441C51.3959 15.6744 51.515 15.5738 51.6067 15.4501C51.6983 15.3264 51.7603 15.183 51.7867 15.0313Z" fill="#E9E9E9"/>
<path d="M71.7041 12.4228C71.6427 12.053 71.4732 11.7098 71.2169 11.4364C70.9601 11.1631 70.6284 10.9719 70.2636 10.8871C69.8983 10.8023 69.5163 10.8275 69.1659 10.9598C68.815 11.0921 68.5116 11.3254 68.2932 11.6303C68.0753 11.9351 67.9524 12.2977 67.9404 12.6723C67.9284 13.0469 68.0278 13.4166 68.226 13.7348C68.4243 14.0529 68.7123 14.3051 69.0535 14.4596C69.3953 14.614 69.775 14.6638 70.1446 14.6025C70.6399 14.5196 71.0825 14.2437 71.3748 13.835C71.6671 13.4264 71.7857 12.9185 71.7041 12.4228Z" fill="#E9E9E9"/>
<path d="M15.0878 54.9404L10.8105 56.3171L12.5779 66.7508L15.0878 54.9404Z" fill="#E9E9E9"/>
<path d="M70.6192 41.4732L70.6162 41.4648L70.6192 41.4732Z" fill="#E9E9E9"/>
<path d="M74.486 36.9015L72.0327 39.1542C72.8934 39.3363 73.7295 39.621 74.5225 40.0023C74.8585 40.1454 75.1671 40.346 75.4345 40.5951C75.8084 41.0238 73.8025 40.4127 72.817 40.3033H72.8079C73.0071 40.4082 73.1886 40.5436 73.346 40.7046C73.6695 41.0746 71.1951 40.237 70.9748 40.3945C71.9233 40.8231 73.3916 41.6348 73.7473 42.2665C74.1668 43.0234 72.0145 41.5182 70.6191 41.4726C71.5038 41.883 72.4705 42.458 72.817 43.0964C73.2913 43.9604 71.5767 42.3764 69.5338 42.3121H69.5247C71.4764 43.4977 72.3884 44.4721 69.6159 43.2697C69.1076 43.0423 68.5652 42.9005 68.0108 42.8502L62.4385 47.9458L78.891 47.3074L81.3078 36.6553L74.486 36.9015Z" fill="#E9E9E9"/>
<path d="M89.2982 36.3177L78.9014 47.2891L83.0236 29.1403L93.4204 18.1689L89.2982 36.3177Z" stroke="black" stroke-width="0.564931" stroke-linejoin="round"/>
<path d="M74.486 36.9015L72.0327 39.1542C72.8934 39.3363 73.7295 39.621 74.5225 40.0023C74.8585 40.1454 75.1671 40.346 75.4345 40.5951C75.8084 41.0238 73.8025 40.4127 72.817 40.3033H72.8079C73.0071 40.4082 73.1886 40.5436 73.346 40.7046C73.6695 41.0746 71.1951 40.237 70.9748 40.3945C71.9233 40.8231 73.3916 41.6348 73.7473 42.2665C74.1668 43.0234 72.0145 41.5182 70.6191 41.4726C71.5038 41.883 72.4705 42.458 72.817 43.0964C73.2913 43.9604 71.5767 42.3764 69.5338 42.3121H69.5247C71.4764 43.4977 72.3884 44.4721 69.6159 43.2697C69.1076 43.0423 68.5652 42.9005 68.0108 42.8502L62.4385 47.9458L78.891 47.3074L81.3078 36.6553L74.486 36.9015Z" stroke="black" stroke-width="0.564931" stroke-linejoin="round"/>
<path d="M51.7857 15.0303C51.8246 14.8094 51.7833 14.5818 51.6695 14.3884C51.5562 14.1949 51.3772 14.0482 51.1655 13.9743C51.3019 13.8483 51.3983 13.6852 51.4434 13.505C51.4886 13.3249 51.4799 13.1355 51.4185 12.9602C51.3575 12.7849 51.2462 12.6312 51.0993 12.5181C50.9519 12.4051 50.7748 12.3374 50.5895 12.3236C50.6649 12.1629 50.6947 11.9843 50.6745 11.8078C50.6548 11.6313 50.5862 11.4638 50.4767 11.3239C50.3673 11.184 50.2214 11.0772 50.0548 11.0155C49.8883 10.9536 49.7078 10.9392 49.5335 10.9738C49.5561 10.7969 49.5283 10.6171 49.4534 10.4551C49.3785 10.2931 49.2599 10.1553 49.1106 10.0575C48.9614 9.9596 48.7876 9.9056 48.6095 9.90152C48.431 9.89744 48.2553 9.94352 48.1017 10.0345C48.069 9.85271 47.985 9.68413 47.859 9.54901C47.7331 9.41389 47.5709 9.31799 47.3919 9.27272C47.2128 9.22746 47.0245 9.23485 46.8495 9.29394C46.6746 9.35303 46.5203 9.46131 46.4054 9.60584C46.3184 9.43175 46.1826 9.28674 46.0145 9.18853C45.8465 9.09032 45.6534 9.04319 45.459 9.05283C45.2646 9.06253 45.0773 9.12858 44.9198 9.24301C44.7623 9.35739 44.6416 9.51517 44.5723 9.69704C44.462 9.58088 44.3244 9.49429 44.1719 9.44528C44.0195 9.39632 43.8571 9.38643 43.6998 9.41667C43.5426 9.44691 43.3955 9.51618 43.2721 9.61823C43.1486 9.72023 43.0529 9.85165 42.9935 10.0004C43.0092 9.77235 42.9594 9.54459 42.8501 9.34391C42.7407 9.14317 42.5762 8.97791 42.3761 8.86746C42.1759 8.75706 41.9485 8.70608 41.7203 8.72053C41.4922 8.73503 41.273 8.81437 41.0884 8.9492C40.9874 8.71597 40.8175 8.51912 40.6015 8.38501C40.3856 8.25095 40.1338 8.186 39.88 8.19887C39.626 8.21178 39.3822 8.30187 39.1809 8.45715C38.9796 8.61243 38.8306 8.82546 38.7537 9.06776C38.5449 8.94152 38.3025 8.88224 38.0591 8.89794C37.8156 8.91363 37.5828 9.00354 37.392 9.15551C37.2012 9.30752 37.0615 9.51435 36.9918 9.74816C36.9222 9.98192 36.9258 10.2315 37.0022 10.4631C36.758 10.4908 36.5283 10.593 36.3442 10.756C36.1602 10.9189 36.031 11.1345 35.974 11.3736C35.917 11.6127 35.9351 11.8635 36.0258 12.0919C36.1165 12.3203 36.2754 12.5152 36.4809 12.65C36.2885 12.8058 36.1492 13.0174 36.0822 13.2558C36.0152 13.4941 36.0238 13.7473 36.1069 13.9805C36.19 14.2137 36.3434 14.4154 36.546 14.5577C36.7485 14.7 36.9903 14.7759 37.2379 14.775C37.1882 15.0128 37.2123 15.2601 37.307 15.4837C37.4016 15.7075 37.5623 15.8969 37.7676 16.0268C37.9728 16.1567 38.2129 16.2209 38.4556 16.2106C38.6982 16.2004 38.9321 16.1164 39.1257 15.9697C39.2024 16.1664 39.3314 16.3384 39.4987 16.4672C39.666 16.5959 39.8653 16.6765 40.0751 16.7002C40.0366 16.8364 40.0288 16.9795 40.0524 17.119C40.0759 17.2586 40.1302 17.3912 40.2113 17.5072C40.2924 17.6232 40.3982 17.7197 40.5212 17.7898C40.6442 17.8598 40.7812 17.9017 40.9223 17.9122C40.8461 18.0735 40.8166 18.2529 40.8371 18.4301C40.8577 18.6073 40.9274 18.7752 41.0385 18.9147C41.1496 19.0543 41.2975 19.16 41.4656 19.2197C41.6337 19.2795 41.8151 19.291 41.9894 19.2529C41.9684 19.4302 41.9976 19.6099 42.0737 19.7714C42.1497 19.9329 42.2695 20.0699 42.4195 20.1668C42.5694 20.2637 42.7435 20.3166 42.9221 20.3195C43.1006 20.3224 43.2763 20.2751 43.4294 20.1831C43.4619 20.3651 43.5465 20.5337 43.6729 20.6686C43.7992 20.8036 43.962 20.899 44.1414 20.9433C44.3208 20.9877 44.5093 20.9792 44.684 20.9187C44.8587 20.8582 45.0121 20.7485 45.1257 20.6026C45.2407 20.7676 45.3898 20.9058 45.5629 21.0081C45.736 21.1103 45.929 21.1743 46.1289 21.1954C46.4344 20.6435 46.6412 20.0425 46.7399 19.4194C46.8414 18.785 46.7228 18.135 46.4039 17.5772C45.045 17.1303 45.6561 15.5343 46.5772 16.1545C47.015 16.4554 47.181 16.4362 47.2156 16.1454C47.2182 16.0613 47.2434 15.9796 47.2887 15.9087C47.334 15.8379 47.3977 15.7807 47.4729 15.7431C47.554 15.9142 47.6838 16.0574 47.8461 16.1549C48.0081 16.2524 48.1958 16.2996 48.3849 16.2909C48.574 16.2821 48.7564 16.2177 48.9086 16.1056C49.0612 15.9935 49.1774 15.8389 49.2422 15.661C49.3305 15.7544 49.4366 15.829 49.5542 15.8805C49.6718 15.9321 49.7985 15.9596 49.9267 15.9613C50.0553 15.963 50.1825 15.9389 50.3015 15.8904C50.4206 15.842 50.5286 15.7702 50.6193 15.6793C50.8449 16.2108 51.0162 16.7639 51.13 17.33C51.2668 17.2529 51.383 17.1433 51.4674 17.0109C51.5524 16.8784 51.6033 16.7272 51.6158 16.5705C51.6282 16.4138 51.6023 16.2564 51.5399 16.1122C51.4775 15.9679 51.3806 15.8412 51.2577 15.7431C51.395 15.6735 51.514 15.5728 51.6057 15.4491C51.6974 15.3254 51.7593 15.182 51.7857 15.0303Z" stroke="black" stroke-width="0.564931" stroke-linejoin="round"/>
<path d="M50.9561 20.6759L78.1793 16.0977" stroke="black" stroke-width="0.564931" stroke-linecap="round" stroke-linejoin="round"/>
<path d="M6.28613 28.1732L45.9581 21.5156" stroke="black" stroke-width="0.564931" stroke-linecap="round" stroke-linejoin="round"/>
<path d="M48.1836 24.9639L56.346 32.2963" stroke="black" stroke-width="0.564931" stroke-linecap="round" stroke-linejoin="round"/>
<path d="M56.3829 33.0977C56.4923 32.6873 56.4928 32.3945 56.3464 32.2952C56.2101 32.203 55.9624 32.2846 55.6533 32.5049C55.1901 32.8706 54.771 33.2895 54.4053 33.7529" stroke="black" stroke-width="0.564931" stroke-linecap="round" stroke-linejoin="round"/>
<path d="M22.2732 43.9045C19.1906 41.4512 18.9353 41.3782 16.4911 38.7061C11.3292 39.4357 5.64792 41.1593 3.24023 42.2993C6.91526 43.6879 10.8514 44.2484 14.7679 43.9409L18.954 47.7075" stroke="black" stroke-width="0.564931" stroke-linecap="round" stroke-linejoin="round"/>
<path d="M45.457 24.9814L54.0572 32.697" stroke="black" stroke-width="0.564931" stroke-linecap="round" stroke-linejoin="round"/>
<path d="M49.8796 38.9074L44.3164 34.1924L47.6855 39.4349" stroke="black" stroke-width="0.564931" stroke-linecap="round" stroke-linejoin="round"/>
<path d="M69.7344 39.9365C70.0704 40.0095 73.1472 41.0847 73.7928 42.2348C74.2248 43.0004 72.0417 41.4778 70.6281 41.4322" stroke="black" stroke-width="0.564931" stroke-linecap="round" stroke-linejoin="round"/>
<path d="M69.4326 40.9404C70.2899 41.2505 72.3217 42.1087 72.8526 43.0745C73.3326 43.951 71.6046 42.3449 69.5329 42.2811" stroke="black" stroke-width="0.564931" stroke-linecap="round" stroke-linejoin="round"/>
<path d="M69.1964 42.0897C71.3669 43.3574 72.5631 44.531 69.6159 43.2571C68.0933 42.599 56.9919 42.263 56.9919 42.263C56.0175 42.1622 55.0872 41.8064 54.2943 41.2315L49.8984 37.8936" stroke="black" stroke-width="0.564931" stroke-linecap="round" stroke-linejoin="round"/>
<path d="M53.3633 32.9062L57.8321 36.8735C57.8321 36.8735 69.0314 38.9711 69.8887 39.2159C70.746 39.4607 72.799 39.981 73.3999 40.6659C73.7196 41.0303 71.9599 40.4015 70.8919 40.3467" stroke="black" stroke-width="0.564931" stroke-linecap="round" stroke-linejoin="round"/>
<path d="M54.094 33.499C54.2034 33.0886 54.2039 32.7958 54.0575 32.6964C53.9212 32.6043 53.6735 32.6864 53.3644 32.9062C52.1025 33.8043 50.2271 36.5883 49.8349 38.1137C49.7389 38.4881 49.7562 38.8256 49.8805 38.9072C50.0245 39.0032 50.4369 38.8889 50.7445 38.5424" stroke="black" stroke-width="0.564931" stroke-linecap="round" stroke-linejoin="round"/>
<path d="M35.9443 41.8807C38.1462 41.9734 40.3121 41.2998 42.073 39.9746" stroke="black" stroke-width="0.564931" stroke-linecap="round" stroke-linejoin="round"/>
<path d="M47.6094 39.5727L48.5852 37.8125" stroke="black" stroke-width="0.564931" stroke-linecap="round" stroke-linejoin="round"/>
<path d="M48.0381 24.096C47.4361 24.9715 46.3326 24.5884 44.8096 23.1201" stroke="black" stroke-width="0.564931" stroke-linecap="round" stroke-linejoin="round"/>
<path d="M38.2688 52.9718L45.3565 45.082L37.5498 57.7953" stroke="black" stroke-width="0.564931" stroke-linecap="round" stroke-linejoin="round"/>
<path d="M27.117 57.4936C27.6318 57.9558 28.2326 58.3125 28.8852 58.5424C29.5377 58.7723 30.2292 58.8717 30.9201 58.8342C31.6111 58.7973 32.2879 58.624 32.9119 58.3254C33.5359 58.0264 34.0949 57.6073 34.557 57.0923L38.2674 52.971L36.8005 62.763L30.7448 69.5118C32.2643 72.1797 34.6062 74.2845 37.4207 75.5118L43.832 68.3709C44.7811 67.3153 45.4519 66.0395 45.7837 64.659C47.1795 58.803 46.7048 48.4619 47.6077 39.5699C43.9779 38.895 42.6373 38.0742 39.8739 35.8945C38.0883 37.1997 34.1029 38.1683 30.0978 48.1273L24.1256 42.7557C21.3704 44.1575 19.2348 46.5337 18.1338 49.4224L27.117 57.4936Z" stroke="black" stroke-width="0.564931" stroke-linecap="round" stroke-linejoin="round"/>
<path d="M48.481 21.2729C48.2396 21.1829 48.0039 21.078 47.7754 20.959L48.2386 21.967" stroke="black" stroke-width="0.564931" stroke-linecap="round" stroke-linejoin="round"/>
<path d="M39.8721 35.8889C40.2602 34.6694 40.5229 33.4135 40.6564 32.1406C40.8887 30.1823 41.457 28.2787 42.3364 26.5136C43.1956 24.7083 45.1684 23.0437 46.1764 21.1237C46.4785 20.5962 46.6703 20.0129 46.7404 19.4091C46.8421 18.7747 46.7235 18.1246 46.4044 17.5669C45.0455 17.12 45.6594 15.5201 46.5777 16.1441C47.0169 16.4432 47.1887 16.4269 47.2161 16.135C47.2408 15.9816 47.2716 15.8356 47.3078 15.6973M48.8577 28.0366C48.1857 26.0974 47.6279 23.1325 48.478 21.2734C51.9311 22.5401 51.6388 18.0632 50.6269 15.6973L48.8577 28.0366Z" stroke="black" stroke-width="0.564931" stroke-linecap="round" stroke-linejoin="round"/>
<path d="M32.7617 67.2705C34.4112 69.8404 36.7589 71.8871 39.5297 73.1712" stroke="black" stroke-width="0.564931" stroke-linecap="round" stroke-linejoin="round"/>
<path d="M20.1211 51.183C21.6533 48.399 23.5685 46.1123 26.0856 44.5254" stroke="black" stroke-width="0.564931" stroke-linecap="round" stroke-linejoin="round"/>
<path d="M31.8307 71.1641C29.904 73.5161 28.1803 75.3621 26.304 77.3201C25.8024 80.2841 26.0395 87.0876 26.9971 90.2522C29.5411 86.0205 30.4627 83.3301 31.7491 78.9722L35.6525 74.6311" stroke="black" stroke-width="0.564931" stroke-linecap="round" stroke-linejoin="round"/>
<path d="M14.9688 44.1249C15.8297 42.7426 16.8864 41.4923 18.106 40.4131" stroke="black" stroke-width="0.564931" stroke-linecap="round" stroke-linejoin="round"/>
<path d="M72.8532 40.2664C73.8473 40.3667 75.87 40.9864 75.498 40.5583C75.2278 40.3064 74.9163 40.1028 74.5769 39.9563C73.2905 39.3275 72.0598 39.1264 70.6918 38.7525L60.0838 36.1807L55.6572 32.501" stroke="black" stroke-width="0.564931" stroke-linecap="round" stroke-linejoin="round"/>
<path d="M38.9265 41.5244L30.7459 53.5446L22.8389 47.2791" stroke="black" stroke-width="0.564931" stroke-linecap="round" stroke-linejoin="round"/>
<path d="M61.2889 14.1552C61.3503 14.525 61.3004 14.9046 61.1458 15.2461C60.9918 15.5876 60.7393 15.8757 60.421 16.0738C60.1033 16.2719 59.7332 16.3713 59.3588 16.3593C58.9839 16.3473 58.6215 16.2245 58.3167 16.0064C58.0119 15.7883 57.7786 15.4847 57.6462 15.1341C57.5142 14.7834 57.4887 14.4014 57.5737 14.0363C57.6582 13.6713 57.8497 13.3395 58.1228 13.0831C58.3964 12.8267 58.7396 12.6571 59.1092 12.5957C59.605 12.5137 60.1134 12.632 60.5218 12.9244C60.9303 13.2168 61.2063 13.6595 61.2889 14.1552Z" stroke="black" stroke-width="0.564931" stroke-linecap="round" stroke-linejoin="round"/>
<path d="M66.451 13.2978C66.5124 13.6676 66.4625 14.0472 66.3079 14.3887C66.1539 14.7302 65.9014 15.0182 65.5831 15.2164C65.2654 15.4145 64.8953 15.5139 64.5209 15.5019C64.146 15.4899 63.7836 15.3671 63.4788 15.149C63.174 14.9309 62.9407 14.6273 62.8083 14.2766C62.6763 13.926 62.6508 13.544 62.7358 13.1789C62.8203 12.8138 63.0118 12.4821 63.2849 12.2257C63.5585 11.9693 63.9017 11.7996 64.2713 11.7383C64.7671 11.6563 65.275 11.7745 65.6839 12.067C66.0924 12.3594 66.3684 12.8021 66.451 13.2978Z" stroke="black" stroke-width="0.564931" stroke-linecap="round" stroke-linejoin="round"/>
<path d="M71.7039 12.4229C71.7654 12.7926 71.7154 13.1723 71.5609 13.5138C71.4068 13.8553 71.1543 14.1433 70.8361 14.3415C70.5183 14.5396 70.1482 14.6389 69.7738 14.627C69.3989 14.615 69.0365 14.4921 68.7317 14.2741C68.4269 14.056 68.1937 13.7524 68.0612 13.4017C67.9292 13.0511 67.9038 12.669 67.9887 12.304C68.0732 11.9389 68.2647 11.6072 68.5378 11.3508C68.8114 11.0944 69.1546 10.9247 69.5242 10.8634C70.0201 10.7812 70.5284 10.8994 70.9369 11.1918C71.3458 11.4843 71.6218 11.9271 71.7039 12.4229Z" stroke="black" stroke-width="0.564931" stroke-linecap="round" stroke-linejoin="round"/>
<path d="M17.4213 5.74707L13.9375 10.6536" stroke="black" stroke-width="0.564931" stroke-linecap="round" stroke-linejoin="round"/>
<path d="M18.1328 9.94185L13.2354 6.45801" stroke="black" stroke-width="0.564931" stroke-linecap="round" stroke-linejoin="round"/>
<path d="M3.58697 58.6345L3.47753 58.671L6.84281 61.6532L2.40137 66.5324L4.78169 68.6574L9.22313 63.7691L12.5788 66.7518L15.0873 54.9414L3.58697 58.6345Z" stroke="black" stroke-width="0.564931" stroke-linecap="round" stroke-linejoin="round"/>
<path d="M62.3196 65.3647L55.2607 63.176L61.1979 59.0537" stroke="black" stroke-width="0.564931" stroke-linecap="round" stroke-linejoin="round"/>
<path d="M68.1198 64.4344L74.0113 60.0751L66.998 58.1143" stroke="black" stroke-width="0.564931" stroke-linecap="round" stroke-linejoin="round"/>
<path d="M65.913 55.5146L63.332 68.082" stroke="black" stroke-width="0.564931" stroke-linecap="round" stroke-linejoin="round"/>
<path d="M8.81445 43.7363L13.5456 72.9068C13.7146 73.9018 14.0781 74.8537 14.6152 75.7076C15.1523 76.562 15.8525 77.3021 16.6757 77.8858C17.4989 78.469 18.4291 78.8847 19.4131 79.1089C20.3971 79.3326 21.4155 79.3604 22.4102 79.1905L26.2033 78.5526" stroke="black" stroke-width="0.564931" stroke-linecap="round" stroke-linejoin="round"/>
<path d="M82.6029 43.418L85.4205 60.786C85.5905 61.7806 85.5626 62.7992 85.3389 63.7832C85.1148 64.7672 84.6991 65.6974 84.1159 66.5206C83.5322 67.3438 82.7921 68.0441 81.9377 68.5813C81.0833 69.1184 80.1319 69.4817 79.1369 69.6507L33.2061 77.3748" stroke="black" stroke-width="0.564931" stroke-linecap="round" stroke-linejoin="round"/>
<path d="M36.1184 13.1895L12.2322 17.2024C11.2374 17.3716 10.2856 17.735 9.43126 18.2721C8.57696 18.8091 7.83689 19.5093 7.25331 20.3326C6.66977 21.1559 6.25414 22.0861 6.03027 23.07C5.8064 24.054 5.7786 25.0724 5.94852 26.0671L8.28824 40.4929" stroke="black" stroke-width="0.564931" stroke-linecap="round" stroke-linejoin="round"/>
<path d="M49.542 10.9333L68.9585 7.67118C69.953 7.50126 70.9716 7.52905 71.9556 7.75292C72.9396 7.9768 73.8698 8.39243 74.693 8.97596C75.5162 9.55955 76.2165 10.2996 76.7537 11.1539C77.2908 12.0082 77.6542 12.96 77.8231 13.9549L81.4236 36.1513" stroke="black" stroke-width="0.564931" stroke-linecap="round" stroke-linejoin="round"/>
<path d="M28.1377 75.3877C29.1422 76.7677 30.3615 77.9778 31.7492 78.9719" stroke="black" stroke-width="0.564931" stroke-linecap="round" stroke-linejoin="round"/>
</svg>
