<svg width="96" height="96" viewBox="0 0 96 96" fill="none" xmlns="http://www.w3.org/2000/svg">
<path d="M45.6184 8.47757C42.0391 8.57741 39.2162 11.3096 39.316 14.5793C39.4255 18.3857 43.3413 20.9998 47.2668 20.1435L47.057 17.6753C47.0114 17.2663 47.0468 16.8522 47.1613 16.4569C47.2757 16.0615 47.467 15.6926 47.7241 15.3712C47.9812 15.0498 48.2993 14.7822 48.6598 14.5837C49.0203 14.3853 49.4167 14.2598 49.8257 14.2145L52.2574 14.0053C52.0572 10.8363 49.1244 8.37725 45.6184 8.47757Z" fill="black"/>
<path fill-rule="evenodd" clip-rule="evenodd" d="M42.2305 72.4L71.4092 69.941C72.206 69.8728 72.9433 69.4912 73.4588 68.8797C73.9748 68.2682 74.2268 67.4772 74.1596 66.6804L72.4657 46.7815C72.3976 45.9847 72.016 45.2476 71.4044 44.7319C70.7934 44.2163 70.0024 43.9642 69.2056 44.0311L53.6152 45.3429C53.3396 45.7631 53.1601 45.9819 52.7464 46.3072C52.3024 46.6467 51.7844 46.8758 51.2344 46.9755C50.6848 47.0751 50.1188 47.0425 49.5841 46.8803C49.0494 46.7181 48.5608 46.431 48.159 46.0428C48.088 45.9727 48.0169 45.9025 47.946 45.832L43.0823 46.2406C44.6957 51.9664 44.8651 55.9389 44.9837 61.612C45.0818 63.2796 44.8535 64.9504 44.3117 66.5301L42.2305 72.4ZM59.224 59.4496L62.1659 60.8248L61.6374 54.5772L58.9691 56.4348C58.8755 55.8463 58.562 55.3154 58.0921 54.9487C57.6222 54.582 57.0313 54.4072 56.4376 54.4591L50.7452 54.9511C50.4356 54.9765 50.1342 55.0634 49.8577 55.206C49.5817 55.3485 49.3369 55.5448 49.1372 55.7829C48.9371 56.0205 48.7868 56.296 48.6937 56.5927C48.6011 56.8888 48.568 57.2008 48.5963 57.5104L48.8238 60.1504C48.8492 60.46 48.9361 60.7615 49.0787 61.0375C49.2212 61.3135 49.4176 61.5588 49.6556 61.7584C49.8932 61.9581 50.1688 62.1088 50.4649 62.202C50.7616 62.2946 51.0736 62.3277 51.3832 62.2994L57.0659 61.8261C57.375 61.7997 57.6764 61.7124 57.952 61.5693C58.2275 61.4263 58.4718 61.23 58.6715 60.9924C58.8712 60.7548 59.0219 60.4797 59.115 60.1836C59.1899 59.9455 59.2268 59.6973 59.224 59.4487V59.4496Z" fill="black"/>
<path d="M80.6073 46.8636C80.6323 47.081 80.6135 47.3013 80.5526 47.5115C80.4916 47.7217 80.3899 47.9179 80.2531 48.0886C80.1158 48.2594 79.9463 48.401 79.7543 48.5057C79.5623 48.6108 79.3511 48.6766 79.1337 48.6991C78.9158 48.7222 78.6959 48.7015 78.4862 48.6391C78.2764 48.5762 78.0811 48.473 77.9116 48.3343C77.7422 48.1956 77.602 48.0252 77.4988 47.8321C77.3956 47.6391 77.3318 47.4276 77.3107 47.2097L77.0467 44.7137C77.0049 44.2786 77.1364 43.8446 77.4129 43.5061C77.6899 43.1676 78.0887 42.9521 78.5236 42.9065C78.958 42.8609 79.3934 42.9888 79.7342 43.2624C80.075 43.5361 80.2939 43.9333 80.3433 44.3676L80.6073 46.8636Z" fill="black"/>
<path d="M62.3389 16.7836C62.48 17.1148 62.587 17.4597 62.6576 17.8127C62.9307 17.239 63.092 16.6185 63.1323 15.9844C62.8496 16.294 62.5851 16.5561 62.3389 16.7836Z" fill="#E9E9E9"/>
<path d="M37.5762 29.3057C37.6545 29.7364 37.8022 30.1515 38.0135 30.5349C38.7147 30.5349 39.489 30.4442 39.68 30.162C39.7074 30.114 39.7347 30.0617 39.7621 30.0069C39.4981 30.5273 38.5429 29.9993 37.5762 29.3057Z" fill="#E9E9E9"/>
<path d="M13.4706 49.5604C11.7766 47.1287 1.00307 56.0082 2.55107 58.2484L2.81507 58.4851C5.05569 59.7331 14.791 51.4732 13.4706 49.5604Z" fill="#E9E9E9"/>
<path d="M31.903 80.9061C29.6893 81.9588 36.5355 94.3087 38.623 92.5543C39.872 90.7418 33.6517 80.0685 31.903 80.9061Z" fill="#E9E9E9"/>
<path d="M11.0749 57.2832C11.0322 57.4402 11.02 57.6043 11.0389 57.7661C11.1301 58.3488 11.8765 58.3762 12.3776 58.2394C12.0267 57.8203 11.5798 57.4925 11.0749 57.2832Z" fill="#E9E9E9"/>
<path d="M15.9111 52.5292C16.2572 52.9574 16.6124 53.3851 16.9311 53.7772C16.9845 53.6246 17.0182 53.4652 17.0315 53.3039C17.0406 53.1671 17.014 53.0299 16.9543 52.9065C16.8947 52.7827 16.8039 52.6771 16.691 52.5988C16.5782 52.5206 16.447 52.4735 16.3103 52.4611C16.1736 52.4491 16.0361 52.4726 15.9111 52.5292Z" fill="#E9E9E9"/>
<path d="M32.4857 34.0789C32.3848 34.0898 32.2894 34.1302 32.2115 34.1953C32.1336 34.2604 32.0768 34.3471 32.0482 34.4444C32.0195 34.5418 32.0205 34.6455 32.0507 34.7423C32.0811 34.8392 32.1394 34.9249 32.2184 34.9886C32.2974 35.0523 32.3935 35.0911 32.4946 35.1002C32.5957 35.1092 32.6972 35.0881 32.7862 35.0396C32.8753 34.9909 32.948 34.917 32.995 34.8271C33.0421 34.7372 33.0615 34.6353 33.0507 34.5344C33.0444 34.4671 33.0247 34.4016 32.9927 34.342C32.9608 34.2824 32.9171 34.2297 32.8645 34.1873C32.8118 34.1448 32.7511 34.1133 32.6861 34.0947C32.621 34.0761 32.5529 34.0707 32.4857 34.0789Z" fill="#E9E9E9"/>
<path d="M28.8431 38.3126C28.7422 38.3235 28.6468 38.3639 28.5689 38.429C28.4911 38.4941 28.4342 38.5807 28.4056 38.6781C28.377 38.7755 28.3779 38.8792 28.4082 38.976C28.4385 39.0728 28.4968 39.1586 28.5758 39.2223C28.6548 39.286 28.7509 39.3248 28.852 39.3339C28.9531 39.3429 29.0546 39.3218 29.1437 39.2732C29.2328 39.2246 29.3054 39.1507 29.3525 39.0608C29.3996 38.9709 29.4189 38.869 29.4081 38.7681C29.401 38.7011 29.3808 38.6361 29.3486 38.5769C29.3163 38.5176 29.2727 38.4653 29.2202 38.423C29.1677 38.3807 29.1074 38.3492 29.0427 38.3302C28.978 38.3113 28.9101 38.3053 28.8431 38.3126Z" fill="#E9E9E9"/>
<path d="M31.0018 43.9043C30.9009 43.9151 30.8054 43.9555 30.7274 44.0205C30.6495 44.0855 30.5926 44.1722 30.5639 44.2695C30.5352 44.3669 30.536 44.4706 30.5663 44.5675C30.5965 44.6644 30.6549 44.7501 30.7338 44.8138C30.8128 44.8776 30.909 44.9165 31.0101 44.9256C31.1112 44.9347 31.2127 44.9136 31.3018 44.865C31.3909 44.8164 31.4636 44.7425 31.5107 44.6525C31.5577 44.5626 31.5771 44.4608 31.5663 44.3598C31.5591 44.2928 31.5389 44.2279 31.5067 44.1687C31.4745 44.1096 31.4309 44.0574 31.3785 44.0151C31.3261 43.9727 31.2658 43.9412 31.2012 43.9222C31.1365 43.9032 31.0688 43.8971 31.0018 43.9043Z" fill="#E9E9E9"/>
<path d="M26.2655 37.3467C26.1645 37.3574 26.069 37.3979 25.9911 37.4629C25.9131 37.5279 25.8562 37.6146 25.8276 37.7119C25.7989 37.8093 25.7997 37.913 25.83 38.0099C25.8602 38.1068 25.9185 38.1925 25.9975 38.2562C26.0765 38.32 26.1726 38.3589 26.2737 38.368C26.3748 38.3771 26.4763 38.356 26.5655 38.3074C26.6546 38.2588 26.7273 38.1849 26.7743 38.0949C26.8214 38.005 26.8407 37.9031 26.8299 37.8022C26.8228 37.7352 26.8026 37.6703 26.7703 37.6112C26.7381 37.552 26.6945 37.4998 26.6421 37.4575C26.5897 37.4151 26.5294 37.3836 26.4648 37.3646C26.4002 37.3456 26.3324 37.3395 26.2655 37.3467Z" fill="#E9E9E9"/>
<path d="M36.8211 36.0811C36.7201 36.0918 36.6246 36.1323 36.5467 36.1973C36.4687 36.2624 36.4118 36.349 36.3832 36.4464C36.3545 36.5438 36.3554 36.6476 36.3857 36.7444C36.416 36.8413 36.4743 36.9271 36.5534 36.9908C36.6324 37.0545 36.7286 37.0933 36.8297 37.1024C36.9308 37.1114 37.0324 37.0903 37.1215 37.0416C37.2106 36.9929 37.2832 36.9189 37.3302 36.8289C37.3772 36.739 37.3965 36.6371 37.3856 36.5361C37.3784 36.4691 37.3581 36.4043 37.3258 36.3452C37.2936 36.2861 37.25 36.2339 37.1976 36.1917C37.1452 36.1494 37.0849 36.1179 37.0203 36.0989C36.9557 36.0799 36.888 36.0739 36.8211 36.0811Z" fill="#E9E9E9"/>
<path d="M33.8519 40.2345C33.7509 40.2453 33.6555 40.2858 33.5777 40.3509C33.4997 40.416 33.4429 40.5028 33.4143 40.6002C33.3858 40.6975 33.3867 40.8012 33.417 40.8981C33.4474 40.995 33.5057 41.0806 33.5848 41.1443C33.6639 41.208 33.76 41.2468 33.8611 41.2558C33.9622 41.2648 34.0637 41.2436 34.1528 41.1949C34.2418 41.1462 34.3145 41.0722 34.3614 40.9823C34.4085 40.8923 34.4277 40.7904 34.4168 40.6895C34.4097 40.6225 34.3894 40.5576 34.3572 40.4984C34.3249 40.4393 34.2813 40.387 34.2288 40.3447C34.1763 40.3025 34.116 40.271 34.0513 40.2521C33.9867 40.2331 33.9188 40.2271 33.8519 40.2345Z" fill="#E9E9E9"/>
<path d="M39.1795 42.165C39.0786 42.1758 38.9831 42.2162 38.9051 42.2812C38.8272 42.3462 38.7703 42.4329 38.7416 42.5303C38.713 42.6277 38.7138 42.7313 38.744 42.8282C38.7743 42.9251 38.8326 43.0108 38.9116 43.0746C38.9906 43.1383 39.0867 43.1772 39.1878 43.1863C39.2889 43.1955 39.3904 43.1743 39.4795 43.1258C39.5686 43.0771 39.6413 43.0032 39.6884 42.9133C39.7355 42.8234 39.7548 42.7215 39.744 42.6206C39.7369 42.5536 39.7166 42.4887 39.6844 42.4295C39.6522 42.3703 39.6086 42.3181 39.5562 42.2758C39.5037 42.2335 39.4435 42.202 39.3789 42.1829C39.3142 42.1639 39.2465 42.1578 39.1795 42.165Z" fill="#E9E9E9"/>
<path d="M41.3924 33.3308C41.2915 33.3416 41.196 33.382 41.1181 33.447C41.0401 33.512 40.9832 33.5987 40.9545 33.696C40.9258 33.7934 40.9267 33.8971 40.9569 33.994C40.9872 34.0909 41.0455 34.1766 41.1245 34.2404C41.2035 34.3041 41.2996 34.343 41.4007 34.3521C41.5018 34.3612 41.6033 34.3401 41.6924 34.2915C41.7816 34.2429 41.8542 34.169 41.9013 34.079C41.9484 33.9891 41.9677 33.8873 41.9569 33.7863C41.9507 33.719 41.931 33.6536 41.899 33.594C41.8671 33.5344 41.8235 33.4818 41.7709 33.4393C41.7182 33.3969 41.6577 33.3654 41.5926 33.3467C41.5276 33.3281 41.4596 33.3227 41.3924 33.3308Z" fill="#E9E9E9"/>
<path d="M46.1649 41.9462C46.064 41.957 45.9684 41.9974 45.8905 42.0624C45.8126 42.1274 45.7557 42.2141 45.727 42.3115C45.6983 42.4089 45.6991 42.5125 45.7294 42.6094C45.7596 42.7063 45.8179 42.7921 45.8969 42.8558C45.9759 42.9195 46.072 42.9584 46.1732 42.9675C46.2743 42.9767 46.3758 42.9555 46.4649 42.907C46.554 42.8583 46.6267 42.7844 46.6738 42.6945C46.7208 42.6046 46.7402 42.5027 46.7293 42.4018C46.7148 42.2665 46.6473 42.1426 46.5414 42.0572C46.4356 41.9717 46.3001 41.9318 46.1649 41.9462Z" fill="#E9E9E9"/>
<path d="M46.1833 37.1642C46.2503 37.1571 46.3152 37.1369 46.3744 37.1047C46.4336 37.0725 46.4859 37.0289 46.5282 36.9765C46.5705 36.924 46.602 36.8638 46.621 36.7991C46.64 36.7344 46.6461 36.6667 46.6388 36.5997C46.6209 36.4673 46.552 36.347 46.4469 36.2646C46.3417 36.1821 46.2084 36.1439 46.0756 36.1582C45.9427 36.1725 45.8206 36.238 45.7353 36.3409C45.65 36.4438 45.6082 36.5759 45.6188 36.7091C45.6259 36.7762 45.6461 36.8411 45.6783 36.9002C45.7105 36.9594 45.7541 37.0116 45.8065 37.0539C45.859 37.0962 45.9192 37.1277 45.9839 37.1466C46.0485 37.1655 46.1163 37.1715 46.1833 37.1642Z" fill="#E9E9E9"/>
<path d="M51.7478 43.0293C51.647 43.0401 51.5515 43.0805 51.4732 43.1455C51.3955 43.2105 51.3383 43.2972 51.31 43.3945C51.2812 43.4919 51.2822 43.5956 51.3124 43.6925C51.3427 43.7894 51.4007 43.8751 51.4799 43.9389C51.5587 44.0026 51.6551 44.0415 51.7559 44.0506C51.8572 44.0597 51.9585 44.0386 52.0478 43.99C52.1371 43.9414 52.2095 43.8675 52.2566 43.7775C52.3036 43.6876 52.3228 43.5858 52.3123 43.4848C52.3051 43.4178 52.2849 43.3529 52.2527 43.2937C52.2206 43.2346 52.1769 43.1824 52.1246 43.1401C52.0718 43.0977 52.0118 43.0662 51.947 43.0472C51.8827 43.0282 51.8145 43.0221 51.7478 43.0293Z" fill="#E9E9E9"/>
<path d="M52.3855 37.6026C52.2847 37.6133 52.1892 37.6538 52.1109 37.7188C52.0332 37.7839 51.976 37.8706 51.9477 37.968C51.9189 38.0654 51.9199 38.1691 51.9501 38.266C51.9804 38.3629 52.0389 38.4486 52.1176 38.5123C52.1968 38.576 52.2928 38.6149 52.3941 38.6239C52.4954 38.633 52.5967 38.6118 52.686 38.5631C52.7748 38.5144 52.8477 38.4404 52.8948 38.3505C52.9418 38.2605 52.961 38.1586 52.95 38.0576C52.9428 37.9907 52.9226 37.9258 52.8904 37.8666C52.8583 37.8075 52.8146 37.7553 52.7623 37.713C52.7095 37.6708 52.6495 37.6393 52.5847 37.6203C52.5204 37.6013 52.4522 37.5953 52.3855 37.6026Z" fill="#E9E9E9"/>
<path d="M56.9386 35.7811C56.928 35.6801 56.8872 35.5847 56.8224 35.5067C56.7571 35.4288 56.6707 35.3718 56.5733 35.3432C56.4758 35.3145 56.3721 35.3153 56.2752 35.3456C56.1782 35.3758 56.0928 35.4341 56.0289 35.5132C55.9651 35.5921 55.9262 35.6883 55.9171 35.7893C55.908 35.8904 55.9291 35.992 55.9776 36.0811C56.0266 36.1702 56.1005 36.2429 56.1902 36.29C56.28 36.337 56.3822 36.3564 56.483 36.3456C56.5502 36.3385 56.615 36.3182 56.6741 36.286C56.7331 36.2537 56.7854 36.2102 56.8277 36.1577C56.8699 36.1053 56.9016 36.0451 56.9208 35.9804C56.9395 35.9158 56.9458 35.8481 56.9386 35.7811Z" fill="#E9E9E9"/>
<path d="M72.1375 7.28469C72.0818 6.57856 71.7765 5.91534 71.2759 5.41432C70.7748 4.9133 70.1119 4.6073 69.4058 4.55131C68.6997 4.49532 67.997 4.69302 67.4234 5.1089C66.8498 5.52472 66.4437 6.13149 66.2776 6.82005C65.4549 6.43715 64.5473 6.27256 63.6425 6.34216C62.7377 6.41176 61.8665 6.7132 61.1119 7.21744C60.3573 7.72168 59.7453 8.41168 59.3349 9.22106C58.9245 10.0304 58.7297 10.9318 58.7685 11.8384C59.8653 11.5411 60.9929 11.3699 62.1285 11.3282C62.19 11.7013 62.2749 12.07 62.3834 12.4322C62.4837 12.6597 62.6383 12.678 62.9114 12.2589C63.522 11.3757 64.7604 12.7418 63.3122 13.7983C63.9372 14.88 64.7311 15.8548 65.6642 16.6855C66.808 16.317 67.793 15.5715 68.4583 14.5706C69.1231 13.5697 69.4289 12.3728 69.3257 11.1756C69.3069 10.9559 69.2748 10.7376 69.2297 10.5218C69.2954 10.5221 69.3607 10.5184 69.426 10.5108C69.8157 10.477 70.1954 10.3668 70.5425 10.1863C70.89 10.006 71.1981 9.7589 71.4497 9.45933C71.7017 9.15976 71.8922 8.81354 72.0098 8.44038C72.1279 8.06728 72.1711 7.67454 72.1375 7.28469Z" fill="#E9E9E9"/>
<path d="M33.542 55.2695L33.6423 58.9655L34.9431 57.791C34.3759 57.01 33.9054 56.1638 33.542 55.2695Z" fill="#E9E9E9"/>
<path d="M41.9033 38.3945L43.1964 40.2344L43.2693 42.5931L41.9033 38.3945Z" fill="#E9E9E9"/>
<path d="M39.6713 25.9265C39.8298 25.8976 39.9727 25.8131 40.0745 25.6883C40.1764 25.5635 40.2305 25.4066 40.2272 25.2456C40.224 25.0845 40.1635 24.9299 40.0566 24.8094C39.9497 24.6889 39.8035 24.6103 39.644 24.5878C39.7673 24.4977 39.8568 24.3686 39.8979 24.2214C39.939 24.0743 39.9293 23.9176 39.8704 23.7765C39.8115 23.6356 39.7068 23.5185 39.5733 23.4442C39.4397 23.37 39.2851 23.3428 39.1342 23.3672C39.2115 23.2389 39.2443 23.0886 39.2275 22.9398C39.2107 22.7909 39.1454 22.6518 39.0414 22.5439C38.9375 22.436 38.8009 22.3654 38.6528 22.343C38.5047 22.3206 38.3534 22.3478 38.2222 22.4201C38.2536 22.2674 38.2316 22.1085 38.16 21.9699C38.0885 21.8314 37.9715 21.7215 37.8288 21.6587C37.686 21.5959 37.5261 21.5839 37.3756 21.6247C37.225 21.6655 37.093 21.7567 37.0016 21.883C36.9869 21.7189 36.9153 21.565 36.7993 21.4479C36.6833 21.3308 36.5301 21.2579 36.366 21.2417C36.202 21.2255 36.0375 21.267 35.9008 21.3591C35.7641 21.4512 35.6638 21.5881 35.6173 21.7462C35.5529 21.6044 35.4418 21.4889 35.3026 21.419C35.1634 21.349 35.0045 21.3289 34.8522 21.3618C34.7 21.3949 34.5637 21.479 34.4659 21.6003C34.3682 21.7216 34.3149 21.8727 34.315 22.0285C34.2014 21.9307 34.0588 21.8731 33.9091 21.8644C33.7595 21.8557 33.6112 21.8964 33.487 21.9802C33.3628 22.0641 33.2695 22.1864 33.2216 22.3285C33.1738 22.4705 33.1739 22.6243 33.2221 22.7662C33.0804 22.7135 32.9252 22.7095 32.7811 22.755C32.6369 22.8005 32.5121 22.8927 32.4264 23.0172C32.3406 23.1416 32.2988 23.2912 32.3077 23.442C32.3165 23.5929 32.3755 23.7365 32.4752 23.8501C32.3145 23.8412 32.1558 23.8895 32.0272 23.9863C31.8987 24.0832 31.8084 24.2223 31.7725 24.3792C31.7365 24.536 31.7572 24.7006 31.8308 24.8437C31.9044 24.9869 32.0262 25.0994 32.1747 25.1614C32.0168 25.192 31.8749 25.2776 31.7743 25.4031C31.6737 25.5285 31.6209 25.6855 31.6253 25.8462C31.6297 26.007 31.691 26.161 31.7982 26.2807C31.9056 26.4005 32.0519 26.4782 32.2112 26.5001C32.0904 26.5918 32.0038 26.7211 31.965 26.8677C31.9263 27.0143 31.9377 27.1696 31.9974 27.3089C32.0572 27.4482 32.1618 27.5635 32.2946 27.6365C32.4275 27.7095 32.5809 27.736 32.7305 27.7117C32.655 27.8406 32.6241 27.9908 32.6424 28.1391C32.6607 28.2873 32.7273 28.4255 32.8319 28.5321C32.9365 28.6388 33.0733 28.7081 33.2212 28.7293C33.3691 28.7506 33.5199 28.7225 33.6502 28.6496C33.6201 28.802 33.6431 28.9602 33.7153 29.0978C33.7876 29.2353 33.9048 29.344 34.0473 29.4057C34.1899 29.4674 34.3494 29.4785 34.4992 29.4369C34.6489 29.3954 34.7799 29.3039 34.8704 29.1776C34.8783 29.2913 34.9143 29.4013 34.9752 29.4977C35.036 29.594 35.1199 29.6738 35.2192 29.7298C35.3185 29.7857 35.4301 29.8162 35.544 29.8185C35.658 29.8207 35.7707 29.7946 35.8721 29.7425C35.9542 29.6422 37.0721 28.267 37.4662 27.7659C36.5009 26.6734 37.3021 25.963 37.8214 26.6825C38.0945 27.0742 38.4934 26.9648 38.2582 25.7989C38.56 25.6676 38.8492 25.5092 39.1222 25.3256C39.3142 26.0629 39.4582 26.6917 39.5773 27.2197C39.7156 27.1835 39.839 27.1049 39.9304 26.995C40.0218 26.8851 40.0765 26.7493 40.0869 26.6068C40.0973 26.4642 40.0627 26.322 39.9882 26.2C39.9137 26.078 39.8029 25.9824 39.6713 25.9265Z" fill="#E9E9E9"/>
<path d="M39.5802 27.2192C39.4621 26.6912 39.3162 26.0629 39.1252 25.3252C38.8521 25.5088 38.5629 25.6672 38.2612 25.7984C38.4983 26.9644 38.1004 27.0714 37.8244 26.6821C37.3108 25.9583 36.5039 26.673 37.4692 27.7655C37.0775 28.2666 35.9572 29.6418 35.8751 29.7421C35.7736 29.7942 35.6609 29.8203 35.5469 29.8181C35.433 29.8158 35.3214 29.7853 35.2221 29.7294C35.1228 29.6733 35.039 29.5936 34.9781 29.4972C34.9172 29.4008 34.8812 29.2909 34.8733 29.1772C34.7828 29.3035 34.6518 29.395 34.5021 29.4365C34.3523 29.478 34.1929 29.467 34.0503 29.4053C33.9077 29.3435 33.7905 29.2349 33.7182 29.0973C33.646 28.9598 33.623 28.8016 33.6532 28.6492C33.5228 28.7221 33.372 28.7501 33.2241 28.7289C33.0762 28.7077 32.9394 28.6384 32.8349 28.5317C32.7303 28.425 32.6636 28.2869 32.6453 28.1386C32.627 27.9904 32.658 27.8402 32.7335 27.7112C32.5839 27.7355 32.4304 27.7091 32.2975 27.6361C32.1647 27.5631 32.0601 27.4477 32.0004 27.3084C31.9407 27.1691 31.9292 27.0138 31.968 26.8673C32.0067 26.7207 32.0933 26.5914 32.2141 26.4997C32.0548 26.4778 31.9085 26.4 31.8012 26.2803C31.6939 26.1605 31.6326 26.0066 31.6282 25.8458C31.6238 25.6851 31.6767 25.528 31.7773 25.4026C31.8779 25.2772 32.0198 25.1916 32.1776 25.161C32.0291 25.099 31.9073 24.9864 31.8337 24.8433C31.7601 24.7002 31.7394 24.5356 31.7754 24.3787C31.8113 24.2218 31.9016 24.0827 32.0301 23.9859C32.1587 23.8891 32.3174 23.8408 32.4781 23.8496C32.3784 23.7361 32.3194 23.5925 32.3106 23.4416C32.3018 23.2907 32.3435 23.1412 32.4293 23.0167C32.515 22.8923 32.6399 22.8 32.784 22.7546C32.9282 22.7091 33.0833 22.713 33.225 22.7658C33.1782 22.6242 33.179 22.4713 33.2273 22.3303C33.2755 22.1892 33.3685 22.0678 33.4921 21.9845C33.6157 21.9012 33.7632 21.8607 33.912 21.8689C34.0609 21.8772 34.2029 21.934 34.3165 22.0304C34.3164 21.8747 34.3696 21.7235 34.4674 21.6022C34.5652 21.481 34.7015 21.3968 34.8537 21.3638C35.006 21.3308 35.1649 21.351 35.3041 21.4209C35.4433 21.4908 35.5543 21.6064 35.6188 21.7482C35.6653 21.5901 35.7656 21.4532 35.9023 21.3611C36.0389 21.269 36.2035 21.2274 36.3675 21.2437C36.5316 21.2599 36.6848 21.3328 36.8008 21.4499C36.9168 21.567 36.9883 21.7208 37.0031 21.885C37.0945 21.7587 37.2265 21.6675 37.377 21.6267C37.5276 21.5859 37.6875 21.5979 37.8303 21.6607C37.973 21.7235 38.0899 21.8333 38.1615 21.9719C38.2331 22.1105 38.2551 22.2693 38.2237 22.4221C38.3549 22.3497 38.5062 22.3226 38.6543 22.345C38.8024 22.3674 38.939 22.438 39.0429 22.5459C39.1469 22.6538 39.2122 22.7929 39.229 22.9418C39.2458 23.0906 39.213 23.2409 39.1357 23.3692C39.2866 23.3448 39.4412 23.3719 39.5748 23.4462C39.7083 23.5204 39.8129 23.6375 39.8718 23.7785C39.9307 23.9195 39.9404 24.0762 39.8993 24.2234C39.8583 24.3706 39.7688 24.4997 39.6455 24.5898C39.805 24.6123 39.9512 24.6908 40.0581 24.8114C40.1649 24.9319 40.2255 25.0865 40.2287 25.2475C40.232 25.4085 40.1779 25.5655 40.076 25.6903C39.9742 25.8151 39.8313 25.8995 39.6728 25.9285C39.8035 25.9847 39.9135 26.0803 39.9875 26.2018C40.0614 26.3233 40.0957 26.4649 40.0855 26.6068C40.0753 26.7487 40.0212 26.884 39.9306 26.9937C39.8401 27.1035 39.7176 27.1823 39.5802 27.2192Z" stroke="black" stroke-width="0.564931" stroke-linecap="round" stroke-linejoin="round"/>
<path d="M39.6904 23.4859L42.1312 23.2858C42.4226 23.2603 42.7162 23.2927 42.995 23.3812C43.2738 23.4696 43.5324 23.6123 43.7558 23.801C43.9793 23.9898 44.1632 24.2209 44.297 24.481C44.4309 24.7411 44.5119 25.0251 44.5355 25.3166L45.2003 33.3034" stroke="black" stroke-width="0.564931" stroke-linecap="round" stroke-linejoin="round"/>
<path d="M43.3594 42.4645L43.7328 42.4372C44.0588 42.4335 44.3773 42.3389 44.6525 42.1641" stroke="black" stroke-width="0.564931" stroke-linecap="round" stroke-linejoin="round"/>
<path d="M26.4575 43.8839L21.5581 44.3029C20.9702 44.3521 20.3868 44.1659 19.936 43.7852C19.4853 43.4044 19.2041 42.8604 19.1543 42.2725L17.9063 27.5552C17.8568 26.9671 18.043 26.3834 18.4238 25.9325C18.8047 25.4817 19.349 25.2005 19.9371 25.1509L31.9167 24.1416" stroke="black" stroke-width="0.564931" stroke-linecap="round" stroke-linejoin="round"/>
<path d="M42.2305 72.4001L71.4092 69.941C72.206 69.8728 72.9433 69.4913 73.4588 68.8797C73.9748 68.2682 74.2268 67.4772 74.1596 66.6804L72.4657 46.7815C72.3975 45.9847 72.0159 45.2476 71.4044 44.7319C70.7934 44.2163 70.0023 43.9642 69.2055 44.0311L53.6152 45.3429" stroke="black" stroke-width="0.564931" stroke-linecap="round" stroke-linejoin="round"/>
<path d="M43.0957 46.2351L47.9408 45.8252" stroke="black" stroke-width="0.564931" stroke-linecap="round" stroke-linejoin="round"/>
<path d="M58.8142 13.4385L49.8161 14.2127C48.9919 14.3047 48.2378 14.7195 47.7188 15.3664C47.1999 16.0133 46.9584 16.8394 47.0474 17.6639L48.8508 38.4191" stroke="black" stroke-width="0.564931" stroke-linecap="round" stroke-linejoin="round"/>
<path d="M55.3535 41.4629L82.6473 39.1042C83.253 39.0495 83.8286 38.8134 84.298 38.4266C84.7674 38.0399 85.1092 37.5206 85.2791 36.9365" stroke="black" stroke-width="0.564931" stroke-linecap="round" stroke-linejoin="round"/>
<path d="M84.405 23.9318L83.5943 14.506C83.5401 13.6779 83.1599 12.9051 82.5369 12.3571C81.9134 11.809 81.0983 11.5303 80.2703 11.5823L69.2783 12.5299" stroke="black" stroke-width="0.564931" stroke-linecap="round" stroke-linejoin="round"/>
<path d="M74.4143 26.6729C73.4764 28.1479 71.5002 32.4559 70.3525 35.2514C72.5557 36.1126 74.4124 37.6784 75.6325 39.7049" stroke="black" stroke-width="0.564931" stroke-linecap="round" stroke-linejoin="round"/>
<path d="M59.7432 31.3906C60.0763 33.1058 60.5112 34.7997 61.0454 36.4633C60.5443 38.3482 60.3441 40.0239 60.1075 41.053" stroke="black" stroke-width="0.564931" stroke-linecap="round" stroke-linejoin="round"/>
<path d="M60.6176 24.3789C59.9297 25.4393 59.5285 26.6597 59.4521 27.9213" stroke="black" stroke-width="0.564931" stroke-linecap="round" stroke-linejoin="round"/>
<path d="M70.344 35.2607C67.776 37.1097 62.9217 38.0927 61.0459 36.4631" stroke="black" stroke-width="0.564931" stroke-linecap="round" stroke-linejoin="round"/>
<path d="M69.1777 35.9619C70.5477 37.0332 71.6454 38.4123 72.3827 39.9872" stroke="black" stroke-width="0.564931" stroke-linecap="round" stroke-linejoin="round"/>
<path d="M62.6638 17.8021C62.9326 17.2309 63.0915 16.6143 63.1323 15.9844C62.8501 16.294 62.5851 16.5561 62.3389 16.7836" stroke="black" stroke-width="0.564931" stroke-linecap="round" stroke-linejoin="round"/>
<path d="M73.1119 29.1151L76.3725 34.6246C78.8949 39.1966 84.1485 40.6346 87.4466 33.8052C89.0032 30.581 89.7415 28.4138 91.1076 26.1732C88.8736 25.5363 86.8394 24.3389 85.1988 22.6946C83.6824 24.9767 82.3341 27.3659 81.1639 29.8433C74.5615 15.8095 73.7508 18.2839 69.352 18.0406C68.01 18.0035 66.7173 17.5268 65.6729 16.6836" stroke="black" stroke-width="0.564931" stroke-linecap="round" stroke-linejoin="round"/>
<path d="M56.0557 29.223C57.3579 24.7969 60.2753 22.7512 61.556 21.3549C62.1584 20.7769 62.5601 20.0209 62.7008 19.1979C62.8419 18.3749 62.7152 17.5285 62.3393 16.7829C60.0445 18.8046 58.7787 17.1928 58.7787 11.8389" stroke="black" stroke-width="0.564931" stroke-linecap="round" stroke-linejoin="round"/>
<path d="M69.9071 18.0576C68.0817 19.5246 66.4343 21.2 64.9982 23.0496C64.773 23.3298 64.4793 23.5468 64.1452 23.6795C63.8111 23.8121 63.4482 23.8558 63.0921 23.8063C62.7364 23.7568 62.399 23.6159 62.1138 23.3972C61.8287 23.1785 61.605 22.8895 61.4649 22.5586C61.3478 22.285 61.246 22.0306 61.1553 21.7843" stroke="black" stroke-width="0.564931" stroke-linecap="round" stroke-linejoin="round"/>
<path d="M81.1634 29.8428L80.0801 32.2836" stroke="black" stroke-width="0.564931" stroke-linecap="round" stroke-linejoin="round"/>
<path d="M35.8735 29.7422C34.6005 31.3742 33.6995 31.2671 31.3019 32.3375C26.4203 34.5143 28.096 43.2388 28.096 43.2388" stroke="black" stroke-width="0.564931" stroke-linecap="round" stroke-linejoin="round"/>
<path d="M39.5809 27.2197C39.9788 29.0644 39.9428 29.7704 39.6812 30.152C39.4892 30.4348 38.7159 30.5255 38.0146 30.5255" stroke="black" stroke-width="0.564931" stroke-linecap="round" stroke-linejoin="round"/>
<path d="M39.7635 29.9991C39.5087 30.5271 38.5419 29.9991 37.5762 29.2979C37.7586 30.1359 37.8858 31.1401 38.5688 31.1828C44.6235 31.5625 45.2629 32.2484 50.5175 41.2628" stroke="black" stroke-width="0.564931" stroke-linecap="round" stroke-linejoin="round"/>
<path d="M49.8715 40.1427C50.099 39.5053 51.5107 36.5998 52.3305 33.9771C54.1257 33.7839 55.93 34.2535 57.4031 35.2976C56.8382 37.975 55.1995 42.0373 53.7873 45.0229C53.5473 45.5275 53.1907 45.9677 52.7467 46.3073C52.3027 46.6468 51.7847 46.8759 51.2347 46.9755C50.6851 47.0752 50.1191 47.0426 49.5844 46.8804C49.0497 46.7182 48.5611 46.4311 48.1593 46.0429C45.8015 43.7245 43.7064 41.1533 41.9121 38.3758" stroke="black" stroke-width="0.564931" stroke-linecap="round" stroke-linejoin="round"/>
<path d="M41.9209 38.376L43.2687 42.5928" stroke="black" stroke-width="0.564931" stroke-linecap="round" stroke-linejoin="round"/>
<path d="M31.9678 46.0353C34.6726 46.8993 39.2988 46.5724 42.9147 45.5889C43.4609 44.5142 43.2334 40.2705 43.2334 40.2705" stroke="black" stroke-width="0.564931" stroke-linecap="round" stroke-linejoin="round"/>
<path d="M31.9394 45.8251C30.7739 47.5008 28.4834 47.5627 27.4312 45.816C26.1054 43.608 25.5371 40.4611 25.2549 36.9638C25.2549 36.9638 27.3189 36.3033 28.1829 36.562" stroke="black" stroke-width="0.564931" stroke-linecap="round" stroke-linejoin="round"/>
<path d="M34.9429 57.791L25.3261 66.3062C24.69 66.8659 23.8726 67.176 23.0254 67.1793C22.1782 67.1822 21.3585 66.8784 20.7181 66.324L11.2568 58.1385" stroke="black" stroke-width="0.564931" stroke-linecap="round" stroke-linejoin="round"/>
<path d="M23.9707 59.4397L16.8125 52.6914" stroke="black" stroke-width="0.564931" stroke-linecap="round" stroke-linejoin="round"/>
<path d="M30.4727 36.9014C30.4727 36.9014 32.0567 43.2854 31.9574 46.1994C30.0304 47.2947 28.5415 49.0228 27.743 51.0902C26.5799 54.2327 22.5518 58.0569 22.5518 58.0569" stroke="black" stroke-width="0.564931" stroke-linecap="round" stroke-linejoin="round"/>
<path d="M42.9137 45.5889C44.6983 51.6633 44.8759 55.7169 44.9988 61.5988C45.0969 63.2663 44.8686 64.9367 44.3268 66.5169L40.1561 78.2466C37.6052 77.9788 35.1532 77.1148 32.9978 75.7242L37.169 63.7756C37.2494 61.7346 36.5646 59.7373 35.249 58.1749C33.9466 56.5885 33.1306 54.6589 32.8994 52.6194" stroke="black" stroke-width="0.564931" stroke-linecap="round" stroke-linejoin="round"/>
<path d="M33.7793 31.3637C33.7793 31.3637 35.2361 32.9664 38.6969 31.1904" stroke="black" stroke-width="0.564931" stroke-linecap="round" stroke-linejoin="round"/>
<path d="M25.9746 36.7548C25.9462 35.3653 25.7906 33.9813 25.51 32.6201C25.2414 31.5724 24.8565 30.5581 24.3623 29.5961C23.6375 28.183 23.8727 27.8004 25.0367 29.0863C26.1862 30.5293 27.1328 32.1226 27.8505 33.822" stroke="black" stroke-width="0.564931" stroke-linecap="round" stroke-linejoin="round"/>
<path d="M27.4463 32.9221C28.0247 33.5778 28.3708 31.5781 28.5882 31.1356C28.8887 30.5255 29.2602 29.8612 29.2348 31.737C29.2276 32.2559 29.2895 33.0848 29.3716 33.9042" stroke="black" stroke-width="0.564931" stroke-linecap="round" stroke-linejoin="round"/>
<path d="M24.963 30.9358C24.699 30.6445 24.099 30.0622 23.9247 29.8976C23.1289 29.1363 22.9705 29.4046 23.0607 29.5616C23.4063 30.1673 24.0543 31.1005 24.3567 31.6736C24.8406 32.6019 25.8226 34.3693 25.8774 35.2798" stroke="black" stroke-width="0.564931" stroke-linecap="round" stroke-linejoin="round"/>
<path d="M24.3258 31.6181C24.1708 31.5091 24.0426 31.4194 23.9706 31.3723C23.0481 30.7709 22.9506 31.0445 23.0586 31.1803C23.4959 31.7266 24.2898 32.5359 24.6801 33.0562C25.1382 33.6972 25.5346 34.3803 25.8637 35.0962" stroke="black" stroke-width="0.564931" stroke-linecap="round" stroke-linejoin="round"/>
<path d="M56.9754 34.9968C57.464 33.5402 58.0794 32.1293 58.8152 30.7805C59.4378 29.7625 60.1741 28.8184 61.0098 27.9662C62.2367 26.7182 62.1138 26.2267 60.4636 27.2011C58.7802 28.3508 57.2605 29.7232 55.9463 31.2811" stroke="black" stroke-width="0.564931" stroke-linecap="round" stroke-linejoin="round"/>
<path d="M56.7114 30.4166C55.7927 31.1016 56.1316 28.7621 56.0457 28.2115C55.93 27.4733 55.7634 26.6453 55.1711 28.6397C55.0074 29.1854 54.3421 30.877 53.0879 33.9302" stroke="black" stroke-width="0.564931" stroke-linecap="round" stroke-linejoin="round"/>
<path d="M59.9346 29.1777C60.308 28.9501 61.1279 28.5402 61.3645 28.4221C62.4575 27.8754 62.529 28.2205 62.3936 28.3492C61.8335 28.8815 60.8461 29.6524 60.3445 30.1612C59.5352 30.9825 57.9219 32.529 57.5576 33.4766" stroke="black" stroke-width="0.564931" stroke-linecap="round" stroke-linejoin="round"/>
<path d="M60.3904 30.116C60.5905 30.0522 60.7547 29.9979 60.8459 29.972C62.0133 29.6144 62.0291 29.9619 61.8659 30.0723C61.2256 30.5043 60.1273 31.1029 59.5432 31.5291C58.852 32.0574 58.2121 32.6489 57.6309 33.296" stroke="black" stroke-width="0.564931" stroke-linecap="round" stroke-linejoin="round"/>
<path d="M13.4705 49.5599C11.8495 47.2314 1.91304 55.2642 2.418 57.9234C2.49624 58.3352 2.8524 58.7039 3.68328 58.5911C6.87674 58.1586 14.6681 51.2831 13.4705 49.5599Z" stroke="black" stroke-width="0.564931" stroke-linecap="round" stroke-linejoin="round"/>
<path d="M13.4707 49.5596C13.9713 50.197 15.6926 52.2553 16.9224 53.7836" stroke="black" stroke-width="0.564931" stroke-linecap="round" stroke-linejoin="round"/>
<path d="M39.1525 78.1191C38.7685 79.5668 36.6133 82.7444 38.2688 86.8163C39.117 88.9014 39.6075 91.9422 38.4608 92.7073" stroke="black" stroke-width="0.564931" stroke-linecap="round" stroke-linejoin="round"/>
<path d="M31.6113 81.1794C31.884 80.565 32.8752 78.3234 33.7608 76.2354" stroke="black" stroke-width="0.564931" stroke-linecap="round" stroke-linejoin="round"/>
<path d="M31.9032 80.9063C29.8671 81.8744 35.3026 91.8287 37.7957 92.7368C38.4845 92.9879 38.8138 92.4968 38.7864 91.7658C38.6732 88.7245 33.4772 80.1594 31.9032 80.9063Z" stroke="black" stroke-width="0.564931" stroke-linecap="round" stroke-linejoin="round"/>
<path d="M15.9017 52.5282C16.0266 52.4716 16.164 52.4481 16.3007 52.4601C16.4373 52.4721 16.5685 52.5196 16.6813 52.5978C16.7942 52.6756 16.8848 52.7817 16.9445 52.905C17.0041 53.0289 17.0307 53.1657 17.0216 53.3025C16.8709 55.2225 13.304 58.5114 11.7003 58.3175C11.2203 58.259 10.916 57.9196 11.0763 57.2735" stroke="black" stroke-width="0.564931" stroke-linecap="round" stroke-linejoin="round"/>
<path d="M39.5879 74.8558L42.3829 66.0156C42.868 64.6342 43.0723 63.1697 42.9839 61.7081C42.5965 55.3793 42.128 50.4881 40.9895 46.0352" stroke="black" stroke-width="0.564931" stroke-linecap="round" stroke-linejoin="round"/>
<path d="M34.1348 72.4629C36.2021 74.0359 38.706 74.9301 41.3021 75.0223" stroke="black" stroke-width="0.564931" stroke-linecap="round" stroke-linejoin="round"/>
<path d="M13.9531 60.4699C16.7126 59.5862 18.2611 57.5899 19.1899 54.9873" stroke="black" stroke-width="0.564931" stroke-linecap="round" stroke-linejoin="round"/>
<path d="M33.5419 55.2695L25.7919 62.1364C25.1544 62.7043 24.3313 63.0196 23.4776 63.023C22.6239 63.0263 21.7984 62.7177 21.1565 62.1547L17.0674 58.5662" stroke="black" stroke-width="0.564931" stroke-linecap="round" stroke-linejoin="round"/>
<path d="M34.8534 48.4567C34.7354 48.475 34.5621 50.7703 34.8717 51.6991C35.4639 52.5175 36.2209 53.2034 37.0941 53.7118C37.5935 52.8799 38.193 52.1119 38.8792 51.426C38.788 50.2692 38.6786 49.6591 38.5514 48.4385C37.3254 48.6137 36.0811 48.6199 34.8534 48.4567Z" stroke="black" stroke-width="0.564931" stroke-linecap="round" stroke-linejoin="round"/>
<path d="M29.6898 47.9932C30.1574 47.9999 30.6164 48.1184 31.0286 48.3392C30.1905 48.7487 29.3438 50.8352 29.3438 50.8352L27.4766 51.728" stroke="black" stroke-width="0.564931" stroke-linecap="round" stroke-linejoin="round"/>
<path d="M88.9404 18.2393C90.3804 18.6943 91.1811 19.4321 92.1084 20.6162" stroke="black" stroke-width="0.564931" stroke-linecap="round" stroke-linejoin="round"/>
<path d="M88.5859 18.9141C89.0885 19.4241 89.4792 20.0333 89.7331 20.7027C89.9871 21.3721 90.0984 22.0871 90.061 22.8021" stroke="black" stroke-width="0.564931" stroke-linecap="round" stroke-linejoin="round"/>
<path d="M91.3532 19.715C91.912 18.9788 92.3795 18.1776 92.7452 17.3289C93.4172 15.7535 93.8291 16.1908 93.4556 17.6841C93.3553 18.0849 93.2555 18.431 93.1643 18.7223C92.9012 19.5604 92.642 20.4066 92.3992 21.2543C92.1414 22.1548 90.4312 25.9626 90.4312 25.9626C88.8284 25.5345 87.1619 24.369 85.8596 23.2943C85.887 23.2396 86.5796 21.9652 86.606 21.9191C86.7472 21.6644 86.8072 21.3727 86.7779 21.083C86.7486 20.7934 86.6315 20.5195 86.4424 20.2982C85.7838 19.5081 84.902 18.3302 85.1944 18.0119C85.648 17.519 87.0793 19.186 87.8444 19.2873C88.1176 19.3233 88.3364 18.4948 88.3816 18.1943C88.4641 17.6481 88.7516 15.7895 88.7732 15.6081C88.9715 13.9194 89.5748 14.2055 89.5657 15.6988C89.5566 17.1196 89.5566 18.0393 89.5566 18.0393" stroke="black" stroke-width="0.564931" stroke-linecap="round" stroke-linejoin="round"/>
<path d="M89.4414 18.404C89.4414 18.404 90.4345 15.2898 90.4974 15.08C90.9913 13.4504 91.5092 13.8234 91.2625 15.2893C91.0264 16.6923 90.7705 18.404 90.7705 18.404" stroke="black" stroke-width="0.564931" stroke-linecap="round" stroke-linejoin="round"/>
<path d="M90.5273 18.9047C91.0025 17.9523 91.4221 16.973 91.784 15.9719C92.3744 14.3687 92.8083 14.7782 92.5309 16.2364C92.3787 17.143 92.1627 18.0377 91.8843 18.9139" stroke="black" stroke-width="0.564931" stroke-linecap="round" stroke-linejoin="round"/>
<path d="M80.6073 46.8636C80.6323 47.081 80.6135 47.3013 80.5526 47.5115C80.4916 47.7217 80.3899 47.9179 80.2531 48.0886C80.1158 48.2594 79.9463 48.401 79.7543 48.5057C79.5623 48.6108 79.3511 48.6766 79.1337 48.6991C78.9158 48.7222 78.6959 48.7015 78.4862 48.6391C78.2764 48.5762 78.0811 48.473 77.9116 48.3343C77.7422 48.1956 77.602 48.0252 77.4988 47.8321C77.3956 47.6391 77.3318 47.4276 77.3107 47.2097L77.0467 44.7137C77.0049 44.2786 77.1364 43.8446 77.4129 43.5061C77.6899 43.1676 78.0887 42.9521 78.5236 42.9065C78.958 42.8609 79.3934 42.9888 79.7342 43.2624C80.075 43.5361 80.2939 43.9333 80.3433 44.3676L80.6073 46.8636Z" stroke="black" stroke-width="0.564931" stroke-linecap="round" stroke-linejoin="round"/>
<path d="M75.9629 46.2084L76.0901 47.4377C76.1295 47.8156 76.2432 48.1821 76.4242 48.5162C76.6051 48.8503 76.8504 49.1455 77.1456 49.3845C77.4403 49.6241 77.7802 49.8026 78.144 49.9111C78.5083 50.0191 78.8904 50.0546 79.2682 50.0153C79.6464 49.9754 80.0127 49.8621 80.3467 49.6812C80.6808 49.4997 80.976 49.2549 81.2155 48.9597C81.4546 48.6645 81.6336 48.3252 81.7416 47.9609C81.8496 47.5966 81.8851 47.2146 81.8458 46.8367L81.7186 45.6074" stroke="black" stroke-width="0.564931" stroke-linecap="round" stroke-linejoin="round"/>
<path d="M79.2686 50.0146L79.5143 52.3095" stroke="black" stroke-width="0.564931" stroke-linecap="round" stroke-linejoin="round"/>
<path d="M78.2852 52.438L80.7351 52.1826" stroke="black" stroke-width="0.564931" stroke-linecap="round" stroke-linejoin="round"/>
<path d="M59.2236 59.4506L62.1656 60.8258L61.6371 54.5781L58.9688 56.4357" stroke="black" stroke-width="0.564931" stroke-linecap="round" stroke-linejoin="round"/>
<path d="M56.438 54.4591C57.0318 54.4073 57.6226 54.582 58.0926 54.9487C58.5625 55.3155 58.8759 55.8463 58.9695 56.4348L59.2153 59.2668C59.2426 59.5759 59.2086 59.8875 59.1154 60.1836C59.0223 60.4798 58.8716 60.7548 58.6719 60.9924C58.4722 61.23 58.2279 61.4263 57.9524 61.5694C57.6769 61.7124 57.3754 61.7998 57.0663 61.8262L51.3836 62.2995C51.074 62.3278 50.762 62.2947 50.4654 62.202C50.1692 62.1089 49.8937 61.9582 49.6561 61.7585C49.418 61.5588 49.2217 61.3135 49.0791 61.0375C48.9366 60.7615 48.8497 60.4601 48.8242 60.1505L48.5967 57.5105C48.5684 57.2009 48.6015 56.8889 48.6942 56.5927C48.7873 56.2961 48.9375 56.0206 49.1377 55.783C49.3374 55.5449 49.5822 55.3486 49.8582 55.206C50.1346 55.0635 50.4361 54.9766 50.7457 54.9511L56.438 54.4591Z" stroke="black" stroke-width="0.564931" stroke-linecap="round" stroke-linejoin="round"/>
<path d="M72.1382 7.28519C72.0816 6.58083 71.7763 5.91963 71.2766 5.41991C70.7769 4.92013 70.116 4.61445 69.4113 4.55753C68.7072 4.5006 68.0054 4.69616 67.4323 5.1092C66.8587 5.52224 66.4512 6.12579 66.2822 6.81191C67.0301 7.15688 67.6867 7.67154 68.2008 8.31503C68.7149 8.95847 69.0715 9.71298 69.2424 10.5185C69.6489 10.5091 70.0493 10.4164 70.4189 10.2461C70.7885 10.0759 71.1187 9.83173 71.3904 9.52875C71.6616 9.22578 71.868 8.87034 71.9966 8.48447C72.1253 8.09859 72.1733 7.6904 72.1382 7.28519Z" stroke="black" stroke-width="0.564931" stroke-linecap="round" stroke-linejoin="round"/>
<path d="M69.3238 11.1722C69.209 9.79256 68.5582 8.51288 67.5103 7.60789C66.463 6.70289 65.1022 6.24473 63.7202 6.33176C62.3388 6.41878 61.0462 7.04403 60.1202 8.07334C59.1948 9.10265 58.709 10.4539 58.7686 11.837C59.8654 11.5397 60.9929 11.3685 62.1286 11.3268C62.19 11.6998 62.275 12.0686 62.3834 12.4308C62.4838 12.6583 62.6383 12.6765 62.9114 12.2575C63.522 11.3743 64.7604 12.7404 63.3122 13.7969C63.9372 14.8786 64.7311 15.8533 65.6642 16.6841C66.8081 16.3152 67.793 15.5692 68.4578 14.5679C69.1222 13.5667 69.4279 12.3695 69.3238 11.1722Z" stroke="black" stroke-width="0.564931" stroke-linecap="round" stroke-linejoin="round"/>
<path d="M8.34375 41.9093L10.247 41.7178" stroke="black" stroke-width="0.564931" stroke-linecap="round" stroke-linejoin="round"/>
<path d="M13.6162 41.3727L15.5199 41.1816" stroke="black" stroke-width="0.564931" stroke-linecap="round" stroke-linejoin="round"/>
<path d="M11.5664 37.957L11.7579 39.8607" stroke="black" stroke-width="0.564931" stroke-linecap="round" stroke-linejoin="round"/>
<path d="M12.1045 43.2305L12.2955 45.1337" stroke="black" stroke-width="0.564931" stroke-linecap="round" stroke-linejoin="round"/>
<path d="M9.13574 39.2686L10.6199 40.4705" stroke="black" stroke-width="0.564931" stroke-linecap="round" stroke-linejoin="round"/>
<path d="M13.2432 42.6104L14.7278 43.8214" stroke="black" stroke-width="0.564931" stroke-linecap="round" stroke-linejoin="round"/>
<path d="M14.2083 38.749L13.0059 40.2337" stroke="black" stroke-width="0.564931" stroke-linecap="round" stroke-linejoin="round"/>
<path d="M10.8653 42.8564L9.6543 44.3411" stroke="black" stroke-width="0.564931" stroke-linecap="round" stroke-linejoin="round"/>
<path d="M52.4397 20.107L51.3357 17.4113C52.0106 16.408 52.337 15.2105 52.2645 14.0033C52.0643 10.8353 49.1224 8.3753 45.6165 8.47562C42.0371 8.57546 39.2143 11.3076 39.3141 14.5774C39.4135 18.0291 42.6424 20.5001 46.1699 20.2923C47.4335 20.2126 48.652 19.7923 49.696 19.0759L52.4397 20.107Z" stroke="black" stroke-width="0.564931" stroke-linecap="round" stroke-linejoin="round"/>
<path d="M31.4564 18.7313C31.288 18.8926 31.0755 19.0004 30.8459 19.0409C30.6163 19.0815 30.3798 19.0531 30.1663 18.9592C29.9529 18.8654 29.772 18.7104 29.6467 18.5137C29.5214 18.3171 29.4571 18.0877 29.4622 17.8546C29.4672 17.6215 29.5413 17.3951 29.675 17.2041C29.8087 17.013 29.996 16.8659 30.2134 16.7814C30.4307 16.6969 30.6682 16.6787 30.8959 16.7291C31.1235 16.7795 31.3311 16.8963 31.4923 17.0648C31.7078 17.2909 31.825 17.5932 31.8182 17.9055C31.8115 18.2178 31.6814 18.5147 31.4564 18.7313Z" stroke="black" stroke-width="0.564931" stroke-linecap="round" stroke-linejoin="round"/>
<path d="M80.1611 3.19531L80.5711 8.16811" stroke="black" stroke-width="0.564931" stroke-linecap="round" stroke-linejoin="round"/>
<path d="M82.8571 5.47168L77.8848 5.89072" stroke="black" stroke-width="0.564931" stroke-linecap="round" stroke-linejoin="round"/>
<path d="M12.3779 58.2377C12.0312 57.8129 11.5839 57.4813 11.0766 57.2729C10.1934 56.9537 9.32697 57.236 8.29785 57.5278C6.22425 58.1038 4.00136 59.3547 2.83496 58.4912" stroke="black" stroke-width="0.564931" stroke-linecap="round" stroke-linejoin="round"/>
<path d="M33.6423 58.967L33.542 55.2695" stroke="black" stroke-width="0.564931" stroke-linecap="round" stroke-linejoin="round"/>
</svg>
