<svg width="96" height="96" viewBox="0 0 96 96" fill="none" xmlns="http://www.w3.org/2000/svg">
<path d="M70.0945 52.3186C67.0004 49.0718 58.874 44.7451 54.9591 42.5947C53.6286 44.8469 48.7302 45.1445 46.0124 44.3184C44.5718 45.4303 43.4902 46.9413 42.902 48.6634C43.5849 49.6526 42.902 53.0122 42.6438 55.4674C43.0029 57.4603 43.5475 59.4154 44.2705 61.307C42.7825 59.6472 41.2244 58.0147 39.9659 56.7744C34.5899 53.5771 35.8081 54.2784 33.8646 53.1446C33.609 53.2742 33.3623 53.4206 33.1259 53.5824C31.948 54.3787 30.9876 55.4563 30.3314 56.7178C29.6753 57.9787 29.3443 59.3842 29.3684 60.8054C30.1273 61.4294 40.3787 68.8694 44.6718 71.6491C49.7516 74.9232 53.3084 73.1448 53.8283 68.5027C54.0908 66.0902 54.9659 54.7867 55.0139 54.1387C56.3511 55.5557 60.5411 58.907 62.5287 59.3918C62.3982 60.7627 61.0676 72.2909 60.9783 73.0354C63.4263 75.0893 67.9748 75.6322 70.0254 74.6861C70.5284 71.7101 71.7193 61.0186 71.8859 57.4219C71.9679 55.6306 71.9257 54.2386 70.0945 52.3186Z" fill="#09AFF4"/>
<path d="M69.2138 15.0538C68.3498 15.2266 68.2538 17.5498 68.2471 18.4374C69.2239 18.322 70.2146 18.4541 71.1271 18.8214C70.6456 16.5495 69.8796 14.9718 69.2138 15.0538Z" fill="#09AFF4"/>
<path d="M71.6128 22.7236C70.8194 23.299 69.8958 23.6687 68.9248 23.7998C69.1403 24.6408 69.8061 26.8996 70.6667 26.8459C71.3291 26.7638 71.6858 25.0492 71.6128 22.7236Z" fill="#09AFF4"/>
<path d="M64.8544 19.6416L59.8111 20.2618C59.3368 21.1008 59.4751 22.8154 60.0208 23.7274C60.4048 23.4446 61.2688 23.3626 61.9725 23.2896C62.5562 23.2349 62.6748 23.4173 62.766 23.7456C62.7842 23.8094 62.7933 23.8733 62.8116 23.9462C63.2397 23.6909 64.1272 23.3909 64.4532 23.5541L65.3172 23.4446C64.5607 22.6968 64.3072 20.5992 64.8544 19.6416Z" fill="#09AFF4"/>
<path d="M37.258 80.2064L34.5312 78.2912C34.225 78.0771 34.0164 77.7502 33.9513 77.3825C33.8861 77.0144 33.9698 76.6356 34.1839 76.3294C34.398 76.0236 34.7248 75.8149 35.0927 75.7496C35.4606 75.6848 35.8393 75.7683 36.1454 75.9824L36.5649 76.2742L36.8568 75.8547C37.0708 75.5489 37.3977 75.3401 37.7654 75.2753C38.1331 75.2105 38.5116 75.294 38.8176 75.5081C39.1235 75.7222 39.3319 76.0491 39.3969 76.4168C39.4619 76.7845 39.3782 77.1632 39.1641 77.4689L37.258 80.2064Z" fill="#09AFF4"/>
<path d="M26.8783 26.8835C28.0871 26.8835 29.0671 25.9035 29.0671 24.6947C29.0671 23.4858 28.0871 22.5059 26.8783 22.5059C25.6694 22.5059 24.6895 23.4858 24.6895 24.6947C24.6895 25.9035 25.6694 26.8835 26.8783 26.8835Z" fill="#E9E9E9"/>
<path d="M67.1617 75.1278C65.3032 75.0822 63.4854 74.5744 61.8721 73.6504C61.3888 75.1384 60.4768 76.1219 60.1484 76.8606C61.5712 79.852 67.2164 84.8766 70.4814 86.8446C70.2841 81.5123 66.976 79.0317 67.1617 75.1278Z" fill="#E9E9E9"/>
<path d="M31.384 52.0723C31.8491 52.3823 32.3781 52.9934 33.1168 53.5862C32.1723 54.2342 31.3653 55.0622 30.7424 56.0231C30.1194 56.9846 29.6927 58.0593 29.487 59.1859C26.8149 59.5415 23.9238 61.1375 19.791 60.563C21.1878 58.0367 28.2011 52.9569 31.384 52.0723Z" fill="#E9E9E9"/>
<path d="M43.4213 58.7763C43.6584 59.5788 43.9412 60.427 44.2695 61.3116C42.7815 59.6609 41.2234 58.0193 39.9648 56.7607C41.4149 57.618 42.6917 58.3683 43.4213 58.7763Z" fill="#E9E9E9"/>
<path d="M55.0054 54.1436C54.9233 55.1376 54.8412 56.2503 54.75 57.4076C55.361 57.5626 59.6839 58.6935 61.7815 59.2224C59.3172 57.8223 57.0406 56.1159 55.0054 54.1436Z" fill="#E9E9E9"/>
<path d="M54.8311 39.4863C55.2597 40.7996 55.7623 42.0875 56.3358 43.3441C55.889 43.0978 55.433 42.8516 54.9587 42.5963C54.9405 41.4289 54.8949 40.3983 54.8311 39.4863Z" fill="#E9E9E9"/>
<path d="M33.7368 47.1572C33.3528 47.823 33.2717 48.434 33.5448 48.7892C33.8275 49.1449 34.3382 49.2817 35.3779 48.9625C34.73 48.4609 34.1746 47.8499 33.7368 47.1572Z" fill="#E9E9E9"/>
<path d="M40.2485 44.6492C40.3512 44.8247 40.3866 45.0316 40.348 45.2313C40.3094 45.431 40.1995 45.6099 40.0387 45.7344C39.4459 45.1508 38.8987 44.6036 38.4336 44.1024C39.4834 43.9647 39.9302 44.2642 40.2485 44.6492Z" fill="#E9E9E9"/>
<path d="M42.8303 36.6875C42.4043 37.5836 41.9325 38.4573 41.4167 39.3049C40.7054 38.5849 40.0761 37.9825 39.6475 37.6249C40.9151 37.2438 42.1454 36.879 42.8303 36.6875Z" fill="#E9E9E9"/>
<path d="M57.7498 31.4424C56.8651 31.6248 56.2176 31.9987 56.245 32.3453C56.245 32.8545 57.8232 33.0043 57.8866 33.011C57.8592 32.6827 57.8045 32.099 57.7498 31.4424Z" fill="#E9E9E9"/>
<path d="M64.6812 31.8171C64.6634 32.1272 64.0428 32.4829 63.0213 32.7383C62.9849 32.4191 62.8572 31.7715 62.7295 31.124C64.1249 31.2243 64.6999 31.4979 64.6812 31.8171Z" fill="#E9E9E9"/>
<path d="M64.5896 27.987C64.2349 28.2123 63.8374 28.3614 63.4222 28.4248C62.7291 28.5342 62.2549 27.9505 63.2672 27.3577C62.5285 27.5017 61.9357 26.8926 63.0118 26.2086C62.925 26.2075 62.8386 26.1921 62.7565 26.163C62.5376 26.391 62.1181 26.2177 61.7168 24.6582C61.8867 25.3093 61.893 25.9923 61.735 26.6464C61.7725 27.6234 62.0413 28.5775 62.5194 29.4304C62.5381 29.473 62.5626 29.5129 62.5923 29.5489C63.3853 29.3658 64.147 29.0678 64.8541 28.6643C64.7446 28.4474 64.6558 28.2206 64.5896 27.987Z" fill="#E9E9E9"/>
<path d="M56.2095 18.9852C57.7599 18.4197 57.0759 16.5501 55.9724 16.1671C57.085 15.6108 56.7476 13.6864 55.3522 13.7594C56.1365 12.7106 55.5072 11.2423 53.893 11.4703C54.1028 10.1388 53.1908 9.26228 51.7498 9.87428C51.7863 8.3786 49.9738 7.73108 49.1688 8.73428C48.8328 7.25684 47.1898 6.71828 45.9495 8.15828C45.6135 6.65348 43.2226 6.60788 43.0037 8.1218C41.9914 6.8258 39.7661 7.56548 39.9212 9.04292C38.544 7.62932 36.6744 9.17972 36.8012 10.7229C35.3693 9.92036 34.0469 11.8994 34.6412 13.1853C32.8263 13.4498 32.4332 15.2013 33.6015 16.2573C31.896 16.8592 32.1423 18.5191 33.2549 19.2852C31.9508 20.1789 32.27 21.9573 33.8204 22.1944C32.7077 23.4424 33.8933 25.4776 35.4164 25.1858C34.5682 26.5994 35.7264 28.1589 37.2404 27.5378C37.1108 27.8991 37.118 28.2954 37.2608 28.6518C37.4035 29.0081 37.6718 29.2998 38.0151 29.4717C39.1004 29.0796 41.6813 28.1037 41.6813 28.1037C44.6544 26.9455 45.3658 24.6928 45.9404 22.349C44.2896 21.821 45.0101 20.1693 45.84 20.8077C46.6335 21.4188 46.3781 20.598 46.296 19.7224C47.3562 19.412 48.4488 19.2254 49.5519 19.1661C50.9026 23.2332 50.6727 25.2199 49.0292 25.1455C48.2391 25.0327 47.482 24.7547 46.8068 24.3295C47.0336 24.8986 47.368 25.4187 47.7917 25.8612C47.7917 26.8082 48.4608 28.0082 49.8802 28.7983L50.3909 29.081C50.6372 29.2178 50.9108 29.3728 51.1935 29.5461C51.5232 29.4613 51.8084 29.2533 51.9898 28.965C52.1712 28.6767 52.2356 28.3299 52.1693 27.9957C52.4549 28.1831 52.7919 28.2762 53.1327 28.262C53.474 28.2478 53.8018 28.127 54.0711 27.9165C54.3399 27.7061 54.5357 27.4166 54.6312 27.0889C54.7272 26.7612 54.7176 26.4117 54.6044 26.0896C56.1912 26.0714 56.401 24.3204 55.5528 23.4813C56.8935 23.1621 56.8388 21.8306 55.8538 21.2925C57.0941 20.9004 57.158 19.5232 56.2095 18.9852Z" fill="#E9E9E9"/>
<path d="M61.4706 68.7715L53.4541 70.1851" stroke="black" stroke-width="0.564931" stroke-linecap="round" stroke-linejoin="round"/>
<path d="M70.1895 26.6641L77.1298 66.0077L70.992 67.093" stroke="black" stroke-width="0.564931" stroke-linecap="round" stroke-linejoin="round"/>
<path d="M55.2598 24.0462L58.1782 23.5264" stroke="black" stroke-width="0.564931" stroke-linecap="round" stroke-linejoin="round"/>
<path d="M26.6237 35.8113L25.4746 29.2996L35.7483 27.4854" stroke="black" stroke-width="0.564931" stroke-linecap="round" stroke-linejoin="round"/>
<path d="M29.6141 52.7837L27.7354 42.1133" stroke="black" stroke-width="0.564931" stroke-linecap="round" stroke-linejoin="round"/>
<path d="M44.7802 71.7172L33.3072 73.7419L31.2734 62.2324" stroke="black" stroke-width="0.564931" stroke-linecap="round" stroke-linejoin="round"/>
<path d="M32.9552 14.8549L24.9362 16.2675C24.1211 16.4104 23.3421 16.7125 22.6438 17.1565C21.9454 17.6005 21.3414 18.1778 20.8663 18.8554C20.3912 19.5329 20.0542 20.2975 19.8747 21.1053C19.6951 21.9132 19.6765 22.7485 19.8199 23.5635V23.5726L25.4479 55.3606M85.8213 88.9918L72.6429 14.2558C72.4999 13.441 72.198 12.6624 71.7535 11.9646C71.3095 11.2667 70.7321 10.6633 70.0543 10.1889C69.3765 9.71455 68.6119 9.3785 67.8041 9.19999C66.9967 9.02148 66.1615 9.004 65.3469 9.14863L53.9517 11.156L85.8213 88.9918ZM31.4023 88.9918L26.2655 59.9787L31.4023 88.9918Z" stroke="black" stroke-width="0.564931" stroke-linecap="round" stroke-linejoin="round"/>
<path d="M84.3614 32.7755C85.6406 32.7755 86.6779 31.7384 86.6779 30.4591C86.6779 29.1797 85.6406 28.1426 84.3614 28.1426C83.0822 28.1426 82.0449 29.1797 82.0449 30.4591C82.0449 31.7384 83.0822 32.7755 84.3614 32.7755Z" stroke="black" stroke-width="0.564931" stroke-linecap="round" stroke-linejoin="round"/>
<path d="M91.2842 37.5353C92.5634 37.5353 93.6007 36.4982 93.6007 35.2188C93.6007 33.9395 92.5634 32.9023 91.2842 32.9023C90.005 32.9023 88.9678 33.9395 88.9678 35.2188C88.9678 36.4982 90.005 37.5353 91.2842 37.5353Z" stroke="black" stroke-width="0.564931" stroke-linecap="round" stroke-linejoin="round"/>
<path d="M83.5039 38.9487L92.1223 26.6367" stroke="black" stroke-width="0.564931" stroke-linecap="round" stroke-linejoin="round"/>
<path d="M92.3038 13.6593C92.0734 13.4938 91.7873 13.4259 91.507 13.4703C91.2272 13.5147 90.9761 13.6678 90.8081 13.8965L90.5801 14.2065C90.5801 14.2065 90.2441 13.9694 90.2336 13.9603C89.9979 13.8073 89.7113 13.7531 89.4358 13.8095C89.1603 13.8659 88.9179 14.0283 88.7614 14.2617C88.6044 14.4951 88.5454 14.7807 88.5977 15.057C88.6496 15.3333 88.808 15.5782 89.0388 15.7387L91.1091 17.1888L92.5592 15.1185C92.7137 14.8895 92.7732 14.6095 92.7257 14.3375C92.6782 14.0654 92.527 13.8223 92.3038 13.6593Z" stroke="black" stroke-width="0.564931" stroke-linecap="round" stroke-linejoin="round"/>
<path d="M46.7147 77.4349C46.9147 77.0183 46.9785 76.5493 46.8971 76.0943C46.8541 75.5677 46.6529 75.0666 46.3198 74.6567C45.9867 74.2468 45.5373 73.9468 45.0308 73.797C44.5243 73.6472 43.9842 73.654 43.4816 73.8167C42.9791 73.9794 42.5374 74.29 42.2148 74.7085C41.8922 75.1266 41.7037 75.633 41.6741 76.1605C41.6444 76.6876 41.775 77.2117 42.0487 77.6634C42.3224 78.1156 42.7264 78.4741 43.2076 78.692C43.6888 78.91 44.2246 78.9772 44.7448 78.885C45.2738 78.7919 45.7646 78.548 46.1584 78.1828L47.3075 78.429L46.7147 77.4349Z" stroke="black" stroke-width="0.564931" stroke-linecap="round" stroke-linejoin="round"/>
<path d="M73.7918 74.2155L75.78 71.899L78.4339 73.3947L77.604 68.707L72.9619 69.5278L73.7918 74.2155Z" stroke="black" stroke-width="0.564931" stroke-linecap="round" stroke-linejoin="round"/>
<path d="M30.3076 24.0926L33.3752 23.5518" stroke="black" stroke-width="0.564931" stroke-linecap="round" stroke-linejoin="round"/>
<path d="M10.1888 57.7273C10.8184 57.7273 11.3288 57.217 11.3288 56.5873C11.3288 55.9575 10.8184 55.4473 10.1888 55.4473C9.55921 55.4473 9.04883 55.9575 9.04883 56.5873C9.04883 57.217 9.55921 57.7273 10.1888 57.7273Z" stroke="black" stroke-width="0.564931" stroke-linecap="round" stroke-linejoin="round"/>
<path d="M16.9925 56.5232C17.6222 56.5232 18.1325 56.0129 18.1325 55.3832C18.1325 54.7534 17.6222 54.2432 16.9925 54.2432C16.3629 54.2432 15.8525 54.7534 15.8525 55.3832C15.8525 56.0129 16.3629 56.5232 16.9925 56.5232Z" stroke="black" stroke-width="0.564931" stroke-linecap="round" stroke-linejoin="round"/>
<path d="M11.3018 56.3865L15.8709 55.584" stroke="black" stroke-width="0.564931" stroke-linecap="round" stroke-linejoin="round"/>
<path d="M2.40039 46.1897L4.88103 45.752L9.68727 55.5651" stroke="black" stroke-width="0.564931" stroke-linecap="round" stroke-linejoin="round"/>
<path d="M8.87612 53.9143L17.4124 51.4793L18.37 46.8555L6.4502 48.9622" stroke="black" stroke-width="0.564931" stroke-linecap="round" stroke-linejoin="round"/>
<path d="M10.627 26.792L11.6119 32.3826" stroke="black" stroke-width="0.564931" stroke-linecap="round" stroke-linejoin="round"/>
<path d="M13.9197 29.0996L8.3291 30.0846" stroke="black" stroke-width="0.564931" stroke-linecap="round" stroke-linejoin="round"/>
<path d="M87.709 48.1699L89.4327 57.983" stroke="black" stroke-width="0.564931" stroke-linecap="round" stroke-linejoin="round"/>
<path d="M93.4814 52.2188L83.6592 53.9424" stroke="black" stroke-width="0.564931" stroke-linecap="round" stroke-linejoin="round"/>
<path d="M63.0203 32.729C62.9473 32.0541 62.4366 29.9109 62.5187 29.417" stroke="black" stroke-width="0.564931" stroke-linecap="round" stroke-linejoin="round"/>
<path d="M61.7441 26.7275C61.8233 27.7165 62.1123 28.6773 62.5923 29.5456C63.3867 29.3666 64.1489 29.0683 64.8541 28.661C64.7432 28.4487 64.6549 28.2256 64.5896 27.9952" stroke="black" stroke-width="0.564931" stroke-linecap="round" stroke-linejoin="round"/>
<path d="M71.6207 22.7247C71.6937 25.0503 71.3289 26.7668 70.6722 26.8469C69.8337 26.9496 68.83 24.3936 68.4287 21.1378C68.0274 17.8819 68.3831 15.1565 69.2222 15.0547C69.8879 14.9736 70.654 16.5504 71.1374 18.8213" stroke="black" stroke-width="0.564931" stroke-linecap="round" stroke-linejoin="round"/>
<path d="M65.3197 23.4456C64.5627 22.6978 64.3074 20.6002 64.8546 19.6426" stroke="black" stroke-width="0.564931" stroke-linecap="round" stroke-linejoin="round"/>
<path d="M60.0213 23.7273C59.4741 22.8153 59.3373 21.1008 59.8115 20.2617" stroke="black" stroke-width="0.564931" stroke-linecap="round" stroke-linejoin="round"/>
<path d="M68.2568 18.4381C70.5642 18.2101 72.5524 19.1581 72.7256 20.6178C72.8989 22.0774 71.2117 23.4723 68.9135 23.8006" stroke="black" stroke-width="0.564931" stroke-linecap="round" stroke-linejoin="round"/>
<path d="M64.4531 23.5538L65.3195 23.4443L70.2717 26.7184" stroke="black" stroke-width="0.564931" stroke-linecap="round" stroke-linejoin="round"/>
<path d="M68.8671 15.2734L64.8543 19.6414L59.4097 20.3072C57.0203 20.599 57.2209 24.1923 59.6377 24.1285" stroke="black" stroke-width="0.564931" stroke-linecap="round" stroke-linejoin="round"/>
<path d="M57.7498 31.4426C56.856 31.625 56.2176 31.9989 56.245 32.3363C56.2815 32.7832 57.4306 33.1816 60.5861 33.0477C62.9938 32.9455 64.6565 32.3277 64.681 31.8074C64.6954 31.4968 64.1155 31.2146 62.7293 31.1143" stroke="black" stroke-width="0.564931" stroke-linecap="round" stroke-linejoin="round"/>
<path d="M40.0384 45.7434C40.1996 45.6191 40.3099 45.4403 40.3485 45.2404C40.3871 45.0406 40.3514 44.8335 40.2481 44.6581C39.8281 43.9981 38.3497 43.6885 36.0803 44.9773C33.9812 46.1692 32.9574 48.0464 33.5449 48.7986C33.8209 49.1524 34.3384 49.2911 35.378 48.9719" stroke="black" stroke-width="0.564931" stroke-linecap="round" stroke-linejoin="round"/>
<path d="M38.4238 44.1016C39.4909 45.2507 40.9616 46.6254 42.5369 48.1417C42.7898 48.4052 42.9795 48.723 43.0916 49.0705C43.2038 49.418 43.2355 49.7867 43.1845 50.1481C43.1297 50.9507 42.619 55.5836 42.5369 56.2403C42.4275 57.0606 41.4809 57.4984 41.5429 51.5161" stroke="black" stroke-width="0.564931" stroke-linecap="round" stroke-linejoin="round"/>
<path d="M33.7373 47.1475C34.1988 47.9111 34.8165 48.5683 35.5499 49.0766C36.2834 49.5844 37.1159 49.9319 37.993 50.0956" stroke="black" stroke-width="0.564931" stroke-linecap="round" stroke-linejoin="round"/>
<path d="M38.1604 49.665C38.1056 49.8383 37.8138 50.5223 37.7764 50.625" stroke="black" stroke-width="0.564931" stroke-linecap="round" stroke-linejoin="round"/>
<path d="M36.6098 49.6836C36.5459 50.4223 36.701 51.343 37.4032 51.8086C38.2696 52.3846 38.6435 52.1095 39.5373 50.1943" stroke="black" stroke-width="0.564931" stroke-linecap="round" stroke-linejoin="round"/>
<path d="M38.4707 51.9261C39.4921 52.528 39.9481 52.3274 40.8145 50.3027" stroke="black" stroke-width="0.564931" stroke-linecap="round" stroke-linejoin="round"/>
<path d="M39.7471 52.0726C40.6773 52.6006 41.2245 52.4921 42.0909 50.3672" stroke="black" stroke-width="0.564931" stroke-linecap="round" stroke-linejoin="round"/>
<path d="M39.2646 48.9167C40.2455 48.9052 41.2262 48.9532 42.2013 49.0607" stroke="black" stroke-width="0.564931" stroke-linecap="round" stroke-linejoin="round"/>
<path d="M33.9736 37.4258C35.4511 38.9757 39.4183 43.6639 40.2482 44.6397" stroke="black" stroke-width="0.564931" stroke-linecap="round" stroke-linejoin="round"/>
<path d="M35.3701 38.9747C36.346 38.6281 41.1613 37.1507 42.8303 36.6855C42.4016 37.5793 41.9274 38.4548 41.4167 39.303" stroke="black" stroke-width="0.564931" stroke-linecap="round" stroke-linejoin="round"/>
<path d="M42.6377 55.4287C43.0606 57.726 43.7144 59.9748 44.5894 62.141" stroke="black" stroke-width="0.564931" stroke-linecap="round" stroke-linejoin="round"/>
<path d="M39.6484 37.6357C40.9617 38.721 44.099 42.0863 46.0142 44.3207C44.574 45.4215 43.4944 46.9265 42.9134 48.6436" stroke="black" stroke-width="0.564931" stroke-linecap="round" stroke-linejoin="round"/>
<path d="M31.402 46.4721C31.2196 44.5569 34.9132 41.1825 37.9137 41.9121" stroke="black" stroke-width="0.564931" stroke-linecap="round" stroke-linejoin="round"/>
<path d="M57.8954 33.011C57.8589 32.4091 57.6856 30.9681 57.6583 29.7551C57.6127 27.7305 57.7576 27.2284 58.2784 26.2511C58.7508 25.357 59.3263 24.5214 59.993 23.7614C60.353 23.447 61.2607 23.3625 61.9903 23.2963C62.574 23.2435 62.6872 23.4225 62.7837 23.7523C62.9272 24.3954 62.9858 25.0547 62.957 25.7131C62.9378 26.2694 62.3186 26.926 61.744 24.6571C62.0359 26.0159 61.8991 27.2011 60.8229 27.9211" stroke="black" stroke-width="0.564931" stroke-linecap="round" stroke-linejoin="round"/>
<path d="M64.5808 25.6611C65.0641 25.8344 65.0689 26.4978 64.5625 26.8376C64.1704 27.0971 63.7293 27.2739 63.2665 27.3575C62.5264 27.4957 61.935 26.8923 63.0112 26.2083" stroke="black" stroke-width="0.564931" stroke-linecap="round" stroke-linejoin="round"/>
<path d="M64.5607 26.8379C64.6677 26.8897 64.758 26.97 64.8223 27.0699C64.8861 27.1698 64.9216 27.2854 64.9245 27.4041C64.9274 27.5228 64.8976 27.64 64.8381 27.7428C64.7786 27.8457 64.6922 27.9301 64.588 27.987C64.2338 28.2129 63.8364 28.362 63.4207 28.4248C62.7271 28.5323 62.2533 27.9505 63.2656 27.3577" stroke="black" stroke-width="0.564931" stroke-linecap="round" stroke-linejoin="round"/>
<path d="M62.8477 23.9365C63.2605 23.6906 63.7265 23.5473 64.2065 23.5189C64.8809 23.479 64.9361 24.3829 64.2886 24.6406C63.8672 24.831 63.4174 24.9512 62.9571 24.9963" stroke="black" stroke-width="0.564931" stroke-linecap="round" stroke-linejoin="round"/>
<path d="M64.4984 24.5117C64.9818 24.7124 64.9818 25.4055 64.4528 25.752C64.1883 25.9253 63.3584 26.328 62.793 26.1624" stroke="black" stroke-width="0.564931" stroke-linecap="round" stroke-linejoin="round"/>
<path d="M51.6846 31.3066C53.1985 32.7202 54.831 33.9606 54.9678 42.5972C71.6939 51.6351 72.0678 53.6142 71.8945 57.4263C71.7303 61.0378 70.5083 71.9636 70.0225 74.6814C67.9796 75.6298 63.4378 75.0826 60.9754 73.0306C61.2855 70.2946 62.4346 60.4177 62.5258 59.3986C60.9846 59.0247 55.4487 57.5746 54.7556 57.4014" stroke="black" stroke-width="0.564931" stroke-linecap="round" stroke-linejoin="round"/>
<path d="M61.3525 69.875C62.9941 71.6899 67.7913 72.6384 70.4725 71.5713" stroke="black" stroke-width="0.564931" stroke-linecap="round" stroke-linejoin="round"/>
<path d="M55.2863 50.6953C55.0674 53.2393 54.1707 65.378 53.8179 68.5067C53.2943 73.1483 49.7379 74.9339 44.6615 71.6531C40.3808 68.8859 30.3978 61.6211 29.3672 60.8094C29.3431 59.2432 29.7496 57.7004 30.5425 56.3492C31.3354 54.9985 32.4842 53.8912 33.8634 53.1486C36.6632 54.772 41.6519 57.7907 43.4211 58.7646" stroke="black" stroke-width="0.564931" stroke-linecap="round" stroke-linejoin="round"/>
<path d="M31.6575 62.5056C31.6301 59.7514 33.6365 55.7477 36.5367 54.7354" stroke="black" stroke-width="0.564931" stroke-linecap="round" stroke-linejoin="round"/>
<path d="M46.0127 44.32C48.9493 45.2503 53.7282 44.6757 54.9685 42.6055" stroke="black" stroke-width="0.564931" stroke-linecap="round" stroke-linejoin="round"/>
<path d="M47.2986 44.6113C43.9059 49.6912 44.9821 57.6347 46.6875 66.0707C41.3797 62.6867 34.6126 58.6105 33.2168 57.6256" stroke="black" stroke-width="0.564931" stroke-linecap="round" stroke-linejoin="round"/>
<path d="M61.8731 73.6602C61.3989 75.1482 60.4777 76.1317 60.1494 76.8704C61.5721 79.8526 67.2265 84.8778 70.4824 86.8477C70.2726 81.4237 66.8526 78.6944 67.1627 75.1467" stroke="black" stroke-width="0.564931" stroke-linecap="round" stroke-linejoin="round"/>
<path d="M33.1163 53.5872C32.3776 53.0035 31.8486 52.3924 31.3835 52.0732C28.2006 52.9579 21.1874 58.0377 19.792 60.5548C23.9234 61.1308 26.8235 59.5425 29.488 59.1777" stroke="black" stroke-width="0.564931" stroke-linecap="round" stroke-linejoin="round"/>
<path d="M64.6814 31.8164C64.7999 45.3961 64.5537 46.7924 63.5049 47.4572" stroke="black" stroke-width="0.564931" stroke-linecap="round" stroke-linejoin="round"/>
<path d="M56.2451 32.3457C56.619 34.4615 57.5037 40.2436 57.8138 41.6846" stroke="black" stroke-width="0.564931" stroke-linecap="round" stroke-linejoin="round"/>
<path d="M56.8105 35.7475C58.9705 36.6412 63.5411 36.4771 64.7085 34.9795" stroke="black" stroke-width="0.564931" stroke-linecap="round" stroke-linejoin="round"/>
<path d="M55.0137 54.1436C57.047 56.1183 59.3241 57.8252 61.7898 59.2234" stroke="black" stroke-width="0.564931" stroke-linecap="round" stroke-linejoin="round"/>
<path d="M39.9658 56.7598C41.2138 58.0183 42.7839 59.6508 44.2705 61.3106" stroke="black" stroke-width="0.564931" stroke-linecap="round" stroke-linejoin="round"/>
<path d="M54.8311 39.4775C55.2583 40.7913 55.7603 42.0794 56.3358 43.3353" stroke="black" stroke-width="0.564931" stroke-linecap="round" stroke-linejoin="round"/>
<path d="M47.7826 24.8147C47.4507 24.6697 47.1277 24.5049 46.8154 24.3213C47.0453 24.8872 47.3777 25.4057 47.7961 25.8506" stroke="black" stroke-width="0.564931" stroke-linecap="round" stroke-linejoin="round"/>
<path d="M33.4958 48.7278C30.2606 45.326 28.6651 43.2592 27.0695 41.283C24.5159 38.1184 26.0385 35.5182 29.3495 33.376C32.8055 31.1406 37.7015 29.6612 41.6889 28.1046C44.6611 26.944 45.3643 24.6937 45.9571 22.3499C44.3063 21.8219 45.0249 20.1731 45.8567 20.8086C46.6483 21.4129 46.3847 20.5897 46.3127 19.7233C47.3741 19.4181 48.466 19.2315 49.5686 19.167C51.2049 24.1168 50.5132 25.9897 47.7815 24.8132C47.6054 27.1172 48.7372 28.1584 49.8878 28.7972C51.5567 29.7275 54.3566 31.2414 56.6275 34.634" stroke="black" stroke-width="0.564931" stroke-linecap="round" stroke-linejoin="round"/>
<path d="M41.1787 28.3057C43.9421 29.2177 47.7067 31.598 49.6786 33.1666C50.1158 31.8469 50.3582 30.4706 50.3986 29.0809" stroke="black" stroke-width="0.564931" stroke-linecap="round" stroke-linejoin="round"/>
<path d="M38.0239 29.4718C37.6817 29.2992 37.4143 29.0077 37.2717 28.6521C37.1291 28.2964 37.121 27.9009 37.2492 27.5398C35.7352 28.1599 34.577 26.6095 35.4252 25.1878C33.9021 25.4796 32.7165 23.4458 33.8292 22.2055C32.2788 21.9593 31.9572 20.1809 33.2637 19.2871C32.1511 18.5191 31.9048 16.8612 33.6103 16.2593C32.4429 15.2033 32.8351 13.4503 34.65 13.1873C34.0572 11.9014 35.3796 9.92328 36.81 10.7249C36.6823 9.19272 38.5519 7.6332 39.93 9.04488C39.7749 7.56744 42.0002 6.82871 43.0125 8.12375C43.2314 6.60983 45.6208 6.65543 45.9583 8.16024C47.1986 6.72023 48.8383 7.25736 49.1776 8.73624C49.9802 7.73304 51.7951 8.38056 51.7586 9.87624C53.1986 9.2652 54.1106 10.1407 53.9018 11.4722C55.516 11.2442 56.1453 12.7126 55.361 13.7614C56.7655 13.6884 57.0938 15.6127 55.9812 16.169C57.0852 16.553 57.7687 18.4217 56.2183 18.9871C56.4429 19.1089 56.6244 19.2971 56.7381 19.5261C56.8519 19.755 56.8917 20.0135 56.8528 20.266C56.814 20.5186 56.6978 20.753 56.5207 20.9371C56.3436 21.1212 56.1136 21.246 55.8626 21.2945C56.8476 21.8326 56.9023 23.1665 55.5525 23.4833C56.4007 24.3223 56.1909 26.0753 54.604 26.0916C54.7173 26.4136 54.7269 26.7631 54.6314 27.0909C54.5354 27.4186 54.3396 27.708 54.0708 27.9185C53.8015 28.1289 53.4736 28.2497 53.1324 28.2639C52.7916 28.2781 52.4546 28.185 52.169 27.9977C52.2352 28.3319 52.1709 28.6787 51.9895 28.967C51.808 29.2553 51.5229 29.4632 51.1932 29.5481" stroke="black" stroke-width="0.564931" stroke-linecap="round" stroke-linejoin="round"/>
<path d="M37.2571 80.2083L34.5302 78.2931C34.224 78.079 34.0154 77.7522 33.9503 77.3845C33.8852 77.0163 33.9688 76.6376 34.1829 76.3314C34.397 76.0256 34.7239 75.8168 35.0917 75.7515C35.4596 75.6867 35.8383 75.7702 36.1444 75.9843L36.5639 76.2762L36.8558 75.8566C37.0699 75.5509 37.3967 75.3421 37.7644 75.2773C38.1322 75.2125 38.5106 75.296 38.8166 75.5101C39.1226 75.7242 39.331 76.051 39.3959 76.4187C39.4609 76.7864 39.3772 77.1651 39.1631 77.4709L37.2571 80.2083Z" stroke="black" stroke-width="0.564931" stroke-linejoin="round"/>
</svg>
