<svg width="151" height="152" viewBox="0 0 151 152" fill="none" xmlns="http://www.w3.org/2000/svg">
<path d="M98.3219 43.9829C96.8071 42.4762 94.7982 41.5687 92.6666 41.4283C90.5349 41.2878 88.4243 41.924 86.725 43.2191C85.0257 44.5141 83.8529 46.3805 83.4228 48.4733C82.9934 50.566 83.3354 52.7437 84.3869 54.6036C85.4603 53.9174 87.9498 51.928 87.821 52.8862C87.6778 53.845 85.4174 55.7771 85.4174 55.7771C85.4294 55.872 85.4339 55.9677 85.4317 56.0633C86.212 56.9571 87.1649 57.6845 88.233 58.2022C89.3011 58.7199 90.4618 59.0172 91.6474 59.0764C92.8323 59.1356 94.0179 58.9555 95.1319 58.5468C96.246 58.1382 97.2666 57.5094 98.1321 56.6979C98.9983 55.8864 99.692 54.9088 100.172 53.8234C100.652 52.7381 100.909 51.5672 100.926 50.3806C100.944 49.194 100.722 48.016 100.275 46.9168C99.8276 45.8177 99.1633 44.8198 98.3219 43.9829Z" fill="#09AFF4"/>
<path d="M78.1586 87.9005C77.0845 86.9168 75.8921 86.0709 74.6094 85.3817C67.3406 81.4159 59.8455 77.8794 52.1628 74.7904C51.9458 73.9882 51.7741 73.4473 51.7741 73.4473L43.6316 71.0859C43.6316 71.0859 34.0579 78.656 36.3907 85.4389C37.6787 89.2051 42.7729 94.2398 59.9596 98.189C58.2022 107.128 55.9526 115.963 53.2211 124.653C53.8877 123.209 57.6983 122.355 62.2065 122.86C67.0574 123.404 70.8356 125.164 70.6639 126.81L70.7204 126.881C71.7936 117.066 72.1606 107.186 71.8186 97.3175L86.5399 119.078C85.7114 117.906 87.9244 114.538 91.5565 111.47C95.2474 108.35 98.9978 106.733 99.9423 107.835L99.9996 107.864L78.1586 87.9005Z" fill="#09AFF4"/>
<path d="M133.554 82.5187C133.23 81.9877 132.756 81.5651 132.192 81.3038C131.627 81.0424 130.998 80.9543 130.384 81.0507C129.77 81.1471 129.197 81.4235 128.74 81.8446C128.283 82.2664 127.961 82.814 127.814 83.4181C127.668 84.0222 127.705 84.6564 127.919 85.2402C128.134 85.824 128.516 86.3316 129.019 86.6977C129.521 87.0638 130.121 87.2732 130.742 87.2981C131.364 87.3237 131.978 87.164 132.509 86.8401C132.862 86.6254 133.169 86.343 133.413 86.01C133.657 85.6763 133.831 85.2975 133.928 84.896C134.026 84.4945 134.043 84.078 133.978 83.6705C133.914 83.2622 133.77 82.8713 133.554 82.5187Z" fill="#E9E9E9"/>
<path d="M106.866 100.006C107.19 100.537 107.664 100.959 108.228 101.221C108.793 101.482 109.422 101.57 110.036 101.474C110.65 101.377 111.223 101.101 111.68 100.68C112.137 100.258 112.459 99.7103 112.606 99.1062C112.752 98.5021 112.715 97.8679 112.501 97.2842C112.286 96.7004 111.904 96.1927 111.401 95.8266C110.899 95.4606 110.299 95.2512 109.678 95.2263C109.056 95.2007 108.442 95.3604 107.911 95.6843C107.558 95.8989 107.251 96.1814 107.007 96.5151C106.763 96.848 106.589 97.2269 106.492 97.6284C106.394 98.0299 106.377 98.4464 106.442 98.8539C106.506 99.2622 106.65 99.6531 106.866 100.006Z" fill="#E9E9E9"/>
<path d="M126.6 32.0038C126.847 32.241 127.159 32.3994 127.497 32.4591C127.835 32.5186 128.182 32.4768 128.496 32.3387C128.81 32.2006 129.075 31.9725 129.26 31.6833C129.444 31.3941 129.538 31.0568 129.53 30.714C129.523 30.3713 129.414 30.0386 129.216 29.7579C129.02 29.4773 128.744 29.2614 128.424 29.1376C128.105 29.0137 127.755 28.9874 127.421 29.0622C127.086 29.1369 126.781 29.3092 126.545 29.5573C126.229 29.8898 126.058 30.3336 126.068 30.7918C126.078 31.2502 126.27 31.6858 126.6 32.0038Z" fill="#E9E9E9"/>
<path d="M20.876 33.6641C20.7338 33.8863 20.6582 34.1445 20.6582 34.4083C20.6582 34.672 20.7338 34.9303 20.876 35.1525C21.0121 35.3122 21.1844 35.4371 21.3786 35.5168C21.5728 35.5964 21.7832 35.6286 21.9923 35.6104L20.876 33.6641Z" fill="#E9E9E9"/>
<path d="M27.5879 30.3729C27.4653 30.1865 27.2882 30.0426 27.0807 29.9606C26.8733 29.8786 26.6456 29.8627 26.4287 29.9149C26.8151 30.5303 27.1872 31.16 27.5879 31.7746C27.7055 31.5597 27.767 31.3187 27.767 31.0738C27.767 30.8288 27.7055 30.5878 27.5879 30.3729Z" fill="#E9E9E9"/>
<path d="M100.025 107.848C99.3948 107.103 97.5057 107.576 95.2158 108.907L98.3501 112.183C99.9243 110.252 100.626 108.577 100.025 107.848Z" fill="#E9E9E9"/>
<path d="M88.8351 114.201C86.9174 116.391 85.9871 118.352 86.6605 119.153C87.3467 119.968 89.5364 119.325 92.0982 117.693L88.8351 114.201Z" fill="#E9E9E9"/>
<path d="M56.9372 39.0021C56.4628 38.5312 55.8398 38.2396 55.1744 38.177C54.5089 38.1143 53.8424 38.2845 53.2885 38.6586C52.2322 38.4214 51.1289 38.5113 50.1249 38.9162C49.8041 38.3798 49.3498 37.9358 48.8063 37.6273C48.2628 37.3189 47.6486 37.1566 47.0236 37.1563C46.3987 37.1559 45.7843 37.3177 45.2405 37.6256C44.6966 37.9334 44.2419 38.3771 43.9206 38.9132C43.5993 39.4492 43.4225 40.0594 43.4073 40.6841C43.3922 41.3089 43.5392 41.9269 43.8341 42.478C44.129 43.029 44.5617 43.4941 45.09 43.828C45.6182 44.1619 46.2241 44.3532 46.8483 44.3832C46.9762 45.5953 47.5165 46.7269 48.3788 47.5883C48.3788 47.5883 51.0981 50.8799 49.395 52.5393C49.9663 52.0929 50.4311 51.5248 50.7553 50.8764C51.0797 50.2279 51.2554 49.5153 51.2698 48.7904C51.2828 48.6482 51.2582 48.505 51.1982 48.3754C49.453 46.3868 51.2269 44.7696 51.9997 46.1571C52.3718 46.8297 52.6151 46.8297 52.7868 46.472C53.4451 44.6981 56.4506 42.2794 57.1797 45.4423V45.428C57.2953 46.0312 57.3481 46.6449 57.3371 47.2591C57.3371 46.9021 57.3515 45.7858 57.3515 44.7267C57.4686 44.0379 57.4492 43.3328 57.2942 42.6515C57.6697 42.0971 57.8396 41.4288 57.7743 40.7624C57.7092 40.0959 57.413 39.4732 56.9372 39.0021Z" fill="#E9E9E9"/>
<path d="M70.7179 126.853C70.8475 125.737 69.1437 124.577 66.539 123.765L65.9951 128.945C68.7 128.728 70.5899 127.955 70.7179 126.853Z" fill="#E9E9E9"/>
<path d="M53.145 124.891C53.0162 126.051 54.8774 127.281 57.6953 128.083L58.2979 122.76C55.3776 122.945 53.2881 123.732 53.145 124.891Z" fill="#E9E9E9"/>
<path d="M106.781 118.522C102.883 119.827 98.7989 120.489 94.6885 120.481L96.549 122.484C101.978 124.405 107.816 124.864 113.478 123.815C111.42 121.84 109.178 120.067 106.781 118.522Z" fill="#E9E9E9"/>
<path d="M66.5962 139.702C63.2121 137.206 60.112 134.346 57.3517 131.173L57.0195 134.046C57.8782 136.437 59.6386 141.388 66.2641 147.529C66.997 145.44 66.8968 142.493 66.5962 139.702Z" fill="#E9E9E9"/>
<path d="M56.0367 62.3838C55.8742 63.4917 55.6337 64.5869 55.3174 65.6611C55.8942 66.0886 56.5028 66.4713 57.138 66.8061C56.7945 65.332 56.4081 63.586 56.0367 62.3838Z" fill="#E9E9E9"/>
<path d="M52.416 51.4229C52.6879 52.1384 52.9433 52.8819 53.1888 53.7413C53.1595 53.2132 53.2891 52.6885 53.5609 52.2348C53.1264 52.0477 52.7363 51.7711 52.416 51.4229Z" fill="#E9E9E9"/>
<path d="M59.9862 98.2021L58.2402 106.718L61.5891 98.5607L59.9862 98.2021Z" fill="#E9E9E9"/>
<path d="M40.4678 57.5928L41.6971 62.0678L42.8269 59.4638C42.8269 59.4638 40.5996 57.6945 40.4678 57.5928Z" fill="#E9E9E9"/>
<path d="M72.8641 26.2367L65.752 24.3905L68.4282 14.102L72.6064 12.6279L75.5403 15.9618L72.8641 26.2367Z" fill="#E9E9E9"/>
<path d="M106.437 20.813C106.537 21.1867 106.523 21.5814 106.398 21.9471C106.273 22.3129 106.041 22.6334 105.734 22.868C105.427 23.1025 105.057 23.2407 104.671 23.265C104.285 23.2893 103.901 23.1986 103.566 23.0044C103.232 22.8102 102.963 22.5213 102.793 22.1741C102.623 21.8268 102.56 21.437 102.611 21.0539C102.662 20.6707 102.826 20.3114 103.082 20.0214C103.338 19.7314 103.674 19.5238 104.047 19.4248C104.548 19.293 105.081 19.3651 105.529 19.6253C105.977 19.8855 106.303 20.3125 106.437 20.813Z" stroke="black" stroke-width="0.564931" stroke-linecap="round" stroke-linejoin="round"/>
<path d="M112.576 24.3181C112.676 24.6918 112.662 25.0865 112.536 25.4523C112.411 25.8182 112.181 26.1388 111.873 26.3734C111.566 26.6081 111.196 26.7464 110.811 26.7708C110.424 26.7952 110.04 26.7046 109.706 26.5105C109.371 26.3164 109.102 26.0274 108.932 25.6803C108.762 25.3331 108.698 24.9432 108.75 24.56C108.801 24.1768 108.965 23.8175 109.22 23.5274C109.477 23.2374 109.813 23.0297 110.186 22.9306C110.687 22.7989 111.22 22.8709 111.668 23.1309C112.115 23.3909 112.442 23.8178 112.576 24.3181Z" stroke="black" stroke-width="0.564931" stroke-linecap="round" stroke-linejoin="round"/>
<path d="M104.435 28.4825L110.788 17.5635" stroke="black" stroke-width="0.564931" stroke-linecap="round" stroke-linejoin="round"/>
<path d="M133.554 82.5187C133.23 81.9877 132.756 81.5651 132.192 81.3038C131.627 81.0424 130.998 80.9543 130.384 81.0507C129.77 81.1471 129.197 81.4235 128.74 81.8446C128.283 82.2664 127.961 82.814 127.814 83.4181C127.668 84.0222 127.705 84.6564 127.919 85.2402C128.134 85.824 128.516 86.3316 129.019 86.6977C129.521 87.0638 130.121 87.2732 130.742 87.2981C131.364 87.3237 131.978 87.164 132.509 86.8401C132.862 86.6254 133.169 86.343 133.413 86.01C133.657 85.6763 133.831 85.2975 133.928 84.896C134.026 84.4945 134.043 84.078 133.978 83.6705C133.914 83.2622 133.77 82.8713 133.554 82.5187Z" stroke="black" stroke-width="0.564931" stroke-linecap="round" stroke-linejoin="round"/>
<path d="M106.865 100.005C107.189 100.536 107.663 100.958 108.228 101.22C108.792 101.481 109.421 101.569 110.035 101.473C110.649 101.376 111.222 101.1 111.679 100.679C112.136 100.257 112.458 99.7094 112.605 99.1053C112.751 98.5012 112.714 97.8669 112.5 97.2832C112.285 96.6994 111.903 96.1917 111.4 95.8257C110.898 95.4596 110.298 95.2502 109.677 95.2253C109.055 95.1997 108.441 95.3594 107.91 95.6833C107.557 95.898 107.25 96.1804 107.007 96.5141C106.762 96.8471 106.588 97.2259 106.491 97.6274C106.393 98.0289 106.376 98.4454 106.441 98.8529C106.505 99.2612 106.649 99.6521 106.865 100.005Z" stroke="black" stroke-width="0.564931" stroke-linecap="round" stroke-linejoin="round"/>
<path d="M128.245 85.9941L112.332 96.9131" stroke="black" stroke-width="0.564931" stroke-linecap="round" stroke-linejoin="round"/>
<path d="M130.406 81.0587L121.434 36.4684L127.801 30.7588" stroke="black" stroke-width="0.564931" stroke-linecap="round" stroke-linejoin="round"/>
<path d="M128.703 72.5585L97.1632 89.7739L80.2627 74.5908L123.551 47.0146L128.703 72.5585Z" stroke="black" stroke-width="0.564931" stroke-linecap="round" stroke-linejoin="round"/>
<path d="M126.599 32.0028C126.846 32.24 127.158 32.3984 127.496 32.4581C127.834 32.5177 128.181 32.4758 128.495 32.3377C128.809 32.1996 129.074 31.9716 129.259 31.6823C129.443 31.3931 129.537 31.0558 129.529 30.713C129.522 30.3703 129.413 30.0376 129.215 29.757C129.019 29.4763 128.743 29.2604 128.423 29.1366C128.104 29.0127 127.754 28.9865 127.42 29.0612C127.085 29.1359 126.78 29.3082 126.544 29.5563C126.228 29.8888 126.057 30.3326 126.067 30.7909C126.077 31.2492 126.269 31.6848 126.599 32.0028Z" stroke="black" stroke-width="0.564931" stroke-linecap="round" stroke-linejoin="round"/>
<path d="M80.9062 62.9391C81.2075 62.8397 86.4049 61.1132 89.2514 58.6328" stroke="black" stroke-width="0.564931" stroke-linecap="round" stroke-linejoin="round"/>
<path d="M87.7338 59.0923C87.709 58.6723 87.6472 58.2552 87.5508 57.8457" stroke="black" stroke-width="0.564931" stroke-linecap="round" stroke-linejoin="round"/>
<path d="M85.4309 56.0583C85.5597 56.2157 85.6983 56.3596 85.8459 56.5163C87.4337 58.0978 89.5624 59.0178 91.8025 59.0904C94.0427 59.163 96.2263 58.3827 97.9136 56.9072C99.6001 55.4317 100.664 53.371 100.89 51.1414C101.117 48.9117 100.489 46.6792 99.1323 44.895C97.7765 43.1107 95.7939 41.9076 93.5847 41.5287C91.3762 41.1498 89.1052 41.6235 87.2326 42.8538C85.3593 44.0842 84.0223 45.9796 83.4928 48.1572C82.9632 50.3349 83.2796 52.6324 84.3786 54.5857" stroke="black" stroke-width="0.564931" stroke-linecap="round" stroke-linejoin="round"/>
<path d="M41.7114 62.168L42.8134 59.4781L40.4678 57.5928" stroke="black" stroke-width="0.564931" stroke-linecap="round" stroke-linejoin="round"/>
<path d="M53.1911 53.8049L52.373 51.3945C52.7551 51.6981 53.1629 51.9678 53.5918 52.2005" stroke="black" stroke-width="0.564931" stroke-linecap="round" stroke-linejoin="round"/>
<path d="M54.8764 56.4304C52.4291 56.3875 49.8816 54.5986 47.707 52.5957" stroke="black" stroke-width="0.564931" stroke-linecap="round" stroke-linejoin="round"/>
<path d="M47.6936 52.5957L47.207 56.2158L51.6429 55.8437L54.5767 59.0638L54.8773 56.4304" stroke="black" stroke-width="0.564931" stroke-linecap="round" stroke-linejoin="round"/>
<path d="M26.4281 29.9141C26.645 29.8638 26.872 29.8807 27.0791 29.9625C27.2862 30.0443 27.4634 30.1871 27.5874 30.372C28.2058 31.2285 27.1867 32.9903 25.3412 34.307C23.4958 35.6236 21.4922 35.995 20.8903 35.1355C20.7483 34.9132 20.6729 34.655 20.6729 34.3913C20.6729 34.1275 20.7483 33.8693 20.8903 33.6471" stroke="black" stroke-width="0.564931" stroke-linecap="round" stroke-linejoin="round"/>
<path d="M82.796 59.2645C83.5545 58.7492 85.601 57.2895 85.415 55.7581C85.415 55.7581 87.6747 53.8261 87.8186 52.8679C87.9624 51.9098 85.415 53.9262 84.3537 54.6004C82.5715 55.7459 80.717 56.7738 78.8008 57.6774" stroke="black" stroke-width="0.564931" stroke-linecap="round" stroke-linejoin="round"/>
<path d="M56.0371 62.3828L57.1384 66.8051" stroke="black" stroke-width="0.564931" stroke-linecap="round" stroke-linejoin="round"/>
<path d="M57.3379 47.2574C57.3379 46.8996 57.3522 45.784 57.3522 44.725C57.4693 44.0361 57.4499 43.331 57.295 42.6498C57.6675 42.0947 57.8355 41.4274 57.7701 40.7621C57.7046 40.0968 57.41 39.475 56.9364 39.0031C56.4629 38.5312 55.8399 38.2387 55.1744 38.1757C54.509 38.1127 53.8422 38.283 53.2885 38.6576C52.2323 38.4197 51.1286 38.5096 50.1249 38.9152C49.8041 38.3788 49.3498 37.9348 48.8063 37.6264C48.2628 37.3179 47.6486 37.1556 47.0236 37.1553C46.3987 37.155 45.7843 37.3167 45.2405 37.6245C44.6966 37.9325 44.2419 38.3761 43.9206 38.9121C43.5993 39.4482 43.4225 40.0583 43.4073 40.6832C43.3922 41.3079 43.5392 41.9259 43.8341 42.4769C44.129 43.0279 44.5617 43.4931 45.09 43.827C45.6182 44.1609 46.2241 44.3522 46.8483 44.3822C46.9761 45.5944 47.5164 46.7259 48.3788 47.5873C48.3788 47.5873 51.2201 51.0266 49.2752 52.6468" stroke="black" stroke-width="0.564931" stroke-linecap="round" stroke-linejoin="round"/>
<path d="M92.0976 117.692C89.5365 119.324 87.3348 119.965 86.6449 119.152C85.289 117.552 89.8409 112.976 91.6825 111.421C93.415 109.959 98.6809 106.252 100.025 107.847C100.628 108.562 99.9252 110.265 98.351 112.197" stroke="black" stroke-width="0.564931" stroke-linecap="round" stroke-linejoin="round"/>
<path d="M106.78 118.522C102.882 119.828 98.7979 120.489 94.6875 120.481" stroke="black" stroke-width="0.564931" stroke-linecap="round" stroke-linejoin="round"/>
<path d="M95.2172 108.92L98.8666 112.727C100.352 114.431 102.118 115.869 104.09 116.977C107.533 118.799 110.698 121.102 113.492 123.817C107.829 124.866 101.991 124.407 96.5625 122.486L88.835 114.2" stroke="black" stroke-width="0.564931" stroke-linecap="round" stroke-linejoin="round"/>
<path d="M65.997 128.939C68.7019 128.725 70.5985 127.952 70.7198 126.85C70.9601 124.656 65.3138 123.299 62.8627 122.97C59.9138 122.576 53.4058 122.555 53.1459 124.89C53.0171 126.049 54.8784 127.28 57.6963 128.081" stroke="black" stroke-width="0.564931" stroke-linecap="round" stroke-linejoin="round"/>
<path d="M57.3525 131.172C60.1021 134.355 63.2033 137.216 66.5971 139.701" stroke="black" stroke-width="0.564931" stroke-linecap="round" stroke-linejoin="round"/>
<path d="M58.3086 122.8L57.0205 134.034C57.8792 136.424 59.6395 141.375 66.265 147.517C67.3263 144.439 66.61 139.394 66.1076 136.17C65.7553 133.945 65.6976 131.684 65.9359 129.443C66.0006 128.847 65.899 129.842 66.5347 123.781" stroke="black" stroke-width="0.564931" stroke-linecap="round" stroke-linejoin="round"/>
<path d="M57.8975 107.789L61.5612 98.5163L59.9448 98.1562" stroke="black" stroke-width="0.564931" stroke-linecap="round" stroke-linejoin="round"/>
<path d="M53.2268 124.586C55.984 115.916 58.2265 107.091 59.9427 98.1573C42.7545 94.2133 37.6648 89.1575 36.3874 85.4087C34.0523 78.6295 43.6283 71.0557 43.6283 71.0557" stroke="black" stroke-width="0.564931" stroke-linecap="round" stroke-linejoin="round"/>
<path d="M50.9277 78.3252C57.4189 81.8722 63.553 86.0369 69.245 90.7612C69.9972 91.3661 70.6119 92.1246 71.0486 92.9855C71.4852 93.8465 71.7337 94.791 71.7774 95.7552C72.2133 106.132 71.8644 116.527 70.7334 126.851" stroke="black" stroke-width="0.564931" stroke-linecap="round" stroke-linejoin="round"/>
<path d="M51.7725 73.416C52.401 75.3895 52.823 77.4225 53.0319 79.4834" stroke="black" stroke-width="0.564931" stroke-linecap="round" stroke-linejoin="round"/>
<path d="M86.4918 118.911L71.833 97.2432" stroke="black" stroke-width="0.564931" stroke-linecap="round" stroke-linejoin="round"/>
<path d="M52.1445 74.748C59.8348 77.8499 67.3409 81.3901 74.6258 85.3514C75.9108 86.0369 77.1039 86.8835 78.175 87.8702L99.8684 107.694" stroke="black" stroke-width="0.564931" stroke-linecap="round" stroke-linejoin="round"/>
<path d="M27.5733 31.7747C27.5733 31.7747 24.0534 27.0526 24.6545 23.5892C25.2699 20.0407 24.5596 19.9736 23.0087 23.1749C21.982 25.2945 21.6348 30.2441 21.6348 30.2441" stroke="black" stroke-width="0.564931" stroke-linecap="round" stroke-linejoin="round"/>
<path d="M21.9949 35.6091C21.9949 35.6091 18.8418 30.2023 17.1154 26.4949C15.8236 23.7207 17.4875 24.8204 17.9598 25.7507" stroke="black" stroke-width="0.564931" stroke-linecap="round" stroke-linejoin="round"/>
<path d="M20.4616 23.5741C20.2468 22.5382 20.1318 21.4841 20.1182 20.4263C20.1182 17.2491 20.8948 17.4058 21.5779 20.0971C21.8966 21.362 22.2837 22.6087 22.7372 23.8317" stroke="black" stroke-width="0.564931" stroke-linecap="round" stroke-linejoin="round"/>
<path d="M21.0488 23.0303C19.7868 24.416 19.0391 26.1931 18.9307 28.0642" stroke="black" stroke-width="0.564931" stroke-linecap="round" stroke-linejoin="round"/>
<path d="M20.2315 22.0864C19.9453 21.4281 19.6598 20.6553 19.3871 19.8267C18.4298 16.9072 17.8279 17.5512 18.1428 20.2131C18.3696 22.0687 18.8211 23.8899 19.4873 25.6365" stroke="black" stroke-width="0.564931" stroke-linecap="round" stroke-linejoin="round"/>
<path d="M18.443 22.1429C17.4562 18.9514 16.7226 19.5246 17.1271 22.4442C17.4368 24.3953 18.0447 26.2872 18.9296 28.0536" stroke="black" stroke-width="0.564931" stroke-linecap="round" stroke-linejoin="round"/>
<path d="M37.4327 103.64L35.4434 111.353" stroke="black" stroke-width="0.564931" stroke-linecap="round" stroke-linejoin="round"/>
<path d="M40.2962 108.506L32.583 106.502" stroke="black" stroke-width="0.564931" stroke-linecap="round" stroke-linejoin="round"/>
<path d="M72.865 26.2358L65.7529 24.3896L68.4292 14.101L72.6074 12.627L75.5413 15.9608L72.865 26.2358Z" stroke="black" stroke-width="0.564931" stroke-linecap="round" stroke-linejoin="round"/>
<path d="M72.7358 15.5168C72.6935 15.6782 72.6042 15.8233 72.4793 15.934C72.3545 16.0446 72.1996 16.1157 72.0344 16.1384C71.8691 16.1611 71.7008 16.1342 71.5508 16.0613C71.4008 15.9883 71.2758 15.8725 71.1916 15.7285C71.1074 15.5845 71.0677 15.4188 71.0777 15.2522C71.0876 15.0857 71.1467 14.9259 71.2475 14.793C71.3483 14.66 71.4862 14.5599 71.6439 14.5054C71.8015 14.4508 71.9718 14.4442 72.1332 14.4864C72.3473 14.5471 72.5295 14.6883 72.6418 14.8804C72.7542 15.0724 72.7878 15.3005 72.7358 15.5168Z" stroke="black" stroke-width="0.564931" stroke-linecap="round" stroke-linejoin="round"/>
<path d="M72.0576 14.4689C76.6953 11.7632 71.037 7.11647 75.7018 4.41309" stroke="black" stroke-width="0.564931" stroke-linecap="round" stroke-linejoin="round"/>
<path d="M93.886 47.0713L90.2803 53.4106" stroke="black" stroke-width="0.564931" stroke-linecap="round" stroke-linejoin="round"/>
<path d="M95.2611 52.0525L88.9219 48.4316" stroke="black" stroke-width="0.564931" stroke-linecap="round" stroke-linejoin="round"/>
<path d="M20.8115 35.0282C24.4896 42.358 31.839 50.5284 40.4711 57.5938C41.7637 62.0218 42.8196 66.5155 43.6347 71.0557L51.7772 73.4172C53.1454 70.9203 54.3304 68.3274 55.3228 65.6588C57.5071 67.1411 59.8878 68.3115 62.3957 69.1357C63.631 69.5784 64.9765 69.6085 66.2304 69.2216C71.287 67.6847 76.2229 65.7763 80.9985 63.512C80.7386 61.2206 79.8581 59.0435 78.4518 57.2157C74.1719 59.1821 69.67 60.6237 65.0441 61.5092C61.181 60.1267 57.5106 58.2562 54.1221 55.9427C52.9169 55.1496 53.0404 53.4374 53.5948 52.1984C55.0305 52.9011 57.236 53.039 57.3414 47.3565C57.4537 41.6319 53.7191 44.2991 52.8453 46.3336C52.645 46.8014 52.4393 46.9362 52.004 46.1544C51.2334 44.7654 49.443 46.3803 51.2025 48.3727C51.2743 48.604 51.2938 48.8484 51.2598 49.0882C50.6692 52.1984 49.0987 53.9843 46.595 51.8752C39.3239 45.7657 33.5865 40.2693 27.5907 30.3672" stroke="black" stroke-width="0.564931" stroke-linecap="round" stroke-linejoin="round"/>
<path d="M55.3174 65.6611C55.8884 64.1955 56.1289 62.622 56.0217 61.0527" stroke="black" stroke-width="0.564931" stroke-linecap="round" stroke-linejoin="round"/>
</svg>
